<svg width="25" height="24" viewBox="0 0 25 24" fill="none" xmlns="http://www.w3.org/2000/svg">
<path d="M12.295 21.375C10.7532 21.3753 9.23501 20.9954 7.87508 20.2688C6.51514 19.5421 5.35542 18.4913 4.49864 17.2094C3.64187 15.9275 3.11449 14.4541 2.96325 12.9196C2.812 11.3852 3.04154 9.83714 3.63155 8.41261C4.22155 6.98809 5.1538 5.73108 6.3457 4.75294C7.5376 3.77481 8.95235 3.10574 10.4646 2.80503C11.9769 2.50432 13.54 2.58123 15.0154 3.02897C16.4908 3.47671 17.8331 4.28144 18.9232 5.37188C19.028 5.47639 19.1113 5.60058 19.168 5.73733C19.2248 5.87408 19.254 6.02068 19.254 6.16875C19.254 6.31682 19.2248 6.46343 19.168 6.60017C19.1113 6.73692 19.028 6.86111 18.9232 6.96563C18.7097 7.17295 18.4239 7.28892 18.1263 7.28892C17.8287 7.28892 17.5429 7.17295 17.3294 6.96563C16.671 6.30043 15.8868 5.77298 15.0225 5.41404C14.1581 5.05511 13.2309 4.87186 12.295 4.875C10.9341 4.87596 9.60196 5.26664 8.4561 6.00085C7.31024 6.73506 6.39861 7.78208 5.82905 9.01806C5.25949 10.2541 5.05581 11.6273 5.24212 12.9754C5.42842 14.3235 5.99691 15.59 6.88035 16.6252C7.76378 17.6604 8.92521 18.4209 10.2273 18.8168C11.5293 19.2127 12.9175 19.2275 14.2276 18.8593C15.5378 18.4911 16.7151 17.7554 17.6203 16.7392C18.5255 15.723 19.1208 14.4688 19.3357 13.125H12.295C11.9967 13.125 11.7105 13.0065 11.4995 12.7955C11.2886 12.5845 11.17 12.2984 11.17 12C11.17 11.7016 11.2886 11.4155 11.4995 11.2045C11.7105 10.9935 11.9967 10.875 12.295 10.875H20.545C20.8434 10.875 21.1296 10.9935 21.3405 11.2045C21.5515 11.4155 21.67 11.7016 21.67 12C21.6651 14.4849 20.6758 16.8666 18.9187 18.6237C17.1616 20.3807 14.7799 21.37 12.295 21.375Z" fill="black"/>
</svg>
