<svg width="25" height="24" viewBox="0 0 25 24" fill="none" xmlns="http://www.w3.org/2000/svg">
<path d="M17.3451 20.28C16.3651 21.23 15.2951 21.08 14.2651 20.63C13.1751 20.17 12.1751 20.15 11.0251 20.63C9.58505 21.25 8.82506 21.07 7.96506 20.28C3.08506 15.25 3.80506 7.59 9.34506 7.31C10.6951 7.38 11.6351 8.05 12.4251 8.11C13.6051 7.87 14.7351 7.18 15.9951 7.27C17.5051 7.39 18.6451 7.99 19.3951 9.07C16.2751 10.94 17.0151 15.05 19.8751 16.2C19.3051 17.7 18.5651 19.19 17.3351 20.29L17.3451 20.28ZM12.3251 7.25C12.1751 5.02 13.9851 3.18 16.0651 3C16.3551 5.58 13.7251 7.5 12.3251 7.25Z" fill="black"/>
</svg>
