<svg width="23" height="24" viewBox="0 0 23 24" fill="none" xmlns="http://www.w3.org/2000/svg">
<path opacity="0.3" fill-rule="evenodd" clip-rule="evenodd" d="M20.4277 1.79244L18.6455 2.38398V6.18288V9.98183L20.4236 10.5729C21.9383 11.0764 22.2313 11.1607 22.4015 11.1415C22.6384 11.1147 22.7978 11.0063 22.9114 10.7945C22.9906 10.6469 22.9944 10.4347 22.9944 6.17342V1.70717L22.8936 1.55894C22.8381 1.47743 22.7405 1.37207 22.6767 1.32486C22.4285 1.14104 22.3258 1.16238 20.4277 1.79244Z" fill="#2C2B46"/>
<path fill-rule="evenodd" clip-rule="evenodd" d="M4.79579 0.642742C4.32409 0.725326 3.60083 0.965324 3.17024 1.18219C2.12165 1.7102 1.12597 2.70288 0.610514 3.73411C-0.434664 5.82518 -0.00281771 8.41616 1.67058 10.0947C2.67222 11.0994 3.92646 11.6759 5.3395 11.7808C6.14536 11.8407 5.64312 11.9183 14.1618 10.4167C15.777 10.1319 17.1438 9.88847 17.1993 9.8756L17.3002 9.85229V6.17673C17.3002 4.15515 17.2842 2.50117 17.2647 2.50117C17.2451 2.50117 14.8291 2.07574 11.8958 1.55579C6.74936 0.643593 6.53805 0.609833 5.86747 0.593603C5.38702 0.581946 5.05623 0.597145 4.79579 0.642742ZM6.16185 4.11879C6.55069 4.18958 6.97151 4.41259 7.25706 4.69921C8.0882 5.53336 8.08991 6.83171 7.26092 7.6607C6.42723 8.49439 5.12837 8.49439 4.29468 7.6607C3.76281 7.12883 3.56545 6.42744 3.73968 5.6883C3.91982 4.92406 4.55234 4.30512 5.32946 4.1326C5.64697 4.06212 5.83361 4.05903 6.16185 4.11879ZM5.53587 5.46194C5.36779 5.51224 5.15554 5.7131 5.07735 5.89593C4.87331 6.37279 5.2471 6.93703 5.76839 6.93905C6.25363 6.94089 6.61114 6.50371 6.5203 6.01959C6.48035 5.80662 6.21696 5.51919 6.00879 5.46135C5.81784 5.40831 5.71463 5.40845 5.53587 5.46194ZM7.88501 12.8775L5.53121 13.2913L5.54556 13.3996C5.62102 13.9705 6.3406 17.9558 6.39992 18.1316C6.51842 18.4827 6.75913 18.8495 7.04589 19.116C7.32974 19.3797 7.84026 19.6502 8.14666 19.6992C8.36451 19.734 8.35873 19.7247 8.51045 20.278C8.8411 21.4835 9.8001 22.5589 10.9685 23.0342C11.5676 23.2778 11.838 23.3252 12.615 23.3224C13.2606 23.32 13.3718 23.3077 13.7261 23.1997C15.2334 22.7402 16.3046 21.6309 16.7247 20.0945C16.8129 19.7718 16.824 19.5929 16.848 18.1035C16.874 16.4869 16.8755 16.465 16.9794 16.298C17.1187 16.074 17.3219 15.9245 17.5812 15.8551C17.9627 15.7531 18.3808 15.9335 18.6074 16.298L18.7125 16.4671L18.7349 19.6987L18.7573 22.9303L18.8801 23.0912C19.0246 23.2807 19.2539 23.3695 19.5097 23.3352C19.7308 23.3055 19.8869 23.1949 19.997 22.9897C20.0755 22.8433 20.0799 22.6651 20.0799 19.6868C20.0799 17.5617 20.0638 16.4615 20.0304 16.3011C19.9419 15.8766 19.7337 15.5072 19.3891 15.1633C18.8085 14.5837 18.0662 14.3614 17.3081 14.5401C16.5274 14.7242 15.9108 15.2699 15.6298 16.0255C15.5384 16.2714 15.5307 16.3906 15.5054 17.9466C15.4799 19.5089 15.4725 19.6237 15.3766 19.9193C15.0752 20.8481 14.3895 21.5467 13.4568 21.8751C13.0497 22.0185 12.3901 22.0386 11.9281 21.9218C10.8728 21.6549 10.0986 20.9209 9.79549 19.8999C9.69578 19.5639 9.69874 19.5525 9.91376 19.443C10.0186 19.3896 10.2474 19.2026 10.4223 19.0274C10.8043 18.6447 11.0031 18.2616 11.096 17.7296C11.1733 17.2866 11.1832 17.366 10.7088 14.618C10.5119 13.4777 10.3509 12.5244 10.3509 12.4995C10.3509 12.4398 10.5462 12.4098 7.88501 12.8775Z" fill="#2C2B46"/>
</svg>
