<svg width="26" height="27" viewBox="0 0 26 27" fill="none" xmlns="http://www.w3.org/2000/svg">
<path opacity="0.3" fill-rule="evenodd" clip-rule="evenodd" d="M10.2786 18.3409C9.92614 18.5272 9.90688 18.5962 9.87551 19.7858C9.84459 20.9595 9.8116 21.1068 9.50822 21.4265C9.30295 21.6429 8.89628 21.8374 8.64758 21.838C8.24881 21.839 7.88887 22.1169 7.82156 22.4757C7.77235 22.7381 7.91826 23.0787 8.14618 23.2336C8.482 23.4618 9.26048 23.3757 9.90359 23.0393C10.278 22.8433 10.818 22.3151 11.0351 21.9324C11.3229 21.4249 11.3987 20.9951 11.3987 19.8698C11.3987 18.9742 11.3888 18.8597 11.2943 18.6645C11.2185 18.5079 11.1308 18.4203 10.9742 18.3444C10.7091 18.2161 10.5167 18.2151 10.2786 18.3409ZM12.6457 18.3549C12.2589 18.5766 12.2603 18.5681 12.2604 20.7987C12.2605 23.0038 12.2615 23.0112 12.6099 23.2439C12.9708 23.485 13.4954 23.3437 13.692 22.9525C13.7719 22.7936 13.7806 22.5801 13.7807 20.7987C13.7808 18.9704 13.7737 18.808 13.6868 18.6447C13.5726 18.4301 13.2611 18.2417 13.0205 18.2417C12.923 18.2417 12.7543 18.2926 12.6457 18.3549ZM15.0631 18.3454C14.9111 18.4207 14.8205 18.5122 14.7463 18.6655C14.6524 18.8595 14.6424 18.9756 14.6424 19.8698C14.6424 20.9951 14.7182 21.4249 15.006 21.9324C15.2231 22.3151 15.7631 22.8433 16.1375 23.0393C16.7806 23.3757 17.5591 23.4618 17.8949 23.2336C18.1228 23.0787 18.2687 22.7381 18.2195 22.4757C18.1522 22.1169 17.7923 21.839 17.3935 21.838C17.1448 21.8374 16.7381 21.6429 16.5329 21.4265C16.2295 21.1068 16.1965 20.9595 16.1656 19.7858C16.1341 18.59 16.1151 18.5239 15.7517 18.3385C15.5045 18.2124 15.3283 18.2142 15.0631 18.3454Z" fill="#2C2B46"/>
<path fill-rule="evenodd" clip-rule="evenodd" d="M2.53775 3.6668C2.3893 3.70274 2.07253 3.82888 1.83382 3.94718C1.07648 4.32248 0.503108 4.99432 0.18979 5.87356L0.0724099 6.20299L0.0570025 10.3402C0.0396185 14.9962 0.032827 14.8928 0.407014 15.6552C0.800359 16.4567 1.59379 17.1091 2.4782 17.3583C2.64332 17.4048 3.07199 17.4484 3.52985 17.4651L4.30276 17.4934L4.30352 16.3842C4.30438 15.1209 4.34913 14.84 4.64588 14.2361C4.91936 13.6796 5.50129 13.105 6.07664 12.8234C6.84321 12.4481 6.53577 12.464 13.0201 12.464C19.5044 12.464 19.197 12.4481 19.9636 12.8234C20.5389 13.105 21.1209 13.6796 21.3943 14.2361C21.6911 14.84 21.7358 15.1209 21.7367 16.3842L21.7375 17.4934L22.5104 17.4651C22.9682 17.4484 23.3969 17.4048 23.562 17.3583C24.4464 17.1091 25.2399 16.4567 25.6332 15.6552C26.0074 14.8928 26.0006 14.9962 25.9832 10.3402L25.9678 6.20299L25.8504 5.87356C25.5279 4.96858 24.957 4.31133 24.1618 3.92979C23.9016 3.80491 23.5678 3.67805 23.4202 3.6478C22.9983 3.56149 2.89739 3.57978 2.53775 3.6668ZM18.5252 6.61159C18.8871 6.88219 18.988 7.27259 18.7865 7.6221C18.5917 7.96005 18.4345 8.00819 17.5815 7.99137C16.9389 7.9787 16.8297 7.96415 16.7121 7.87551C16.3522 7.60431 16.2936 7.1207 16.577 6.7604C16.7665 6.5194 16.9295 6.48053 17.692 6.49447C18.3016 6.50557 18.4023 6.51971 18.5252 6.61159ZM22.1419 6.57054C22.2389 6.61925 22.372 6.73896 22.4378 6.83652C22.6008 7.07843 22.5782 7.5295 22.3931 7.72757C22.1637 7.97317 22.0472 8.00221 21.2914 8.00221C20.6432 8.00221 20.573 7.99299 20.4145 7.88717C19.9285 7.56244 19.9712 6.84179 20.4919 6.58407C20.7772 6.44287 21.8699 6.4339 22.1419 6.57054ZM7.19727 14.0375C6.7019 14.1348 6.17521 14.5536 5.96539 15.017C5.85693 15.2566 5.8474 15.3541 5.83235 16.3775L5.81613 17.4798H13.0201H20.2241L20.2079 16.3775C20.1928 15.3541 20.1833 15.2566 20.0748 15.017C19.9412 14.7218 19.5769 14.3438 19.2782 14.1905C19.166 14.1329 18.952 14.0626 18.8024 14.0343C18.4661 13.9705 7.52296 13.9735 7.19727 14.0375Z" fill="#2C2B46"/>
</svg>
