<svg width="22" height="23" viewBox="0 0 22 23" fill="none" xmlns="http://www.w3.org/2000/svg">
<path opacity="0.3" fill-rule="evenodd" clip-rule="evenodd" d="M9.28373 4.93602C8.92264 5.02638 8.65233 5.18068 8.38006 5.45193C8.09963 5.73133 7.93011 6.03898 7.85202 6.41032C7.82307 6.54781 7.8042 7.13654 7.8042 7.90058V9.16358H14.8802H21.9562V7.90058C21.9562 7.12123 21.9376 6.55056 21.9076 6.41032C21.7495 5.67167 21.1556 5.07737 20.421 4.9229C20.0772 4.85055 9.57574 4.86295 9.28373 4.93602ZM16.4681 6.46239C16.6584 6.55948 16.81 6.80654 16.81 7.01933C16.81 7.3471 16.493 7.66261 16.1636 7.66261C15.9641 7.66261 15.6992 7.49583 15.6048 7.31087C15.4465 7.00042 15.5459 6.6615 15.8491 6.47791C16.0545 6.35363 16.2455 6.34883 16.4681 6.46239ZM19.0412 6.46239C19.2315 6.55948 19.3831 6.80654 19.3831 7.01933C19.3831 7.3471 19.0661 7.66261 18.7367 7.66261C18.5372 7.66261 18.2723 7.49583 18.1779 7.31087C18.0196 7.00042 18.119 6.6615 18.4222 6.47791C18.6276 6.35363 18.8186 6.34883 19.0412 6.46239Z" fill="#2C2B46"/>
<path fill-rule="evenodd" clip-rule="evenodd" d="M1.47953 0.561432C1.11844 0.65179 0.848136 0.806091 0.575859 1.07734C0.295434 1.35673 0.12591 1.66439 0.0478163 2.03573C0.0153095 2.19029 0 3.21618 0 5.24139V8.21979H3.25926H6.51852V7.36029C6.51852 6.40996 6.57045 6.03965 6.77094 5.56011C7.0813 4.81781 7.73341 4.16476 8.48175 3.84685C9.04951 3.60567 9.24386 3.58821 11.3627 3.58821H13.2943V2.9256C13.2943 2.56116 13.2725 2.16074 13.2457 2.03573C13.0876 1.29708 12.4937 0.702781 11.7591 0.548309C11.4159 0.47609 1.77128 0.488441 1.47953 0.561432ZM3.51768 4.01762C3.62666 4.0732 3.71775 4.16429 3.77332 4.27326C3.85245 4.42841 3.85965 4.52491 3.85965 5.43227C3.85965 6.33963 3.85245 6.43612 3.77332 6.59128C3.67572 6.78259 3.42891 6.93324 3.2132 6.93324C3.01374 6.93324 2.7488 6.76646 2.65445 6.5815C2.58129 6.43809 2.57327 6.32144 2.5749 5.42326C2.57692 4.2914 2.59416 4.21751 2.89873 4.03314C3.10406 3.90886 3.29507 3.90406 3.51768 4.01762ZM0 15.1007C0 19.1091 0.0138104 20.7595 0.048633 20.9224C0.206321 21.6591 0.798473 22.2513 1.53524 22.409C1.691 22.4423 2.61161 22.4576 4.46163 22.4576H7.16072L7.01165 22.2246C6.85894 21.9858 6.7323 21.7003 6.61102 21.3212C6.54987 21.1298 6.54103 20.481 6.52945 15.3065L6.51642 9.50634H3.25823H0V15.1007ZM7.80507 15.5725C7.80507 19.2292 7.81901 20.7601 7.8537 20.9224C8.01139 21.6591 8.60354 22.2513 9.34031 22.409C9.65916 22.4772 20.0981 22.4779 20.4219 22.4097C21.1496 22.2565 21.7574 21.6488 21.9095 20.9224C21.9428 20.7632 21.9571 19.1598 21.9571 15.5725V10.4498H14.8811H7.80507V15.5725ZM3.51768 10.8792C3.62666 10.9348 3.71775 11.0259 3.77332 11.1349C3.85588 11.2967 3.85965 11.3846 3.85965 13.1516C3.85965 14.9185 3.85588 15.0064 3.77332 15.1683C3.67572 15.3596 3.42891 15.5102 3.2132 15.5102C3.01374 15.5102 2.7488 15.3435 2.65445 15.1585C2.5782 15.009 2.57323 14.8827 2.5749 13.1426C2.57692 11.0531 2.57117 11.093 2.89873 10.8947C3.10406 10.7705 3.29507 10.7657 3.51768 10.8792ZM15.8889 11.8622C17.3179 12.2349 18.4378 13.3614 18.8332 14.8241C18.9148 15.1256 18.9318 15.296 18.9318 15.8104C18.9318 16.3248 18.9148 16.4952 18.8332 16.7968C18.4381 18.2584 17.3336 19.3707 15.8889 19.7622C15.3812 19.8997 14.406 19.8995 13.8947 19.7617C12.4294 19.3667 11.3279 18.2707 10.9272 16.809C10.7953 16.3278 10.7953 15.293 10.9272 14.8119C11.3703 13.1953 12.6723 12.0342 14.345 11.7642C14.6423 11.7162 15.5503 11.7738 15.8889 11.8622ZM14.2807 13.0896C13.5109 13.2549 12.7501 13.8523 12.3996 14.5668C12.1982 14.9771 12.0951 15.3984 12.0951 15.8104C12.0951 16.8357 12.7205 17.8421 13.6374 18.292C14.4632 18.6972 15.299 18.6972 16.1248 18.292C16.8487 17.9368 17.4395 17.1769 17.6043 16.3894C17.7355 15.7622 17.6564 15.1654 17.3626 14.5668C17.1117 14.0553 16.6362 13.5799 16.1248 13.3289C15.5283 13.0362 14.9055 12.9554 14.2807 13.0896Z" fill="#2C2B46"/>
</svg>
