<svg width="518" height="124" viewBox="0 0 518 124" fill="none" xmlns="http://www.w3.org/2000/svg">
<rect width="518" height="124" fill="#1E1E1E"/>
<path fill-rule="evenodd" clip-rule="evenodd" d="M353.057 61.3323C352.475 64.6617 349.303 66.8886 345.974 66.3062L345.974 66.3062L342.224 87.7408C345.554 88.3232 347.78 91.4943 347.198 94.8238L420.21 107.596C420.792 104.266 423.963 102.039 427.292 102.622L431.042 81.187C427.713 80.6044 425.486 77.4334 426.068 74.1041L353.057 61.3323Z" fill="#B5EBCD"/>
<path d="M354.325 83.3604L356.2 72.6431L357.817 72.926L357.002 77.5834L362.345 78.518L363.16 73.8606L364.782 74.1444L362.908 84.8617L361.285 84.5779L362.103 79.9048L356.76 78.9702L355.942 83.6433L354.325 83.3604ZM367.445 85.8387C366.936 85.7496 366.492 85.5749 366.113 85.3145C365.735 85.0506 365.457 84.7162 365.28 84.3113C365.106 83.9069 365.065 83.4414 365.157 82.9146C365.237 82.461 365.389 82.103 365.615 81.8405C365.841 81.5779 366.117 81.3871 366.443 81.2681C366.77 81.149 367.124 81.0779 367.505 81.0547C367.887 81.0316 368.272 81.0306 368.66 81.0518C369.151 81.0802 369.55 81.1032 369.856 81.1208C370.163 81.1349 370.391 81.112 370.542 81.0521C370.693 80.9921 370.785 80.868 370.817 80.6796L370.824 80.6429C370.904 80.1859 370.837 79.8092 370.622 79.5129C370.412 79.2172 370.053 79.025 369.548 78.9366C369.021 78.8444 368.585 78.8887 368.241 79.0693C367.9 79.2471 367.648 79.4672 367.483 79.7296L366.072 79.1375C366.331 78.6796 366.655 78.3299 367.042 78.0885C367.434 77.8441 367.861 77.6924 368.325 77.6332C368.789 77.5706 369.263 77.5817 369.748 77.6665C370.069 77.7226 370.403 77.8205 370.748 77.9601C371.098 78.0969 371.413 78.2921 371.692 78.5459C371.975 78.8003 372.185 79.1301 372.323 79.5353C372.461 79.937 372.479 80.4309 372.376 81.017L371.443 86.3547L369.915 86.0874L370.107 84.9885L370.044 84.9775C369.907 85.1621 369.721 85.3344 369.484 85.4944C369.248 85.6544 368.96 85.7711 368.62 85.8447C368.28 85.9182 367.888 85.9162 367.445 85.8387ZM368.005 84.6423C368.437 84.718 368.822 84.6972 369.159 84.58C369.499 84.4633 369.774 84.2812 369.983 84.0337C370.195 83.7833 370.33 83.4994 370.385 83.1819L370.566 82.1457C370.501 82.1918 370.383 82.2252 370.214 82.246C370.05 82.2639 369.863 82.2726 369.654 82.272C369.447 82.2681 369.244 82.2632 369.048 82.2576C368.851 82.2484 368.687 82.2413 368.555 82.2361C368.245 82.2214 367.956 82.2375 367.689 82.2842C367.426 82.3316 367.204 82.4276 367.024 82.5723C366.848 82.7142 366.736 82.9246 366.687 83.2037C366.619 83.591 366.711 83.909 366.962 84.1579C367.214 84.4033 367.562 84.5648 368.005 84.6423ZM373.527 86.7193L374.933 78.6813L376.497 78.955L375.091 86.993L373.527 86.7193ZM375.94 77.5793C375.668 77.5317 375.45 77.4001 375.286 77.1845C375.127 76.9661 375.069 76.7295 375.114 76.4748C375.159 76.2166 375.293 76.0136 375.517 75.8658C375.745 75.7151 375.995 75.6635 376.267 75.7111C376.539 75.7587 376.755 75.8917 376.914 76.1102C377.078 76.3258 377.137 76.5627 377.092 76.8208C377.047 77.0755 376.911 77.2782 376.684 77.4289C376.46 77.5768 376.212 77.6269 375.94 77.5793ZM377.196 87.3612L378.602 79.3232L380.115 79.5878L379.891 80.8646L379.975 80.8793C380.197 80.4723 380.515 80.1773 380.928 79.9943C381.345 79.8084 381.79 79.7567 382.26 79.8391C382.358 79.8562 382.473 79.8798 382.604 79.91C382.739 79.9407 382.844 79.9681 382.919 79.992L382.657 81.4886C382.597 81.4602 382.489 81.4215 382.332 81.3725C382.176 81.32 382.017 81.2797 381.857 81.2516C381.487 81.1869 381.144 81.2078 380.827 81.3141C380.514 81.4176 380.25 81.5924 380.034 81.8388C379.819 82.0816 379.681 82.3774 379.62 82.7263L378.761 87.6349L377.196 87.3612ZM394.105 82.1753C394.136 81.6701 393.973 81.2461 393.616 80.9032C393.259 80.5568 392.774 80.3299 392.16 80.2225C391.72 80.1456 391.328 80.1489 390.983 80.2323C390.638 80.3122 390.355 80.4569 390.135 80.6665C389.919 80.8732 389.785 81.1284 389.732 81.4319C389.687 81.6865 389.708 81.9167 389.794 82.1224C389.884 82.3286 390.016 82.5116 390.189 82.6714C390.367 82.8283 390.561 82.9684 390.774 83.0918C390.986 83.2117 391.193 83.3162 391.393 83.4051L392.392 83.8603C392.719 84.0038 393.05 84.1786 393.384 84.3845C393.719 84.5903 394.019 84.837 394.285 85.1245C394.551 85.4119 394.748 85.7448 394.876 86.1231C395.008 86.5021 395.031 86.9323 394.947 87.4137C394.841 88.0207 394.589 88.5323 394.193 88.9483C393.8 89.365 393.283 89.6575 392.643 89.8259C392.006 89.9949 391.268 90.0061 390.431 89.8597C389.629 89.7193 388.957 89.4705 388.415 89.1133C387.874 88.7561 387.478 88.3148 387.228 87.7893C386.979 87.2604 386.894 86.6701 386.972 86.0186L388.594 86.3024C388.558 86.6951 388.627 87.0398 388.801 87.3364C388.98 87.6302 389.231 87.87 389.555 88.056C389.882 88.2392 390.253 88.3671 390.669 88.4397C391.126 88.5196 391.545 88.5192 391.925 88.4384C392.31 88.3547 392.628 88.2018 392.879 87.9797C393.131 87.754 393.287 87.4668 393.348 87.1179C393.404 86.8004 393.359 86.5247 393.213 86.2906C393.07 86.0571 392.857 85.8472 392.573 85.661C392.293 85.4753 391.97 85.2983 391.604 85.13L390.398 84.5631C389.58 84.1792 388.96 83.7166 388.537 83.1752C388.117 82.6344 387.973 81.9907 388.104 81.2441C388.212 80.6266 388.473 80.1169 388.889 79.715C389.304 79.3131 389.82 79.0348 390.437 78.8802C391.054 78.7221 391.722 78.706 392.441 78.8317C393.167 78.9586 393.785 79.1979 394.295 79.5496C394.808 79.902 395.187 80.3295 395.429 80.8322C395.673 81.3314 395.751 81.87 395.665 82.4481L394.105 82.1753ZM401.394 83.3101L401.174 84.566L396.783 83.798L397.003 82.542L401.394 83.3101ZM398.517 80.8222L400.082 81.0959L398.752 88.6996C398.699 89.0031 398.704 89.2395 398.768 89.4089C398.833 89.5748 398.932 89.6981 399.065 89.779C399.202 89.8569 399.356 89.9109 399.527 89.9408C399.653 89.9627 399.764 89.9732 399.862 89.9723C399.959 89.9713 400.034 89.9702 400.089 89.9688L400.145 91.3108C400.048 91.3299 399.913 91.3422 399.74 91.3478C399.565 91.3568 399.352 91.3412 399.101 91.3007C398.688 91.2357 398.317 91.0953 397.988 90.8795C397.659 90.6638 397.412 90.3762 397.249 90.0168C397.085 89.6574 397.046 89.2352 397.131 88.7503L398.517 80.8222ZM402.18 94.838C401.946 94.7971 401.737 94.7407 401.552 94.6688C401.366 94.6003 401.23 94.5369 401.143 94.4786L401.744 93.2624C402.017 93.3892 402.265 93.4669 402.491 93.4955C402.716 93.5241 402.927 93.4748 403.126 93.3477C403.328 93.2213 403.526 92.9917 403.721 92.659L404.008 92.1591L402.491 83.5021L404.166 83.795L405.11 90.3889L405.194 90.4035L408.321 84.5218L410.001 84.8157L405.094 93.3469C404.868 93.7387 404.61 94.0587 404.323 94.3067C404.034 94.5583 403.713 94.7286 403.359 94.8178C403.006 94.9069 402.613 94.9137 402.18 94.838ZM413.505 82.6673L411.63 93.3846L410.065 93.1108L411.94 82.3936L413.505 82.6673ZM417.171 94.521C416.379 94.3825 415.726 94.094 415.213 93.6555C414.704 93.2141 414.349 92.6575 414.146 91.9857C413.948 91.311 413.922 90.5568 414.068 89.723C414.212 88.8996 414.492 88.2008 414.909 87.6266C415.329 87.0529 415.848 86.6384 416.464 86.3831C417.084 86.1284 417.767 86.0663 418.514 86.1969C418.967 86.2763 419.394 86.4282 419.793 86.6526C420.192 86.8771 420.533 87.1794 420.815 87.5596C421.098 87.9397 421.292 88.4033 421.397 88.9503C421.503 89.4939 421.493 90.1302 421.365 90.8593L421.268 91.414L414.879 90.2963L415.084 89.1241L419.94 89.9736C420.012 89.562 419.992 89.1827 419.88 88.836C419.769 88.4857 419.578 88.1916 419.306 87.9536C419.039 87.7162 418.703 87.5621 418.298 87.4913C417.858 87.4144 417.456 87.4555 417.09 87.6144C416.728 87.7705 416.428 88.0056 416.19 88.3199C415.956 88.6312 415.803 88.9875 415.733 89.3887L415.573 90.3045C415.479 90.8418 415.493 91.3153 415.616 91.725C415.742 92.1353 415.958 92.4698 416.265 92.7285C416.573 92.9837 416.955 93.1512 417.412 93.2312C417.709 93.2831 417.987 93.2885 418.246 93.2475C418.505 93.203 418.739 93.1108 418.947 92.971C419.154 92.8312 419.327 92.6439 419.465 92.4092L420.9 92.9352C420.705 93.3505 420.425 93.6953 420.061 93.9695C419.701 94.2409 419.274 94.427 418.782 94.5278C418.294 94.6258 417.757 94.6235 417.171 94.521Z" fill="#678593"/>
<path fill-rule="evenodd" clip-rule="evenodd" d="M438.125 76.2131C437.543 79.5424 434.371 81.7693 431.042 81.187L427.293 102.622C430.622 103.204 432.849 106.375 432.267 109.705L505.278 122.476C505.86 119.147 509.031 116.92 512.36 117.502L512.361 117.502L516.11 96.0679L516.11 96.0678C512.781 95.4854 510.554 92.3143 511.136 88.9848L438.125 76.2131Z" fill="#B5EBCD"/>
<path d="M445.984 88.3489L447.946 88.6921L449.901 97.62L450.027 97.6419L454.896 89.9078L456.858 90.2511L454.984 100.968L453.445 100.699L454.802 92.9438L454.702 92.9265L450.188 100.113L448.911 99.8899L447.105 91.592L447.005 91.5747L445.648 99.3353L444.109 99.0661L445.984 88.3489ZM459.517 101.945C459.008 101.856 458.564 101.681 458.185 101.42C457.807 101.157 457.529 100.822 457.352 100.417C457.178 100.013 457.137 99.5474 457.229 99.0206C457.309 98.567 457.461 98.209 457.687 97.9465C457.913 97.6839 458.189 97.4931 458.515 97.3741C458.842 97.255 459.196 97.1839 459.577 97.1607C459.959 97.1376 460.344 97.1366 460.732 97.1578C461.223 97.1862 461.622 97.2092 461.928 97.2268C462.235 97.2409 462.463 97.218 462.614 97.158C462.765 97.0981 462.857 96.974 462.89 96.7856L462.896 96.7489C462.976 96.2919 462.909 95.9152 462.695 95.6189C462.484 95.3231 462.125 95.131 461.62 95.0425C461.093 94.9504 460.657 94.9946 460.313 95.1753C459.973 95.3531 459.72 95.5732 459.556 95.8356L458.144 95.2435C458.404 94.7856 458.727 94.4359 459.115 94.1945C459.506 93.9501 459.933 93.7984 460.397 93.7392C460.861 93.6766 461.335 93.6877 461.82 93.7725C462.141 93.8286 462.475 93.9265 462.821 94.0661C463.171 94.2029 463.485 94.3981 463.764 94.6519C464.047 94.9063 464.257 95.2361 464.395 95.6413C464.533 96.043 464.551 96.5369 464.448 97.123L463.515 102.461L461.987 102.193L462.179 101.094L462.116 101.083C461.98 101.268 461.793 101.44 461.556 101.6C461.32 101.76 461.032 101.877 460.692 101.951C460.352 102.024 459.96 102.022 459.517 101.945ZM460.077 100.748C460.509 100.824 460.894 100.803 461.231 100.686C461.571 100.569 461.846 100.387 462.055 100.14C462.267 99.8893 462.402 99.6053 462.457 99.2879L462.638 98.2517C462.573 98.2978 462.456 98.3312 462.287 98.352C462.122 98.3699 461.935 98.3785 461.726 98.378C461.519 98.374 461.316 98.3692 461.12 98.3636C460.923 98.3544 460.759 98.3473 460.627 98.3421C460.317 98.3274 460.028 98.3434 459.761 98.3902C459.498 98.4376 459.276 98.5336 459.096 98.6783C458.92 98.8202 458.808 99.0306 458.759 99.3097C458.691 99.697 458.783 100.015 459.034 100.264C459.286 100.509 459.634 100.671 460.077 100.748ZM467.515 100.351L467.838 98.4387L468.111 98.4863L471.908 95.645L473.782 95.9727L469.452 99.2062L469.206 99.1632L467.515 100.351ZM465.599 102.825L467.474 92.108L469.038 92.3817L467.163 103.099L465.599 102.825ZM470.675 103.713L468.465 99.3896L469.734 98.4845L472.595 104.049L470.675 103.713ZM476.906 104.97C476.115 104.832 475.462 104.543 474.949 104.105C474.44 103.664 474.085 103.107 473.882 102.435C473.684 101.76 473.658 101.006 473.803 100.172C473.947 99.3491 474.228 98.6503 474.645 98.076C475.065 97.5024 475.583 97.0879 476.2 96.8326C476.82 96.5779 477.503 96.5158 478.249 96.6464C478.703 96.7257 479.129 96.8776 479.529 97.1021C479.928 97.3266 480.269 97.6289 480.551 98.009C480.833 98.3892 481.027 98.8528 481.133 99.3998C481.239 99.9433 481.229 100.58 481.101 101.309L481.004 101.863L474.615 100.746L474.82 99.5736L479.676 100.423C479.748 100.011 479.728 99.6322 479.616 99.2854C479.505 98.9352 479.313 98.6411 479.042 98.4031C478.775 98.1657 478.438 98.0116 478.034 97.9408C477.594 97.8639 477.191 97.9049 476.826 98.0639C476.464 98.2199 476.164 98.4551 475.926 98.7693C475.691 99.0807 475.539 99.437 475.469 99.8382L475.309 100.754C475.215 101.291 475.229 101.765 475.352 102.174C475.478 102.585 475.694 102.919 476.001 103.178C476.309 103.433 476.691 103.601 477.148 103.681C477.445 103.733 477.723 103.738 477.981 103.697C478.241 103.652 478.474 103.56 478.682 103.42C478.89 103.281 479.063 103.093 479.201 102.859L480.636 103.385C480.441 103.8 480.161 104.145 479.797 104.419C479.436 104.69 479.01 104.876 478.518 104.977C478.03 105.075 477.493 105.073 476.906 104.97ZM487.794 103.272L488.617 98.5679L490.187 98.8425L488.781 106.88L487.243 106.611L487.486 105.219L487.402 105.205C487.142 105.601 486.783 105.907 486.325 106.122C485.871 106.334 485.342 106.387 484.739 106.281C484.222 106.191 483.785 105.998 483.427 105.701C483.073 105.402 482.822 105.008 482.674 104.518C482.53 104.029 482.515 103.453 482.631 102.79L483.526 97.6772L485.09 97.9509L484.229 102.875C484.133 103.423 484.209 103.886 484.455 104.263C484.702 104.641 485.068 104.872 485.553 104.957C485.846 105.008 486.15 104.986 486.465 104.89C486.784 104.795 487.065 104.615 487.309 104.352C487.556 104.09 487.718 103.73 487.794 103.272ZM490.356 110.262L492.29 99.2103L493.818 99.4776L493.59 100.781L493.721 100.804C493.841 100.652 494.005 100.481 494.215 100.291C494.424 100.101 494.695 99.951 495.027 99.8402C495.36 99.7258 495.776 99.7123 496.275 99.7995C496.923 99.913 497.474 100.178 497.926 100.595C498.378 101.012 498.695 101.555 498.876 102.223C499.061 102.892 499.078 103.661 498.926 104.529C498.774 105.398 498.499 106.117 498.101 106.688C497.703 107.255 497.222 107.661 496.658 107.908C496.094 108.151 495.487 108.215 494.838 108.102C494.35 108.016 493.965 107.865 493.683 107.646C493.405 107.429 493.198 107.195 493.062 106.944C492.926 106.694 492.825 106.475 492.761 106.288L492.667 106.271L491.921 110.536L490.356 110.262ZM493.12 103.497C493.021 104.063 493.016 104.572 493.106 105.027C493.195 105.481 493.374 105.856 493.643 106.151C493.912 106.442 494.271 106.627 494.721 106.706C495.189 106.788 495.601 106.732 495.958 106.54C496.316 106.343 496.613 106.045 496.849 105.644C497.088 105.243 497.254 104.774 497.348 104.237C497.441 103.707 497.444 103.217 497.357 102.766C497.274 102.317 497.095 101.942 496.82 101.642C496.549 101.343 496.178 101.153 495.707 101.07C495.254 100.991 494.849 101.041 494.495 101.219C494.143 101.399 493.851 101.684 493.617 102.074C493.383 102.465 493.217 102.939 493.12 103.497Z" fill="#678593"/>
<path fill-rule="evenodd" clip-rule="evenodd" d="M267.988 46.4514C267.406 49.7808 264.235 52.0076 260.905 51.4253L257.156 72.8598C260.485 73.4422 262.712 76.6134 262.13 79.9428L335.141 92.7146C335.724 89.3852 338.895 87.1583 342.224 87.7407L345.974 66.3062L345.974 66.3062C342.644 65.7238 340.417 62.5526 341 59.2232L267.988 46.4514L267.988 46.4514Z" fill="#B5EBCD"/>
<path d="M275.848 58.5871L277.81 58.9304L279.765 67.8583L279.89 67.8802L284.76 60.1461L286.722 60.4894L284.847 71.2066L283.309 70.9375L284.665 63.1821L284.566 63.1647L280.051 70.3515L278.775 70.1281L276.969 61.8303L276.869 61.8129L275.512 69.5735L273.973 69.3044L275.848 58.5871ZM289.381 72.183C288.871 72.0939 288.427 71.9192 288.049 71.6588C287.671 71.3949 287.393 71.0605 287.216 70.6555C287.042 70.2512 287.001 69.7856 287.093 69.2588C287.173 68.8053 287.325 68.4473 287.551 68.1847C287.776 67.9222 288.053 67.7314 288.379 67.6123C288.705 67.4933 289.059 67.4222 289.441 67.399C289.823 67.3759 290.207 67.3749 290.596 67.3961C291.087 67.4245 291.486 67.4475 291.792 67.465C292.098 67.4792 292.327 67.4562 292.478 67.3963C292.629 67.3364 292.72 67.2122 292.753 67.0238L292.76 66.9872C292.84 66.5302 292.773 66.1535 292.558 65.8572C292.348 65.5614 291.989 65.3693 291.483 65.2808C290.957 65.1887 290.521 65.2329 290.177 65.4136C289.836 65.5913 289.584 65.8115 289.419 66.0739L288.007 65.4818C288.267 65.0239 288.591 64.6742 288.978 64.4327C289.37 64.1884 289.797 64.0367 290.261 63.9775C290.725 63.9149 291.199 63.9259 291.684 64.0108C292.005 64.0669 292.338 64.1648 292.684 64.3044C293.034 64.4411 293.349 64.6364 293.628 64.8902C293.911 65.1446 294.121 65.4744 294.259 65.8795C294.397 66.2813 294.415 66.7752 294.312 67.3613L293.379 72.699L291.85 72.4317L292.043 71.3327L291.98 71.3217C291.843 71.5064 291.657 71.6787 291.42 71.8387C291.184 71.9986 290.895 72.1154 290.555 72.1889C290.215 72.2625 289.824 72.2605 289.381 72.183ZM289.941 70.9866C290.373 71.0623 290.758 71.0415 291.095 70.9242C291.435 70.8076 291.71 70.6255 291.918 70.378C292.131 70.1276 292.265 69.8436 292.321 69.5262L292.502 68.49C292.437 68.5361 292.319 68.5695 292.15 68.5902C291.985 68.6081 291.799 68.6168 291.59 68.6163C291.382 68.6123 291.18 68.6075 290.983 68.6018C290.787 68.5927 290.623 68.5856 290.491 68.5804C290.181 68.5657 289.892 68.5817 289.625 68.6285C289.361 68.6759 289.14 68.7719 288.96 68.9166C288.784 69.0584 288.672 69.2689 288.623 69.548C288.555 69.9352 288.647 70.2533 288.898 70.5022C289.15 70.7476 289.498 70.9091 289.941 70.9866ZM297.379 70.5888L297.702 68.677L297.974 68.7246L301.772 65.8833L303.645 66.211L299.315 69.4445L299.069 69.4015L297.379 70.5888ZM295.463 73.0635L297.337 62.3463L298.902 62.62L297.027 73.3372L295.463 73.0635ZM300.539 73.9515L298.329 69.6279L299.598 68.7227L302.459 74.2874L300.539 73.9515ZM306.77 75.2087C305.978 75.0702 305.326 74.7817 304.813 74.3432C304.304 73.9018 303.948 73.3453 303.746 72.6734C303.548 71.9988 303.521 71.2445 303.667 70.4107C303.811 69.5874 304.092 68.8886 304.508 68.3143C304.929 67.7407 305.447 67.3262 306.063 67.0709C306.683 66.8161 307.367 66.7541 308.113 66.8847C308.567 66.964 308.993 67.1159 309.392 67.3404C309.792 67.5649 310.133 67.8672 310.415 68.2473C310.697 68.6275 310.891 69.0911 310.997 69.6381C311.103 70.1816 311.092 70.8179 310.965 71.5471L310.868 72.1018L304.478 70.9841L304.683 69.8119L309.54 70.6614C309.612 70.2497 309.592 69.8705 309.48 69.5237C309.368 69.1735 309.177 68.8793 308.906 68.6413C308.638 68.404 308.302 68.2499 307.897 68.1791C307.458 68.1022 307.055 68.1432 306.689 68.3021C306.328 68.4582 306.028 68.6934 305.789 69.0076C305.555 69.319 305.403 69.6753 305.333 70.0765L305.173 70.9923C305.079 71.5295 305.093 72.003 305.215 72.4127C305.341 72.8231 305.558 73.1576 305.865 73.4163C306.173 73.6714 306.555 73.839 307.012 73.9189C307.309 73.9708 307.586 73.9762 307.845 73.9352C308.105 73.8907 308.338 73.7986 308.546 73.6587C308.754 73.5189 308.927 73.3317 309.065 73.0969L310.499 73.6229C310.304 74.0382 310.025 74.383 309.66 74.6572C309.3 74.9286 308.874 75.1147 308.382 75.2156C307.893 75.3135 307.356 75.3113 306.77 75.2087ZM317.658 73.5107L318.481 68.8062L320.051 69.0808L318.645 77.1188L317.106 76.8496L317.35 75.4577L317.266 75.443C317.006 75.8398 316.647 76.1455 316.189 76.3602C315.735 76.572 315.206 76.6251 314.602 76.5195C314.086 76.4292 313.649 76.2358 313.291 75.9395C312.937 75.6403 312.686 75.2458 312.538 74.7561C312.393 74.267 312.379 73.691 312.495 73.0282L313.389 67.9155L314.954 68.1892L314.093 73.1135C313.997 73.6612 314.072 74.1239 314.319 74.5014C314.566 74.879 314.932 75.1101 315.417 75.195C315.71 75.2462 316.014 75.2239 316.329 75.128C316.648 75.0328 316.929 74.8537 317.173 74.5907C317.42 74.3283 317.582 73.9683 317.658 73.5107ZM320.22 80.5008L322.153 69.4486L323.681 69.7159L323.453 71.0189L323.584 71.0418C323.704 70.8902 323.869 70.7195 324.078 70.5296C324.288 70.3397 324.559 70.1893 324.891 70.0784C325.224 69.9641 325.639 69.9505 326.138 70.0378C326.787 70.1513 327.338 70.4166 327.79 70.8336C328.242 71.2507 328.558 71.7933 328.74 72.4614C328.925 73.1302 328.941 73.8989 328.79 74.7676C328.638 75.6363 328.363 76.3558 327.964 76.9261C327.567 77.493 327.086 77.8996 326.521 78.146C325.957 78.3889 325.351 78.4537 324.702 78.3402C324.214 78.2547 323.829 78.1029 323.547 77.8846C323.269 77.6669 323.061 77.4329 322.925 77.1826C322.789 76.9323 322.689 76.7134 322.625 76.526L322.531 76.5095L321.785 80.7745L320.22 80.5008ZM322.984 73.7358C322.885 74.3009 322.88 74.8107 322.97 75.265C323.059 75.7193 323.238 76.094 323.506 76.389C323.775 76.6805 324.135 76.8657 324.585 76.9444C325.052 77.0262 325.465 76.9707 325.822 76.7779C326.18 76.5816 326.477 76.283 326.712 75.882C326.951 75.4815 327.118 75.0127 327.212 74.4754C327.305 73.9451 327.308 73.4549 327.221 73.0047C327.138 72.5551 326.959 72.1804 326.684 71.8807C326.413 71.5816 326.042 71.3908 325.571 71.3084C325.117 71.2291 324.713 71.2788 324.358 71.4576C324.007 71.6371 323.714 71.9221 323.481 72.3126C323.247 72.7032 323.081 73.1776 322.984 73.7358Z" fill="#678593"/>
<path fill-rule="evenodd" clip-rule="evenodd" d="M97.8519 16.6898C97.2695 20.0192 94.0983 22.2461 90.7689 21.6637L90.7687 21.6636L87.0192 43.0982C90.3486 43.6806 92.5755 46.8518 91.9931 50.1812L165.005 62.953C165.587 59.6236 168.758 57.3967 172.087 57.979L175.837 36.5444C172.508 35.9619 170.281 32.7908 170.863 29.4615L97.8519 16.6898Z" fill="#B5EBCD"/>
<path d="M105.711 28.8254L107.674 29.1687L109.628 38.0965L109.754 38.1185L114.623 30.3844L116.585 30.7276L114.711 41.4449L113.172 41.1758L114.529 33.4204L114.429 33.403L109.915 40.5898L108.638 40.3664L106.832 32.0686L106.732 32.0512L105.375 39.8118L103.836 39.5427L105.711 28.8254ZM119.244 42.4213C118.735 42.3322 118.291 42.1574 117.912 41.897C117.534 41.6331 117.256 41.2987 117.079 40.8938C116.905 40.4895 116.864 40.0239 116.956 39.4971C117.036 39.0436 117.188 38.6856 117.414 38.423C117.64 38.1605 117.916 37.9697 118.242 37.8506C118.569 37.7315 118.923 37.6604 119.304 37.6373C119.686 37.6142 120.071 37.6132 120.459 37.6343C120.95 37.6627 121.349 37.6857 121.655 37.7033C121.962 37.7174 122.19 37.6945 122.341 37.6346C122.492 37.5747 122.584 37.4505 122.617 37.2621L122.623 37.2255C122.703 36.7685 122.636 36.3918 122.422 36.0954C122.211 35.7997 121.853 35.6076 121.347 35.5191C120.82 35.427 120.384 35.4712 120.04 35.6519C119.7 35.8296 119.447 36.0497 119.283 36.3122L117.871 35.72C118.131 35.2621 118.454 34.9125 118.842 34.671C119.233 34.4267 119.661 34.275 120.124 34.2158C120.588 34.1531 121.062 34.1642 121.547 34.2491C121.868 34.3052 122.202 34.4031 122.548 34.5427C122.898 34.6794 123.212 34.8747 123.491 35.1284C123.774 35.3828 123.984 35.7126 124.122 36.1178C124.26 36.5195 124.278 37.0134 124.175 37.5995L123.242 42.9372L121.714 42.6699L121.906 41.571L121.843 41.56C121.707 41.7447 121.52 41.917 121.284 42.0769C121.047 42.2369 120.759 42.3537 120.419 42.4272C120.079 42.5008 119.687 42.4988 119.244 42.4213ZM119.804 41.2249C120.236 41.3005 120.621 41.2797 120.958 41.1625C121.299 41.0459 121.573 40.8638 121.782 40.6163C121.995 40.3658 122.129 40.0819 122.184 39.7644L122.365 38.7283C122.3 38.7743 122.183 38.8078 122.014 38.8285C121.849 38.8464 121.662 38.8551 121.454 38.8546C121.246 38.8506 121.043 38.8458 120.847 38.8401C120.65 38.831 120.486 38.8238 120.354 38.8187C120.044 38.804 119.755 38.82 119.488 38.8668C119.225 38.9141 119.003 39.0102 118.823 39.1549C118.647 39.2967 118.535 39.5072 118.486 39.7863C118.418 40.1735 118.51 40.4916 118.761 40.7405C119.013 40.9859 119.361 41.1474 119.804 41.2249ZM127.242 40.8271L127.566 38.9152L127.838 38.9628L131.635 36.1216L133.509 36.4493L129.179 39.6828L128.933 39.6398L127.242 40.8271ZM125.326 43.3018L127.201 32.5845L128.765 32.8582L126.891 43.5755L125.326 43.3018ZM130.402 44.1897L128.192 39.8662L129.461 38.961L132.322 44.5257L130.402 44.1897ZM136.634 45.447C135.842 45.3085 135.189 45.02 134.676 44.5815C134.167 44.1401 133.812 43.5835 133.609 42.9117C133.411 42.237 133.385 41.4828 133.53 40.649C133.674 39.8257 133.955 39.1269 134.372 38.5526C134.792 37.979 135.31 37.5645 135.927 37.3091C136.547 37.0544 137.23 36.9924 137.976 37.123C138.43 37.2023 138.856 37.3542 139.256 37.5787C139.655 37.8031 139.996 38.1055 140.278 38.4856C140.56 38.8658 140.754 39.3293 140.86 39.8764C140.966 40.4199 140.956 41.0562 140.828 41.7854L140.731 42.3401L134.342 41.2223L134.547 40.0501L139.403 40.8996C139.475 40.488 139.455 40.1088 139.343 39.762C139.232 39.4117 139.04 39.1176 138.769 38.8796C138.502 38.6422 138.165 38.4882 137.761 38.4174C137.321 38.3405 136.918 38.3815 136.553 38.5404C136.191 38.6965 135.891 38.9316 135.653 39.2459C135.418 39.5573 135.266 39.9136 135.196 40.3148L135.036 41.2305C134.942 41.7678 134.956 42.2413 135.079 42.651C135.205 43.0614 135.421 43.3959 135.728 43.6545C136.036 43.9097 136.418 44.0773 136.875 44.1572C137.172 44.2091 137.45 44.2145 137.708 44.1735C137.968 44.129 138.202 44.0368 138.409 43.897C138.617 43.7572 138.79 43.5699 138.928 43.3352L140.363 43.8612C140.168 44.2765 139.888 44.6213 139.524 44.8955C139.163 45.1669 138.737 45.353 138.245 45.4538C137.757 45.5518 137.22 45.5496 136.634 45.447ZM147.521 43.749L148.344 39.0445L149.914 39.3191L148.508 47.3571L146.97 47.0879L147.213 45.6959L147.129 45.6813C146.869 46.0781 146.51 46.3838 146.052 46.5984C145.598 46.8102 145.069 46.8633 144.466 46.7578C143.949 46.6674 143.512 46.4741 143.154 46.1778C142.8 45.8786 142.549 45.4841 142.401 44.9944C142.257 44.5053 142.242 43.9293 142.358 43.2665L143.253 38.1538L144.817 38.4275L143.956 43.3518C143.86 43.8995 143.936 44.3621 144.182 44.7397C144.429 45.1172 144.795 45.3484 145.28 45.4332C145.573 45.4845 145.877 45.4622 146.192 45.3663C146.511 45.2711 146.792 45.0919 147.036 44.829C147.283 44.5666 147.445 44.2066 147.521 43.749ZM150.083 50.739L152.017 39.6869L153.545 39.9542L153.317 41.2572L153.448 41.2801C153.568 41.1285 153.732 40.9578 153.942 40.7679C154.151 40.578 154.422 40.4276 154.754 40.3167C155.087 40.2024 155.503 40.1888 156.002 40.2761C156.65 40.3896 157.201 40.6549 157.653 41.0719C158.105 41.4889 158.422 42.0315 158.603 42.6997C158.788 43.3685 158.805 44.1372 158.653 45.0059C158.501 45.8745 158.226 46.5941 157.828 47.1644C157.43 47.7312 156.949 48.1379 156.385 48.3843C155.821 48.6272 155.214 48.6919 154.565 48.5784C154.077 48.493 153.692 48.3411 153.41 48.1229C153.132 47.9052 152.925 47.6712 152.789 47.4209C152.653 47.1706 152.553 46.9517 152.488 46.7643L152.394 46.7478L151.648 51.0128L150.083 50.739ZM152.847 43.9741C152.748 44.5392 152.743 45.049 152.833 45.5033C152.922 45.9576 153.101 46.3322 153.37 46.6273C153.639 46.9188 153.998 47.104 154.448 47.1827C154.916 47.2645 155.328 47.209 155.685 47.0162C156.043 46.8199 156.34 46.5213 156.576 46.1202C156.815 45.7198 156.981 45.251 157.075 44.7137C157.168 44.1834 157.171 43.6932 157.084 43.243C157.001 42.7934 156.822 42.4187 156.548 42.119C156.276 41.8198 155.905 41.6291 155.434 41.5467C154.981 41.4674 154.576 41.5171 154.222 41.6959C153.87 41.8753 153.578 42.1603 153.344 42.5509C153.11 42.9415 152.945 43.4159 152.847 43.9741Z" fill="#678593"/>
<path fill-rule="evenodd" clip-rule="evenodd" d="M182.92 31.5705C182.338 34.8999 179.166 37.1268 175.837 36.5445L172.088 57.979C175.417 58.5614 177.644 61.7326 177.061 65.062L250.073 77.8338C250.655 74.5044 253.826 72.2775 257.156 72.8598L260.905 51.4253L260.905 51.4253C257.576 50.8429 255.349 47.6717 255.931 44.3423L182.92 31.5705Z" fill="#B5EBCD"/>
<path d="M190.779 43.7063L192.741 44.0496L194.696 52.9774L194.822 52.9994L199.691 45.2652L201.653 45.6085L199.778 56.3258L198.24 56.0566L199.597 48.3013L199.497 48.2839L194.983 55.4706L193.706 55.2473L191.9 46.9495L191.8 46.9321L190.443 54.6927L188.904 54.4235L190.779 43.7063ZM204.312 57.3021C203.803 57.213 203.359 57.0383 202.98 56.7779C202.602 56.514 202.324 56.1796 202.147 55.7747C201.973 55.3703 201.932 54.9048 202.024 54.378C202.104 53.9245 202.256 53.5664 202.482 53.3039C202.708 53.0414 202.984 52.8505 203.31 52.7315C203.637 52.6124 203.991 52.5413 204.372 52.5182C204.754 52.495 205.139 52.494 205.527 52.5152C206.018 52.5436 206.417 52.5666 206.723 52.5842C207.03 52.5983 207.258 52.5754 207.409 52.5155C207.56 52.4555 207.651 52.3314 207.684 52.143L207.691 52.1064C207.771 51.6493 207.704 51.2727 207.489 50.9763C207.279 50.6806 206.92 50.4885 206.415 50.4C205.888 50.3078 205.452 50.3521 205.108 50.5327C204.767 50.7105 204.515 50.9306 204.35 51.193L202.939 50.6009C203.198 50.143 203.522 49.7933 203.909 49.5519C204.301 49.3076 204.728 49.1558 205.192 49.0966C205.656 49.034 206.13 49.0451 206.615 49.1299C206.936 49.1861 207.27 49.2839 207.615 49.4235C207.965 49.5603 208.28 49.7555 208.559 50.0093C208.842 50.2637 209.052 50.5935 209.19 50.9987C209.328 51.4004 209.346 51.8943 209.243 52.4804L208.31 57.8181L206.782 57.5508L206.974 56.4519L206.911 56.4409C206.774 56.6255 206.588 56.7978 206.351 56.9578C206.115 57.1178 205.827 57.2345 205.487 57.3081C205.147 57.3816 204.755 57.3797 204.312 57.3021ZM204.872 56.1057C205.304 56.1814 205.689 56.1606 206.026 56.0434C206.366 55.9267 206.641 55.7447 206.85 55.4971C207.062 55.2467 207.197 54.9628 207.252 54.6453L207.433 53.6091C207.368 53.6552 207.25 53.6886 207.081 53.7094C206.917 53.7273 206.73 53.736 206.521 53.7355C206.314 53.7315 206.111 53.7266 205.914 53.721C205.718 53.7118 205.554 53.7047 205.422 53.6996C205.112 53.6848 204.823 53.7009 204.556 53.7476C204.293 53.795 204.071 53.891 203.891 54.0358C203.715 54.1776 203.603 54.388 203.554 54.6671C203.486 55.0544 203.578 55.3725 203.829 55.6213C204.081 55.8668 204.429 56.0282 204.872 56.1057ZM212.31 55.708L212.633 53.7961L212.905 53.8437L216.703 51.0025L218.577 51.3302L214.246 54.5637L214.001 54.5206L212.31 55.708ZM210.394 58.1827L212.268 47.4654L213.833 47.7391L211.958 58.4564L210.394 58.1827ZM215.47 59.0706L213.26 54.747L214.529 53.8419L217.39 59.4066L215.47 59.0706ZM221.701 60.3279C220.909 60.1894 220.257 59.9008 219.744 59.4624C219.235 59.021 218.88 58.4644 218.677 57.7926C218.479 57.1179 218.452 56.3637 218.598 55.5299C218.742 54.7065 219.023 54.0077 219.44 53.4335C219.86 52.8598 220.378 52.4453 220.995 52.19C221.614 51.9353 222.298 51.8732 223.044 52.0038C223.498 52.0832 223.924 52.2351 224.324 52.4595C224.723 52.684 225.064 52.9863 225.346 53.3665C225.628 53.7466 225.822 54.2102 225.928 54.7572C226.034 55.3007 226.024 55.9371 225.896 56.6662L225.799 57.2209L219.409 56.1032L219.615 54.931L224.471 55.7805C224.543 55.3688 224.523 54.9896 224.411 54.6429C224.3 54.2926 224.108 53.9985 223.837 53.7605C223.569 53.5231 223.233 53.369 222.829 53.2982C222.389 53.2213 221.986 53.2623 221.621 53.4213C221.259 53.5773 220.959 53.8125 220.721 54.1267C220.486 54.4381 220.334 54.7944 220.264 55.1956L220.104 56.1114C220.01 56.6487 220.024 57.1222 220.146 57.5319C220.272 57.9422 220.489 58.2767 220.796 58.5354C221.104 58.7906 221.486 58.9581 221.943 59.0381C222.24 59.0899 222.517 59.0954 222.776 59.0544C223.036 59.0099 223.269 58.9177 223.477 58.7779C223.685 58.6381 223.858 58.4508 223.996 58.2161L225.43 58.742C225.236 59.1574 224.956 59.5022 224.592 59.7764C224.231 60.0477 223.805 60.2339 223.313 60.3347C222.825 60.4327 222.288 60.4304 221.701 60.3279ZM232.589 58.6298L233.412 53.9253L234.982 54.2L233.576 62.2379L232.038 61.9688L232.281 60.5768L232.197 60.5621C231.937 60.9589 231.578 61.2646 231.12 61.4793C230.666 61.6911 230.137 61.7442 229.534 61.6386C229.017 61.5483 228.58 61.355 228.222 61.0586C227.868 60.7594 227.617 60.365 227.469 59.8753C227.324 59.3862 227.31 58.8102 227.426 58.1473L228.32 53.0347L229.885 53.3084L229.024 58.2326C228.928 58.7804 229.003 59.243 229.25 59.6205C229.497 59.9981 229.863 60.2293 230.348 60.3141C230.641 60.3654 230.945 60.3431 231.26 60.2472C231.579 60.1519 231.86 59.9728 232.104 59.7098C232.351 59.4475 232.513 59.0875 232.589 58.6298ZM235.151 65.6199L237.085 54.5677L238.613 54.835L238.385 56.1381L238.515 56.1609C238.635 56.0094 238.8 55.8386 239.01 55.6487C239.219 55.4588 239.49 55.3085 239.822 55.1976C240.155 55.0832 240.571 55.0697 241.069 55.1569C241.718 55.2705 242.269 55.5357 242.721 55.9528C243.173 56.3698 243.49 56.9124 243.671 57.5806C243.856 58.2493 243.873 59.018 243.721 59.8867C243.569 60.7554 243.294 61.4749 242.895 62.0452C242.498 62.6121 242.017 63.0187 241.452 63.2652C240.889 63.5081 240.282 63.5728 239.633 63.4593C239.145 63.3739 238.76 63.222 238.478 63.0037C238.2 62.786 237.993 62.5521 237.857 62.3018C237.721 62.0515 237.62 61.8326 237.556 61.6452L237.462 61.6287L236.716 65.8936L235.151 65.6199ZM237.915 58.8549C237.816 59.4201 237.811 59.9298 237.901 60.3841C237.99 60.8384 238.169 61.2131 238.438 61.5081C238.707 61.7997 239.066 61.9848 239.516 62.0635C239.984 62.1453 240.396 62.0898 240.753 61.897C241.111 61.7008 241.408 61.4021 241.644 61.0011C241.883 60.6007 242.049 60.1318 242.143 59.5946C242.236 59.0643 242.239 58.574 242.152 58.1238C242.069 57.6742 241.89 57.2996 241.615 56.9998C241.344 56.7007 240.973 56.5099 240.502 56.4276C240.049 56.3482 239.644 56.398 239.289 56.5768C238.938 56.7562 238.646 57.0412 238.412 57.4318C238.178 57.8223 238.012 58.2967 237.915 58.8549Z" fill="#678593"/>
<path fill-rule="evenodd" clip-rule="evenodd" d="M1.95083 28.2173L5.70034 6.78268L5.70061 6.78273C9.03002 7.36514 12.2012 5.13827 12.7836 1.80887L85.7946 14.5806C85.2122 17.91 87.4391 21.0812 90.7685 21.6636L90.7686 21.6636L87.0191 43.0981C83.6897 42.5157 80.5186 44.7426 79.9362 48.072L6.92482 35.3003C7.50723 31.9708 5.28033 28.7997 1.95091 28.2173C1.95088 28.2173 1.95086 28.2173 1.95083 28.2173Z" fill="#B5EBCD"/>
<path d="M20.6428 13.9446L22.6052 14.2878L24.5598 23.2157L24.6854 23.2377L29.5546 15.5035L31.517 15.8468L29.6423 26.564L28.1038 26.2949L29.4604 18.5395L29.361 18.5222L24.8463 25.7089L23.5695 25.4856L21.7635 17.1878L21.6641 17.1704L20.3065 24.931L18.768 24.6618L20.6428 13.9446ZM34.1757 27.5404C33.6663 27.4513 33.2223 27.2766 32.8436 27.0162C32.4655 26.7523 32.1878 26.4179 32.0105 26.0129C31.8368 25.6086 31.796 25.1431 31.8881 24.6163C31.9675 24.1627 32.12 23.8047 32.3457 23.5422C32.5714 23.2796 32.8474 23.0888 33.1739 22.9698C33.5003 22.8507 33.8543 22.7796 34.2359 22.7564C34.6175 22.7333 35.0024 22.7323 35.3906 22.7535C35.8818 22.7819 36.2804 22.8049 36.5866 22.8225C36.8933 22.8366 37.122 22.8137 37.2727 22.7537C37.4234 22.6938 37.5153 22.5697 37.5482 22.3813L37.5546 22.3446C37.6346 21.8876 37.5674 21.5109 37.3532 21.2146C37.1425 20.9189 36.7842 20.7267 36.2783 20.6382C35.7515 20.5461 35.3159 20.5903 34.9715 20.771C34.6312 20.9488 34.3788 21.1689 34.2142 21.4313L32.8023 20.8392C33.0622 20.3813 33.3858 20.0316 33.7732 19.7902C34.1647 19.5458 34.5922 19.3941 35.0555 19.3349C35.5195 19.2723 35.994 19.2834 36.4789 19.3682C36.7999 19.4243 37.1333 19.5222 37.4792 19.6618C37.8292 19.7986 38.1438 19.9938 38.423 20.2476C38.7057 20.502 38.9159 20.8318 39.0535 21.237C39.1918 21.6387 39.2097 22.1326 39.1071 22.7187L38.1734 28.0564L36.6454 27.7891L36.8376 26.6901L36.7748 26.6792C36.6382 26.8638 36.4517 27.0361 36.2152 27.1961C35.9787 27.3561 35.6904 27.4728 35.3503 27.5464C35.0103 27.6199 34.6187 27.6179 34.1757 27.5404ZM34.7355 26.344C35.1681 26.4197 35.5529 26.3989 35.8898 26.2816C36.2302 26.165 36.5047 25.9829 36.7134 25.7354C36.9262 25.485 37.0603 25.201 37.1159 24.8836L37.2971 23.8474C37.2315 23.8935 37.1142 23.9269 36.9452 23.9477C36.7803 23.9656 36.5936 23.9742 36.3852 23.9737C36.1773 23.9697 35.975 23.9649 35.7783 23.9593C35.5821 23.9501 35.418 23.943 35.2858 23.9378C34.9756 23.9231 34.687 23.9391 34.4199 23.9859C34.1564 24.0333 33.9346 24.1293 33.7547 24.274C33.5789 24.4159 33.4666 24.6263 33.4177 24.9054C33.35 25.2927 33.4418 25.6107 33.6931 25.8596C33.945 26.105 34.2924 26.2665 34.7355 26.344ZM42.1735 25.9463L42.4972 24.0344L42.7693 24.082L46.5669 21.2407L48.4403 21.5684L44.1103 24.8019L43.8643 24.7589L42.1735 25.9463ZM40.2575 28.4209L42.1322 17.7037L43.6969 17.9774L41.8222 28.6946L40.2575 28.4209ZM45.3335 29.3089L43.1236 24.9853L44.3929 24.0802L47.2541 29.6448L45.3335 29.3089ZM51.5652 30.5662C50.7732 30.4276 50.1208 30.1391 49.6078 29.7006C49.099 29.2593 48.7433 28.7027 48.5409 28.0309C48.3425 27.3562 48.3162 26.6019 48.4621 25.7681C48.6061 24.9448 48.8865 24.246 49.3034 23.6717C49.7237 23.0981 50.2421 22.6836 50.8584 22.4283C51.4782 22.1736 52.1614 22.1115 52.908 22.2421C53.3616 22.3214 53.788 22.4733 54.1874 22.6978C54.5868 22.9223 54.9276 23.2246 55.2098 23.6047C55.4921 23.9849 55.6861 24.4485 55.7917 24.9955C55.898 25.539 55.8873 26.1754 55.7598 26.9045L55.6628 27.4592L49.2732 26.3415L49.4783 25.1693L54.3345 26.0188C54.4066 25.6071 54.3866 25.2279 54.2747 24.8811C54.1634 24.5309 53.9721 24.2368 53.7009 23.9988C53.4333 23.7614 53.0971 23.6073 52.6924 23.5365C52.2528 23.4596 51.8501 23.5006 51.4844 23.6596C51.1227 23.8156 50.8227 24.0508 50.5843 24.365C50.3501 24.6764 50.1979 25.0327 50.1277 25.4339L49.9675 26.3497C49.8735 26.8869 49.8878 27.3604 50.0103 27.7702C50.1362 28.1805 50.3528 28.515 50.6599 28.7737C50.9676 29.0288 51.35 29.1964 51.807 29.2764C52.1035 29.3282 52.3812 29.3337 52.6401 29.2926C52.8995 29.2481 53.1332 29.156 53.341 29.0162C53.5488 28.8763 53.7218 28.6891 53.8599 28.4544L55.2942 28.9803C55.0993 29.3957 54.8197 29.7404 54.4553 30.0147C54.095 30.286 53.6688 30.4721 53.1765 30.573C52.6884 30.671 52.1513 30.6687 51.5652 30.5662ZM62.453 28.8681L63.276 24.1636L64.8459 24.4382L63.4398 32.4762L61.9013 32.2071L62.1448 30.8151L62.0611 30.8004C61.8011 31.1972 61.442 31.5029 60.9838 31.7176C60.5297 31.9294 60.0009 31.9825 59.3973 31.8769C58.881 31.7866 58.4438 31.5933 58.0858 31.2969C57.7318 30.9977 57.4808 30.6032 57.3328 30.1135C57.1882 29.6244 57.1739 29.0485 57.2899 28.3856L58.1843 23.2729L59.7489 23.5466L58.8875 28.4709C58.7917 29.0187 58.8672 29.4813 59.114 29.8588C59.3607 30.2364 59.7266 30.4676 60.2115 30.5524C60.5045 30.6036 60.8087 30.5813 61.1239 30.4855C61.4425 30.3902 61.7237 30.2111 61.9675 29.9481C62.2147 29.6858 62.3766 29.3258 62.453 28.8681ZM65.0149 35.8582L66.9483 24.806L68.4763 25.0733L68.2484 26.3763L68.3792 26.3992C68.4992 26.2476 68.6639 26.0769 68.8733 25.887C69.0827 25.6971 69.3535 25.5467 69.6857 25.4359C70.0185 25.3215 70.4344 25.308 70.9332 25.3952C71.5821 25.5087 72.1326 25.774 72.5846 26.1911C73.0365 26.6081 73.3533 27.1507 73.5348 27.8188C73.7199 28.4876 73.7364 29.2563 73.5845 30.125C73.4325 30.9937 73.1574 31.7132 72.7592 32.2835C72.3617 32.8504 71.8806 33.257 71.3162 33.5034C70.7524 33.7464 70.146 33.8111 69.4971 33.6976C69.0087 33.6121 68.6236 33.4603 68.3418 33.242C68.0634 33.0243 67.8563 32.7903 67.7203 32.54C67.5843 32.2897 67.4842 32.0709 67.4199 31.8834L67.3257 31.867L66.5796 36.1319L65.0149 35.8582ZM67.7785 29.0932C67.6797 29.6584 67.675 30.1681 67.7645 30.6224C67.854 31.0767 68.033 31.4514 68.3014 31.7464C68.5704 32.038 68.9299 32.2231 69.3799 32.3018C69.8474 32.3836 70.2598 32.3281 70.6171 32.1353C70.975 31.9391 71.2718 31.6404 71.5073 31.2394C71.7463 30.8389 71.9128 30.3701 72.0068 29.8328C72.0996 29.3026 72.1026 28.8123 72.016 28.3621C71.9329 27.9125 71.7539 27.5379 71.4792 27.2381C71.2079 26.939 70.8368 26.7482 70.3658 26.6658C69.9123 26.5865 69.5081 26.6362 69.1532 26.8151C68.8018 26.9945 68.5093 27.2795 68.2756 27.6701C68.0419 28.0606 67.8762 28.535 67.7785 29.0932Z" fill="#678593"/>
</svg>
