<svg width="518" height="124" viewBox="0 0 518 124" fill="none" xmlns="http://www.w3.org/2000/svg">
<path fill-rule="evenodd" clip-rule="evenodd" d="M353.057 61.3323C352.475 64.6617 349.303 66.8886 345.974 66.3062L345.974 66.3062L342.224 87.7408C345.554 88.3232 347.78 91.4943 347.198 94.8238L420.21 107.596C420.792 104.266 423.963 102.039 427.292 102.622L431.042 81.187C427.713 80.6044 425.486 77.4334 426.068 74.1041L353.057 61.3323Z" fill="#B5E4CA"/>
<path d="M352.773 82.8935L354.648 72.1763L356.265 72.4591L355.45 77.1165L360.793 78.0511L361.608 73.3937L363.23 73.6775L361.355 84.3948L359.733 84.111L360.55 79.4379L355.207 78.5033L354.39 83.1764L352.773 82.8935ZM365.892 85.3719C365.383 85.2828 364.939 85.108 364.56 84.8476C364.182 84.5837 363.905 84.2493 363.727 83.8444C363.554 83.44 363.513 82.9745 363.605 82.4477C363.684 81.9942 363.837 81.6361 364.062 81.3736C364.288 81.1111 364.564 80.9203 364.891 80.8012C365.217 80.6821 365.571 80.611 365.953 80.5879C366.334 80.5647 366.719 80.5637 367.107 80.5849C367.599 80.6133 367.997 80.6363 368.303 80.6539C368.61 80.668 368.839 80.6451 368.989 80.5852C369.14 80.5252 369.232 80.4011 369.265 80.2127L369.271 80.1761C369.351 79.719 369.284 79.3424 369.07 79.046C368.859 78.7503 368.501 78.5582 367.995 78.4697C367.468 78.3775 367.033 78.4218 366.688 78.6024C366.348 78.7802 366.096 79.0003 365.931 79.2627L364.519 78.6706C364.779 78.2127 365.103 77.863 365.49 77.6216C365.881 77.3773 366.309 77.2255 366.772 77.1664C367.236 77.1037 367.711 77.1148 368.196 77.1996C368.517 77.2558 368.85 77.3536 369.196 77.4932C369.546 77.63 369.861 77.8252 370.14 78.079C370.422 78.3334 370.633 78.6632 370.77 79.0684C370.909 79.4701 370.926 79.964 370.824 80.5501L369.89 85.8878L368.362 85.6205L368.554 84.5216L368.492 84.5106C368.355 84.6952 368.168 84.8675 367.932 85.0275C367.695 85.1875 367.407 85.3042 367.067 85.3778C366.727 85.4513 366.335 85.4494 365.892 85.3719ZM366.452 84.1754C366.885 84.2511 367.27 84.2303 367.607 84.1131C367.947 83.9964 368.221 83.8144 368.43 83.5668C368.643 83.3164 368.777 83.0325 368.833 82.715L369.014 81.6789C368.948 81.7249 368.831 81.7583 368.662 81.7791C368.497 81.797 368.31 81.8057 368.102 81.8052C367.894 81.8012 367.692 81.7963 367.495 81.7907C367.299 81.7815 367.135 81.7744 367.003 81.7693C366.692 81.7545 366.404 81.7706 366.137 81.8173C365.873 81.8647 365.651 81.9608 365.471 82.1055C365.296 82.2473 365.183 82.4577 365.135 82.7368C365.067 83.1241 365.159 83.4422 365.41 83.6911C365.662 83.9365 366.009 84.0979 366.452 84.1754ZM371.974 86.2524L373.38 78.2144L374.945 78.4881L373.539 86.5261L371.974 86.2524ZM374.387 77.1124C374.115 77.0648 373.897 76.9332 373.734 76.7176C373.574 76.4992 373.517 76.2626 373.561 76.0079C373.607 75.7498 373.741 75.5468 373.965 75.3989C374.192 75.2482 374.442 75.1966 374.714 75.2442C374.986 75.2918 375.202 75.4249 375.362 75.6433C375.525 75.8589 375.585 76.0958 375.539 76.3539C375.495 76.6086 375.359 76.8113 375.131 76.962C374.907 77.1099 374.66 77.16 374.387 77.1124ZM375.644 86.8943L377.05 78.8564L378.562 79.1209L378.339 80.3978L378.423 80.4124C378.645 80.0054 378.963 79.7105 379.376 79.5274C379.793 79.3416 380.237 79.2898 380.708 79.3722C380.806 79.3893 380.92 79.4129 381.052 79.4431C381.186 79.4739 381.291 79.5012 381.366 79.5251L381.104 81.0217C381.045 80.9933 380.936 80.9546 380.78 80.9056C380.623 80.8531 380.465 80.8128 380.305 80.7847C379.935 80.72 379.591 80.7409 379.274 80.8472C378.961 80.9507 378.697 81.1256 378.481 81.3719C378.266 81.6147 378.128 81.9105 378.067 82.2594L377.209 87.168L375.644 86.8943ZM392.553 81.7084C392.583 81.2033 392.42 80.7792 392.063 80.4363C391.707 80.0899 391.222 79.863 390.608 79.7556C390.168 79.6787 389.775 79.682 389.43 79.7654C389.085 79.8453 388.803 79.99 388.583 80.1996C388.367 80.4064 388.232 80.6615 388.179 80.965C388.135 81.2197 388.156 81.4498 388.242 81.6555C388.332 81.8617 388.463 82.0447 388.637 82.2045C388.814 82.3614 389.009 82.5015 389.221 82.6249C389.434 82.7449 389.64 82.8493 389.84 82.9382L390.839 83.3934C391.167 83.537 391.497 83.7117 391.832 83.9176C392.166 84.1235 392.466 84.3701 392.732 84.6576C392.999 84.945 393.196 85.2779 393.324 85.6563C393.455 86.0352 393.479 86.4654 393.394 86.9468C393.288 87.5539 393.037 88.0654 392.641 88.4815C392.248 88.8981 391.731 89.1906 391.09 89.359C390.453 89.528 389.716 89.5392 388.879 89.3928C388.076 89.2524 387.404 89.0036 386.863 88.6464C386.321 88.2892 385.925 87.8479 385.676 87.3224C385.427 86.7935 385.341 86.2033 385.419 85.5518L387.042 85.8355C387.005 86.2283 387.074 86.5729 387.249 86.8695C387.428 87.1633 387.679 87.4032 388.002 87.5892C388.33 87.7723 388.701 87.9002 389.116 87.9728C389.573 88.0527 389.992 88.0523 390.373 87.9715C390.758 87.8879 391.076 87.7349 391.327 87.5128C391.579 87.2871 391.735 86.9999 391.796 86.651C391.851 86.3335 391.806 86.0578 391.66 85.8237C391.518 85.5902 391.304 85.3804 391.021 85.1941C390.74 85.0084 390.417 84.8314 390.051 84.6631L388.845 84.0962C388.028 83.7124 387.408 83.2497 386.985 82.7083C386.565 82.1675 386.421 81.5238 386.551 80.7772C386.659 80.1597 386.921 79.65 387.336 79.2481C387.752 78.8462 388.268 78.5679 388.885 78.4133C389.502 78.2553 390.17 78.2391 390.889 78.3648C391.614 78.4917 392.232 78.7311 392.742 79.0828C393.256 79.4351 393.634 79.8626 393.877 80.3653C394.12 80.8645 394.199 81.4031 394.112 81.9812L392.553 81.7084ZM399.841 82.8432L399.621 84.0991L395.231 83.3311L395.451 82.0751L399.841 82.8432ZM396.965 80.3554L398.53 80.6291L397.2 88.2327C397.146 88.5362 397.152 88.7726 397.216 88.942C397.28 89.1079 397.379 89.2312 397.512 89.3121C397.65 89.39 397.804 89.444 397.975 89.4739C398.1 89.4958 398.212 89.5063 398.309 89.5054C398.406 89.5044 398.482 89.5033 398.536 89.502L398.593 90.844C398.496 90.863 398.361 90.8753 398.187 90.8809C398.013 90.89 397.8 90.8743 397.548 90.8338C397.135 90.7688 396.764 90.6284 396.435 90.4126C396.106 90.1969 395.86 89.9093 395.696 89.5499C395.533 89.1905 395.493 88.7683 395.578 88.2834L396.965 80.3554ZM400.628 94.3711C400.394 94.3302 400.185 94.2738 399.999 94.2019C399.814 94.1334 399.677 94.07 399.59 94.0117L400.191 92.7955C400.464 92.9223 400.713 93 400.938 93.0286C401.163 93.0572 401.375 93.0079 401.573 92.8808C401.775 92.7544 401.974 92.5248 402.168 92.1921L402.455 91.6922L400.939 83.0352L402.613 83.3281L403.558 89.922L403.642 89.9366L406.768 84.0549L408.448 84.3488L403.542 92.8801C403.315 93.2718 403.058 93.5918 402.77 93.8398C402.482 94.0914 402.161 94.2617 401.807 94.3509C401.453 94.4401 401.06 94.4468 400.628 94.3711ZM411.952 82.2004L410.077 92.9177L408.513 92.644L410.387 81.9267L411.952 82.2004ZM415.618 94.0541C414.826 93.9156 414.174 93.6271 413.661 93.1886C413.152 92.7472 412.796 92.1906 412.594 91.5188C412.396 90.8441 412.369 90.0899 412.515 89.2561C412.659 88.4328 412.94 87.734 413.356 87.1597C413.777 86.586 414.295 86.1716 414.911 85.9162C415.531 85.6615 416.214 85.5995 416.961 85.7301C417.415 85.8094 417.841 85.9613 418.24 86.1858C418.64 86.4102 418.981 86.7125 419.263 87.0927C419.545 87.4729 419.739 87.9364 419.845 88.4835C419.951 89.027 419.94 89.6633 419.813 90.3924L419.716 90.9471L413.326 89.8294L413.531 88.6572L418.388 89.5067C418.46 89.0951 418.44 88.7159 418.328 88.3691C418.216 88.0188 418.025 87.7247 417.754 87.4867C417.486 87.2493 417.15 87.0952 416.745 87.0245C416.306 86.9476 415.903 86.9886 415.537 87.1475C415.176 87.3036 414.876 87.5387 414.637 87.853C414.403 88.1644 414.251 88.5206 414.181 88.9218L414.021 89.8376C413.927 90.3749 413.941 90.8484 414.063 91.2581C414.189 91.6685 414.406 92.003 414.713 92.2616C415.021 92.5168 415.403 92.6844 415.86 92.7643C416.157 92.8162 416.434 92.8216 416.693 92.7806C416.953 92.7361 417.186 92.6439 417.394 92.5041C417.602 92.3643 417.775 92.177 417.913 91.9423L419.347 92.4683C419.152 92.8836 418.873 93.2284 418.508 93.5026C418.148 93.774 417.722 93.9601 417.23 94.0609C416.741 94.1589 416.204 94.1566 415.618 94.0541Z" fill="#678593"/>
<path fill-rule="evenodd" clip-rule="evenodd" d="M438.125 76.2132C437.543 79.5426 434.371 81.7694 431.042 81.1872L427.293 102.622C430.622 103.204 432.849 106.375 432.267 109.705C432.267 109.705 432.267 109.705 432.267 109.705L505.277 122.476C505.86 119.147 509.031 116.92 512.36 117.502L512.361 117.503L516.11 96.068L516.11 96.068C512.781 95.4856 510.554 92.3144 511.136 88.985L438.125 76.2132Z" fill="#B5E4CA"/>
<path d="M445.905 88.3352L447.868 88.6785L449.822 97.6064L449.948 97.6283L454.817 89.8942L456.779 90.2375L454.905 100.955L453.366 100.686L454.723 92.9302L454.623 92.9128L450.109 100.1L448.832 99.8762L447.026 91.5784L446.927 91.561L445.569 99.3216L444.03 99.0525L445.905 88.3352ZM459.438 101.931C458.929 101.842 458.485 101.667 458.106 101.407C457.728 101.143 457.45 100.809 457.273 100.404C457.099 99.9993 457.058 99.5337 457.151 99.007C457.23 98.5534 457.382 98.1954 457.608 97.9329C457.834 97.6703 458.11 97.4795 458.436 97.3604C458.763 97.2414 459.117 97.1703 459.498 97.1471C459.88 97.124 460.265 97.123 460.653 97.1442C461.144 97.1726 461.543 97.1956 461.849 97.2132C462.156 97.2273 462.384 97.2044 462.535 97.1444C462.686 97.0845 462.778 96.9603 462.811 96.772L462.817 96.7353C462.897 96.2783 462.83 95.9016 462.616 95.6053C462.405 95.3095 462.047 95.1174 461.541 95.0289C461.014 94.9368 460.578 94.981 460.234 95.1617C459.894 95.3395 459.641 95.5596 459.477 95.822L458.065 95.2299C458.325 94.772 458.648 94.4223 459.036 94.1808C459.427 93.9365 459.855 93.7848 460.318 93.7256C460.782 93.663 461.256 93.6741 461.741 93.7589C462.062 93.815 462.396 93.9129 462.742 94.0525C463.092 94.1892 463.406 94.3845 463.685 94.6383C463.968 94.8927 464.178 95.2225 464.316 95.6277C464.454 96.0294 464.472 96.5233 464.37 97.1094L463.436 102.447L461.908 102.18L462.1 101.081L462.037 101.07C461.901 101.254 461.714 101.427 461.478 101.587C461.241 101.747 460.953 101.864 460.613 101.937C460.273 102.011 459.881 102.009 459.438 101.931ZM459.998 100.735C460.431 100.81 460.815 100.79 461.152 100.672C461.493 100.556 461.767 100.374 461.976 100.126C462.189 99.8757 462.323 99.5917 462.378 99.2743L462.56 98.2381C462.494 98.2842 462.377 98.3176 462.208 98.3384C462.043 98.3562 461.856 98.3649 461.648 98.3644C461.44 98.3604 461.237 98.3556 461.041 98.3499C460.845 98.3408 460.68 98.3337 460.548 98.3285C460.238 98.3138 459.949 98.3298 459.682 98.3766C459.419 98.424 459.197 98.52 459.017 98.6647C458.841 98.8065 458.729 99.017 458.68 99.2961C458.612 99.6833 458.704 100.001 458.956 100.25C459.207 100.496 459.555 100.657 459.998 100.735ZM467.436 100.337L467.76 98.4251L468.032 98.4727L471.829 95.6314L473.703 95.9591L469.373 99.1926L469.127 99.1496L467.436 100.337ZM465.52 102.812L467.395 92.0944L468.959 92.3681L467.085 103.085L465.52 102.812ZM470.596 103.7L468.386 99.376L469.655 98.4708L472.517 104.036L470.596 103.7ZM476.828 104.957C476.036 104.818 475.383 104.53 474.87 104.091C474.361 103.65 474.006 103.093 473.803 102.422C473.605 101.747 473.579 100.993 473.725 100.159C473.869 99.3355 474.149 98.6367 474.566 98.0624C474.986 97.4888 475.505 97.0743 476.121 96.819C476.741 96.5643 477.424 96.5022 478.17 96.6328C478.624 96.7121 479.05 96.864 479.45 97.0885C479.849 97.313 480.19 97.6153 480.472 97.9954C480.755 98.3756 480.949 98.8392 481.054 99.3862C481.16 99.9297 481.15 100.566 481.022 101.295L480.925 101.85L474.536 100.732L474.741 99.56L479.597 100.409C479.669 99.9978 479.649 99.6186 479.537 99.2718C479.426 98.9216 479.235 98.6274 478.963 98.3895C478.696 98.1521 478.36 97.998 477.955 97.9272C477.515 97.8503 477.113 97.8913 476.747 98.0502C476.385 98.2063 476.085 98.4415 475.847 98.7557C475.613 99.0671 475.46 99.4234 475.39 99.8246L475.23 100.74C475.136 101.278 475.15 101.751 475.273 102.161C475.399 102.571 475.615 102.906 475.922 103.164C476.23 103.42 476.612 103.587 477.069 103.667C477.366 103.719 477.644 103.724 477.903 103.683C478.162 103.639 478.396 103.547 478.603 103.407C478.811 103.267 478.984 103.08 479.122 102.845L480.557 103.371C480.362 103.786 480.082 104.131 479.718 104.405C479.357 104.677 478.931 104.863 478.439 104.964C477.951 105.062 477.414 105.059 476.828 104.957ZM487.715 103.259L488.538 98.5543L490.108 98.8289L488.702 106.867L487.164 106.598L487.407 105.206L487.324 105.191C487.064 105.588 486.704 105.894 486.246 106.108C485.792 106.32 485.263 106.373 484.66 106.268C484.143 106.177 483.706 105.984 483.348 105.688C482.994 105.388 482.743 104.994 482.595 104.504C482.451 104.015 482.436 103.439 482.552 102.776L483.447 97.6636L485.011 97.9373L484.15 102.862C484.054 103.409 484.13 103.872 484.376 104.25C484.623 104.627 484.989 104.858 485.474 104.943C485.767 104.994 486.071 104.972 486.386 104.876C486.705 104.781 486.986 104.602 487.23 104.339C487.477 104.076 487.639 103.716 487.715 103.259ZM490.277 110.249L492.211 99.1967L493.739 99.464L493.511 100.767L493.642 100.79C493.762 100.638 493.926 100.468 494.136 100.278C494.345 100.088 494.616 99.9374 494.948 99.8266C495.281 99.7122 495.697 99.6986 496.196 99.7859C496.845 99.8994 497.395 100.165 497.847 100.582C498.299 100.999 498.616 101.541 498.797 102.21C498.982 102.878 498.999 103.647 498.847 104.516C498.695 105.384 498.42 106.104 498.022 106.674C497.624 107.241 497.143 107.648 496.579 107.894C496.015 108.137 495.408 108.202 494.76 108.088C494.271 108.003 493.886 107.851 493.604 107.633C493.326 107.415 493.119 107.181 492.983 106.931C492.847 106.68 492.747 106.462 492.682 106.274L492.588 106.258L491.842 110.523L490.277 110.249ZM493.041 103.484C492.942 104.049 492.937 104.559 493.027 105.013C493.116 105.467 493.295 105.842 493.564 106.137C493.833 106.429 494.192 106.614 494.642 106.693C495.11 106.774 495.522 106.719 495.88 106.526C496.237 106.33 496.534 106.031 496.77 105.63C497.009 105.23 497.175 104.761 497.269 104.224C497.362 103.693 497.365 103.203 497.278 102.753C497.195 102.303 497.016 101.929 496.742 101.629C496.47 101.33 496.099 101.139 495.628 101.057C495.175 100.977 494.771 101.027 494.416 101.206C494.064 101.385 493.772 101.67 493.538 102.061C493.304 102.451 493.139 102.926 493.041 103.484Z" fill="#678593"/>
<path fill-rule="evenodd" clip-rule="evenodd" d="M267.988 46.4515C267.406 49.7809 264.235 52.0078 260.905 51.4255L257.156 72.86C260.485 73.4424 262.712 76.6135 262.13 79.943L335.141 92.7147C335.724 89.3853 338.895 87.1584 342.224 87.7408L345.974 66.3063L345.974 66.3063C342.644 65.7239 340.417 62.5527 341 59.2233L267.988 46.4515L267.988 46.4515Z" fill="#B5E4CA"/>
<path d="M275.848 58.5873L277.81 58.9305L279.765 67.8584L279.89 67.8804L284.76 60.1462L286.722 60.4895L284.847 71.2067L283.309 70.9376L284.665 63.1822L284.566 63.1649L280.051 70.3516L278.775 70.1283L276.969 61.8305L276.869 61.8131L275.512 69.5737L273.973 69.3045L275.848 58.5873ZM289.381 72.1831C288.871 72.094 288.427 71.9193 288.049 71.6589C287.671 71.395 287.393 71.0606 287.216 70.6556C287.042 70.2513 287.001 69.7858 287.093 69.259C287.173 68.8054 287.325 68.4474 287.551 68.1849C287.776 67.9223 288.053 67.7315 288.379 67.6125C288.705 67.4934 289.059 67.4223 289.441 67.3991C289.823 67.376 290.207 67.375 290.596 67.3962C291.087 67.4246 291.486 67.4476 291.792 67.4652C292.098 67.4793 292.327 67.4564 292.478 67.3964C292.629 67.3365 292.72 67.2124 292.753 67.024L292.76 66.9873C292.84 66.5303 292.773 66.1536 292.558 65.8573C292.348 65.5616 291.989 65.3694 291.483 65.2809C290.957 65.1888 290.521 65.233 290.177 65.4137C289.836 65.5915 289.584 65.8116 289.419 66.074L288.007 65.4819C288.267 65.024 288.591 64.6743 288.978 64.4329C289.37 64.1885 289.797 64.0368 290.261 63.9776C290.725 63.915 291.199 63.9261 291.684 64.0109C292.005 64.067 292.338 64.1649 292.684 64.3045C293.034 64.4413 293.349 64.6365 293.628 64.8903C293.911 65.1447 294.121 65.4745 294.259 65.8797C294.397 66.2814 294.415 66.7753 294.312 67.3614L293.379 72.6991L291.85 72.4318L292.043 71.3328L291.98 71.3219C291.843 71.5065 291.657 71.6788 291.42 71.8388C291.184 71.9988 290.895 72.1155 290.555 72.1891C290.215 72.2626 289.824 72.2606 289.381 72.1831ZM289.941 70.9867C290.373 71.0624 290.758 71.0416 291.095 70.9243C291.435 70.8077 291.71 70.6256 291.918 70.3781C292.131 70.1277 292.265 69.8437 292.321 69.5263L292.502 68.4901C292.437 68.5362 292.319 68.5696 292.15 68.5904C291.985 68.6083 291.799 68.6169 291.59 68.6164C291.382 68.6124 291.18 68.6076 290.983 68.602C290.787 68.5928 290.623 68.5857 290.491 68.5805C290.181 68.5658 289.892 68.5818 289.625 68.6286C289.361 68.676 289.14 68.772 288.96 68.9167C288.784 69.0586 288.672 69.269 288.623 69.5481C288.555 69.9354 288.647 70.2534 288.898 70.5023C289.15 70.7477 289.498 70.9092 289.941 70.9867ZM297.379 70.589L297.702 68.6771L297.974 68.7247L301.772 65.8834L303.645 66.2111L299.315 69.4446L299.069 69.4016L297.379 70.589ZM295.463 73.0636L297.337 62.3464L298.902 62.6201L297.027 73.3373L295.463 73.0636ZM300.539 73.9516L298.329 69.628L299.598 68.7229L302.459 74.2875L300.539 73.9516ZM306.77 75.2089C305.978 75.0703 305.326 74.7818 304.813 74.3433C304.304 73.902 303.948 73.3454 303.746 72.6736C303.548 71.9989 303.521 71.2446 303.667 70.4108C303.811 69.5875 304.092 68.8887 304.508 68.3144C304.929 67.7408 305.447 67.3263 306.063 67.071C306.683 66.8163 307.367 66.7542 308.113 66.8848C308.567 66.9641 308.993 67.116 309.392 67.3405C309.792 67.565 310.133 67.8673 310.415 68.2474C310.697 68.6276 310.891 69.0912 310.997 69.6382C311.103 70.1817 311.092 70.8181 310.965 71.5472L310.868 72.1019L304.478 70.9842L304.683 69.812L309.54 70.6615C309.612 70.2498 309.592 69.8706 309.48 69.5238C309.368 69.1736 309.177 68.8795 308.906 68.6415C308.638 68.4041 308.302 68.25 307.897 68.1792C307.458 68.1023 307.055 68.1433 306.689 68.3023C306.328 68.4583 306.028 68.6935 305.789 69.0077C305.555 69.3191 305.403 69.6754 305.333 70.0766L305.173 70.9924C305.079 71.5296 305.093 72.0031 305.215 72.4129C305.341 72.8232 305.558 73.1577 305.865 73.4164C306.173 73.6715 306.555 73.8391 307.012 73.9191C307.309 73.9709 307.586 73.9764 307.845 73.9353C308.105 73.8908 308.338 73.7987 308.546 73.6589C308.754 73.519 308.927 73.3318 309.065 73.0971L310.499 73.623C310.304 74.0384 310.025 74.3831 309.66 74.6574C309.3 74.9287 308.874 75.1148 308.382 75.2157C307.893 75.3137 307.356 75.3114 306.77 75.2089ZM317.658 73.5108L318.481 68.8063L320.051 69.0809L318.645 77.1189L317.106 76.8498L317.35 75.4578L317.266 75.4431C317.006 75.8399 316.647 76.1456 316.189 76.3603C315.735 76.5721 315.206 76.6252 314.602 76.5196C314.086 76.4293 313.649 76.236 313.291 75.9396C312.937 75.6404 312.686 75.2459 312.538 74.7562C312.393 74.2671 312.379 73.6912 312.495 73.0283L313.389 67.9156L314.954 68.1893L314.093 73.1136C313.997 73.6614 314.072 74.124 314.319 74.5015C314.566 74.8791 314.932 75.1103 315.417 75.1951C315.71 75.2463 316.014 75.224 316.329 75.1282C316.648 75.0329 316.929 74.8538 317.173 74.5908C317.42 74.3285 317.582 73.9685 317.658 73.5108ZM320.22 80.5009L322.153 69.4487L323.681 69.716L323.453 71.019L323.584 71.0419C323.704 70.8903 323.869 70.7196 324.078 70.5297C324.288 70.3398 324.559 70.1894 324.891 70.0786C325.224 69.9642 325.639 69.9507 326.138 70.0379C326.787 70.1514 327.338 70.4167 327.79 70.8338C328.242 71.2508 328.558 71.7934 328.74 72.4615C328.925 73.1303 328.941 73.899 328.79 74.7677C328.638 75.6364 328.363 76.3559 327.964 76.9262C327.567 77.4931 327.086 77.8997 326.521 78.1461C325.957 78.3891 325.351 78.4538 324.702 78.3403C324.214 78.2548 323.829 78.103 323.547 77.8847C323.269 77.667 323.061 77.433 322.925 77.1827C322.789 76.9324 322.689 76.7136 322.625 76.5261L322.531 76.5097L321.785 80.7746L320.22 80.5009ZM322.984 73.7359C322.885 74.3011 322.88 74.8108 322.97 75.2651C323.059 75.7194 323.238 76.0941 323.506 76.3891C323.775 76.6807 324.135 76.8658 324.585 76.9445C325.052 77.0263 325.465 76.9708 325.822 76.778C326.18 76.5818 326.477 76.2831 326.712 75.8821C326.951 75.4816 327.118 75.0128 327.212 74.4755C327.305 73.9453 327.308 73.455 327.221 73.0048C327.138 72.5552 326.959 72.1806 326.684 71.8808C326.413 71.5817 326.042 71.3909 325.571 71.3085C325.117 71.2292 324.713 71.2789 324.358 71.4578C324.007 71.6372 323.714 71.9222 323.481 72.3128C323.247 72.7033 323.081 73.1777 322.984 73.7359Z" fill="#678593"/>
<path fill-rule="evenodd" clip-rule="evenodd" d="M97.8519 16.6899C97.2695 20.0193 94.0983 22.2462 90.7689 21.6638L90.7687 21.6638L87.0192 43.0983C90.3486 43.6807 92.5755 46.8519 91.9931 50.1813L165.005 62.9531C165.587 59.6237 168.758 57.3968 172.087 57.9791L175.837 36.5446C172.508 35.962 170.281 32.7909 170.863 29.4616L97.8519 16.6899Z" fill="#B5E4CA"/>
<path d="M105.633 28.8118L107.595 29.1551L109.55 38.0829L109.675 38.1049L114.544 30.3707L116.507 30.714L114.632 41.4313L113.093 41.1622L114.45 33.4068L114.351 33.3894L109.836 40.5762L108.559 40.3528L106.753 32.055L106.654 32.0376L105.296 39.7982L103.758 39.5291L105.633 28.8118ZM119.165 42.4077C118.656 42.3186 118.212 42.1438 117.833 41.8834C117.455 41.6195 117.178 41.2851 117 40.8802C116.827 40.4759 116.786 40.0103 116.878 39.4835C116.957 39.03 117.11 38.672 117.335 38.4094C117.561 38.1469 117.837 37.9561 118.164 37.837C118.49 37.7179 118.844 37.6468 119.226 37.6237C119.607 37.6005 119.992 37.5996 120.38 37.6207C120.871 37.6491 121.27 37.6721 121.576 37.6897C121.883 37.7038 122.112 37.6809 122.262 37.621C122.413 37.5611 122.505 37.4369 122.538 37.2485L122.544 37.2119C122.624 36.7549 122.557 36.3782 122.343 36.0818C122.132 35.7861 121.774 35.594 121.268 35.5055C120.741 35.4133 120.306 35.4576 119.961 35.6382C119.621 35.816 119.369 36.0361 119.204 36.2986L117.792 35.7064C118.052 35.2485 118.376 34.8988 118.763 34.6574C119.154 34.4131 119.582 34.2613 120.045 34.2022C120.509 34.1395 120.984 34.1506 121.469 34.2354C121.79 34.2916 122.123 34.3895 122.469 34.5291C122.819 34.6658 123.134 34.8611 123.413 35.1148C123.695 35.3692 123.906 35.699 124.043 36.1042C124.182 36.5059 124.199 36.9998 124.097 37.5859L123.163 42.9236L121.635 42.6563L121.827 41.5574L121.765 41.5464C121.628 41.7311 121.441 41.9034 121.205 42.0633C120.968 42.2233 120.68 42.3401 120.34 42.4136C120 42.4872 119.608 42.4852 119.165 42.4077ZM119.725 41.2112C120.158 41.2869 120.543 41.2661 120.88 41.1489C121.22 41.0323 121.494 40.8502 121.703 40.6026C121.916 40.3522 122.05 40.0683 122.106 39.7508L122.287 38.7147C122.221 38.7607 122.104 38.7941 121.935 38.8149C121.77 38.8328 121.583 38.8415 121.375 38.841C121.167 38.837 120.965 38.8322 120.768 38.8265C120.572 38.8174 120.408 38.8102 120.276 38.8051C119.965 38.7904 119.677 38.8064 119.41 38.8532C119.146 38.9005 118.924 38.9966 118.744 39.1413C118.569 39.2831 118.456 39.4936 118.407 39.7727C118.34 40.1599 118.432 40.478 118.683 40.7269C118.935 40.9723 119.282 41.1337 119.725 41.2112ZM127.163 40.8135L127.487 38.9016L127.759 38.9492L131.557 36.108L133.43 36.4357L129.1 39.6692L128.854 39.6262L127.163 40.8135ZM125.247 43.2882L127.122 32.5709L128.687 32.8446L126.812 43.5619L125.247 43.2882ZM130.323 44.1761L128.113 39.8525L129.383 38.9474L132.244 44.5121L130.323 44.1761ZM136.555 45.4334C135.763 45.2949 135.111 45.0064 134.598 44.5679C134.089 44.1265 133.733 43.5699 133.531 42.8981C133.332 42.2234 133.306 41.4692 133.452 40.6354C133.596 39.8121 133.876 39.1133 134.293 38.539C134.713 37.9653 135.232 37.5509 135.848 37.2955C136.468 37.0408 137.151 36.9788 137.898 37.1094C138.351 37.1887 138.778 37.3406 139.177 37.5651C139.577 37.7895 139.917 38.0918 140.2 38.472C140.482 38.8522 140.676 39.3157 140.781 39.8627C140.888 40.4063 140.877 41.0426 140.75 41.7717L140.653 42.3264L134.263 41.2087L134.468 40.0365L139.324 40.886C139.396 40.4744 139.376 40.0951 139.264 39.7484C139.153 39.3981 138.962 39.104 138.691 38.866C138.423 38.6286 138.087 38.4745 137.682 38.4038C137.243 38.3269 136.84 38.3679 136.474 38.5268C136.112 38.6829 135.812 38.918 135.574 39.2323C135.34 39.5437 135.188 39.8999 135.117 40.3011L134.957 41.2169C134.863 41.7542 134.878 42.2277 135 42.6374C135.126 43.0478 135.343 43.3823 135.65 43.6409C135.957 43.8961 136.34 44.0637 136.797 44.1436C137.093 44.1955 137.371 44.2009 137.63 44.1599C137.889 44.1154 138.123 44.0232 138.331 43.8834C138.539 43.7436 138.712 43.5563 138.85 43.3216L140.284 43.8476C140.089 44.2629 139.809 44.6077 139.445 44.8819C139.085 45.1533 138.659 45.3394 138.166 45.4402C137.678 45.5382 137.141 45.5359 136.555 45.4334ZM147.443 43.7354L148.266 39.0309L149.836 39.3055L148.43 47.3434L146.891 47.0743L147.135 45.6823L147.051 45.6677C146.791 46.0644 146.432 46.3702 145.974 46.5848C145.519 46.7966 144.991 46.8497 144.387 46.7442C143.871 46.6538 143.434 46.4605 143.076 46.1642C142.722 45.865 142.471 45.4705 142.323 44.9808C142.178 44.4917 142.164 43.9157 142.28 43.2529L143.174 38.1402L144.739 38.4139L143.877 43.3382C143.781 43.8859 143.857 44.3485 144.104 44.7261C144.35 45.1036 144.716 45.3348 145.201 45.4196C145.494 45.4709 145.798 45.4486 146.114 45.3527C146.432 45.2575 146.713 45.0783 146.957 44.8154C147.204 44.553 147.366 44.193 147.443 43.7354ZM150.005 50.7254L151.938 39.6733L153.466 39.9406L153.238 41.2436L153.369 41.2665C153.489 41.1149 153.654 40.9441 153.863 40.7543C154.072 40.5644 154.343 40.414 154.675 40.3031C155.008 40.1888 155.424 40.1752 155.923 40.2625C156.572 40.376 157.122 40.6413 157.574 41.0583C158.026 41.4753 158.343 42.0179 158.525 42.6861C158.71 43.3548 158.726 44.1236 158.574 44.9922C158.422 45.8609 158.147 46.5804 157.749 47.1508C157.351 47.7176 156.87 48.1243 156.306 48.3707C155.742 48.6136 155.136 48.6783 154.487 48.5648C153.998 48.4794 153.613 48.3275 153.331 48.1092C153.053 47.8916 152.846 47.6576 152.71 47.4073C152.574 47.157 152.474 46.9381 152.41 46.7507L152.315 46.7342L151.569 50.9991L150.005 50.7254ZM152.768 43.9604C152.669 44.5256 152.665 45.0354 152.754 45.4897C152.844 45.944 153.023 46.3186 153.291 46.6137C153.56 46.9052 153.92 47.0903 154.37 47.1691C154.837 47.2508 155.25 47.1953 155.607 47.0026C155.965 46.8063 156.262 46.5077 156.497 46.1066C156.736 45.7062 156.903 45.2374 156.997 44.7001C157.089 44.1698 157.092 43.6796 157.006 43.2294C156.923 42.7798 156.744 42.4051 156.469 42.1054C156.198 41.8062 155.827 41.6155 155.356 41.5331C154.902 41.4537 154.498 41.5035 154.143 41.6823C153.792 41.8617 153.499 42.1467 153.265 42.5373C153.032 42.9279 152.866 43.4023 152.768 43.9604Z" fill="#678593"/>
<path fill-rule="evenodd" clip-rule="evenodd" d="M182.92 31.5706C182.338 34.9 179.166 37.1269 175.837 36.5446L172.088 57.9791C175.417 58.5615 177.644 61.7326 177.061 65.0621L250.073 77.8338C250.655 74.5044 253.826 72.2775 257.156 72.8599L260.905 51.4254L260.905 51.4254C257.576 50.843 255.349 47.6718 255.931 44.3424L182.92 31.5706Z" fill="#B5E4CA"/>
<path d="M190.779 43.7064L192.741 44.0497L194.696 52.9775L194.822 52.9995L199.691 45.2653L201.653 45.6086L199.778 56.3259L198.24 56.0568L199.597 48.3014L199.497 48.284L194.983 55.4708L193.706 55.2474L191.9 46.9496L191.8 46.9322L190.443 54.6928L188.904 54.4237L190.779 43.7064ZM204.312 57.3023C203.803 57.2132 203.359 57.0384 202.98 56.778C202.602 56.5141 202.324 56.1797 202.147 55.7748C201.973 55.3705 201.932 54.9049 202.024 54.3781C202.104 53.9246 202.256 53.5665 202.482 53.304C202.708 53.0415 202.984 52.8507 203.31 52.7316C203.637 52.6125 203.991 52.5414 204.372 52.5183C204.754 52.4951 205.139 52.4942 205.527 52.5153C206.018 52.5437 206.417 52.5667 206.723 52.5843C207.03 52.5984 207.258 52.5755 207.409 52.5156C207.56 52.4557 207.651 52.3315 207.684 52.1431L207.691 52.1065C207.771 51.6495 207.704 51.2728 207.489 50.9764C207.279 50.6807 206.92 50.4886 206.415 50.4001C205.888 50.3079 205.452 50.3522 205.108 50.5328C204.767 50.7106 204.515 50.9307 204.35 51.1932L202.939 50.601C203.198 50.1431 203.522 49.7934 203.909 49.552C204.301 49.3077 204.728 49.1559 205.192 49.0968C205.656 49.0341 206.13 49.0452 206.615 49.13C206.936 49.1862 207.27 49.2841 207.615 49.4237C207.965 49.5604 208.28 49.7557 208.559 50.0094C208.842 50.2638 209.052 50.5936 209.19 50.9988C209.328 51.4005 209.346 51.8944 209.243 52.4805L208.31 57.8182L206.782 57.5509L206.974 56.452L206.911 56.441C206.774 56.6256 206.588 56.798 206.351 56.9579C206.115 57.1179 205.827 57.2347 205.487 57.3082C205.147 57.3818 204.755 57.3798 204.312 57.3023ZM204.872 56.1058C205.304 56.1815 205.689 56.1607 206.026 56.0435C206.366 55.9269 206.641 55.7448 206.85 55.4972C207.062 55.2468 207.197 54.9629 207.252 54.6454L207.433 53.6093C207.368 53.6553 207.25 53.6887 207.081 53.7095C206.917 53.7274 206.73 53.7361 206.521 53.7356C206.314 53.7316 206.111 53.7268 205.914 53.7211C205.718 53.712 205.554 53.7048 205.422 53.6997C205.112 53.685 204.823 53.701 204.556 53.7478C204.293 53.7951 204.071 53.8912 203.891 54.0359C203.715 54.1777 203.603 54.3882 203.554 54.6673C203.486 55.0545 203.578 55.3726 203.829 55.6215C204.081 55.8669 204.429 56.0283 204.872 56.1058ZM212.31 55.7081L212.633 53.7962L212.905 53.8438L216.703 51.0026L218.577 51.3303L214.246 54.5638L214.001 54.5208L212.31 55.7081ZM210.394 58.1828L212.268 47.4655L213.833 47.7392L211.958 58.4565L210.394 58.1828ZM215.47 59.0707L213.26 54.7471L214.529 53.842L217.39 59.4067L215.47 59.0707ZM221.701 60.328C220.909 60.1895 220.257 59.901 219.744 59.4625C219.235 59.0211 218.88 58.4645 218.677 57.7927C218.479 57.118 218.452 56.3638 218.598 55.53C218.742 54.7066 219.023 54.0079 219.44 53.4336C219.86 52.8599 220.378 52.4455 220.995 52.1901C221.614 51.9354 222.298 51.8734 223.044 52.004C223.498 52.0833 223.924 52.2352 224.324 52.4597C224.723 52.6841 225.064 52.9864 225.346 53.3666C225.628 53.7467 225.822 54.2103 225.928 54.7573C226.034 55.3009 226.024 55.9372 225.896 56.6663L225.799 57.221L219.409 56.1033L219.615 54.9311L224.471 55.7806C224.543 55.369 224.523 54.9897 224.411 54.643C224.3 54.2927 224.108 53.9986 223.837 53.7606C223.569 53.5232 223.233 53.3691 222.829 53.2983C222.389 53.2214 221.986 53.2625 221.621 53.4214C221.259 53.5775 220.959 53.8126 220.721 54.1269C220.486 54.4382 220.334 54.7945 220.264 55.1957L220.104 56.1115C220.01 56.6488 220.024 57.1223 220.146 57.532C220.272 57.9423 220.489 58.2769 220.796 58.5355C221.104 58.7907 221.486 58.9582 221.943 59.0382C222.24 59.0901 222.517 59.0955 222.776 59.0545C223.036 59.01 223.269 58.9178 223.477 58.778C223.685 58.6382 223.858 58.4509 223.996 58.2162L225.43 58.7422C225.236 59.1575 224.956 59.5023 224.592 59.7765C224.231 60.0479 223.805 60.234 223.313 60.3348C222.825 60.4328 222.288 60.4305 221.701 60.328ZM232.589 58.63L233.412 53.9255L234.982 54.2001L233.576 62.238L232.038 61.9689L232.281 60.5769L232.197 60.5623C231.937 60.959 231.578 61.2648 231.12 61.4794C230.666 61.6912 230.137 61.7443 229.534 61.6387C229.017 61.5484 228.58 61.3551 228.222 61.0588C227.868 60.7595 227.617 60.3651 227.469 59.8754C227.324 59.3863 227.31 58.8103 227.426 58.1475L228.32 53.0348L229.885 53.3085L229.024 58.2328C228.928 58.7805 229.003 59.2431 229.25 59.6207C229.497 59.9982 229.863 60.2294 230.348 60.3142C230.641 60.3655 230.945 60.3432 231.26 60.2473C231.579 60.152 231.86 59.9729 232.104 59.71C232.351 59.4476 232.513 59.0876 232.589 58.63ZM235.151 65.62L237.085 54.5679L238.613 54.8352L238.385 56.1382L238.515 56.1611C238.635 56.0095 238.8 55.8387 239.01 55.6489C239.219 55.459 239.49 55.3086 239.822 55.1977C240.155 55.0833 240.571 55.0698 241.069 55.1571C241.718 55.2706 242.269 55.5359 242.721 55.9529C243.173 56.3699 243.49 56.9125 243.671 57.5807C243.856 58.2494 243.873 59.0182 243.721 59.8868C243.569 60.7555 243.294 61.475 242.895 62.0454C242.498 62.6122 242.017 63.0189 241.452 63.2653C240.889 63.5082 240.282 63.5729 239.633 63.4594C239.145 63.374 238.76 63.2221 238.478 63.0038C238.2 62.7862 237.993 62.5522 237.857 62.3019C237.721 62.0516 237.62 61.8327 237.556 61.6453L237.462 61.6288L236.716 65.8937L235.151 65.62ZM237.915 58.855C237.816 59.4202 237.811 59.9299 237.901 60.3842C237.99 60.8386 238.169 61.2132 238.438 61.5083C238.707 61.7998 239.066 61.9849 239.516 62.0637C239.984 62.1454 240.396 62.0899 240.753 61.8972C241.111 61.7009 241.408 61.4023 241.644 61.0012C241.883 60.6008 242.049 60.1319 242.143 59.5947C242.236 59.0644 242.239 58.5742 242.152 58.124C242.069 57.6744 241.89 57.2997 241.615 57C241.344 56.7008 240.973 56.5101 240.502 56.4277C240.049 56.3483 239.644 56.3981 239.289 56.5769C238.938 56.7563 238.646 57.0413 238.412 57.4319C238.178 57.8225 238.012 58.2968 237.915 58.855Z" fill="#678593"/>
<path fill-rule="evenodd" clip-rule="evenodd" d="M1.95083 28.2174L5.70034 6.78281L5.70061 6.78285C9.03002 7.36526 12.2012 5.13839 12.7836 1.80899L85.7946 14.5807C85.2122 17.9101 87.4391 21.0813 90.7685 21.6637L90.7686 21.6637L87.0191 43.0982C83.6897 42.5159 80.5186 44.7428 79.9362 48.0722L6.92482 35.3004C7.50723 31.971 5.28033 28.7998 1.95091 28.2174C1.95088 28.2174 1.95086 28.2174 1.95083 28.2174Z" fill="#B5E4CA"/>
<path d="M20.6428 13.9447L22.6052 14.288L24.5598 23.2158L24.6854 23.2378L29.5546 15.5036L31.517 15.8469L29.6423 26.5642L28.1038 26.295L29.4604 18.5397L29.361 18.5223L24.8463 25.709L23.5695 25.4857L21.7635 17.1879L21.6641 17.1705L20.3065 24.9311L18.768 24.6619L20.6428 13.9447ZM34.1757 27.5405C33.6663 27.4515 33.2223 27.2767 32.8436 27.0163C32.4655 26.7524 32.1878 26.418 32.0105 26.0131C31.8368 25.6087 31.796 25.1432 31.8881 24.6164C31.9675 24.1629 32.12 23.8048 32.3457 23.5423C32.5714 23.2798 32.8474 23.089 33.1739 22.9699C33.5003 22.8508 33.8543 22.7797 34.2359 22.7566C34.6175 22.7334 35.0024 22.7324 35.3906 22.7536C35.8818 22.782 36.2804 22.805 36.5866 22.8226C36.8933 22.8367 37.122 22.8138 37.2727 22.7539C37.4234 22.6939 37.5153 22.5698 37.5482 22.3814L37.5546 22.3448C37.6346 21.8877 37.5674 21.5111 37.3532 21.2147C37.1425 20.919 36.7842 20.7269 36.2783 20.6384C35.7515 20.5462 35.3159 20.5905 34.9715 20.7711C34.6312 20.9489 34.3788 21.169 34.2142 21.4314L32.8023 20.8393C33.0622 20.3814 33.3858 20.0317 33.7732 19.7903C34.1647 19.546 34.5922 19.3942 35.0555 19.3351C35.5195 19.2724 35.994 19.2835 36.4789 19.3683C36.7999 19.4245 37.1333 19.5223 37.4792 19.6619C37.8292 19.7987 38.1438 19.9939 38.423 20.2477C38.7057 20.5021 38.9159 20.8319 39.0535 21.2371C39.1918 21.6388 39.2097 22.1327 39.1071 22.7188L38.1734 28.0565L36.6454 27.7892L36.8376 26.6903L36.7748 26.6793C36.6382 26.8639 36.4517 27.0362 36.2152 27.1962C35.9787 27.3562 35.6904 27.4729 35.3503 27.5465C35.0103 27.62 34.6187 27.6181 34.1757 27.5405ZM34.7355 26.3441C35.1681 26.4198 35.5529 26.399 35.8898 26.2818C36.2302 26.1651 36.5047 25.9831 36.7134 25.7355C36.9262 25.4851 37.0603 25.2012 37.1159 24.8837L37.2971 23.8476C37.2315 23.8936 37.1142 23.927 36.9452 23.9478C36.7803 23.9657 36.5936 23.9744 36.3852 23.9739C36.1773 23.9699 35.975 23.965 35.7783 23.9594C35.5821 23.9502 35.418 23.9431 35.2858 23.938C34.9756 23.9232 34.687 23.9393 34.4199 23.986C34.1564 24.0334 33.9346 24.1295 33.7547 24.2742C33.5789 24.416 33.4666 24.6264 33.4177 24.9055C33.35 25.2928 33.4418 25.6109 33.6931 25.8598C33.945 26.1052 34.2924 26.2666 34.7355 26.3441ZM42.1735 25.9464L42.4972 24.0345L42.7693 24.0821L46.5669 21.2409L48.4403 21.5686L44.1103 24.8021L43.8643 24.759L42.1735 25.9464ZM40.2575 28.4211L42.1322 17.7038L43.6969 17.9775L41.8222 28.6948L40.2575 28.4211ZM45.3335 29.309L43.1236 24.9854L44.3929 24.0803L47.2541 29.645L45.3335 29.309ZM51.5652 30.5663C50.7732 30.4278 50.1208 30.1392 49.6078 29.7008C49.099 29.2594 48.7433 28.7028 48.5409 28.031C48.3425 27.3563 48.3162 26.6021 48.4621 25.7683C48.6061 24.9449 48.8865 24.2461 49.3034 23.6719C49.7237 23.0982 50.2421 22.6837 50.8584 22.4284C51.4782 22.1737 52.1614 22.1116 52.908 22.2422C53.3616 22.3216 53.788 22.4735 54.1874 22.6979C54.5868 22.9224 54.9276 23.2247 55.2098 23.6049C55.4921 23.985 55.6861 24.4486 55.7917 24.9956C55.898 25.5391 55.8873 26.1755 55.7598 26.9046L55.6628 27.4593L49.2732 26.3416L49.4783 25.1694L54.3345 26.0189C54.4066 25.6072 54.3866 25.228 54.2747 24.8813C54.1634 24.531 53.9721 24.2369 53.7009 23.9989C53.4333 23.7615 53.0971 23.6074 52.6924 23.5366C52.2528 23.4597 51.8501 23.5007 51.4844 23.6597C51.1227 23.8157 50.8227 24.0509 50.5843 24.3652C50.3501 24.6765 50.1979 25.0328 50.1277 25.434L49.9675 26.3498C49.8735 26.8871 49.8878 27.3606 50.0103 27.7703C50.1362 28.1806 50.3528 28.5151 50.6599 28.7738C50.9676 29.029 51.35 29.1965 51.807 29.2765C52.1035 29.3283 52.3812 29.3338 52.6401 29.2928C52.8995 29.2483 53.1332 29.1561 53.341 29.0163C53.5488 28.8765 53.7218 28.6892 53.8599 28.4545L55.2942 28.9804C55.0993 29.3958 54.8197 29.7406 54.4553 30.0148C54.095 30.2861 53.6688 30.4723 53.1765 30.5731C52.6884 30.6711 52.1513 30.6688 51.5652 30.5663ZM62.453 28.8682L63.276 24.1637L64.8459 24.4384L63.4398 32.4763L61.9013 32.2072L62.1448 30.8152L62.0611 30.8006C61.8011 31.1973 61.442 31.503 60.9838 31.7177C60.5297 31.9295 60.0009 31.9826 59.3973 31.877C58.881 31.7867 58.4438 31.5934 58.0858 31.297C57.7318 30.9978 57.4808 30.6034 57.3328 30.1137C57.1882 29.6246 57.1739 29.0486 57.2899 28.3857L58.1843 23.2731L59.7489 23.5468L58.8875 28.4711C58.7917 29.0188 58.8672 29.4814 59.114 29.859C59.3607 30.2365 59.7266 30.4677 60.2115 30.5525C60.5045 30.6038 60.8087 30.5815 61.1239 30.4856C61.4425 30.3903 61.7237 30.2112 61.9675 29.9482C62.2147 29.6859 62.3766 29.3259 62.453 28.8682ZM65.0149 35.8583L66.9483 24.8061L68.4763 25.0734L68.2484 26.3765L68.3792 26.3993C68.4992 26.2478 68.6639 26.077 68.8733 25.8871C69.0827 25.6972 69.3535 25.5469 69.6857 25.436C70.0185 25.3216 70.4344 25.3081 70.9332 25.3954C71.5821 25.5089 72.1326 25.7741 72.5846 26.1912C73.0365 26.6082 73.3533 27.1508 73.5348 27.819C73.7199 28.4877 73.7364 29.2564 73.5845 30.1251C73.4325 30.9938 73.1574 31.7133 72.7592 32.2837C72.3617 32.8505 71.8806 33.2571 71.3162 33.5036C70.7524 33.7465 70.146 33.8112 69.4971 33.6977C69.0087 33.6123 68.6236 33.4604 68.3418 33.2421C68.0634 33.0244 67.8563 32.7905 67.7203 32.5402C67.5843 32.2899 67.4842 32.071 67.4199 31.8836L67.3257 31.8671L66.5796 36.132L65.0149 35.8583ZM67.7785 29.0933C67.6797 29.6585 67.675 30.1682 67.7645 30.6225C67.854 31.0768 68.033 31.4515 68.3014 31.7465C68.5704 32.0381 68.9299 32.2232 69.3799 32.3019C69.8474 32.3837 70.2598 32.3282 70.6171 32.1354C70.975 31.9392 71.2718 31.6405 71.5073 31.2395C71.7463 30.8391 71.9128 30.3702 72.0068 29.833C72.0996 29.3027 72.1026 28.8124 72.016 28.3622C71.9329 27.9126 71.7539 27.538 71.4792 27.2382C71.2079 26.9391 70.8368 26.7483 70.3658 26.666C69.9123 26.5866 69.5081 26.6364 69.1532 26.8152C68.8018 26.9946 68.5093 27.2796 68.2756 27.6702C68.0419 28.0607 67.8762 28.5351 67.7785 29.0933Z" fill="#678593"/>
</svg>
