<svg width="517" height="123" viewBox="0 0 517 123" fill="none" xmlns="http://www.w3.org/2000/svg">
<path fill-rule="evenodd" clip-rule="evenodd" d="M341.328 86.9864L345.077 65.5519L345.077 65.5519C348.407 66.1343 351.578 63.9074 352.16 60.578L425.172 73.3498C424.589 76.6791 426.816 79.8503 430.145 80.4327L426.396 101.867C423.067 101.285 419.895 103.512 419.313 106.841L346.302 94.0695C346.884 90.74 344.657 87.5689 341.328 86.9864C341.328 86.9864 341.328 86.9864 341.328 86.9864Z" fill="#B5E4CA"/>
<path d="M372.254 78.4458L370.622 78.1602C370.62 77.8003 370.557 77.4729 370.432 77.1778C370.308 76.8828 370.138 76.6212 369.922 76.3929C369.707 76.1647 369.454 75.9766 369.163 75.8287C368.876 75.6815 368.562 75.5779 368.22 75.5181C367.603 75.4101 367.022 75.4686 366.48 75.6937C365.94 75.9193 365.477 76.3075 365.089 76.8581C364.705 77.4093 364.438 78.1175 364.286 78.9827C364.134 79.8549 364.145 80.6154 364.319 81.2643C364.496 81.9138 364.802 82.4348 365.237 82.8272C365.672 83.2196 366.195 83.4693 366.805 83.5761C367.143 83.6353 367.472 83.646 367.792 83.6084C368.115 83.5679 368.417 83.4787 368.696 83.3406C368.976 83.2025 369.224 83.0176 369.44 82.7858C369.661 82.5512 369.835 82.2687 369.961 81.9384L371.592 82.2293C371.413 82.7408 371.159 83.1961 370.83 83.5953C370.506 83.9915 370.12 84.3159 369.673 84.5686C369.23 84.8183 368.744 84.9867 368.215 85.0739C367.686 85.1611 367.126 85.1531 366.536 85.0499C365.608 84.8876 364.82 84.5232 364.171 83.9567C363.523 83.3867 363.062 82.6534 362.787 81.7568C362.516 80.8609 362.48 79.8425 362.68 78.7017C362.88 77.5574 363.261 76.612 363.823 75.8653C364.386 75.1153 365.068 74.5839 365.871 74.2712C366.674 73.9551 367.538 73.8779 368.462 74.0396C369.031 74.1391 369.547 74.3139 370.01 74.5639C370.478 74.811 370.881 75.126 371.22 75.509C371.56 75.8884 371.82 76.3258 371.999 76.821C372.179 77.3127 372.264 77.8543 372.254 78.4458ZM375.107 86.5815C374.597 86.4924 374.153 86.3176 373.774 86.0572C373.396 85.7933 373.119 85.4589 372.941 85.054C372.768 84.6497 372.727 84.1841 372.819 83.6573C372.898 83.2038 373.051 82.8457 373.277 82.5832C373.502 82.3207 373.778 82.1299 374.105 82.0108C374.431 81.8917 374.785 81.8206 375.167 81.7975C375.548 81.7743 375.933 81.7734 376.321 81.7945C376.813 81.8229 377.211 81.8459 377.517 81.8635C377.824 81.8776 378.053 81.8547 378.204 81.7948C378.354 81.7349 378.446 81.6107 378.479 81.4223L378.486 81.3857C378.565 80.9287 378.498 80.552 378.284 80.2556C378.073 79.9599 377.715 79.7678 377.209 79.6793C376.682 79.5871 376.247 79.6314 375.902 79.812C375.562 79.9898 375.31 80.2099 375.145 80.4724L373.733 79.8802C373.993 79.4223 374.317 79.0726 374.704 78.8312C375.096 78.5869 375.523 78.4351 375.986 78.376C376.45 78.3133 376.925 78.3244 377.41 78.4092C377.731 78.4654 378.064 78.5633 378.41 78.7029C378.76 78.8396 379.075 79.0349 379.354 79.2886C379.637 79.543 379.847 79.8728 379.984 80.278C380.123 80.6797 380.141 81.1736 380.038 81.7597L379.104 87.0974L377.576 86.8301L377.769 85.7312L377.706 85.7202C377.569 85.9048 377.383 86.0772 377.146 86.2371C376.91 86.3971 376.621 86.5139 376.281 86.5874C375.941 86.661 375.55 86.659 375.107 86.5815ZM375.666 85.385C376.099 85.4607 376.484 85.4399 376.821 85.3227C377.161 85.2061 377.436 85.024 377.644 84.7764C377.857 84.526 377.991 84.2421 378.047 83.9246L378.228 82.8885C378.162 82.9345 378.045 82.9679 377.876 82.9887C377.711 83.0066 377.525 83.0153 377.316 83.0148C377.108 83.0108 376.906 83.006 376.709 83.0003C376.513 82.9912 376.349 82.984 376.217 82.9789C375.907 82.9642 375.618 82.9802 375.351 83.027C375.087 83.0743 374.866 83.1704 374.686 83.3151C374.51 83.4569 374.397 83.6674 374.349 83.9465C374.281 84.3337 374.373 84.6518 374.624 84.9007C374.876 85.1461 375.223 85.3075 375.666 85.385ZM381.188 87.462L382.594 79.424L384.107 79.6886L383.883 80.9654L383.967 80.9801C384.189 80.5731 384.507 80.2781 384.92 80.0951C385.337 79.9092 385.782 79.8575 386.252 79.9399C386.35 79.957 386.465 79.9806 386.596 80.0108C386.731 80.0415 386.836 80.0689 386.911 80.0928L386.649 81.5894C386.589 81.561 386.481 81.5223 386.324 81.4733C386.168 81.4208 386.009 81.3805 385.849 81.3524C385.479 81.2877 385.136 81.3086 384.819 81.4149C384.506 81.5184 384.242 81.6932 384.026 81.9396C383.811 82.1824 383.673 82.4782 383.612 82.8271L382.753 87.7357L381.188 87.462ZM386.317 91.4655L388.25 80.4134L389.778 80.6807L389.55 81.9837L389.681 82.0066C389.801 81.855 389.966 81.6842 390.175 81.4944C390.384 81.3045 390.655 81.1541 390.987 81.0432C391.32 80.9289 391.736 80.9153 392.235 81.0026C392.884 81.1161 393.434 81.3814 393.886 81.7984C394.338 82.2154 394.655 82.758 394.837 83.4262C395.022 84.0949 395.038 84.8637 394.886 85.7324C394.734 86.601 394.459 87.3205 394.061 87.8909C393.663 88.4577 393.182 88.8644 392.618 89.1108C392.054 89.3537 391.448 89.4184 390.799 89.3049C390.31 89.2195 389.925 89.0676 389.644 88.8493C389.365 88.6317 389.158 88.3977 389.022 88.1474C388.886 87.8971 388.786 87.6782 388.722 87.4908L388.627 87.4743L387.881 91.7392L386.317 91.4655ZM389.08 84.7005C388.981 85.2657 388.977 85.7755 389.066 86.2298C389.156 86.6841 389.335 87.0587 389.603 87.3538C389.872 87.6453 390.232 87.8304 390.682 87.9092C391.149 87.9909 391.562 87.9354 391.919 87.7427C392.277 87.5464 392.574 87.2478 392.809 86.8467C393.048 86.4463 393.215 85.9775 393.309 85.4402C393.401 84.9099 393.404 84.4197 393.318 83.9695C393.235 83.5199 393.056 83.1452 392.781 82.8455C392.51 82.5463 392.139 82.3556 391.668 82.2732C391.214 82.1938 390.81 82.2436 390.455 82.4224C390.104 82.6018 389.811 82.8868 389.577 83.2774C389.344 83.668 389.178 84.1424 389.08 84.7005ZM399.375 90.8105C398.583 90.672 397.931 90.3835 397.418 89.945C396.909 89.5036 396.553 88.947 396.351 88.2752C396.152 87.6005 396.126 86.8463 396.272 86.0125C396.416 85.1891 396.696 84.4904 397.113 83.9161C397.533 83.3424 398.052 82.928 398.668 82.6726C399.288 82.4179 399.971 82.3559 400.718 82.4865C401.171 82.5658 401.598 82.7177 401.997 82.9422C402.397 83.1666 402.737 83.4689 403.02 83.8491C403.302 84.2292 403.496 84.6928 403.601 85.2398C403.708 85.7834 403.697 86.4197 403.57 87.1488L403.473 87.7035L397.083 86.5858L397.288 85.4136L402.144 86.2631C402.216 85.8515 402.196 85.4722 402.084 85.1255C401.973 84.7752 401.782 84.4811 401.511 84.2431C401.243 84.0057 400.907 83.8516 400.502 83.7808C400.063 83.704 399.66 83.745 399.294 83.9039C398.932 84.06 398.632 84.2951 398.394 84.6094C398.16 84.9207 398.008 85.277 397.937 85.6782L397.777 86.594C397.683 87.1313 397.698 87.6048 397.82 88.0145C397.946 88.4249 398.163 88.7594 398.47 89.018C398.777 89.2732 399.16 89.4407 399.617 89.5207C399.913 89.5726 400.191 89.578 400.45 89.537C400.709 89.4925 400.943 89.4003 401.151 89.2605C401.359 89.1207 401.532 88.9334 401.67 88.6987L403.104 89.2247C402.909 89.64 402.629 89.9848 402.265 90.259C401.905 90.5304 401.479 90.7165 400.986 90.8173C400.498 90.9153 399.961 90.913 399.375 90.8105ZM409.746 84.1736L409.526 85.4296L405.136 84.6615L405.356 83.4056L409.746 84.1736ZM406.87 81.6858L408.435 81.9595L407.104 89.5631C407.051 89.8666 407.057 90.1031 407.121 90.2724C407.185 90.4383 407.284 90.5617 407.417 90.6425C407.555 90.7205 407.709 90.7744 407.88 90.8043C408.005 90.8263 408.117 90.8368 408.214 90.8358C408.311 90.8349 408.387 90.8337 408.441 90.8324L408.498 92.1744C408.401 92.1934 408.266 92.2057 408.092 92.2113C407.918 92.2204 407.705 92.2047 407.453 92.1643C407.04 92.0992 406.669 91.9588 406.34 91.7431C406.011 91.5273 405.765 91.2398 405.601 90.8804C405.438 90.521 405.398 90.0988 405.483 89.6139L406.87 81.6858Z" fill="#678593"/>
<path fill-rule="evenodd" clip-rule="evenodd" d="M437.228 75.4588C436.646 78.7882 433.475 81.015 430.146 80.4328L426.396 101.867C429.725 102.45 431.952 105.621 431.37 108.95L504.381 121.722C504.963 118.393 508.135 116.166 511.464 116.748L511.464 116.748L515.214 95.3136L515.214 95.3136C511.884 94.7312 509.657 91.56 510.24 88.2306L437.228 75.4588Z" fill="#B5E4CA"/>
<path d="M445.087 87.5946L447.05 87.9379L449.004 96.8657L449.13 96.8877L453.999 89.1535L455.962 89.4968L454.087 100.214L452.548 99.9449L453.905 92.1896L453.806 92.1722L449.291 99.3589L448.014 99.1356L446.208 90.8378L446.109 90.8204L444.751 98.581L443.213 98.3119L445.087 87.5946ZM458.62 101.19C458.111 101.101 457.667 100.927 457.288 100.666C456.91 100.402 456.632 100.068 456.455 99.663C456.281 99.2586 456.241 98.7931 456.333 98.2663C456.412 97.8128 456.565 97.4547 456.79 97.1922C457.016 96.9297 457.292 96.7389 457.619 96.6198C457.945 96.5007 458.299 96.4296 458.681 96.4065C459.062 96.3833 459.447 96.3823 459.835 96.4035C460.326 96.4319 460.725 96.4549 461.031 96.4725C461.338 96.4866 461.567 96.4637 461.717 96.4038C461.868 96.3438 461.96 96.2197 461.993 96.0313L461.999 95.9947C462.079 95.5376 462.012 95.161 461.798 94.8646C461.587 94.5689 461.229 94.3768 460.723 94.2883C460.196 94.1961 459.761 94.2404 459.416 94.421C459.076 94.5988 458.823 94.8189 458.659 95.0813L457.247 94.4892C457.507 94.0313 457.831 93.6816 458.218 93.4402C458.609 93.1959 459.037 93.0441 459.5 92.985C459.964 92.9223 460.439 92.9334 460.924 93.0182C461.245 93.0744 461.578 93.1722 461.924 93.3118C462.274 93.4486 462.589 93.6438 462.868 93.8976C463.15 94.152 463.361 94.4818 463.498 94.887C463.636 95.2887 463.654 95.7826 463.552 96.3687L462.618 101.706L461.09 101.439L461.282 100.34L461.22 100.329C461.083 100.514 460.896 100.686 460.66 100.846C460.423 101.006 460.135 101.123 459.795 101.196C459.455 101.27 459.063 101.268 458.62 101.19ZM459.18 99.994C459.613 100.07 459.998 100.049 460.334 99.9317C460.675 99.815 460.949 99.633 461.158 99.3854C461.371 99.135 461.505 98.8511 461.561 98.5336L461.742 97.4975C461.676 97.5435 461.559 97.5769 461.39 97.5977C461.225 97.6156 461.038 97.6243 460.83 97.6238C460.622 97.6198 460.42 97.6149 460.223 97.6093C460.027 97.6001 459.863 97.593 459.731 97.5879C459.42 97.5731 459.132 97.5892 458.865 97.6359C458.601 97.6833 458.379 97.7794 458.199 97.9241C458.024 98.0659 457.911 98.2763 457.862 98.5554C457.795 98.9427 457.886 99.2608 458.138 99.5097C458.39 99.7551 458.737 99.9165 459.18 99.994ZM466.618 99.5963L466.942 97.6844L467.214 97.732L471.012 94.8908L472.885 95.2185L468.555 98.452L468.309 98.4089L466.618 99.5963ZM464.702 102.071L466.577 91.3537L468.142 91.6274L466.267 102.345L464.702 102.071ZM469.778 102.959L467.568 98.6353L468.838 97.7302L471.699 103.295L469.778 102.959ZM476.01 104.216C475.218 104.078 474.566 103.789 474.053 103.351C473.544 102.909 473.188 102.353 472.986 101.681C472.787 101.006 472.761 100.252 472.907 99.4182C473.051 98.5948 473.331 97.896 473.748 97.3218C474.168 96.7481 474.687 96.3336 475.303 96.0783C475.923 95.8236 476.606 95.7615 477.353 95.8921C477.806 95.9715 478.233 96.1234 478.632 96.3478C479.031 96.5723 479.372 96.8746 479.655 97.2548C479.937 97.6349 480.131 98.0985 480.236 98.6455C480.343 99.1891 480.332 99.8254 480.205 100.555L480.107 101.109L473.718 99.9915L473.923 98.8193L478.779 99.6688C478.851 99.2571 478.831 98.8779 478.719 98.5312C478.608 98.1809 478.417 97.8868 478.146 97.6488C477.878 97.4114 477.542 97.2573 477.137 97.1865C476.698 97.1096 476.295 97.1507 475.929 97.3096C475.567 97.4656 475.267 97.7008 475.029 98.0151C474.795 98.3264 474.643 98.6827 474.572 99.0839L474.412 99.9997C474.318 100.537 474.332 101.01 474.455 101.42C474.581 101.831 474.797 102.165 475.105 102.424C475.412 102.679 475.795 102.846 476.252 102.926C476.548 102.978 476.826 102.984 477.085 102.943C477.344 102.898 477.578 102.806 477.786 102.666C477.994 102.526 478.167 102.339 478.305 102.104L479.739 102.63C479.544 103.046 479.264 103.39 478.9 103.665C478.54 103.936 478.113 104.122 477.621 104.223C477.133 104.321 476.596 104.319 476.01 104.216ZM486.898 102.518L487.721 97.8136L489.291 98.0883L487.885 106.126L486.346 105.857L486.59 104.465L486.506 104.45C486.246 104.847 485.887 105.153 485.429 105.368C484.974 105.579 484.446 105.633 483.842 105.527C483.326 105.437 482.889 105.243 482.53 104.947C482.177 104.648 481.926 104.253 481.777 103.764C481.633 103.274 481.619 102.698 481.735 102.036L482.629 96.923L484.194 97.1967L483.332 102.121C483.236 102.669 483.312 103.131 483.559 103.509C483.805 103.886 484.171 104.118 484.656 104.202C484.949 104.254 485.253 104.231 485.569 104.135C485.887 104.04 486.168 103.861 486.412 103.598C486.659 103.336 486.821 102.976 486.898 102.518ZM489.46 109.508L491.393 98.456L492.921 98.7233L492.693 100.026L492.824 100.049C492.944 99.8977 493.109 99.7269 493.318 99.537C493.527 99.3472 493.798 99.1968 494.13 99.0859C494.463 98.9715 494.879 98.958 495.378 99.0453C496.027 99.1588 496.577 99.424 497.029 99.8411C497.481 100.258 497.798 100.801 497.98 101.469C498.165 102.138 498.181 102.906 498.029 103.775C497.877 104.644 497.602 105.363 497.204 105.934C496.806 106.5 496.325 106.907 495.761 107.153C495.197 107.396 494.591 107.461 493.942 107.348C493.453 107.262 493.068 107.11 492.786 106.892C492.508 106.674 492.301 106.44 492.165 106.19C492.029 105.94 491.929 105.721 491.865 105.533L491.77 105.517L491.024 109.782L489.46 109.508ZM492.223 102.743C492.124 103.308 492.12 103.818 492.209 104.272C492.299 104.727 492.478 105.101 492.746 105.396C493.015 105.688 493.375 105.873 493.825 105.952C494.292 106.034 494.704 105.978 495.062 105.785C495.42 105.589 495.716 105.29 495.952 104.889C496.191 104.489 496.358 104.02 496.452 103.483C496.544 102.953 496.547 102.462 496.461 102.012C496.378 101.563 496.199 101.188 495.924 100.888C495.653 100.589 495.281 100.398 494.811 100.316C494.357 100.237 493.953 100.286 493.598 100.465C493.247 100.645 492.954 100.93 492.72 101.32C492.487 101.711 492.321 102.185 492.223 102.743Z" fill="#678593"/>
<path fill-rule="evenodd" clip-rule="evenodd" d="M267.092 45.6971C266.51 49.0266 263.338 51.2534 260.009 50.671L256.259 72.1055C256.26 72.1055 256.26 72.1056 256.26 72.1056C259.589 72.688 261.816 75.8592 261.234 79.1886C261.234 79.1886 261.234 79.1886 261.234 79.1886L334.245 91.9603C334.827 88.6309 337.998 86.404 341.328 86.9864L345.077 65.5519L345.077 65.5519C341.748 64.9695 339.521 61.7983 340.103 58.4689L267.092 45.6971Z" fill="#B5E4CA"/>
<path d="M274.951 57.8329L276.914 58.1761L278.868 67.104L278.994 67.126L283.863 59.3918L285.825 59.7351L283.951 70.4523L282.412 70.1832L283.769 62.4279L283.669 62.4105L279.155 69.5972L277.878 69.3739L276.072 61.0761L275.972 61.0587L274.615 68.8193L273.076 68.5501L274.951 57.8329ZM288.484 71.4287C287.975 71.3396 287.531 71.1649 287.152 70.9045C286.774 70.6406 286.496 70.3062 286.319 69.9012C286.145 69.4969 286.104 69.0314 286.196 68.5046C286.276 68.051 286.428 67.693 286.654 67.4305C286.88 67.1679 287.156 66.9771 287.482 66.8581C287.809 66.739 288.163 66.6679 288.544 66.6447C288.926 66.6216 289.311 66.6206 289.699 66.6418C290.19 66.6702 290.589 66.6932 290.895 66.7108C291.202 66.7249 291.43 66.702 291.581 66.642C291.732 66.5821 291.824 66.458 291.857 66.2696L291.863 66.2329C291.943 65.7759 291.876 65.3992 291.662 65.1029C291.451 64.8072 291.093 64.615 290.587 64.5266C290.06 64.4344 289.624 64.4787 289.28 64.6593C288.94 64.8371 288.687 65.0572 288.523 65.3196L287.111 64.7275C287.371 64.2696 287.694 63.9199 288.082 63.6785C288.473 63.4341 288.901 63.2824 289.364 63.2232C289.828 63.1606 290.302 63.1717 290.787 63.2565C291.108 63.3126 291.442 63.4105 291.788 63.5501C292.138 63.6869 292.452 63.8821 292.731 64.1359C293.014 64.3903 293.224 64.7201 293.362 65.1253C293.5 65.527 293.518 66.0209 293.415 66.607L292.482 71.9447L290.954 71.6774L291.146 70.5785L291.083 70.5675C290.947 70.7521 290.76 70.9244 290.524 71.0844C290.287 71.2444 289.999 71.3611 289.659 71.4347C289.319 71.5082 288.927 71.5062 288.484 71.4287ZM289.044 70.2323C289.476 70.308 289.861 70.2872 290.198 70.17C290.539 70.0533 290.813 69.8712 291.022 69.6237C291.235 69.3733 291.369 69.0893 291.424 68.7719L291.605 67.7357C291.54 67.7818 291.423 67.8152 291.254 67.836C291.089 67.8539 290.902 67.8626 290.694 67.862C290.486 67.858 290.283 67.8532 290.087 67.8476C289.89 67.8384 289.726 67.8313 289.594 67.8261C289.284 67.8114 288.995 67.8275 288.728 67.8742C288.465 67.9216 288.243 68.0176 288.063 68.1623C287.887 68.3042 287.775 68.5146 287.726 68.7937C287.658 69.181 287.75 69.499 288.001 69.7479C288.253 69.9933 288.601 70.1548 289.044 70.2323ZM296.482 69.8346L296.806 67.9227L297.078 67.9703L300.875 65.129L302.749 65.4568L298.419 68.6902L298.173 68.6472L296.482 69.8346ZM294.566 72.3092L296.441 61.592L298.005 61.8657L296.131 72.583L294.566 72.3092ZM299.642 73.1972L297.432 68.8736L298.701 67.9685L301.562 73.5331L299.642 73.1972ZM305.874 74.4545C305.082 74.3159 304.429 74.0274 303.916 73.5889C303.407 73.1476 303.052 72.591 302.849 71.9192C302.651 71.2445 302.625 70.4902 302.77 69.6564C302.914 68.8331 303.195 68.1343 303.612 67.5601C304.032 66.9864 304.55 66.5719 305.167 66.3166C305.787 66.0619 306.47 65.9998 307.216 66.1304C307.67 66.2098 308.096 66.3617 308.496 66.5861C308.895 66.8106 309.236 67.1129 309.518 67.4931C309.8 67.8732 309.994 68.3368 310.1 68.8838C310.206 69.4273 310.196 70.0637 310.068 70.7928L309.971 71.3475L303.582 70.2298L303.787 69.0576L308.643 69.9071C308.715 69.4954 308.695 69.1162 308.583 68.7694C308.472 68.4192 308.28 68.1251 308.009 67.8871C307.742 67.6497 307.405 67.4956 307.001 67.4248C306.561 67.3479 306.158 67.3889 305.793 67.5479C305.431 67.7039 305.131 67.9391 304.893 68.2533C304.658 68.5647 304.506 68.921 304.436 69.3222L304.276 70.238C304.182 70.7752 304.196 71.2487 304.319 71.6585C304.445 72.0688 304.661 72.4033 304.968 72.662C305.276 72.9172 305.658 73.0847 306.115 73.1647C306.412 73.2165 306.69 73.222 306.948 73.181C307.208 73.1365 307.442 73.0443 307.649 72.9045C307.857 72.7647 308.03 72.5774 308.168 72.3427L309.603 72.8686C309.408 73.284 309.128 73.6287 308.764 73.903C308.403 74.1743 307.977 74.3604 307.485 74.4613C306.997 74.5593 306.46 74.557 305.874 74.4545ZM316.761 72.7564L317.584 68.0519L319.154 68.3266L317.748 76.3645L316.21 76.0954L316.453 74.7034L316.369 74.6887C316.109 75.0855 315.75 75.3912 315.292 75.6059C314.838 75.8177 314.309 75.8708 313.706 75.7652C313.189 75.6749 312.752 75.4816 312.394 75.1852C312.04 74.886 311.789 74.4916 311.641 74.0018C311.497 73.5127 311.482 72.9368 311.598 72.2739L312.493 67.1612L314.057 67.4349L313.196 72.3592C313.1 72.907 313.176 73.3696 313.422 73.7471C313.669 74.1247 314.035 74.3559 314.52 74.4407C314.813 74.492 315.117 74.4696 315.432 74.3738C315.751 74.2785 316.032 74.0994 316.276 73.8364C316.523 73.5741 316.685 73.2141 316.761 72.7564ZM319.323 79.7465L321.257 68.6943L322.785 68.9616L322.557 70.2646L322.688 70.2875C322.808 70.1359 322.972 69.9652 323.182 69.7753C323.391 69.5854 323.662 69.4351 323.994 69.3242C324.327 69.2098 324.743 69.1963 325.242 69.2835C325.89 69.397 326.441 69.6623 326.893 70.0794C327.345 70.4964 327.662 71.039 327.843 71.7071C328.028 72.3759 328.045 73.1446 327.893 74.0133C327.741 74.882 327.466 75.6015 327.068 76.1718C326.67 76.7387 326.189 77.1453 325.625 77.3917C325.061 77.6347 324.454 77.6994 323.805 77.5859C323.317 77.5004 322.932 77.3486 322.65 77.1303C322.372 76.9126 322.165 76.6786 322.029 76.4283C321.893 76.178 321.793 75.9592 321.728 75.7718L321.634 75.7553L320.888 80.0202L319.323 79.7465ZM322.087 72.9815C321.988 73.5467 321.983 74.0564 322.073 74.5107C322.162 74.965 322.341 75.3397 322.61 75.6347C322.879 75.9263 323.238 76.1114 323.688 76.1901C324.156 76.2719 324.568 76.2164 324.925 76.0236C325.283 75.8274 325.58 75.5287 325.816 75.1277C326.055 74.7273 326.221 74.2584 326.315 73.7212C326.408 73.1909 326.411 72.7006 326.324 72.2504C326.241 71.8008 326.062 71.4262 325.788 71.1264C325.516 70.8273 325.145 70.6365 324.674 70.5541C324.221 70.4748 323.816 70.5245 323.462 70.7034C323.11 70.8828 322.818 71.1678 322.584 71.5584C322.35 71.9489 322.185 72.4233 322.087 72.9815Z" fill="#678593"/>
<path fill-rule="evenodd" clip-rule="evenodd" d="M96.9557 15.9355C96.3733 19.2649 93.2021 21.4918 89.8727 20.9094L89.8724 20.9094L86.1229 42.3439C89.4524 42.9263 91.6793 46.0975 91.0968 49.4269L164.109 62.1988L164.109 62.1987C164.691 58.8694 167.862 56.6426 171.191 57.2247L174.941 35.7902C171.612 35.2076 169.385 32.0365 169.967 28.7072L96.9557 15.9355Z" fill="#B5E4CA"/>
<path d="M110.063 32.5811L108.43 32.2955C108.429 31.9357 108.366 31.6082 108.241 31.3132C108.116 31.0181 107.946 30.7565 107.731 30.5283C107.516 30.3 107.263 30.112 106.972 29.9641C106.685 29.8168 106.371 29.7132 106.029 29.6534C105.411 29.5454 104.831 29.6039 104.289 29.829C103.749 30.0546 103.286 30.4428 102.898 30.9934C102.514 31.5446 102.247 32.2529 102.095 33.1181C101.943 33.9902 101.953 34.7507 102.128 35.3996C102.305 36.0491 102.611 36.5701 103.046 36.9625C103.481 37.355 104.003 37.6046 104.614 37.7114C104.952 37.7706 105.281 37.7814 105.601 37.7438C105.924 37.7033 106.226 37.614 106.505 37.4759C106.784 37.3378 107.032 37.1529 107.249 36.9211C107.47 36.6865 107.643 36.4041 107.77 36.0738L109.401 36.3646C109.222 36.8761 108.968 37.3315 108.639 37.7306C108.315 38.1268 107.929 38.4513 107.482 38.7039C107.039 38.9536 106.553 39.1221 106.024 39.2092C105.494 39.2964 104.935 39.2884 104.345 39.1853C103.417 39.0229 102.629 38.6585 101.98 38.092C101.332 37.522 100.871 36.7887 100.596 35.8922C100.325 34.9962 100.289 33.9778 100.489 32.837C100.689 31.6927 101.07 30.7473 101.632 30.0007C102.195 29.2506 102.877 28.7192 103.68 28.4066C104.483 28.0904 105.347 28.0132 106.271 28.175C106.84 28.2744 107.356 28.4492 107.819 28.6992C108.286 28.9463 108.69 29.2614 109.029 29.6443C109.369 30.0238 109.629 30.4611 109.808 30.9563C109.988 31.448 110.073 31.9896 110.063 32.5811ZM114.047 29.6861L112.172 40.4034L110.607 40.1297L112.482 29.4124L114.047 29.6861ZM117.713 41.5398C116.921 41.4013 116.269 41.1128 115.756 40.6743C115.247 40.2329 114.891 39.6763 114.689 39.0045C114.49 38.3298 114.464 37.5756 114.61 36.7418C114.754 35.9185 115.034 35.2197 115.451 34.6454C115.872 34.0718 116.39 33.6573 117.006 33.4019C117.626 33.1472 118.309 33.0852 119.056 33.2158C119.509 33.2951 119.936 33.447 120.335 33.6715C120.735 33.8959 121.075 34.1983 121.358 34.5784C121.64 34.9586 121.834 35.4222 121.94 35.9692C122.046 36.5127 122.035 37.149 121.908 37.8782L121.811 38.4329L115.421 37.3151L115.626 36.1429L120.482 36.9924C120.554 36.5808 120.534 36.2016 120.422 35.8548C120.311 35.5045 120.12 35.2104 119.849 34.9724C119.581 34.735 119.245 34.581 118.84 34.5102C118.401 34.4333 117.998 34.4743 117.632 34.6332C117.27 34.7893 116.97 35.0244 116.732 35.3387C116.498 35.6501 116.346 36.0064 116.275 36.4076L116.115 37.3233C116.021 37.8606 116.036 38.3341 116.158 38.7438C116.284 39.1542 116.501 39.4887 116.808 39.7473C117.115 40.0025 117.498 40.1701 117.955 40.25C118.251 40.3019 118.529 40.3073 118.788 40.2663C119.047 40.2218 119.281 40.1297 119.489 39.9898C119.697 39.85 119.87 39.6627 120.008 39.428L121.442 39.954C121.247 40.3693 120.967 40.7141 120.603 40.9883C120.243 41.2597 119.817 41.4458 119.324 41.5467C118.836 41.6446 118.299 41.6424 117.713 41.5398ZM125.234 42.8717C124.725 42.7826 124.281 42.6078 123.902 42.3474C123.524 42.0835 123.246 41.7491 123.069 41.3442C122.895 40.9398 122.854 40.4743 122.946 39.9475C123.026 39.494 123.178 39.1359 123.404 38.8734C123.63 38.6109 123.906 38.4201 124.232 38.301C124.559 38.1819 124.913 38.1108 125.294 38.0877C125.676 38.0645 126.061 38.0635 126.449 38.0847C126.94 38.1131 127.339 38.1361 127.645 38.1537C127.952 38.1678 128.18 38.1449 128.331 38.085C128.482 38.025 128.574 37.9009 128.607 37.7125L128.613 37.6759C128.693 37.2188 128.626 36.8422 128.412 36.5458C128.201 36.2501 127.843 36.058 127.337 35.9695C126.81 35.8773 126.374 35.9216 126.03 36.1022C125.69 36.28 125.437 36.5001 125.273 36.7625L123.861 36.1704C124.121 35.7125 124.444 35.3628 124.832 35.1214C125.223 34.8771 125.651 34.7253 126.114 34.6662C126.578 34.6035 127.052 34.6146 127.537 34.6994C127.858 34.7556 128.192 34.8534 128.538 34.9931C128.888 35.1298 129.202 35.325 129.481 35.5788C129.764 35.8332 129.974 36.163 130.112 36.5682C130.25 36.9699 130.268 37.4638 130.165 38.0499L129.232 43.3876L127.704 43.1203L127.896 42.0214L127.833 42.0104C127.697 42.195 127.51 42.3673 127.274 42.5273C127.037 42.6873 126.749 42.804 126.409 42.8776C126.069 42.9511 125.677 42.9492 125.234 42.8717ZM125.794 41.6752C126.226 41.7509 126.611 41.7301 126.948 41.6129C127.289 41.4962 127.563 41.3142 127.772 41.0666C127.985 40.8162 128.119 40.5323 128.174 40.2148L128.355 39.1787C128.29 39.2247 128.173 39.2581 128.004 39.2789C127.839 39.2968 127.652 39.3055 127.444 39.305C127.236 39.301 127.033 39.2961 126.837 39.2905C126.64 39.2813 126.476 39.2742 126.344 39.2691C126.034 39.2543 125.745 39.2704 125.478 39.3171C125.215 39.3645 124.993 39.4606 124.813 39.6053C124.637 39.7471 124.525 39.9575 124.476 40.2366C124.408 40.6239 124.5 40.942 124.751 41.1909C125.003 41.4363 125.351 41.5977 125.794 41.6752ZM133.715 39.2533L132.881 44.0259L131.316 43.7522L132.722 35.7142L134.224 35.9769L133.995 37.2852L134.094 37.3026C134.354 36.9093 134.703 36.6181 135.142 36.4289C135.585 36.2403 136.109 36.1988 136.712 36.3044C137.26 36.4002 137.719 36.5992 138.091 36.9015C138.463 37.2003 138.723 37.5945 138.871 38.0842C139.019 38.5739 139.035 39.1502 138.919 39.813L138.025 44.9257L136.46 44.652L137.321 39.7277C137.423 39.1451 137.351 38.6633 137.105 38.2823C136.859 37.8977 136.472 37.6591 135.941 37.5663C135.578 37.5029 135.242 37.5249 134.932 37.6325C134.625 37.7406 134.364 37.9321 134.146 38.207C133.934 38.4789 133.79 38.8277 133.715 39.2533ZM140.123 45.2928L141.529 37.2549L143.094 37.5286L141.688 45.5665L140.123 45.2928ZM142.536 36.1528C142.264 36.1052 142.046 35.9737 141.883 35.7581C141.723 35.5396 141.666 35.303 141.71 35.0484C141.755 34.7902 141.89 34.5872 142.113 34.4393C142.341 34.2886 142.591 34.2371 142.863 34.2847C143.135 34.3323 143.351 34.4653 143.511 34.6838C143.674 34.8993 143.733 35.1362 143.688 35.3944C143.644 35.6491 143.508 35.8518 143.28 36.0025C143.056 36.1503 142.808 36.2004 142.536 36.1528ZM146.192 41.4359L145.357 46.2084L143.793 45.9347L145.199 37.8968L146.701 38.1595L146.472 39.4678L146.571 39.4852C146.831 39.0919 147.18 38.8006 147.619 38.6114C148.062 38.4228 148.585 38.3813 149.189 38.4869C149.737 38.5827 150.196 38.7818 150.568 39.084C150.94 39.3828 151.2 39.7771 151.348 40.2668C151.496 40.7565 151.512 41.3327 151.396 41.9956L150.501 47.1083L148.937 46.8346L149.798 41.9103C149.9 41.3277 149.828 40.8459 149.582 40.4648C149.336 40.0803 148.948 39.8417 148.418 39.7489C148.055 39.6854 147.719 39.7075 147.409 39.815C147.102 39.9232 146.84 40.1147 146.623 40.3895C146.41 40.6615 146.267 41.0103 146.192 41.4359ZM155.413 51.2466C154.775 51.1349 154.24 50.955 153.809 50.707C153.381 50.4596 153.047 50.1728 152.805 49.8465C152.564 49.5203 152.4 49.1807 152.315 48.8277L153.757 48.5083C153.824 48.6782 153.921 48.8624 154.048 49.0608C154.178 49.2634 154.369 49.4495 154.619 49.6192C154.874 49.7895 155.217 49.9125 155.65 49.9882C156.243 50.0919 156.758 50.0329 157.196 49.811C157.633 49.5927 157.907 49.1696 158.017 48.5416L158.293 46.9612L158.194 46.9438C158.07 47.0983 157.901 47.2646 157.686 47.4428C157.475 47.6216 157.202 47.7609 156.869 47.8607C156.535 47.9605 156.122 47.9674 155.63 47.8814C154.995 47.7703 154.449 47.5219 153.991 47.1363C153.538 46.7478 153.214 46.2363 153.019 45.6018C152.829 44.9644 152.808 44.2184 152.958 43.3637C153.107 42.5089 153.38 41.8016 153.777 41.2418C154.176 40.6825 154.659 40.2852 155.226 40.0498C155.792 39.811 156.398 39.748 157.044 39.8609C157.543 39.9482 157.931 40.1024 158.209 40.3236C158.487 40.5413 158.692 40.7749 158.825 41.0246C158.961 41.2749 159.061 41.492 159.126 41.676L159.241 41.6961L159.469 40.3931L161.003 40.6613L159.565 48.8772C159.445 49.5679 159.185 50.1068 158.786 50.4937C158.388 50.8806 157.896 51.1326 157.311 51.2496C156.73 51.3672 156.097 51.3662 155.413 51.2466ZM156.202 46.644C156.652 46.7227 157.051 46.6846 157.398 46.5296C157.749 46.3717 158.04 46.1097 158.269 45.7435C158.503 45.3745 158.668 44.9126 158.765 44.3579C158.86 43.8172 158.863 43.3269 158.774 42.8872C158.686 42.4474 158.506 42.0853 158.236 41.8007C157.966 41.5127 157.603 41.3287 157.146 41.2487C156.675 41.1663 156.261 41.2198 155.905 41.4091C155.549 41.5949 155.254 41.8813 155.021 42.2684C154.791 42.6561 154.632 43.1063 154.542 43.6192C154.45 44.146 154.449 44.6223 154.54 45.048C154.631 45.4738 154.814 45.8258 155.089 46.104C155.367 46.3828 155.738 46.5628 156.202 46.644Z" fill="#678593"/>
<path fill-rule="evenodd" clip-rule="evenodd" d="M182.024 30.8162C181.441 34.1456 178.27 36.3725 174.941 35.7902L171.191 57.2247C174.521 57.8071 176.748 60.9782 176.165 64.3077L249.177 77.0794C249.759 73.75 252.93 71.5231 256.26 72.1055L260.009 50.671L260.009 50.671C256.68 50.0886 254.453 46.9174 255.035 43.588L182.024 30.8162Z" fill="#B5E4CA"/>
<path d="M189.883 42.952L191.845 43.2953L193.8 52.2231L193.925 52.2451L198.795 44.5109L200.757 44.8542L198.882 55.5715L197.344 55.3024L198.7 47.547L198.601 47.5296L194.086 54.7164L192.809 54.493L191.003 46.1952L190.904 46.1778L189.547 53.9384L188.008 53.6693L189.883 42.952ZM203.416 56.5479C202.906 56.4588 202.462 56.284 202.084 56.0236C201.705 55.7597 201.428 55.4253 201.251 55.0204C201.077 54.6161 201.036 54.1505 201.128 53.6237C201.207 53.1702 201.36 52.8122 201.586 52.5496C201.811 52.2871 202.087 52.0963 202.414 51.9772C202.74 51.8581 203.094 51.787 203.476 51.7639C203.857 51.7407 204.242 51.7398 204.631 51.7609C205.122 51.7893 205.52 51.8123 205.827 51.8299C206.133 51.844 206.362 51.8211 206.513 51.7612C206.663 51.7013 206.755 51.5771 206.788 51.3887L206.795 51.3521C206.875 50.8951 206.807 50.5184 206.593 50.222C206.382 49.9263 206.024 49.7342 205.518 49.6457C204.992 49.5535 204.556 49.5978 204.212 49.7784C203.871 49.9562 203.619 50.1763 203.454 50.4388L202.042 49.8466C202.302 49.3887 202.626 49.039 203.013 48.7976C203.405 48.5533 203.832 48.4015 204.296 48.3424C204.76 48.2797 205.234 48.2908 205.719 48.3756C206.04 48.4318 206.373 48.5297 206.719 48.6693C207.069 48.806 207.384 49.0013 207.663 49.255C207.946 49.5094 208.156 49.8392 208.294 50.2444C208.432 50.6461 208.45 51.14 208.347 51.7261L207.413 57.0638L205.885 56.7965L206.078 55.6976L206.015 55.6866C205.878 55.8713 205.692 56.0436 205.455 56.2035C205.219 56.3635 204.93 56.4803 204.59 56.5538C204.25 56.6274 203.859 56.6254 203.416 56.5479ZM203.975 55.3514C204.408 55.4271 204.793 55.4063 205.13 55.2891C205.47 55.1725 205.745 54.9904 205.953 54.7428C206.166 54.4924 206.3 54.2085 206.356 53.891L206.537 52.8549C206.472 52.9009 206.354 52.9343 206.185 52.9551C206.02 52.973 205.834 52.9817 205.625 52.9812C205.417 52.9772 205.215 52.9724 205.018 52.9667C204.822 52.9576 204.658 52.9504 204.526 52.9453C204.216 52.9306 203.927 52.9466 203.66 52.9934C203.396 53.0407 203.175 53.1368 202.995 53.2815C202.819 53.4233 202.707 53.6338 202.658 53.9129C202.59 54.3001 202.682 54.6182 202.933 54.8671C203.185 55.1125 203.532 55.2739 203.975 55.3514ZM211.413 54.9537L211.737 53.0418L212.009 53.0894L215.807 50.2482L217.68 50.5759L213.35 53.8094L213.104 53.7664L211.413 54.9537ZM209.497 57.4284L211.372 46.7111L212.937 46.9848L211.062 57.7021L209.497 57.4284ZM214.574 58.3163L212.364 53.9927L213.633 53.0876L216.494 58.6523L214.574 58.3163ZM220.805 59.5736C220.013 59.4351 219.361 59.1466 218.848 58.7081C218.339 58.2667 217.983 57.7101 217.781 57.0383C217.582 56.3636 217.556 55.6094 217.702 54.7756C217.846 53.9523 218.127 53.2535 218.543 52.6792C218.964 52.1055 219.482 51.6911 220.098 51.4357C220.718 51.181 221.401 51.119 222.148 51.2496C222.602 51.3289 223.028 51.4808 223.427 51.7053C223.827 51.9297 224.168 52.232 224.45 52.6122C224.732 52.9924 224.926 53.4559 225.032 54.0029C225.138 54.5465 225.127 55.1828 225 55.9119L224.903 56.4666L218.513 55.3489L218.718 54.1767L223.575 55.0262C223.647 54.6146 223.627 54.2353 223.515 53.8886C223.403 53.5383 223.212 53.2442 222.941 53.0062C222.673 52.7688 222.337 52.6147 221.932 52.5439C221.493 52.4671 221.09 52.5081 220.724 52.667C220.363 52.8231 220.063 53.0582 219.824 53.3725C219.59 53.6839 219.438 54.0401 219.368 54.4413L219.208 55.3571C219.114 55.8944 219.128 56.3679 219.25 56.7776C219.376 57.188 219.593 57.5225 219.9 57.7811C220.208 58.0363 220.59 58.2039 221.047 58.2838C221.344 58.3357 221.621 58.3411 221.88 58.3001C222.14 58.2556 222.373 58.1634 222.581 58.0236C222.789 57.8838 222.962 57.6965 223.1 57.4618L224.534 57.9878C224.339 58.4031 224.06 58.7479 223.695 59.0221C223.335 59.2935 222.909 59.4796 222.417 59.5804C221.928 59.6784 221.391 59.6761 220.805 59.5736ZM231.693 57.8756L232.516 53.1711L234.086 53.4457L232.68 61.4836L231.141 61.2145L231.385 59.8225L231.301 59.8079C231.041 60.2046 230.682 60.5104 230.224 60.725C229.77 60.9368 229.241 60.9899 228.637 60.8844C228.121 60.794 227.684 60.6007 227.326 60.3044C226.972 60.0052 226.721 59.6107 226.573 59.121C226.428 58.6319 226.414 58.0559 226.53 57.3931L227.424 52.2804L228.989 52.5541L228.128 57.4784C228.032 58.0261 228.107 58.4887 228.354 58.8663C228.601 59.2438 228.967 59.475 229.451 59.5598C229.745 59.6111 230.049 59.5888 230.364 59.4929C230.683 59.3977 230.964 59.2185 231.207 58.9556C231.455 58.6932 231.617 58.3332 231.693 57.8756ZM234.255 64.8656L236.188 53.8135L237.716 54.0808L237.488 55.3838L237.619 55.4067C237.739 55.2551 237.904 55.0843 238.113 54.8945C238.323 54.7046 238.593 54.5542 238.926 54.4433C239.258 54.329 239.674 54.3154 240.173 54.4027C240.822 54.5162 241.373 54.7815 241.825 55.1985C242.277 55.6155 242.593 56.1581 242.775 56.8263C242.96 57.495 242.976 58.2638 242.824 59.1324C242.672 60.0011 242.397 60.7206 241.999 61.291C241.602 61.8578 241.121 62.2645 240.556 62.5109C239.992 62.7538 239.386 62.8185 238.737 62.705C238.249 62.6196 237.864 62.4677 237.582 62.2494C237.303 62.0318 237.096 61.7978 236.96 61.5475C236.824 61.2972 236.724 61.0783 236.66 60.8909L236.566 60.8744L235.82 65.1393L234.255 64.8656ZM237.019 58.1006C236.92 58.6658 236.915 59.1755 237.004 59.6299C237.094 60.0842 237.273 60.4588 237.541 60.7539C237.81 61.0454 238.17 61.2305 238.62 61.3093C239.087 61.391 239.5 61.3355 239.857 61.1428C240.215 60.9465 240.512 60.6479 240.747 60.2468C240.986 59.8464 241.153 59.3776 241.247 58.8403C241.34 58.31 241.343 57.8198 241.256 57.3696C241.173 56.92 240.994 56.5453 240.719 56.2456C240.448 55.9464 240.077 55.7557 239.606 55.6733C239.152 55.5939 238.748 55.6437 238.393 55.8225C238.042 56.0019 237.749 56.2869 237.516 56.6775C237.282 57.0681 237.116 57.5425 237.019 58.1006Z" fill="#678593"/>
<path fill-rule="evenodd" clip-rule="evenodd" d="M1.05459 27.463L4.8041 6.02841L4.80437 6.02846C8.13378 6.61087 11.3049 4.38399 11.8874 1.0546L84.8983 13.8263C84.3159 17.1557 86.5428 20.3269 89.8722 20.9093L89.8724 20.9093L86.1229 42.3438C82.7935 41.7615 79.6223 43.9884 79.0399 47.3178L6.02858 34.546C6.61099 31.2166 4.38409 28.0454 1.05467 27.463C1.05464 27.463 1.05462 27.463 1.05459 27.463Z" fill="#B5E4CA"/>
<path d="M19.7465 13.1903L21.7089 13.5336L23.6635 22.4614L23.7891 22.4834L28.6584 14.7492L30.6208 15.0925L28.746 25.8098L27.2075 25.5406L28.5641 17.7853L28.4647 17.7679L23.9501 24.9546L22.6732 24.7313L20.8673 16.4335L20.7678 16.4161L19.4103 24.1767L17.8718 23.9076L19.7465 13.1903ZM33.2794 26.7862C32.7701 26.6971 32.326 26.5223 31.9473 26.2619C31.5692 25.998 31.2916 25.6636 31.1143 25.2587C30.9405 24.8543 30.8997 24.3888 30.9919 23.862C31.0712 23.4085 31.2237 23.0504 31.4494 22.7879C31.6751 22.5254 31.9512 22.3346 32.2776 22.2155C32.6041 22.0964 32.9581 22.0253 33.3397 22.0022C33.7212 21.979 34.1061 21.978 34.4943 21.9992C34.9855 22.0276 35.3842 22.0506 35.6903 22.0682C35.9971 22.0823 36.2258 22.0594 36.3765 21.9995C36.5272 21.9395 36.619 21.8154 36.652 21.627L36.6584 21.5904C36.7383 21.1333 36.6712 20.7567 36.457 20.4603C36.2462 20.1646 35.8879 19.9725 35.3821 19.884C34.8553 19.7918 34.4197 19.8361 34.0753 20.0167C33.735 20.1945 33.4825 20.4146 33.318 20.677L31.9061 20.0849C32.166 19.627 32.4896 19.2773 32.877 19.0359C33.2685 18.7916 33.6959 18.6398 34.1593 18.5807C34.6233 18.518 35.0977 18.5291 35.5827 18.6139C35.9036 18.6701 36.2371 18.7679 36.583 18.9076C36.933 19.0443 37.2476 19.2395 37.5268 19.4933C37.8095 19.7477 38.0196 20.0775 38.1573 20.4827C38.2956 20.8844 38.3134 21.3783 38.2109 21.9644L37.2772 27.3021L35.7491 27.0348L35.9414 25.9359L35.8786 25.9249C35.742 26.1095 35.5555 26.2818 35.3189 26.4418C35.0824 26.6018 34.7941 26.7185 34.4541 26.7921C34.114 26.8656 33.7225 26.8637 33.2794 26.7862ZM33.8393 25.5897C34.2719 25.6654 34.6566 25.6446 34.9935 25.5274C35.3339 25.4107 35.6085 25.2287 35.8172 24.9811C36.0299 24.7307 36.1641 24.4468 36.2196 24.1293L36.4009 23.0932C36.3353 23.1392 36.218 23.1726 36.049 23.1934C35.8841 23.2113 35.6974 23.22 35.4889 23.2195C35.2811 23.2155 35.0788 23.2106 34.882 23.205C34.6859 23.1958 34.5217 23.1887 34.3896 23.1836C34.0794 23.1688 33.7907 23.1849 33.5237 23.2316C33.2601 23.279 33.0384 23.3751 32.8585 23.5198C32.6826 23.6616 32.5703 23.872 32.5215 24.1511C32.4538 24.5384 32.5455 24.8565 32.7968 25.1054C33.0487 25.3508 33.3962 25.5122 33.8393 25.5897ZM41.2773 25.192L41.6009 23.2801L41.873 23.3277L45.6707 20.4865L47.5441 20.8142L43.214 24.0477L42.9681 24.0046L41.2773 25.192ZM39.3612 27.6667L41.236 16.9494L42.8007 17.2231L40.9259 27.9404L39.3612 27.6667ZM44.4373 28.5546L42.2274 24.231L43.4967 23.3259L46.3578 28.8906L44.4373 28.5546ZM50.6689 29.8119C49.877 29.6734 49.2246 29.3849 48.7116 28.9464C48.2028 28.505 47.8471 27.9484 47.6446 27.2766C47.4462 26.6019 47.42 25.8477 47.5658 25.0139C47.7099 24.1905 47.9903 23.4917 48.4072 22.9175C48.8275 22.3438 49.3458 21.9293 49.9622 21.674C50.582 21.4193 51.2652 21.3572 52.0118 21.4878C52.4653 21.5672 52.8918 21.7191 53.2912 21.9435C53.6905 22.168 54.0313 22.4703 54.3136 22.8505C54.5959 23.2306 54.7898 23.6942 54.8955 24.2412C55.0017 24.7848 54.9911 25.4211 54.8636 26.1502L54.7665 26.7049L48.377 25.5872L48.582 24.415L53.4383 25.2645C53.5103 24.8528 53.4904 24.4736 53.3784 24.1269C53.2671 23.7766 53.0759 23.4825 52.8047 23.2445C52.537 23.0071 52.2008 22.853 51.7961 22.7822C51.3566 22.7053 50.9539 22.7464 50.5881 22.9053C50.2265 23.0613 49.9264 23.2965 49.6881 23.6108C49.4539 23.9221 49.3017 24.2784 49.2315 24.6796L49.0713 25.5954C48.9773 26.1327 48.9915 26.6062 49.114 27.0159C49.24 27.4262 49.4565 27.7607 49.7636 28.0194C50.0714 28.2746 50.4537 28.4421 50.9107 28.5221C51.2073 28.574 51.485 28.5794 51.7438 28.5384C52.0033 28.4939 52.2369 28.4017 52.4448 28.2619C52.6526 28.1221 52.8256 27.9348 52.9637 27.7001L54.398 28.226C54.2031 28.6414 53.9234 28.9862 53.5591 29.2604C53.1988 29.5318 52.7725 29.7179 52.2803 29.8187C51.7922 29.9167 51.255 29.9144 50.6689 29.8119ZM61.5568 28.1139L62.3798 23.4094L63.9497 23.684L62.5436 31.7219L61.0051 31.4528L61.2486 30.0608L61.1649 30.0462C60.9049 30.4429 60.5458 30.7486 60.0876 30.9633C59.6335 31.1751 59.1046 31.2282 58.5011 31.1226C57.9848 31.0323 57.5476 30.839 57.1895 30.5427C56.8356 30.2434 56.5846 29.849 56.4366 29.3593C56.292 28.8702 56.2777 28.2942 56.3937 27.6313L57.288 22.5187L58.8527 22.7924L57.9913 27.7167C57.8955 28.2644 57.971 28.727 58.2177 29.1046C58.4645 29.4821 58.8303 29.7133 59.3152 29.7981C59.6083 29.8494 59.9124 29.8271 60.2276 29.7312C60.5463 29.6359 60.8275 29.4568 61.0713 29.1938C61.3185 28.9315 61.4803 28.5715 61.5568 28.1139ZM64.1187 35.1039L66.052 24.0517L67.5801 24.319L67.3522 25.6221L67.483 25.6449C67.603 25.4934 67.7677 25.3226 67.9771 25.1327C68.1865 24.9429 68.4573 24.7925 68.7895 24.6816C69.1223 24.5672 69.5381 24.5537 70.037 24.641C70.6859 24.7545 71.2363 25.0197 71.6883 25.4368C72.1403 25.8538 72.4571 26.3964 72.6386 27.0646C72.8236 27.7333 72.8402 28.502 72.6882 29.3707C72.5363 30.2394 72.2612 30.9589 71.863 31.5293C71.4654 32.0961 70.9844 32.5027 70.42 32.7492C69.8561 32.9921 69.2498 33.0568 68.6009 32.9433C68.1124 32.8579 67.7273 32.706 67.4455 32.4877C67.1672 32.27 66.96 32.0361 66.8241 31.7858C66.6881 31.5355 66.5879 31.3166 66.5236 31.1292L66.4294 31.1127L65.6834 35.3776L64.1187 35.1039ZM66.8823 28.3389C66.7834 28.9041 66.7788 29.4138 66.8683 29.8681C66.9578 30.3224 67.1367 30.6971 67.4051 30.9921C67.6741 31.2837 68.0336 31.4688 68.4837 31.5475C68.9512 31.6293 69.3636 31.5738 69.7209 31.3811C70.0788 31.1848 70.3755 30.8861 70.6111 30.4851C70.8501 30.0847 71.0166 29.6158 71.1106 29.0786C71.2033 28.5483 71.2064 28.0581 71.1198 27.6078C71.0366 27.1583 70.8577 26.7836 70.5829 26.4838C70.3117 26.1847 69.9405 25.9939 69.4696 25.9116C69.016 25.8322 68.6118 25.882 68.257 26.0608C67.9056 26.2402 67.613 26.5252 67.3793 26.9158C67.1456 27.3064 66.9799 27.7807 66.8823 28.3389Z" fill="#678593"/>
</svg>
