<svg width="517" height="129" viewBox="0 0 517 129" fill="none" xmlns="http://www.w3.org/2000/svg">
<path fill-rule="evenodd" clip-rule="evenodd" d="M346.132 31.2319C346.75 34.5549 344.558 37.7498 341.235 38.3679L341.234 38.3679L345.214 59.761C345.214 59.761 345.214 59.7609 345.214 59.7609C348.537 59.1429 351.732 61.3356 352.35 64.6586L425.22 51.1047C424.602 47.7817 426.795 44.5869 430.117 43.9688L426.138 22.5757C422.815 23.1937 419.621 21.0009 419.002 17.678L346.132 31.2319Z" fill="#F8B0ED"/>
<path d="M366.597 49.2738L364.607 38.5773L371.24 37.3435L371.499 38.7328L366.48 39.6664L367.086 42.9255L371.63 42.0803L371.887 43.4644L367.343 44.3096L368.211 48.9736L366.597 49.2738ZM377.428 47.4429C376.92 47.5374 376.443 47.5289 375.997 47.4173C375.55 47.3022 375.173 47.086 374.866 46.7685C374.562 46.4505 374.361 46.0285 374.263 45.5028C374.179 45.0501 374.196 44.6613 374.316 44.3365C374.436 44.0116 374.628 43.7363 374.892 43.5107C375.156 43.285 375.463 43.0947 375.812 42.9396C376.162 42.7846 376.522 42.6491 376.893 42.5332C377.363 42.3882 377.745 42.2704 378.038 42.1798C378.33 42.0858 378.537 41.9844 378.657 41.8756C378.777 41.7668 378.82 41.6183 378.785 41.4303L378.778 41.3938C378.693 40.9376 378.499 40.6082 378.194 40.4054C377.893 40.202 377.491 40.1472 376.986 40.2411C376.46 40.3389 376.067 40.5326 375.808 40.8223C375.551 41.1078 375.391 41.4022 375.329 41.7056L373.799 41.6444C373.883 41.1245 374.064 40.6838 374.342 40.3221C374.624 39.9564 374.971 39.6648 375.384 39.4474C375.797 39.2265 376.246 39.0711 376.73 38.9811C377.05 38.9215 377.397 38.8966 377.77 38.9065C378.145 38.9123 378.508 38.9853 378.859 39.1255C379.212 39.265 379.525 39.5005 379.795 39.832C380.065 40.1601 380.254 40.6166 380.363 41.2016L381.354 46.5289L379.829 46.8126L379.625 45.7158L379.562 45.7275C379.499 45.9482 379.384 46.1748 379.219 46.4074C379.053 46.6399 378.824 46.8501 378.531 47.0379C378.238 47.2256 377.87 47.3606 377.428 47.4429ZM377.535 46.1262C377.966 46.0459 378.32 45.892 378.594 45.6644C378.872 45.4361 379.066 45.1696 379.175 44.8647C379.287 44.5557 379.313 44.2428 379.254 43.9259L379.062 42.8918C379.017 42.9578 378.918 43.0301 378.767 43.1087C378.619 43.1831 378.447 43.2565 378.252 43.3289C378.056 43.3978 377.864 43.464 377.678 43.5274C377.491 43.5874 377.335 43.6381 377.209 43.6795C376.913 43.7741 376.649 43.89 376.415 44.0272C376.184 44.1637 376.01 44.3312 375.892 44.5297C375.777 44.724 375.745 44.9605 375.797 45.239C375.869 45.6255 376.066 45.8914 376.389 46.0368C376.71 46.1787 377.092 46.2085 377.535 46.1262ZM386.844 45.6754C386.067 45.8198 385.366 45.7684 384.74 45.521C384.117 45.2694 383.597 44.8599 383.182 44.2923C382.767 43.7247 382.484 43.0388 382.335 42.2344C382.183 41.4197 382.202 40.6721 382.393 39.9919C382.583 39.3081 382.924 38.7386 383.415 38.2833C383.907 37.828 384.531 37.5301 385.286 37.3896C385.895 37.2762 386.46 37.2884 386.979 37.426C387.497 37.5601 387.94 37.8019 388.308 38.1514C388.679 38.5002 388.943 38.9393 389.099 39.4687L387.579 39.7514C387.425 39.3909 387.174 39.1027 386.824 38.8868C386.477 38.6702 386.055 38.6083 385.557 38.7009C385.122 38.7818 384.762 38.9677 384.477 39.2583C384.196 39.5449 384.003 39.9157 383.901 40.3707C383.797 40.8222 383.799 41.3335 383.905 41.9045C384.014 42.4895 384.197 42.9778 384.453 43.3696C384.71 43.7614 385.022 44.0438 385.389 44.2168C385.76 44.3892 386.166 44.4343 386.608 44.3521C386.904 44.297 387.162 44.1932 387.382 44.0406C387.605 43.8838 387.78 43.6875 387.905 43.4516C388.034 43.2151 388.105 42.9462 388.117 42.6449L389.637 42.3622C389.678 42.8913 389.595 43.3859 389.389 43.8457C389.182 44.3056 388.864 44.6962 388.434 45.0175C388.007 45.3383 387.477 45.5575 386.844 45.6754ZM391.779 44.5899L390.287 36.5675L391.849 36.277L393.341 44.2994L391.779 44.5899ZM390.845 35.183C390.574 35.2335 390.324 35.1863 390.095 35.0415C389.869 34.8926 389.733 34.6911 389.685 34.4369C389.637 34.1792 389.692 33.942 389.85 33.7254C390.011 33.5046 390.227 33.3689 390.499 33.3184C390.77 33.2679 391.019 33.3171 391.245 33.466C391.473 33.6108 391.612 33.812 391.66 34.0697C391.707 34.3239 391.65 34.5613 391.489 34.7822C391.332 34.9988 391.117 35.1324 390.845 35.183ZM397.809 43.652C397.301 43.7465 396.824 43.738 396.378 43.6264C395.932 43.5113 395.555 43.2951 395.247 42.9776C394.943 42.6595 394.742 42.2376 394.644 41.7118C394.56 41.2592 394.578 40.8704 394.697 40.5456C394.817 40.2207 395.009 39.9454 395.273 39.7198C395.537 39.4941 395.844 39.3037 396.194 39.1487C396.543 38.9936 396.903 38.8582 397.274 38.7423C397.745 38.5972 398.126 38.4794 398.419 38.3889C398.711 38.2949 398.918 38.1935 399.038 38.0847C399.158 37.9759 399.201 37.8274 399.166 37.6394L399.159 37.6029C399.074 37.1467 398.88 36.8173 398.575 36.6145C398.275 36.4111 397.872 36.3563 397.367 36.4502C396.841 36.548 396.448 36.7417 396.189 37.0314C395.932 37.3169 395.773 37.6113 395.71 37.9147L394.18 37.8535C394.264 37.3336 394.445 36.8929 394.723 36.5312C395.005 36.1655 395.352 35.8739 395.766 35.6565C396.178 35.4356 396.627 35.2802 397.111 35.1902C397.431 35.1306 397.778 35.1057 398.151 35.1156C398.526 35.1214 398.889 35.1944 399.24 35.3345C399.593 35.4741 399.906 35.7096 400.176 36.0411C400.446 36.3692 400.636 36.8257 400.744 37.4106L401.735 42.738L400.21 43.0217L400.006 41.9249L399.944 41.9365C399.88 42.1573 399.766 42.3839 399.6 42.6165C399.434 42.849 399.205 43.0592 398.912 43.247C398.619 43.4347 398.252 43.5697 397.809 43.652ZM397.916 42.3353C398.347 42.255 398.701 42.1011 398.975 41.8735C399.254 41.6452 399.447 41.3786 399.556 41.0738C399.668 40.7648 399.694 40.4519 399.635 40.135L399.443 39.1009C399.398 39.1669 399.3 39.2392 399.148 39.3178C399 39.3922 398.828 39.4656 398.633 39.538C398.437 39.6069 398.245 39.6731 398.059 39.7365C397.872 39.7965 397.716 39.8472 397.59 39.8886C397.294 39.9832 397.03 40.0991 396.796 40.2363C396.565 40.3728 396.391 40.5403 396.273 40.7388C396.158 40.9331 396.126 41.1695 396.178 41.4481C396.25 41.8346 396.447 42.1005 396.77 42.2459C397.092 42.3878 397.473 42.4176 397.916 42.3353ZM403.387 31.3641L405.377 42.0607L403.815 42.3511L401.826 31.6546L403.387 31.3641Z" fill="white"/>
<path fill-rule="evenodd" clip-rule="evenodd" d="M431.036 15.4399C431.654 18.7628 429.461 21.9576 426.138 22.5758L430.117 43.9688C433.44 43.351 436.635 45.5437 437.253 48.8666C437.253 48.8666 437.253 48.8666 437.253 48.8666L510.123 35.3127L510.123 35.3126C509.505 31.9896 511.698 28.7947 515.021 28.1766L515.021 28.1766L511.042 6.78358L511.042 6.78362C507.719 7.40169 504.524 5.20893 503.906 1.88594L431.036 15.4399Z" fill="#F8B0ED"/>
<path d="M442.641 24.0631L444.6 23.6988L449.552 31.3802L449.677 31.3569L451.536 22.4086L453.494 22.0443L455.484 32.7409L453.948 33.0265L452.509 25.2861L452.409 25.3046L450.692 33.6161L449.417 33.8531L444.825 26.7099L444.726 26.7284L446.166 34.474L444.631 34.7596L442.641 24.0631ZM460.073 32.0711C459.564 32.1657 459.087 32.1571 458.641 32.0455C458.195 31.9304 457.818 31.7142 457.51 31.3968C457.206 31.0787 457.005 30.6567 456.907 30.131C456.823 29.6783 456.841 29.2896 456.961 28.9647C457.08 28.6398 457.272 28.3646 457.536 28.1389C457.801 27.9132 458.107 27.7229 458.457 27.5678C458.806 27.4128 459.167 27.2773 459.538 27.1615C460.008 27.0164 460.389 26.8986 460.682 26.808C460.975 26.714 461.181 26.6126 461.301 26.5038C461.421 26.395 461.464 26.2466 461.429 26.0585L461.422 26.022C461.337 25.5658 461.143 25.2364 460.839 25.0336C460.538 24.8302 460.135 24.7754 459.63 24.8693C459.104 24.9671 458.712 25.1609 458.452 25.4505C458.195 25.736 458.036 26.0305 457.973 26.3339L456.444 26.2726C456.527 25.7527 456.708 25.312 456.987 24.9504C457.268 24.5846 457.615 24.293 458.029 24.0756C458.442 23.8548 458.89 23.6993 459.374 23.6093C459.694 23.5497 460.041 23.5249 460.414 23.5347C460.79 23.5405 461.153 23.6135 461.503 23.7537C461.857 23.8932 462.169 24.1287 462.44 24.4603C462.709 24.7883 462.899 25.2448 463.008 25.8298L463.999 31.1572L462.473 31.4408L462.269 30.344L462.207 30.3557C462.143 30.5764 462.029 30.803 461.863 31.0356C461.697 31.2681 461.468 31.4783 461.175 31.6661C460.882 31.8538 460.515 31.9889 460.073 32.0711ZM460.179 30.7545C460.611 30.6741 460.964 30.5202 461.239 30.2926C461.517 30.0643 461.71 29.7978 461.819 29.4929C461.931 29.1839 461.958 28.871 461.899 28.5541L461.706 27.52C461.661 27.5861 461.563 27.6584 461.412 27.7369C461.263 27.8113 461.092 27.8847 460.896 27.9571C460.7 28.026 460.509 28.0922 460.322 28.1557C460.135 28.2156 459.979 28.2663 459.854 28.3077C459.558 28.4024 459.293 28.5183 459.059 28.6554C458.829 28.7919 458.654 28.9594 458.536 29.1579C458.421 29.3522 458.39 29.5887 458.441 29.8672C458.513 30.2537 458.711 30.5196 459.033 30.665C459.355 30.8069 459.737 30.8367 460.179 30.7545ZM467.009 27.782L466.644 25.8775L466.915 25.827L469.48 21.8376L471.35 21.4898L468.423 26.0329L468.178 26.0785L467.009 27.782ZM466.079 30.7703L464.089 20.0737L465.651 19.7833L467.64 30.4798L466.079 30.7703ZM471.145 29.8279L467.563 26.5495L468.436 25.2578L473.062 29.4714L471.145 29.8279ZM477.423 28.8277C476.632 28.9747 475.92 28.9325 475.286 28.701C474.655 28.4653 474.128 28.0681 473.703 27.5095C473.281 26.9467 472.993 26.2492 472.838 25.417C472.686 24.5952 472.704 23.8425 472.894 23.1588C473.087 22.4744 473.428 21.9049 473.916 21.4502C474.408 20.9949 475.026 20.698 475.771 20.5594C476.224 20.4752 476.677 20.4684 477.129 20.5391C477.582 20.6098 478.007 20.774 478.404 21.0315C478.802 21.289 479.145 21.6555 479.436 22.1311C479.725 22.6032 479.938 23.2031 480.073 23.9309L480.176 24.4845L473.799 25.6706L473.581 24.5007L478.428 23.5992C478.352 23.1883 478.2 22.84 477.974 22.5542C477.748 22.265 477.466 22.0563 477.128 21.9281C476.795 21.7992 476.426 21.7723 476.022 21.8475C475.583 21.9291 475.22 22.1083 474.933 22.385C474.649 22.6576 474.45 22.9828 474.336 23.3606C474.226 23.7342 474.208 24.1212 474.282 24.5216L474.452 25.4356C474.552 25.9719 474.731 26.4105 474.989 26.7516C475.25 27.092 475.57 27.3297 475.948 27.4647C476.326 27.5963 476.742 27.6196 477.199 27.5348C477.495 27.4797 477.757 27.3877 477.985 27.2588C478.212 27.1264 478.399 26.9584 478.545 26.7548C478.691 26.5511 478.787 26.3152 478.835 26.047L480.362 26.0385C480.325 26.4957 480.183 26.9165 479.938 27.3008C479.695 27.681 479.361 28.0043 478.935 28.2709C478.512 28.5333 478.008 28.7189 477.423 28.8277ZM487.03 23.4311L486.157 18.7357L487.724 18.4443L489.216 26.4667L487.681 26.7523L487.422 25.363L487.339 25.3785C487.234 25.8411 487.004 26.2531 486.65 26.6144C486.298 26.9715 485.822 27.2061 485.219 27.3182C484.704 27.414 484.227 27.3857 483.788 27.2332C483.351 27.0766 482.978 26.7947 482.668 26.3877C482.362 25.9799 482.147 25.4453 482.024 24.7837L481.075 19.6809L482.637 19.3905L483.551 24.3052C483.653 24.8519 483.885 25.259 484.248 25.5264C484.611 25.7939 485.035 25.8826 485.519 25.7926C485.811 25.7382 486.089 25.611 486.35 25.411C486.616 25.2104 486.817 24.9443 486.953 24.6127C487.093 24.2804 487.119 23.8866 487.03 23.4311ZM491.874 29.0848L489.822 18.054L491.347 17.7703L491.589 19.0708L491.72 19.0465C491.779 18.8625 491.874 18.645 492.004 18.3939C492.134 18.1428 492.335 17.9073 492.607 17.6873C492.879 17.4638 493.264 17.3057 493.762 17.2131C494.409 17.0927 495.018 17.1488 495.587 17.3816C496.156 17.6143 496.643 18.012 497.046 18.5745C497.454 19.1364 497.738 19.8509 497.899 20.7179C498.06 21.5849 498.054 22.3551 497.88 23.0287C497.706 23.6987 497.397 24.2479 496.955 24.676C496.511 25.1007 495.966 25.3733 495.318 25.4938C494.831 25.5844 494.417 25.5768 494.077 25.4708C493.74 25.3641 493.464 25.2173 493.249 25.0303C493.034 24.8433 492.864 24.6733 492.738 24.5201L492.644 24.5376L493.436 28.7943L491.874 29.0848ZM492.099 21.7805C492.204 22.3446 492.377 22.8238 492.62 23.2182C492.863 23.6125 493.161 23.901 493.516 24.0836C493.87 24.2628 494.271 24.3106 494.721 24.227C495.187 24.1402 495.554 23.9441 495.822 23.6386C496.088 23.3296 496.262 22.9461 496.342 22.488C496.426 22.0293 496.419 21.5318 496.319 20.9956C496.22 20.4663 496.052 20.0059 495.813 19.6144C495.578 19.2222 495.28 18.9338 494.917 18.749C494.559 18.5635 494.144 18.5145 493.674 18.6019C493.222 18.6861 492.86 18.874 492.59 19.1656C492.324 19.4565 492.149 19.8258 492.067 20.2734C491.984 20.721 491.995 21.2234 492.099 21.7805Z" fill="white"/>
<path fill-rule="evenodd" clip-rule="evenodd" d="M261.229 47.0241C261.847 50.3471 259.654 53.542 256.331 54.1601L256.331 54.1601L260.31 75.5532C263.633 74.9351 266.828 77.1279 267.446 80.4509L340.316 66.897C339.698 63.574 341.891 60.3791 345.214 59.761L341.235 38.368C337.912 38.986 334.717 36.7932 334.099 33.4703L334.099 33.4702L261.229 47.0241L261.229 47.0241Z" fill="#F8B0ED"/>
<path d="M268.17 67.5814L266.181 56.8848L267.795 56.5847L268.659 61.2331L273.992 60.2412L273.127 55.5928L274.746 55.2916L276.736 65.9882L275.117 66.2893L274.249 61.6253L268.917 62.6171L269.784 67.2812L268.17 67.5814ZM281.329 65.3177C280.82 65.4122 280.343 65.4037 279.897 65.2921C279.451 65.177 279.074 64.9608 278.766 64.6433C278.462 64.3252 278.261 63.9033 278.163 63.3775C278.079 62.9249 278.097 62.5361 278.217 62.2113C278.336 61.8864 278.528 61.6111 278.792 61.3855C279.057 61.1598 279.364 60.9694 279.713 60.8144C280.062 60.6593 280.423 60.5239 280.794 60.408C281.264 60.2629 281.645 60.1451 281.938 60.0546C282.231 59.9606 282.437 59.8592 282.557 59.7504C282.678 59.6415 282.72 59.4931 282.685 59.3051L282.678 59.2685C282.594 58.8124 282.399 58.4829 282.095 58.2802C281.794 58.0768 281.391 58.022 280.886 58.1159C280.36 58.2137 279.968 58.4074 279.708 58.697C279.451 58.9826 279.292 59.277 279.229 59.5804L277.7 59.5191C277.783 58.9993 277.964 58.5585 278.243 58.1969C278.524 57.8312 278.871 57.5396 279.285 57.3222C279.698 57.1013 280.146 56.9459 280.63 56.8558C280.951 56.7963 281.297 56.7714 281.67 56.7813C282.046 56.7871 282.409 56.8601 282.759 57.0002C283.113 57.1398 283.425 57.3753 283.696 57.7068C283.966 58.0349 284.155 58.4914 284.264 59.0763L285.255 64.4037L283.73 64.6874L283.526 63.5906L283.463 63.6022C283.399 63.823 283.285 64.0496 283.119 64.2822C282.954 64.5147 282.724 64.7249 282.431 64.9126C282.138 65.1004 281.771 65.2354 281.329 65.3177ZM281.435 64.001C281.867 63.9207 282.22 63.7668 282.495 63.5391C282.773 63.3109 282.966 63.0443 283.075 62.7395C283.187 62.4305 283.214 62.1175 283.155 61.8007L282.962 60.7665C282.917 60.8326 282.819 60.9049 282.668 60.9835C282.519 61.0579 282.348 61.1313 282.152 61.2037C281.956 61.2726 281.765 61.3387 281.578 61.4022C281.391 61.4622 281.235 61.5129 281.11 61.5543C280.814 61.6489 280.549 61.7648 280.315 61.902C280.085 62.0385 279.911 62.206 279.793 62.4044C279.677 62.5988 279.646 62.8352 279.698 63.1138C279.769 63.5003 279.967 63.7662 280.289 63.9116C280.611 64.0535 280.993 64.0833 281.435 64.001ZM287.335 64.0168L285.842 55.9944L287.404 55.704L288.896 63.7264L287.335 64.0168ZM286.401 54.6099C286.129 54.6604 285.879 54.6133 285.651 54.4685C285.425 54.3196 285.288 54.118 285.241 53.8638C285.193 53.6062 285.248 53.369 285.406 53.1523C285.566 52.9315 285.783 52.7958 286.054 52.7453C286.326 52.6948 286.574 52.744 286.8 52.8929C287.029 53.0377 287.167 53.2389 287.215 53.4966C287.262 53.7508 287.206 53.9883 287.045 54.2091C286.887 54.4258 286.673 54.5594 286.401 54.6099ZM290.997 63.3356L289.505 55.3132L291.014 55.0324L291.252 56.3068L291.335 56.2913C291.401 55.8323 291.596 55.4449 291.919 55.129C292.245 54.809 292.643 54.6053 293.113 54.5179C293.21 54.4997 293.326 54.4819 293.459 54.4642C293.596 54.4459 293.704 54.4349 293.783 54.4311L294.061 55.9248C293.995 55.9191 293.88 55.9206 293.716 55.9295C293.551 55.935 293.389 55.9526 293.228 55.9824C292.859 56.051 292.545 56.1906 292.285 56.401C292.028 56.6073 291.841 56.8635 291.725 57.1697C291.609 57.4724 291.583 57.7978 291.648 58.146L292.559 63.0451L290.997 63.3356ZM305.027 52.5666C304.879 52.0826 304.578 51.7423 304.124 51.5458C303.669 51.3459 303.135 51.3029 302.522 51.4169C302.083 51.4985 301.716 51.6387 301.422 51.8376C301.127 52.033 300.913 52.2673 300.78 52.5406C300.65 52.8097 300.613 53.0958 300.669 53.3987C300.717 53.6529 300.817 53.8612 300.969 54.0238C301.126 54.1856 301.313 54.3111 301.531 54.4002C301.752 54.4851 301.984 54.5484 302.226 54.5898C302.467 54.6278 302.697 54.6535 302.916 54.6669L304.011 54.7442C304.367 54.7643 304.738 54.8123 305.124 54.8884C305.509 54.9644 305.876 55.0906 306.226 55.2669C306.576 55.4432 306.877 55.6862 307.129 55.996C307.385 56.3051 307.557 56.6999 307.646 57.1804C307.759 57.7862 307.703 58.3533 307.477 58.8817C307.254 59.4094 306.872 59.8641 306.331 60.2458C305.793 60.6268 305.106 60.8951 304.27 61.0505C303.47 61.1995 302.753 61.2012 302.121 61.0559C301.488 60.9105 300.964 60.6353 300.546 60.2302C300.128 59.8217 299.841 59.2986 299.687 58.6609L301.306 58.3597C301.409 58.7404 301.594 59.0392 301.862 59.256C302.132 59.4688 302.451 59.6057 302.819 59.667C303.19 59.7241 303.582 59.7141 303.997 59.637C304.453 59.5522 304.845 59.4054 305.174 59.1965C305.505 58.9836 305.75 58.7292 305.907 58.4333C306.064 58.1339 306.11 57.8102 306.045 57.462C305.986 57.1451 305.848 56.9025 305.629 56.7343C305.414 56.5653 305.141 56.4432 304.81 56.3679C304.482 56.2919 304.118 56.2391 303.716 56.2093L302.388 56.0997C301.488 56.0258 300.745 55.8091 300.159 55.4497C299.577 55.0896 299.217 54.5371 299.078 53.7919C298.964 53.1756 299.031 52.6066 299.28 52.0848C299.528 51.563 299.915 51.1219 300.438 50.7615C300.961 50.3976 301.582 50.149 302.299 50.0156C303.023 49.8808 303.686 49.8891 304.287 50.0403C304.891 50.1909 305.395 50.4592 305.798 50.8453C306.201 51.2279 306.462 51.7052 306.583 52.2771L305.027 52.5666ZM312.252 51.0822L312.485 52.3357L308.103 53.1508L307.87 51.8973L312.252 51.0822ZM308.688 49.7566L310.249 49.4662L311.661 57.0551C311.717 57.358 311.805 57.5776 311.924 57.714C312.042 57.8469 312.178 57.9279 312.331 57.9571C312.487 57.9821 312.651 57.9788 312.821 57.947C312.947 57.9237 313.055 57.8946 313.145 57.8597C313.236 57.8248 313.307 57.7973 313.357 57.7771L313.879 59.0147C313.795 59.0664 313.673 59.1252 313.512 59.1911C313.352 59.2605 313.147 59.3202 312.897 59.3703C312.487 59.4537 312.091 59.4518 311.707 59.3647C311.323 59.2775 310.992 59.0942 310.713 58.8147C310.434 58.5351 310.25 58.1534 310.16 57.6694L308.688 49.7566ZM317.019 61.6081C316.785 61.6515 316.569 61.6718 316.371 61.6691C316.173 61.6699 316.023 61.6582 315.921 61.6339L316.059 60.2843C316.359 60.3078 316.619 60.2936 316.84 60.2417C317.061 60.1898 317.242 60.0697 317.384 59.8813C317.529 59.6922 317.634 59.4078 317.7 59.028L317.795 58.4593L313.348 50.8784L315.019 50.5676L318.209 56.4154L318.292 56.3998L319.166 49.7962L320.843 49.4844L319.228 59.1924C319.152 59.6387 319.023 60.0284 318.84 60.3615C318.658 60.698 318.416 60.9698 318.116 61.1769C317.816 61.3841 317.45 61.5278 317.019 61.6081ZM323.374 46.2468L325.364 56.9433L323.802 57.2338L321.813 46.5372L323.374 46.2468ZM330.953 56.0713C330.162 56.2184 329.45 56.1761 328.816 55.9446C328.185 55.7089 327.657 55.3117 327.233 54.7531C326.811 54.1903 326.523 53.4928 326.368 52.6606C326.215 51.8389 326.234 51.0861 326.424 50.4024C326.617 49.718 326.958 49.1485 327.446 48.6938C327.938 48.2385 328.556 47.9416 329.301 47.803C329.754 47.7188 330.207 47.712 330.659 47.7827C331.112 47.8535 331.537 48.0176 331.934 48.2751C332.332 48.5326 332.675 48.8992 332.965 49.3747C333.255 49.8468 333.467 50.4467 333.603 51.1745L333.706 51.7281L327.329 52.9143L327.111 51.7443L331.958 50.8428C331.881 50.4319 331.73 50.0836 331.504 49.7978C331.277 49.5086 330.995 49.2999 330.658 49.1717C330.324 49.0428 329.956 49.016 329.552 49.0911C329.113 49.1727 328.75 49.3519 328.463 49.6286C328.179 49.9013 327.98 50.2265 327.866 50.6042C327.756 50.9778 327.737 51.3648 327.812 51.7653L327.982 52.6793C328.082 53.2155 328.261 53.6541 328.519 53.9952C328.78 54.3356 329.1 54.5734 329.478 54.7084C329.855 54.8399 330.272 54.8632 330.728 54.7784C331.024 54.7233 331.286 54.6313 331.515 54.5024C331.742 54.3701 331.929 54.202 332.075 53.9984C332.221 53.7948 332.317 53.5588 332.365 53.2907L333.892 53.2821C333.855 53.7394 333.713 54.1601 333.468 54.5444C333.225 54.9246 332.891 55.248 332.465 55.5145C332.042 55.7769 331.538 55.9625 330.953 56.0713Z" fill="white"/>
<path fill-rule="evenodd" clip-rule="evenodd" d="M91.4209 78.6085C92.039 81.9315 89.8463 85.1263 86.5233 85.7444L86.5231 85.7445L90.5022 107.137C90.5022 107.137 90.5022 107.137 90.5023 107.137C93.8253 106.519 97.0201 108.712 97.6382 112.035C97.6382 112.035 97.6382 112.035 97.6382 112.035L170.508 98.4813C169.89 95.1583 172.083 91.9635 175.406 91.3454L171.427 69.9523C168.104 70.5702 164.909 68.3775 164.291 65.0546L91.4209 78.6085Z" fill="#F8B0ED"/>
<path d="M103.026 87.2316L104.985 86.8673L109.937 94.5488L110.062 94.5255L111.921 85.5772L113.88 85.2129L115.869 95.9095L114.334 96.1951L112.894 88.4547L112.795 88.4732L111.077 96.7846L109.802 97.0217L105.21 89.8785L105.111 89.897L106.551 97.6426L105.016 97.9282L103.026 87.2316ZM120.458 95.2397C119.949 95.3342 119.472 95.3257 119.027 95.2141C118.58 95.099 118.203 94.8828 117.895 94.5653C117.591 94.2472 117.39 93.8253 117.293 93.2995C117.208 92.8469 117.226 92.4581 117.346 92.1333C117.465 91.8084 117.657 91.5331 117.922 91.3075C118.186 91.0818 118.493 90.8914 118.842 90.7364C119.192 90.5813 119.552 90.4459 119.923 90.33C120.393 90.1849 120.775 90.0671 121.068 89.9766C121.36 89.8826 121.566 89.7812 121.686 89.6724C121.807 89.5636 121.849 89.4151 121.814 89.2271L121.808 89.1906C121.723 88.7344 121.528 88.405 121.224 88.2022C120.923 87.9988 120.52 87.944 120.015 88.0379C119.49 88.1357 119.097 88.3294 118.837 88.6191C118.581 88.9046 118.421 89.199 118.359 89.5024L116.829 89.4412C116.912 88.9213 117.093 88.4806 117.372 88.1189C117.653 87.7532 118.001 87.4616 118.414 87.2442C118.827 87.0233 119.275 86.8679 119.759 86.7779C120.08 86.7183 120.426 86.6934 120.799 86.7033C121.175 86.7091 121.538 86.7821 121.888 86.9222C122.242 87.0618 122.554 87.2973 122.825 87.6288C123.095 87.9569 123.284 88.4134 123.393 88.9984L124.384 94.3257L122.859 94.6094L122.655 93.5126L122.592 93.5242C122.529 93.745 122.414 93.9716 122.248 94.2042C122.083 94.4367 121.853 94.6469 121.561 94.8347C121.268 95.0224 120.9 95.1574 120.458 95.2397ZM120.564 93.923C120.996 93.8427 121.349 93.6888 121.624 93.4612C121.902 93.2329 122.096 92.9663 122.205 92.6615C122.316 92.3525 122.343 92.0396 122.284 91.7227L122.092 90.6886C122.046 90.7546 121.948 90.8269 121.797 90.9055C121.649 90.9799 121.477 91.0533 121.281 91.1257C121.085 91.1946 120.894 91.2608 120.708 91.3242C120.521 91.3842 120.364 91.4349 120.239 91.4763C119.943 91.5709 119.678 91.6868 119.444 91.824C119.214 91.9605 119.04 92.128 118.922 92.3265C118.807 92.5208 118.775 92.7572 118.827 93.0358C118.899 93.4223 119.096 93.6882 119.418 93.8336C119.74 93.9755 120.122 94.0053 120.564 93.923ZM127.394 90.9505L127.029 89.0461L127.301 88.9956L129.866 85.0062L131.735 84.6584L128.809 89.2014L128.563 89.2471L127.394 90.9505ZM126.464 93.9388L124.474 83.2423L126.036 82.9518L128.025 93.6484L126.464 93.9388ZM131.53 92.9965L127.948 89.7181L128.821 88.4264L133.447 92.64L131.53 92.9965ZM137.808 91.9963C137.018 92.1433 136.306 92.1011 135.672 91.8695C135.041 91.6339 134.513 91.2367 134.088 90.678C133.667 90.1152 133.378 89.4178 133.224 88.5856C133.071 87.7638 133.089 87.0111 133.279 86.3273C133.472 85.643 133.813 85.0734 134.301 84.6188C134.793 84.1635 135.412 83.8665 136.157 83.7279C136.609 83.6437 137.062 83.637 137.515 83.7077C137.967 83.7784 138.392 83.9425 138.79 84.2001C139.187 84.4576 139.531 84.8241 139.821 85.2997C140.11 85.7718 140.323 86.3717 140.458 87.0994L140.561 87.6531L134.184 88.8392L133.966 87.6693L138.813 86.7678C138.737 86.3569 138.586 86.0086 138.36 85.7228C138.133 85.4336 137.851 85.2248 137.514 85.0966C137.18 84.9678 136.811 84.9409 136.407 85.0161C135.968 85.0977 135.605 85.2768 135.318 85.5536C135.034 85.8262 134.835 86.1514 134.722 86.5292C134.611 86.9028 134.593 87.2898 134.667 87.6902L134.837 88.6042C134.937 89.1404 135.116 89.5791 135.374 89.9202C135.635 90.2606 135.955 90.4983 136.333 90.6333C136.711 90.7648 137.128 90.7882 137.584 90.7033C137.88 90.6483 138.142 90.5563 138.37 90.4274C138.598 90.295 138.784 90.127 138.93 89.9234C139.076 89.7197 139.173 89.4838 139.22 89.2156L140.748 89.2071C140.71 89.6643 140.569 90.0851 140.323 90.4694C140.08 90.8496 139.746 91.1729 139.32 91.4395C138.897 91.7019 138.393 91.8875 137.808 91.9963ZM147.416 86.5997L146.542 81.9043L148.109 81.6128L149.601 89.6352L148.066 89.9208L147.807 88.5316L147.724 88.5471C147.619 89.0097 147.389 89.4217 147.035 89.7829C146.684 90.1401 146.207 90.3747 145.604 90.4868C145.089 90.5826 144.612 90.5543 144.173 90.4018C143.737 90.2452 143.364 89.9633 143.054 89.5562C142.747 89.1485 142.533 88.6139 142.41 87.9523L141.46 82.8495L143.022 82.559L143.936 87.4738C144.038 88.0205 144.27 88.4275 144.633 88.695C144.997 88.9625 145.42 89.0512 145.904 88.9612C146.197 88.9068 146.474 88.7796 146.736 88.5796C147.001 88.379 147.202 88.1128 147.338 87.7813C147.478 87.449 147.504 87.0552 147.416 86.5997ZM152.259 92.2534L150.208 81.2225L151.733 80.9389L151.974 82.2394L152.105 82.2151C152.165 82.0311 152.259 81.8136 152.389 81.5625C152.519 81.3114 152.72 81.0758 152.992 80.8558C153.264 80.6324 153.649 80.4743 154.147 80.3817C154.795 80.2612 155.403 80.3174 155.972 80.5501C156.542 80.7829 157.028 81.1805 157.432 81.7431C157.839 82.305 158.123 83.0194 158.284 83.8864C158.446 84.7535 158.439 85.5237 158.266 86.1973C158.091 86.8673 157.783 87.4164 157.34 87.8446C156.897 88.2693 156.351 88.5419 155.703 88.6624C155.216 88.753 154.802 88.7454 154.462 88.6393C154.125 88.5327 153.849 88.3859 153.634 88.1989C153.419 88.0119 153.249 87.8418 153.123 87.6887L153.029 87.7062L153.821 91.9629L152.259 92.2534ZM152.484 84.9491C152.589 85.5132 152.763 85.9924 153.005 86.3868C153.248 86.7811 153.547 87.0696 153.901 87.2522C154.255 87.4313 154.657 87.4791 155.106 87.3956C155.572 87.3088 155.939 87.1127 156.207 86.8072C156.474 86.4982 156.647 86.1146 156.728 85.6566C156.812 85.1978 156.804 84.7004 156.704 84.1642C156.606 83.6349 156.437 83.1745 156.199 82.783C155.964 82.3908 155.665 82.1023 155.303 81.9175C154.944 81.7321 154.53 81.6831 154.06 81.7705C153.607 81.8547 153.246 82.0426 152.976 82.3342C152.709 82.6251 152.535 82.9944 152.452 83.442C152.37 83.8896 152.38 84.392 152.484 84.9491Z" fill="white"/>
<path fill-rule="evenodd" clip-rule="evenodd" d="M175.406 91.3455L171.427 69.9523C174.75 69.3341 176.942 66.1393 176.324 62.8165L249.194 49.2625C249.813 52.5855 253.007 54.7783 256.33 54.1602L256.331 54.1602L260.31 75.5533C256.987 76.1714 254.794 79.3662 255.412 82.6892L182.542 96.2431C181.924 92.9201 178.729 90.7274 175.406 91.3455C175.406 91.3455 175.406 91.3455 175.406 91.3455Z" fill="#F8B0ED"/>
<path d="M193.194 81.527L191.205 70.8305L195.122 70.1019C195.881 69.9607 196.533 69.9691 197.077 70.1272C197.621 70.2818 198.056 70.5485 198.383 70.9274C198.708 71.3027 198.92 71.755 199.019 72.2842C199.102 72.7299 199.09 73.1212 198.983 73.4581C198.876 73.7914 198.702 74.076 198.461 74.3117C198.223 74.5432 197.948 74.7313 197.636 74.8757L197.656 74.9802C198.014 74.9315 198.382 74.982 198.759 75.1315C199.139 75.277 199.477 75.5222 199.772 75.8673C200.066 76.2123 200.265 76.6617 200.368 77.2153C200.47 77.762 200.432 78.2769 200.256 78.7601C200.082 79.2391 199.752 79.6553 199.267 80.0085C198.781 80.3583 198.123 80.6103 197.294 80.7644L193.194 81.527ZM194.551 79.8428L196.88 79.4095C197.653 79.2657 198.179 79.013 198.458 78.6514C198.736 78.2898 198.834 77.8844 198.75 77.4352C198.687 77.0975 198.544 76.8034 198.321 76.5531C198.098 76.3028 197.813 76.1236 197.465 76.0154C197.12 75.9065 196.732 75.8923 196.3 75.9726L193.914 76.4165L194.551 79.8428ZM193.679 75.1578L195.842 74.7556C196.204 74.6883 196.516 74.5581 196.78 74.365C197.046 74.1714 197.241 73.9333 197.365 73.6509C197.492 73.3643 197.524 73.0487 197.459 72.7039C197.377 72.2617 197.153 71.9197 196.788 71.6779C196.422 71.4361 195.919 71.3748 195.278 71.494L193.074 71.9039L193.679 75.1578ZM206.18 79.2792C205.39 79.4262 204.677 79.384 204.044 79.1524C203.413 78.9168 202.885 78.5196 202.46 77.9609C202.039 77.3981 201.75 76.7007 201.596 75.8685C201.443 75.0467 201.461 74.294 201.651 73.6102C201.844 72.9258 202.185 72.3563 202.673 71.9017C203.165 71.4464 203.783 71.1494 204.529 71.0108C204.981 70.9266 205.434 70.9199 205.887 70.9906C206.339 71.0613 206.764 71.2254 207.161 71.4829C207.559 71.7405 207.903 72.107 208.193 72.5826C208.482 73.0547 208.695 73.6546 208.83 74.3823L208.933 74.936L202.556 76.1221L202.338 74.9522L207.185 74.0507C207.109 73.6398 206.958 73.2915 206.731 73.0057C206.505 72.7165 206.223 72.5077 205.885 72.3795C205.552 72.2507 205.183 72.2238 204.779 72.299C204.34 72.3806 203.977 72.5597 203.69 72.8365C203.406 73.1091 203.207 73.4343 203.094 73.8121C202.983 74.1857 202.965 74.5727 203.039 74.9731L203.209 75.8871C203.309 76.4233 203.488 76.862 203.746 77.2031C204.007 77.5435 204.327 77.7812 204.705 77.9162C205.083 78.0477 205.5 78.0711 205.956 77.9862C206.252 77.9312 206.514 77.8392 206.742 77.7103C206.969 77.5779 207.156 77.4099 207.302 77.2063C207.448 77.0026 207.544 76.7667 207.592 76.4985L209.119 76.49C209.082 76.9472 208.941 77.368 208.695 77.7523C208.452 78.1325 208.118 78.4558 207.692 78.7224C207.269 78.9848 206.765 79.1704 206.18 79.2792ZM213.692 77.8981C213.184 77.9927 212.707 77.9842 212.261 77.8726C211.814 77.7575 211.437 77.5412 211.13 77.2238C210.826 76.9057 210.625 76.4838 210.527 75.958C210.443 75.5054 210.46 75.1166 210.58 74.7917C210.7 74.4669 210.892 74.1916 211.156 73.9659C211.42 73.7403 211.727 73.5499 212.076 73.3949C212.426 73.2398 212.786 73.1044 213.157 72.9885C213.627 72.8434 214.009 72.7256 214.302 72.6351C214.594 72.5411 214.8 72.4397 214.921 72.3309C215.041 72.222 215.084 72.0736 215.049 71.8856L215.042 71.849C214.957 71.3929 214.762 71.0634 214.458 70.8607C214.157 70.6572 213.754 70.6025 213.25 70.6964C212.724 70.7942 212.331 70.9879 212.072 71.2775C211.815 71.563 211.655 71.8575 211.593 72.1609L210.063 72.0996C210.147 71.5798 210.328 71.139 210.606 70.7774C210.888 70.4117 211.235 70.1201 211.648 69.9027C212.061 69.6818 212.51 69.5263 212.994 69.4363C213.314 69.3767 213.661 69.3519 214.033 69.3618C214.409 69.3676 214.772 69.4405 215.122 69.5807C215.476 69.7202 215.788 69.9558 216.059 70.2873C216.329 70.6153 216.518 71.0718 216.627 71.6568L217.618 76.9842L216.093 77.2679L215.889 76.171L215.826 76.1827C215.763 76.4034 215.648 76.6301 215.483 76.8626C215.317 77.0952 215.088 77.3054 214.795 77.4931C214.502 77.6809 214.134 77.8159 213.692 77.8981ZM213.798 76.5815C214.23 76.5012 214.583 76.3472 214.858 76.1196C215.136 75.8914 215.33 75.6248 215.439 75.3199C215.551 75.0109 215.577 74.698 215.518 74.3812L215.326 73.347C215.281 73.4131 215.182 73.4854 215.031 73.5639C214.883 73.6384 214.711 73.7118 214.516 73.7841C214.319 73.853 214.128 73.9192 213.942 73.9827C213.755 74.0427 213.599 74.0934 213.473 74.1347C213.177 74.2294 212.912 74.3453 212.679 74.4825C212.448 74.619 212.274 74.7865 212.156 74.9849C212.041 75.1793 212.009 75.4157 212.061 75.6943C212.133 76.0808 212.33 76.3467 212.652 76.4921C212.974 76.6339 213.356 76.6638 213.798 76.5815ZM224.161 72.3251L223.288 67.6297L224.855 67.3382L226.347 75.3606L224.811 75.6462L224.553 74.2569L224.469 74.2725C224.365 74.7351 224.135 75.147 223.781 75.5083C223.429 75.8655 222.952 76.1001 222.35 76.2121C221.835 76.308 221.357 76.2797 220.918 76.1272C220.482 75.9706 220.109 75.6887 219.799 75.2816C219.493 74.8739 219.278 74.3393 219.155 73.6777L218.206 68.5749L219.768 68.2844L220.682 73.1992C220.783 73.7459 221.016 74.1529 221.379 74.4204C221.742 74.6879 222.166 74.7766 222.65 74.6866C222.942 74.6322 223.219 74.505 223.481 74.305C223.746 74.1044 223.947 73.8382 224.084 73.5066C224.224 73.1744 224.25 72.7806 224.161 72.3251ZM230.698 66.2514L230.931 67.5049L226.549 68.32L226.316 67.0665L230.698 66.2514ZM227.133 64.9258L228.695 64.6354L230.107 72.2243C230.163 72.5272 230.251 72.7469 230.37 72.8832C230.488 73.0161 230.624 73.0971 230.777 73.1263C230.933 73.1513 231.096 73.148 231.267 73.1162C231.392 73.0929 231.5 73.0638 231.591 73.0289C231.682 72.994 231.752 72.9665 231.803 72.9463L232.325 74.1839C232.241 74.2356 232.118 74.2944 231.958 74.3603C231.798 74.4297 231.593 74.4894 231.342 74.5395C230.933 74.6229 230.536 74.621 230.153 74.5339C229.769 74.4467 229.438 74.2634 229.159 73.9839C228.88 73.7043 228.695 73.3226 228.605 72.8386L227.133 64.9258ZM235.464 76.7773C235.231 76.8207 235.015 76.841 234.816 76.8383C234.618 76.8391 234.468 76.8274 234.367 76.8031L234.505 75.4535C234.804 75.477 235.065 75.4628 235.286 75.4109C235.507 75.359 235.688 75.2389 235.829 75.0505C235.974 74.8614 236.08 74.577 236.146 74.1972L236.24 73.6285L231.793 66.0476L233.465 65.7368L236.654 71.5846L236.738 71.569L237.612 64.9654L239.288 64.6536L237.673 74.3616C237.598 74.8079 237.469 75.1976 237.286 75.5307C237.103 75.8672 236.862 76.139 236.562 76.3461C236.262 76.5533 235.896 76.697 235.464 76.7773Z" fill="white"/>
<path fill-rule="evenodd" clip-rule="evenodd" d="M6.517 94.4007C7.13508 97.7237 4.94232 100.919 1.61933 101.537L1.61913 101.537L5.59826 122.93C5.59829 122.93 5.59832 122.93 5.59834 122.93C8.92133 122.312 12.1162 124.504 12.7343 127.827L85.6045 114.274C84.9864 110.951 87.1791 107.756 90.5021 107.138L86.5229 85.7445C83.2 86.3625 80.0053 84.1697 79.3872 80.8468L6.517 94.4007Z" fill="#F8B0ED"/>
<path d="M15.4051 114.596L13.4155 103.899L15.0294 103.599L15.894 108.248L21.2266 107.256L20.362 102.607L21.9811 102.306L23.9707 113.003L22.3516 113.304L21.484 108.64L16.1514 109.632L17.019 114.296L15.4051 114.596ZM28.5633 112.332C28.0549 112.427 27.5778 112.418 27.132 112.307C26.6855 112.192 26.3085 111.975 26.0008 111.658C25.6967 111.34 25.4958 110.918 25.398 110.392C25.3138 109.939 25.3315 109.551 25.4512 109.226C25.5709 108.901 25.7629 108.626 26.0271 108.4C26.2913 108.174 26.5982 107.984 26.9476 107.829C27.297 107.674 27.6572 107.538 28.0284 107.423C28.4985 107.278 28.8801 107.16 29.173 107.069C29.4654 106.975 29.6716 106.874 29.7919 106.765C29.9121 106.656 29.9548 106.508 29.9198 106.32L29.913 106.283C29.8282 105.827 29.6336 105.498 29.3293 105.295C29.0285 105.091 28.6257 105.037 28.1208 105.13C27.595 105.228 27.2023 105.422 26.9428 105.712C26.6861 105.997 26.5265 106.292 26.4641 106.595L24.9343 106.534C25.0177 106.014 25.1987 105.573 25.4773 105.212C25.7587 104.846 26.1061 104.554 26.5196 104.337C26.9324 104.116 27.3808 103.96 27.8648 103.87C28.1851 103.811 28.5317 103.786 28.9046 103.796C29.2803 103.802 29.6434 103.875 29.9936 104.015C30.3474 104.154 30.6596 104.39 30.9302 104.721C31.2002 105.049 31.3895 105.506 31.4984 106.091L32.4892 111.418L30.9642 111.702L30.7601 110.605L30.6975 110.617C30.6341 110.838 30.5195 111.064 30.3538 111.297C30.1881 111.529 29.9589 111.739 29.666 111.927C29.3731 112.115 29.0055 112.25 28.5633 112.332ZM28.6696 111.016C29.1014 110.935 29.4546 110.781 29.7293 110.554C30.0075 110.325 30.201 110.059 30.31 109.754C30.4219 109.445 30.4483 109.132 30.3894 108.815L30.1971 107.781C30.1517 107.847 30.0535 107.92 29.9024 107.998C29.7541 108.072 29.5822 108.146 29.3868 108.218C29.1906 108.287 28.9994 108.353 28.8131 108.417C28.6261 108.477 28.4698 108.527 28.3442 108.569C28.0484 108.664 27.7836 108.779 27.5497 108.917C27.3194 109.053 27.1452 109.221 27.0272 109.419C26.912 109.613 26.8804 109.85 26.9322 110.128C27.0041 110.515 27.2012 110.781 27.5236 110.926C27.8454 111.068 28.2274 111.098 28.6696 111.016ZM34.5693 111.031L33.0771 103.009L34.6388 102.719L36.1309 110.741L34.5693 111.031ZM33.6355 101.624C33.3639 101.675 33.1138 101.628 32.8851 101.483C32.6593 101.334 32.5227 101.133 32.4755 100.878C32.4275 100.621 32.4825 100.384 32.6403 100.167C32.801 99.9461 33.0171 99.8104 33.2887 99.7599C33.5603 99.7094 33.809 99.7586 34.0348 99.9075C34.2635 100.052 34.4018 100.254 34.4497 100.511C34.497 100.765 34.4403 101.003 34.2797 101.224C34.1218 101.44 33.9071 101.574 33.6355 101.624ZM38.2318 110.35L36.7397 102.328L38.2491 102.047L38.4861 103.321L38.5697 103.306C38.6356 102.847 38.8302 102.459 39.1533 102.144C39.4792 101.824 39.8772 101.62 40.3473 101.532C40.4448 101.514 40.5603 101.496 40.6939 101.479C40.831 101.461 40.9388 101.449 41.0174 101.446L41.2952 102.939C41.2293 102.934 41.1143 102.935 40.9503 102.944C40.7856 102.95 40.6231 102.967 40.4629 102.997C40.0939 103.066 39.7794 103.205 39.5195 103.416C39.2625 103.622 39.076 103.878 38.96 104.184C38.8434 104.487 38.8175 104.812 38.8823 105.161L39.7935 110.06L38.2318 110.35ZM52.2613 99.5812C52.1137 99.0971 51.8126 98.7569 51.3582 98.5604C50.9031 98.3605 50.3692 98.3175 49.7564 98.4315C49.3176 98.5131 48.951 98.6533 48.6566 98.8522C48.3615 99.0475 48.1475 99.2819 48.0147 99.5552C47.8846 99.8243 47.8477 100.11 47.9041 100.413C47.9514 100.667 48.0514 100.876 48.2041 101.038C48.3603 101.2 48.5475 101.326 48.7658 101.415C48.987 101.5 49.2185 101.563 49.4603 101.604C49.7016 101.642 49.9315 101.668 50.1501 101.681L51.2452 101.759C51.602 101.779 51.973 101.827 52.3582 101.903C52.7434 101.979 53.1109 102.105 53.4607 102.281C53.8105 102.458 54.1114 102.701 54.3636 103.011C54.6192 103.32 54.7917 103.714 54.8811 104.195C54.9938 104.801 54.9371 105.368 54.7112 105.896C54.4887 106.424 54.1068 106.879 53.5654 107.26C53.0275 107.641 52.3407 107.91 51.505 108.065C50.7041 108.214 49.9876 108.216 49.3553 108.07C48.7231 107.925 48.1982 107.65 47.7806 107.245C47.3624 106.836 47.076 106.313 46.9213 105.675L48.5405 105.374C48.6437 105.755 48.8289 106.054 49.0962 106.271C49.3663 106.483 49.6854 106.62 50.0535 106.682C50.4243 106.739 50.8169 106.729 51.2313 106.652C51.6874 106.567 52.0798 106.42 52.4084 106.211C52.7398 105.998 52.9843 105.744 53.1418 105.448C53.2987 105.149 53.3447 104.825 53.28 104.477C53.221 104.16 53.0822 103.917 52.8636 103.749C52.6485 103.58 52.3754 103.458 52.0444 103.382C51.7168 103.307 51.3522 103.254 50.9504 103.224L49.6223 103.114C48.7223 103.04 47.9796 102.824 47.394 102.464C46.8119 102.104 46.4515 101.552 46.3129 100.807C46.1983 100.19 46.2654 99.6212 46.5141 99.0994C46.7629 98.5776 47.1492 98.1365 47.6729 97.7761C48.1961 97.4122 48.8163 97.1636 49.5335 97.0301C50.2578 96.8954 50.9204 96.9037 51.5213 97.0549C52.1257 97.2054 52.6295 97.4738 53.0327 97.8599C53.4353 98.2425 53.697 98.7198 53.8178 99.2917L52.2613 99.5812ZM59.4868 98.0968L59.72 99.3503L55.3379 100.165L55.1048 98.9118L59.4868 98.0968ZM55.9224 96.7712L57.4841 96.4808L58.8956 104.07C58.952 104.373 59.0397 104.592 59.1587 104.729C59.2771 104.861 59.4128 104.943 59.5659 104.972C59.7219 104.997 59.8852 104.993 60.0558 104.962C60.1811 104.938 60.2892 104.909 60.38 104.874C60.4708 104.839 60.5413 104.812 60.5916 104.792L61.1136 106.029C61.0295 106.081 60.9072 106.14 60.7465 106.206C60.5865 106.275 60.3815 106.335 60.1314 106.385C59.7218 106.468 59.3252 106.466 58.9416 106.379C58.5579 106.292 58.2266 106.109 57.9477 105.829C57.6687 105.55 57.4842 105.168 57.3942 104.684L55.9224 96.7712ZM64.2532 108.623C64.0199 108.666 63.8039 108.686 63.6053 108.684C63.4073 108.685 63.2574 108.673 63.1556 108.648L63.2937 107.299C63.5934 107.322 63.8538 107.308 64.0747 107.256C64.2956 107.204 64.4768 107.084 64.6182 106.896C64.7632 106.707 64.8688 106.422 64.935 106.043L65.0292 105.474L60.5823 97.893L62.2536 97.5821L65.4434 103.43L65.5269 103.414L66.4006 96.8108L68.0772 96.499L66.4624 106.207C66.3869 106.653 66.2577 107.043 66.0747 107.376C65.8923 107.713 65.6511 107.984 65.351 108.192C65.0508 108.399 64.6849 108.542 64.2532 108.623ZM70.6091 93.2614L72.5987 103.958L71.037 104.248L69.0475 93.5518L70.6091 93.2614ZM78.1873 103.086C77.3969 103.233 76.6847 103.191 76.0509 102.959C75.4199 102.723 74.8921 102.326 74.4676 101.768C74.0459 101.205 73.7576 100.507 73.6028 99.6752C73.45 98.8535 73.4685 98.1007 73.6583 97.417C73.8516 96.7326 74.1924 96.1631 74.6806 95.7084C75.1723 95.2531 75.7907 94.9562 76.5359 94.8176C76.9885 94.7334 77.4412 94.7266 77.8938 94.7973C78.3465 94.868 78.7715 95.0322 79.1688 95.2897C79.5661 95.5472 79.9099 95.9137 80.2001 96.3893C80.4896 96.8614 80.7021 97.4613 80.8374 98.1891L80.9404 98.7427L74.5632 99.9288L74.3456 98.7589L79.1925 97.8574C79.1161 97.4465 78.9648 97.0982 78.7388 96.8124C78.512 96.5232 78.2301 96.3145 77.8928 96.1863C77.559 96.0574 77.1902 96.0306 76.7863 96.1057C76.3476 96.1873 75.9846 96.3665 75.6975 96.6432C75.4132 96.9159 75.2143 97.241 75.1008 97.6188C74.9902 97.9924 74.9721 98.3794 75.0466 98.7798L75.2166 99.6938C75.3163 100.23 75.4952 100.669 75.7531 101.01C76.0146 101.35 76.3344 101.588 76.7125 101.723C77.09 101.854 77.5069 101.878 77.963 101.793C78.259 101.738 78.521 101.646 78.7492 101.517C78.9768 101.385 79.1635 101.217 79.3093 101.013C79.4552 100.809 79.5518 100.573 79.5992 100.305L81.1268 100.297C81.0894 100.754 80.9479 101.175 80.7023 101.559C80.4596 101.939 80.1253 102.263 79.6994 102.529C79.2763 102.792 78.7722 102.977 78.1873 103.086Z" fill="white"/>
</svg>
