<svg width="517" height="129" viewBox="0 0 517 129" fill="none" xmlns="http://www.w3.org/2000/svg">
<path fill-rule="evenodd" clip-rule="evenodd" d="M346.132 31.232C346.75 34.555 344.557 37.7499 341.234 38.368L341.234 38.368L345.213 59.7611C345.214 59.7611 345.214 59.7611 345.214 59.7611C348.537 59.143 351.731 61.3357 352.35 64.6587L425.22 51.1048C424.602 47.7819 426.794 44.587 430.117 43.9689L426.138 22.5758C422.815 23.1938 419.62 21.0011 419.002 17.6781L346.132 31.232Z" fill="#CABDFF"/>
<path d="M366.389 38.2461L368.379 48.9426L366.765 49.2428L364.776 38.5462L366.389 38.2461ZM371.28 43.475L372.166 48.2383L370.604 48.5288L369.112 40.5063L370.611 40.2275L370.854 41.5333L370.953 41.5148C371.058 41.0557 371.284 40.6607 371.629 40.3298C371.978 39.9984 372.454 39.7766 373.057 39.6645C373.603 39.5629 374.103 39.5887 374.557 39.7421C375.01 39.892 375.391 40.1705 375.701 40.5776C376.011 40.9846 376.228 41.519 376.351 42.1805L377.3 47.2833L375.738 47.5738L374.824 42.659C374.716 42.0775 374.48 41.6513 374.116 41.3804C373.752 41.1059 373.305 41.0179 372.775 41.1164C372.413 41.1837 372.106 41.322 371.853 41.5311C371.603 41.7396 371.425 42.0106 371.318 42.3439C371.213 42.6732 371.201 43.0502 371.28 43.475ZM384.278 39.7118L382.909 40.2258C382.816 40.0557 382.69 39.9008 382.531 39.7612C382.375 39.6208 382.179 39.5185 381.944 39.4542C381.709 39.3899 381.429 39.3879 381.105 39.4481C380.663 39.5303 380.313 39.6982 380.054 39.9517C379.794 40.2018 379.693 40.4817 379.751 40.7916C379.8 41.0598 379.94 41.2572 380.169 41.3839C380.398 41.5106 380.743 41.5851 381.205 41.6073L382.533 41.6628C383.303 41.6961 383.902 41.8566 384.33 42.1444C384.759 42.4323 385.025 42.8599 385.131 43.4275C385.22 43.908 385.161 44.3622 384.952 44.79C384.746 45.2138 384.416 45.5778 383.961 45.8822C383.51 46.1859 382.96 46.398 382.313 46.5185C381.414 46.6856 380.646 46.6304 380.007 46.3529C379.367 46.072 378.917 45.5884 378.656 44.902L380.123 44.3914C380.29 44.7674 380.539 45.0292 380.869 45.1767C381.198 45.3208 381.598 45.3491 382.068 45.2617C382.58 45.1665 382.969 44.9842 383.236 44.7148C383.502 44.4419 383.607 44.1505 383.549 43.8406C383.502 43.5899 383.369 43.3968 383.149 43.2611C382.933 43.1248 382.625 43.0488 382.226 43.033L380.813 42.9878C380.032 42.9565 379.428 42.7879 379 42.482C378.576 42.1755 378.311 41.7367 378.204 41.1657C378.116 40.6921 378.172 40.2532 378.37 39.8488C378.569 39.4444 378.883 39.0996 379.312 38.8143C379.742 38.5256 380.257 38.3252 380.86 38.2132C381.727 38.0519 382.444 38.113 383.012 38.3964C383.579 38.6764 384.001 39.1148 384.278 39.7118ZM389.532 36.7081L389.765 37.9616L385.383 38.7767L385.15 37.5232L389.532 36.7081ZM385.968 35.3826L387.529 35.0921L388.941 42.681C388.997 42.984 389.085 43.2036 389.204 43.34C389.322 43.4729 389.458 43.5539 389.611 43.583C389.767 43.6081 389.93 43.6047 390.101 43.573C390.226 43.5497 390.334 43.5206 390.425 43.4857C390.516 43.4508 390.587 43.4232 390.637 43.4031L391.159 44.6407C391.075 44.6923 390.952 44.7511 390.792 44.817C390.632 44.8864 390.427 44.9462 390.177 44.9963C389.767 45.0797 389.37 45.0778 388.987 44.9906C388.603 44.9035 388.272 44.7201 387.993 44.4406C387.714 44.1611 387.53 43.7793 387.439 43.2953L385.968 35.3826ZM395.119 44.1526C394.611 44.2471 394.134 44.2386 393.688 44.127C393.242 44.0119 392.865 43.7957 392.557 43.4782C392.253 43.1601 392.052 42.7382 391.954 42.2124C391.87 41.7598 391.888 41.371 392.007 41.0462C392.127 40.7213 392.319 40.446 392.583 40.2204C392.847 39.9947 393.154 39.8043 393.504 39.6493C393.853 39.4942 394.213 39.3588 394.584 39.2429C395.055 39.0978 395.436 38.98 395.729 38.8895C396.021 38.7955 396.228 38.6941 396.348 38.5853C396.468 38.4765 396.511 38.328 396.476 38.14L396.469 38.1034C396.384 37.6473 396.19 37.3179 395.885 37.1151C395.585 36.9117 395.182 36.8569 394.677 36.9508C394.151 37.0486 393.758 37.2423 393.499 37.532C393.242 37.8175 393.083 38.1119 393.02 38.4153L391.49 38.354C391.574 37.8342 391.755 37.3935 392.033 37.0318C392.315 36.6661 392.662 36.3745 393.076 36.1571C393.489 35.9362 393.937 35.7808 394.421 35.6908C394.741 35.6312 395.088 35.6063 395.461 35.6162C395.836 35.622 396.199 35.695 396.55 35.8351C396.904 35.9747 397.216 36.2102 397.486 36.5417C397.756 36.8698 397.946 37.3263 398.054 37.9112L399.045 43.2386L397.52 43.5223L397.316 42.4255L397.254 42.4371C397.19 42.6579 397.076 42.8845 396.91 43.1171C396.744 43.3496 396.515 43.5598 396.222 43.7475C395.929 43.9353 395.562 44.0703 395.119 44.1526ZM395.226 42.8359C395.658 42.7556 396.011 42.6017 396.285 42.3741C396.564 42.1458 396.757 41.8792 396.866 41.5744C396.978 41.2654 397.004 40.9524 396.946 40.6356L396.753 39.6015C396.708 39.6675 396.61 39.7398 396.458 39.8184C396.31 39.8928 396.138 39.9662 395.943 40.0386C395.747 40.1075 395.556 40.1736 395.369 40.2371C395.182 40.2971 395.026 40.3478 394.9 40.3892C394.605 40.4838 394.34 40.5997 394.106 40.7369C393.875 40.8734 393.701 41.0409 393.583 41.2394C393.468 41.4337 393.436 41.6701 393.488 41.9487C393.56 42.3352 393.757 42.6011 394.08 42.7465C394.402 42.8884 394.784 42.9182 395.226 42.8359ZM400.697 31.8647L402.687 42.5613L401.125 42.8517L399.136 32.1552L400.697 31.8647ZM404.36 31.1835L406.35 41.88L404.788 42.1705L402.798 31.4739L404.36 31.1835Z" fill="white"/>
<path fill-rule="evenodd" clip-rule="evenodd" d="M431.036 15.44C431.654 18.7629 429.461 21.9577 426.138 22.5759L430.117 43.9689C433.44 43.3511 436.635 45.5438 437.253 48.8667C437.253 48.8667 437.253 48.8667 437.253 48.8667L510.123 35.3128C509.505 31.9898 511.698 28.7949 515.021 28.1768L515.021 28.1768L511.042 6.7837L511.042 6.78374C507.719 7.40182 504.524 5.20905 503.906 1.88606L431.036 15.44Z" fill="#CABDFF"/>
<path d="M442.641 24.0632L444.6 23.6989L449.551 31.3804L449.677 31.3571L451.536 22.4088L453.494 22.0445L455.484 32.741L453.948 33.0266L452.509 25.2863L452.409 25.3047L450.691 33.6162L449.417 33.8532L444.825 26.7101L444.725 26.7285L446.166 34.4741L444.631 34.7597L442.641 24.0632ZM460.072 32.0712C459.564 32.1658 459.087 32.1573 458.641 32.0457C458.195 31.9306 457.818 31.7143 457.51 31.3969C457.206 31.0788 457.005 30.6569 456.907 30.1311C456.823 29.6784 456.841 29.2897 456.96 28.9648C457.08 28.6399 457.272 28.3647 457.536 28.139C457.801 27.9133 458.107 27.723 458.457 27.5679C458.806 27.4129 459.166 27.2774 459.538 27.1616C460.008 27.0165 460.389 26.8987 460.682 26.8082C460.975 26.7142 461.181 26.6128 461.301 26.5039C461.421 26.3951 461.464 26.2467 461.429 26.0587L461.422 26.0221C461.337 25.566 461.143 25.2365 460.838 25.0337C460.538 24.8303 460.135 24.7756 459.63 24.8695C459.104 24.9673 458.712 25.161 458.452 25.4506C458.195 25.7361 458.036 26.0306 457.973 26.334L456.443 26.2727C456.527 25.7528 456.708 25.3121 456.986 24.9505C457.268 24.5847 457.615 24.2932 458.029 24.0758C458.442 23.8549 458.89 23.6994 459.374 23.6094C459.694 23.5498 460.041 23.525 460.414 23.5349C460.79 23.5406 461.153 23.6136 461.503 23.7538C461.857 23.8933 462.169 24.1289 462.439 24.4604C462.709 24.7884 462.899 25.2449 463.008 25.8299L463.998 31.1573L462.473 31.4409L462.269 30.3441L462.207 30.3558C462.143 30.5765 462.029 30.8032 461.863 31.0357C461.697 31.2683 461.468 31.4784 461.175 31.6662C460.882 31.854 460.515 31.989 460.072 32.0712ZM460.179 30.7546C460.611 30.6743 460.964 30.5203 461.238 30.2927C461.517 30.0644 461.71 29.7979 461.819 29.493C461.931 29.184 461.958 28.8711 461.899 28.5542L461.706 27.5201C461.661 27.5862 461.563 27.6585 461.412 27.737C461.263 27.8114 461.091 27.8848 460.896 27.9572C460.7 28.0261 460.509 28.0923 460.322 28.1558C460.135 28.2158 459.979 28.2665 459.853 28.3078C459.558 28.4025 459.293 28.5184 459.059 28.6555C458.829 28.7921 458.654 28.9595 458.536 29.158C458.421 29.3523 458.39 29.5888 458.441 29.8673C458.513 30.2538 458.71 30.5198 459.033 30.6651C459.355 30.807 459.737 30.8368 460.179 30.7546ZM467.009 27.7821L466.644 25.8777L466.915 25.8272L469.48 21.8377L471.35 21.4899L468.423 26.033L468.178 26.0786L467.009 27.7821ZM466.078 30.7704L464.089 20.0738L465.651 19.7834L467.64 30.4799L466.078 30.7704ZM471.145 29.8281L467.563 26.5496L468.436 25.2579L473.062 29.4715L471.145 29.8281ZM477.423 28.8279C476.632 28.9749 475.92 28.9326 475.286 28.7011C474.655 28.4654 474.128 28.0682 473.703 27.5096C473.281 26.9468 472.993 26.2493 472.838 25.4171C472.685 24.5954 472.704 23.8426 472.894 23.1589C473.087 22.4745 473.428 21.905 473.916 21.4503C474.408 20.995 475.026 20.6981 475.771 20.5595C476.224 20.4753 476.677 20.4685 477.129 20.5393C477.582 20.61 478.007 20.7741 478.404 21.0316C478.802 21.2891 479.145 21.6557 479.436 22.1312C479.725 22.6033 479.938 23.2032 480.073 23.931L480.176 24.4846L473.799 25.6708L473.581 24.5008L478.428 23.5993C478.352 23.1884 478.2 22.8401 477.974 22.5544C477.747 22.2651 477.465 22.0564 477.128 21.9282C476.794 21.7993 476.426 21.7725 476.022 21.8476C475.583 21.9292 475.22 22.1084 474.933 22.3851C474.649 22.6578 474.45 22.983 474.336 23.3607C474.226 23.7343 474.208 24.1213 474.282 24.5218L474.452 25.4358C474.552 25.972 474.731 26.4106 474.989 26.7517C475.25 27.0921 475.57 27.3299 475.948 27.4649C476.325 27.5964 476.742 27.6197 477.198 27.5349C477.494 27.4798 477.756 27.3879 477.985 27.2589C478.212 27.1266 478.399 26.9586 478.545 26.7549C478.691 26.5513 478.787 26.3153 478.835 26.0472L480.362 26.0386C480.325 26.4959 480.183 26.9166 479.938 27.3009C479.695 27.6811 479.361 28.0045 478.935 28.271C478.512 28.5334 478.008 28.719 477.423 28.8279ZM487.03 23.4312L486.157 18.7358L487.724 18.4444L489.216 26.4668L487.68 26.7524L487.422 25.3631L487.338 25.3786C487.234 25.8412 487.004 26.2532 486.65 26.6145C486.298 26.9717 485.821 27.2063 485.219 27.3183C484.704 27.4141 484.226 27.3858 483.787 27.2333C483.351 27.0767 482.978 26.7949 482.668 26.3878C482.362 25.9801 482.147 25.4454 482.024 24.7838L481.075 19.6811L482.637 19.3906L483.551 24.3054C483.653 24.852 483.885 25.2591 484.248 25.5266C484.611 25.794 485.035 25.8828 485.519 25.7927C485.811 25.7383 486.088 25.6111 486.35 25.4111C486.616 25.2105 486.816 24.9444 486.953 24.6128C487.093 24.2806 487.119 23.8867 487.03 23.4312ZM491.874 29.0849L489.822 18.0541L491.347 17.7704L491.589 19.0709L491.72 19.0466C491.779 18.8627 491.874 18.6451 492.004 18.394C492.133 18.1429 492.335 17.9074 492.607 17.6874C492.879 17.4639 493.264 17.3059 493.762 17.2133C494.409 17.0928 495.018 17.1489 495.587 17.3817C496.156 17.6144 496.643 18.0121 497.046 18.5746C497.453 19.1365 497.738 19.851 497.899 20.718C498.06 21.585 498.054 22.3553 497.88 23.0288C497.706 23.6989 497.397 24.248 496.955 24.6762C496.511 25.1009 495.966 25.3734 495.318 25.4939C494.831 25.5846 494.417 25.5769 494.076 25.4709C493.74 25.3642 493.464 25.2174 493.249 25.0304C493.034 24.8434 492.864 24.6734 492.738 24.5203L492.644 24.5377L493.436 28.7944L491.874 29.0849ZM492.099 21.7806C492.203 22.3447 492.377 22.8239 492.62 23.2183C492.863 23.6127 493.161 23.9011 493.516 24.0838C493.87 24.2629 494.271 24.3107 494.72 24.2271C495.187 24.1404 495.554 23.9442 495.821 23.6387C496.088 23.3297 496.262 22.9462 496.342 22.4881C496.426 22.0294 496.418 21.5319 496.319 20.9957C496.22 20.4664 496.052 20.0061 495.813 19.6145C495.578 19.2224 495.28 18.9339 494.917 18.7491C494.559 18.5636 494.144 18.5146 493.674 18.6021C493.222 18.6862 492.86 18.8741 492.59 19.1657C492.324 19.4566 492.149 19.8259 492.067 20.2735C491.984 20.7212 491.995 21.2235 492.099 21.7806Z" fill="white"/>
<path fill-rule="evenodd" clip-rule="evenodd" d="M261.228 47.0243C261.847 50.3473 259.654 53.5422 256.331 54.1603L256.331 54.1603L260.31 75.5533C263.633 74.9352 266.828 77.128 267.446 80.451L340.316 66.8971C339.698 63.5741 341.891 60.3792 345.214 59.7611L341.234 38.3681C337.911 38.986 334.717 36.7933 334.099 33.4704L261.228 47.0243L261.228 47.0243Z" fill="#CABDFF"/>
<path d="M280.655 57.0998C280.507 56.6158 280.206 56.2755 279.752 56.079C279.297 55.8791 278.763 55.8361 278.15 55.9501C277.711 56.0317 277.345 56.1719 277.05 56.3708C276.755 56.5662 276.541 56.8005 276.408 57.0738C276.278 57.3429 276.241 57.629 276.298 57.9319C276.345 58.1861 276.445 58.3944 276.598 58.557C276.754 58.7188 276.941 58.8443 277.16 58.9334C277.381 59.0183 277.612 59.0816 277.854 59.123C278.095 59.161 278.325 59.1867 278.544 59.2001L279.639 59.2774C279.996 59.2975 280.367 59.3455 280.752 59.4216C281.137 59.4976 281.505 59.6238 281.854 59.8001C282.204 59.9764 282.505 60.2194 282.757 60.5292C283.013 60.8383 283.185 61.2331 283.275 61.7136C283.387 62.3194 283.331 62.8865 283.105 63.4149C282.882 63.9426 282.5 64.3973 281.959 64.779C281.421 65.16 280.734 65.4283 279.899 65.5837C279.098 65.7327 278.381 65.7344 277.749 65.5891C277.117 65.4437 276.592 65.1685 276.174 64.7634C275.756 64.3549 275.47 63.8318 275.315 63.1941L276.934 62.8929C277.037 63.2736 277.223 63.5724 277.49 63.7892C277.76 64.002 278.079 64.1389 278.447 64.2002C278.818 64.2573 279.211 64.2473 279.625 64.1702C280.081 64.0854 280.473 63.9386 280.802 63.7297C281.134 63.5168 281.378 63.2624 281.535 62.9665C281.692 62.6671 281.738 62.3434 281.674 61.9952C281.615 61.6783 281.476 61.4357 281.257 61.2675C281.042 61.0986 280.769 60.9764 280.438 60.9011C280.111 60.8251 279.746 60.7723 279.344 60.7426L278.016 60.6329C277.116 60.559 276.373 60.3423 275.788 59.9829C275.206 59.6229 274.845 59.0703 274.707 58.3251C274.592 57.7088 274.659 57.1398 274.908 56.618C275.157 56.0962 275.543 55.6551 276.067 55.2947C276.59 54.9308 277.21 54.6822 277.927 54.5488C278.651 54.4141 279.314 54.4223 279.915 54.5735C280.519 54.7241 281.023 54.9924 281.426 55.3785C281.829 55.7611 282.091 56.2384 282.211 56.8103L280.655 57.0998ZM289.116 63.8531C288.325 64.0002 287.613 63.9579 286.979 63.7264C286.348 63.4907 285.82 63.0935 285.396 62.5349C284.974 61.9721 284.686 61.2746 284.531 60.4424C284.378 59.6207 284.397 58.8679 284.587 58.1842C284.78 57.4998 285.121 56.9303 285.609 56.4756C286.101 56.0203 286.719 55.7234 287.464 55.5848C287.917 55.5006 288.369 55.4938 288.822 55.5645C289.275 55.6353 289.7 55.7994 290.097 56.0569C290.494 56.3144 290.838 56.681 291.128 57.1565C291.418 57.6286 291.63 58.2285 291.766 58.9563L291.869 59.5099L285.491 60.6961L285.274 59.5261L290.121 58.6246C290.044 58.2137 289.893 57.8654 289.667 57.5796C289.44 57.2904 289.158 57.0817 288.821 56.9535C288.487 56.8246 288.118 56.7978 287.715 56.8729C287.276 56.9545 286.913 57.1337 286.626 57.4104C286.341 57.6831 286.143 58.0082 286.029 58.386C285.918 58.7596 285.9 59.1466 285.975 59.547L286.145 60.4611C286.245 60.9973 286.423 61.4359 286.681 61.777C286.943 62.1174 287.263 62.3551 287.641 62.4902C288.018 62.6217 288.435 62.645 288.891 62.5602C289.187 62.5051 289.449 62.4131 289.677 62.2842C289.905 62.1519 290.092 61.9838 290.238 61.7802C290.383 61.5766 290.48 61.3406 290.527 61.0724L292.055 61.0639C292.018 61.5212 291.876 61.9419 291.631 62.3262C291.388 62.7064 291.054 63.0298 290.628 63.2963C290.205 63.5587 289.7 63.7443 289.116 63.8531ZM294.26 62.7288L292.768 54.7063L294.277 54.4256L294.514 55.7L294.598 55.6844C294.664 55.2255 294.858 54.8381 295.181 54.5222C295.507 54.2022 295.905 53.9985 296.375 53.911C296.473 53.8929 296.588 53.875 296.722 53.8574C296.859 53.8391 296.967 53.828 297.046 53.8242L297.323 55.318C297.257 55.3122 297.142 55.3138 296.978 55.3227C296.814 55.3281 296.651 55.3457 296.491 55.3755C296.122 55.4442 295.808 55.5837 295.548 55.7942C295.291 56.0005 295.104 56.2567 294.988 56.5629C294.872 56.8656 294.846 57.191 294.91 57.5392L295.822 62.4383L294.26 62.7288ZM305.52 52.3345L304.103 60.898L302.431 61.2089L298.025 53.7286L299.701 53.4167L302.881 59.2123L302.965 59.1968L303.843 52.6463L305.52 52.3345ZM308.479 60.0839L306.987 52.0615L308.549 51.7711L310.041 59.7935L308.479 60.0839ZM307.546 50.677C307.274 50.7275 307.024 50.6804 306.795 50.5356C306.569 50.3867 306.433 50.1851 306.386 49.9309C306.338 49.6733 306.393 49.4361 306.55 49.2194C306.711 48.9986 306.927 48.8629 307.199 48.8124C307.47 48.7619 307.719 48.8111 307.945 48.96C308.174 49.1048 308.312 49.306 308.36 49.5637C308.407 49.8179 308.35 50.0554 308.19 50.2762C308.032 50.4929 307.817 50.6265 307.546 50.677ZM315.551 58.9361C314.775 59.0805 314.074 59.029 313.448 58.7816C312.824 58.5301 312.305 58.1205 311.89 57.5529C311.474 56.9854 311.192 56.2994 311.042 55.4951C310.891 54.6803 310.91 53.9328 311.101 53.2525C311.291 52.5688 311.631 51.9993 312.123 51.544C312.615 51.0887 313.238 50.7907 313.994 50.6502C314.603 50.5369 315.168 50.549 315.687 50.6866C316.205 50.8207 316.648 51.0625 317.016 51.412C317.387 51.7609 317.65 52.2 317.807 52.7293L316.287 53.012C316.133 52.6515 315.881 52.3633 315.531 52.1474C315.185 51.9309 314.763 51.8689 314.265 51.9615C313.83 52.0425 313.47 52.2283 313.185 52.519C312.903 52.8055 312.711 53.1763 312.609 53.6313C312.505 54.0828 312.507 54.5941 312.613 55.1651C312.722 55.7501 312.904 56.2385 313.161 56.6302C313.418 57.022 313.729 57.3044 314.097 57.4775C314.467 57.6499 314.874 57.695 315.316 57.6127C315.612 57.5577 315.87 57.4538 316.09 57.3012C316.313 57.1444 316.487 56.9481 316.613 56.7123C316.742 56.4757 316.812 56.2068 316.825 55.9055L318.345 55.6228C318.386 56.152 318.303 56.6465 318.097 57.1063C317.89 57.5662 317.572 57.9568 317.142 58.2782C316.715 58.5989 316.185 58.8182 315.551 58.9361ZM323.975 57.3693C323.184 57.5163 322.472 57.4741 321.838 57.2425C321.207 57.0069 320.679 56.6097 320.255 56.051C319.833 55.4883 319.545 54.7908 319.39 53.9586C319.237 53.1368 319.256 52.3841 319.446 51.7004C319.639 51.016 319.98 50.4464 320.468 49.9918C320.96 49.5365 321.578 49.2395 322.323 49.1009C322.776 49.0168 323.229 49.01 323.681 49.0807C324.134 49.1514 324.559 49.3155 324.956 49.5731C325.353 49.8306 325.697 50.1971 325.987 50.6727C326.277 51.1448 326.489 51.7447 326.625 52.4724L326.728 53.0261L320.351 54.2122L320.133 53.0423L324.98 52.1408C324.903 51.7299 324.752 51.3816 324.526 51.0958C324.299 50.8066 324.017 50.5978 323.68 50.4696C323.346 50.3408 322.978 50.3139 322.574 50.3891C322.135 50.4707 321.772 50.6499 321.485 50.9266C321.2 51.1992 321.002 51.5244 320.888 51.9022C320.777 52.2758 320.759 52.6628 320.834 53.0632L321.004 53.9772C321.104 54.5135 321.282 54.9521 321.54 55.2932C321.802 55.6336 322.122 55.8713 322.5 56.0063C322.877 56.1378 323.294 56.1612 323.75 56.0763C324.046 56.0213 324.308 55.9293 324.537 55.8004C324.764 55.668 324.951 55.5 325.097 55.2964C325.242 55.0927 325.339 54.8568 325.386 54.5886L326.914 54.5801C326.877 55.0373 326.735 55.4581 326.49 55.8424C326.247 56.2226 325.913 56.5459 325.487 56.8125C325.064 57.0749 324.56 57.2605 323.975 57.3693Z" fill="white"/>
<path fill-rule="evenodd" clip-rule="evenodd" d="M91.4208 78.6086C92.0389 81.9316 89.8461 85.1265 86.5232 85.7445L86.5229 85.7446L90.5021 107.138C90.5021 107.138 90.5021 107.138 90.5022 107.138C93.8251 106.52 97.02 108.712 97.6381 112.035L170.508 98.4814C169.89 95.1584 172.083 91.9636 175.406 91.3455L171.427 69.9524C168.104 70.5703 164.909 68.3776 164.291 65.0547L91.4208 78.6086Z" fill="#CABDFF"/>
<path d="M100.104 98.842L98.1143 88.1455L101.927 87.4363C102.759 87.2815 103.477 87.3047 104.08 87.506C104.683 87.7072 105.169 88.0455 105.538 88.5207C105.907 88.9925 106.152 89.5557 106.274 90.2103C106.397 90.8684 106.369 91.4859 106.192 92.0629C106.017 92.6357 105.684 93.1264 105.19 93.5352C104.7 93.9398 104.041 94.2192 103.212 94.3733L100.59 94.861L100.336 93.4926L102.811 93.0321C103.337 92.9343 103.747 92.7644 104.04 92.5225C104.333 92.2771 104.527 91.9817 104.621 91.6363C104.715 91.291 104.725 90.9164 104.65 90.5124C104.575 90.1085 104.431 89.7641 104.22 89.4793C104.008 89.1944 103.721 88.9939 103.357 88.8779C102.997 88.7612 102.548 88.7527 102.012 88.8524L99.9857 89.2294L101.718 98.5418L100.104 98.842ZM108.958 86.1285L110.948 96.825L109.386 97.1155L107.397 86.4189L108.958 86.1285ZM117.512 92.162L116.639 87.4666L118.206 87.1751L119.698 95.1975L118.162 95.4832L117.904 94.0939L117.82 94.1094C117.715 94.572 117.486 94.984 117.131 95.3453C116.78 95.7024 116.303 95.937 115.701 96.0491C115.185 96.1449 114.708 96.1166 114.269 95.9641C113.833 95.8075 113.46 95.5256 113.15 95.1186C112.844 94.7108 112.629 94.1762 112.506 93.5146L111.557 88.4118L113.118 88.1213L114.033 93.0361C114.134 93.5828 114.367 93.9899 114.73 94.2573C115.093 94.5248 115.517 94.6135 116.001 94.5235C116.293 94.4691 116.57 94.3419 116.832 94.1419C117.097 93.9413 117.298 93.6752 117.435 93.3436C117.575 93.0113 117.6 92.6175 117.512 92.162ZM121.796 94.8073L120.304 86.7849L121.803 86.506L122.046 87.8118L122.145 87.7933C122.23 87.32 122.439 86.9245 122.773 86.6067C123.105 86.2854 123.537 86.0755 124.066 85.9771C124.602 85.8773 125.075 85.9191 125.483 86.1025C125.895 86.2852 126.229 86.5797 126.485 86.986L126.569 86.9705C126.681 86.5066 126.922 86.1087 127.292 85.7768C127.662 85.4414 128.136 85.22 128.714 85.1124C129.442 84.9771 130.078 85.0947 130.622 85.4654C131.17 85.8354 131.53 86.48 131.701 87.3992L132.701 92.7788L131.14 93.0693L130.166 87.8359C130.065 87.2928 129.844 86.9268 129.503 86.7381C129.162 86.5494 128.786 86.4933 128.375 86.5697C127.866 86.6643 127.5 86.8945 127.276 87.2603C127.052 87.6227 126.985 88.0476 127.076 88.5351L128.027 93.6483L126.471 93.9378L125.479 88.6052C125.398 88.1699 125.197 87.8453 124.876 87.6312C124.555 87.417 124.177 87.3505 123.742 87.4314C123.446 87.4865 123.187 87.6157 122.966 87.819C122.747 88.0182 122.587 88.2695 122.484 88.5731C122.386 88.876 122.37 89.2086 122.438 89.5707L123.358 94.5168L121.796 94.8073ZM134.92 92.3662L132.93 81.6697L134.492 81.3792L135.231 85.3538L135.325 85.3363C135.385 85.1524 135.479 84.9348 135.609 84.6837C135.739 84.4326 135.94 84.1971 136.213 83.9771C136.484 83.7536 136.869 83.5956 137.367 83.503C138.015 83.3825 138.623 83.4386 139.193 83.6714C139.762 83.9041 140.248 84.3018 140.652 84.8643C141.059 85.4262 141.343 86.1407 141.504 87.0077C141.666 87.8747 141.66 88.645 141.486 89.3185C141.311 89.9886 141.003 90.5377 140.56 90.9659C140.117 91.3906 139.571 91.6631 138.924 91.7836C138.436 91.8743 138.022 91.8666 137.682 91.7606C137.345 91.6539 137.069 91.5071 136.854 91.3201C136.639 91.1332 136.469 90.9631 136.343 90.81L136.213 90.8343L136.445 92.0825L134.92 92.3662ZM135.704 88.0704C135.809 88.6344 135.983 89.1137 136.226 89.508C136.468 89.9024 136.767 90.1909 137.121 90.3735C137.475 90.5526 137.877 90.6004 138.326 90.5168C138.793 90.4301 139.16 90.2339 139.427 89.9284C139.694 89.6194 139.867 89.2359 139.948 88.7778C140.032 88.3191 140.024 87.8216 139.924 87.2854C139.826 86.7562 139.657 86.2958 139.419 85.9042C139.184 85.5121 138.885 85.2236 138.523 85.0388C138.164 84.8533 137.75 84.8043 137.28 84.8918C136.827 84.976 136.466 85.1638 136.196 85.4554C135.929 85.7463 135.755 86.1156 135.672 86.5633C135.59 87.0109 135.601 87.5132 135.704 88.0704ZM144.001 90.6771L142.509 82.6547L144.071 82.3642L145.563 90.3866L144.001 90.6771ZM143.068 81.2701C142.796 81.3206 142.546 81.2735 142.317 81.1287C142.091 80.9798 141.955 80.7782 141.907 80.5241C141.86 80.2664 141.914 80.0292 142.072 79.8125C142.233 79.5917 142.449 79.4561 142.721 79.4055C142.992 79.355 143.241 79.4042 143.467 79.5532C143.695 79.6979 143.834 79.8992 143.882 80.1568C143.929 80.411 143.872 80.6485 143.712 80.8693C143.554 81.086 143.339 81.2196 143.068 81.2701ZM148.34 84.942L149.225 89.7054L147.664 89.9958L146.172 81.9734L147.671 81.6946L147.914 83.0003L148.013 82.9819C148.118 82.5228 148.344 82.1278 148.689 81.7969C149.038 81.4654 149.514 81.2437 150.116 81.1316C150.663 81.0299 151.163 81.0558 151.617 81.2092C152.07 81.3591 152.451 81.6376 152.761 82.0446C153.071 82.4517 153.287 82.986 153.41 83.6476L154.36 88.7504L152.798 89.0409L151.884 84.1261C151.776 83.5446 151.54 83.1184 151.176 82.8474C150.811 82.573 150.365 82.485 149.835 82.5834C149.473 82.6508 149.166 82.789 148.913 82.9982C148.663 83.2067 148.485 83.4776 148.378 83.811C148.273 84.1402 148.26 84.5172 148.34 84.942ZM160.408 90.9107C159.771 91.0293 159.207 91.0477 158.716 90.9661C158.229 90.8838 157.815 90.732 157.475 90.5106C157.135 90.2893 156.863 90.0283 156.66 89.7275L157.899 88.9242C158.021 89.06 158.177 89.1986 158.365 89.34C158.558 89.4843 158.801 89.5922 159.096 89.6635C159.393 89.7342 159.758 89.7294 160.19 89.6491C160.782 89.539 161.244 89.3035 161.577 88.9426C161.91 88.5852 162.019 88.0931 161.902 87.4664L161.609 85.8891L161.509 85.9075C161.447 86.0956 161.347 86.3106 161.208 86.5526C161.073 86.7939 160.866 87.0196 160.588 87.2298C160.31 87.44 159.926 87.5908 159.435 87.6821C158.801 87.8 158.203 87.7582 157.639 87.5568C157.079 87.3513 156.596 86.9853 156.192 86.4588C155.791 85.9283 155.511 85.2365 155.352 84.3834C155.193 83.5303 155.202 82.7722 155.378 82.1091C155.557 81.4454 155.87 80.9043 156.319 80.4859C156.766 80.0641 157.312 79.7933 157.956 79.6734C158.454 79.5808 158.872 79.5896 159.209 79.6997C159.546 79.8064 159.82 79.9535 160.032 80.1412C160.246 80.3281 160.416 80.4965 160.542 80.6461L160.656 80.6247L160.415 79.3242L161.945 79.0396L163.47 87.2396C163.598 87.929 163.543 88.5246 163.305 89.0264C163.067 89.5282 162.695 89.9361 162.187 90.2502C161.684 90.5636 161.091 90.7838 160.408 90.9107ZM159.539 86.3227C159.988 86.2392 160.348 86.0641 160.619 85.7976C160.893 85.5269 161.073 85.1799 161.16 84.7567C161.25 84.3293 161.243 83.8388 161.14 83.2851C161.04 82.7454 160.872 82.285 160.635 81.904C160.398 81.5229 160.104 81.2463 159.751 81.0741C159.398 80.8984 158.993 80.853 158.537 80.9379C158.067 81.0253 157.698 81.22 157.43 81.5221C157.161 81.8206 156.985 82.192 156.902 82.6361C156.823 83.0796 156.83 83.5573 156.926 84.0691C157.023 84.5949 157.189 85.0413 157.423 85.4085C157.657 85.7756 157.952 86.0415 158.307 86.2061C158.665 86.37 159.076 86.4089 159.539 86.3227Z" fill="white"/>
<path fill-rule="evenodd" clip-rule="evenodd" d="M175.406 91.3456L171.427 69.9525C174.75 69.3343 176.942 66.1395 176.324 62.8166L249.194 49.2627C249.812 52.5857 253.007 54.7784 256.33 54.1603L256.331 54.1603L260.31 75.5534C256.987 76.1716 254.794 79.3664 255.412 82.6894L182.542 96.2433C181.924 92.9203 178.729 90.7275 175.406 91.3456C175.406 91.3456 175.406 91.3456 175.406 91.3456Z" fill="#CABDFF"/>
<path d="M195.478 81.1024L193.488 70.4059L197.301 69.6967C198.129 69.5426 198.844 69.5574 199.443 69.7413C200.047 69.9244 200.531 70.2432 200.897 70.6976C201.261 71.1485 201.505 71.703 201.627 72.3611C201.749 73.0157 201.719 73.6175 201.536 74.1666C201.357 74.7115 201.018 75.1727 200.519 75.5501C200.023 75.9269 199.361 76.1923 198.532 76.3465L195.644 76.8837L195.386 75.4944L198.128 74.9844C198.65 74.8872 199.061 74.7333 199.36 74.5227C199.663 74.3115 199.865 74.0489 199.965 73.7348C200.065 73.4208 200.078 73.0636 200.003 72.6632C199.928 72.2593 199.785 71.9239 199.573 71.6571C199.365 71.3896 199.081 71.2083 198.721 71.1131C198.364 71.0139 197.919 71.0138 197.386 71.1128L195.359 71.4898L197.091 80.8022L195.478 81.1024ZM199.86 75.2943L203.401 79.6287L201.562 79.9707L198.074 75.6265L199.86 75.2943ZM208.219 78.9C207.429 79.047 206.716 79.0048 206.083 78.7732C205.452 78.5376 204.924 78.1404 204.499 77.5817C204.078 77.019 203.789 76.3215 203.635 75.4893C203.482 74.6675 203.5 73.9148 203.69 73.2311C203.883 72.5467 204.224 71.9771 204.712 71.5225C205.204 71.0672 205.822 70.7702 206.568 70.6316C207.02 70.5475 207.473 70.5407 207.926 70.6114C208.378 70.6821 208.803 70.8462 209.201 71.1038C209.598 71.3613 209.942 71.7278 210.232 72.2034C210.521 72.6755 210.734 73.2754 210.869 74.0031L210.972 74.5568L204.595 75.7429L204.377 74.573L209.224 73.6715C209.148 73.2606 208.997 72.9123 208.77 72.6265C208.544 72.3373 208.262 72.1285 207.925 72.0003C207.591 71.8715 207.222 71.8446 206.818 71.9198C206.379 72.0014 206.016 72.1805 205.729 72.4573C205.445 72.7299 205.246 73.0551 205.133 73.4329C205.022 73.8065 205.004 74.1935 205.078 74.5939L205.248 75.5079C205.348 76.0442 205.527 76.4828 205.785 76.8239C206.046 77.1643 206.366 77.402 206.744 77.537C207.122 77.6685 207.539 77.6919 207.995 77.607C208.291 77.552 208.553 77.46 208.781 77.3311C209.008 77.1987 209.195 77.0307 209.341 76.8271C209.487 76.6234 209.583 76.3875 209.631 76.1193L211.159 76.1108C211.121 76.568 210.98 76.9888 210.734 77.3731C210.491 77.7533 210.157 78.0766 209.731 78.3432C209.308 78.6056 208.804 78.7912 208.219 78.9ZM213.923 80.784L211.871 69.7532L213.396 69.4696L213.638 70.7701L213.769 70.7458C213.828 70.5618 213.923 70.3443 214.053 70.0932C214.183 69.8421 214.384 69.6065 214.656 69.3865C214.928 69.163 215.313 69.005 215.811 68.9124C216.459 68.7919 217.067 68.8481 217.636 69.0808C218.205 69.3136 218.692 69.7112 219.096 70.2738C219.503 70.8357 219.787 71.5501 219.948 72.4171C220.109 73.2841 220.103 74.0544 219.929 74.7279C219.755 75.398 219.446 75.9471 219.004 76.3753C218.56 76.8 218.015 77.0726 217.367 77.193C216.88 77.2837 216.466 77.276 216.126 77.17C215.789 77.0634 215.513 76.9165 215.298 76.7296C215.083 76.5426 214.913 76.3725 214.787 76.2194L214.693 76.2369L215.485 80.4936L213.923 80.784ZM214.148 73.4798C214.253 74.0439 214.426 74.5231 214.669 74.9174C214.912 75.3118 215.21 75.6003 215.565 75.7829C215.919 75.962 216.32 76.0098 216.77 75.9263C217.236 75.8395 217.603 75.6433 217.871 75.3378C218.137 75.0288 218.311 74.6453 218.391 74.1872C218.475 73.7285 218.468 73.2311 218.368 72.6948C218.269 72.1656 218.101 71.7052 217.862 71.3137C217.627 70.9215 217.329 70.633 216.967 70.4482C216.608 70.2628 216.193 70.2138 215.723 70.3012C215.271 70.3854 214.909 70.5733 214.639 70.8648C214.373 71.1558 214.198 71.5251 214.116 71.9727C214.034 72.4203 214.044 72.9227 214.148 73.4798ZM224.809 75.8305C224.3 75.9251 223.823 75.9166 223.377 75.805C222.931 75.6899 222.554 75.4736 222.246 75.1562C221.942 74.8381 221.741 74.4162 221.643 73.8904C221.559 73.4378 221.577 73.049 221.697 72.7241C221.816 72.3993 222.008 72.124 222.272 71.8983C222.537 71.6727 222.843 71.4823 223.193 71.3273C223.542 71.1722 223.903 71.0368 224.274 70.9209C224.744 70.7758 225.125 70.658 225.418 70.5675C225.711 70.4735 225.917 70.3721 226.037 70.2633C226.157 70.1544 226.2 70.006 226.165 69.818L226.158 69.7814C226.073 69.3253 225.879 68.9958 225.575 68.7931C225.274 68.5896 224.871 68.5349 224.366 68.6288C223.84 68.7266 223.448 68.9203 223.188 69.2099C222.931 69.4954 222.772 69.7899 222.709 70.0933L221.18 70.032C221.263 69.5122 221.444 69.0714 221.723 68.7098C222.004 68.3441 222.351 68.0525 222.765 67.8351C223.178 67.6142 223.626 67.4587 224.11 67.3687C224.43 67.3091 224.777 67.2843 225.15 67.2942C225.526 67.3 225.889 67.3729 226.239 67.5131C226.593 67.6527 226.905 67.8882 227.176 68.2197C227.445 68.5477 227.635 69.0043 227.744 69.5892L228.735 74.9166L227.209 75.2003L227.005 74.1035L226.943 74.1151C226.879 74.3358 226.765 74.5625 226.599 74.795C226.433 75.0276 226.204 75.2378 225.911 75.4255C225.618 75.6133 225.251 75.7483 224.809 75.8305ZM224.915 74.5139C225.347 74.4336 225.7 74.2796 225.975 74.052C226.253 73.8238 226.446 73.5572 226.555 73.2523C226.667 72.9434 226.694 72.6304 226.635 72.3136L226.442 71.2794C226.397 71.3455 226.299 71.4178 226.148 71.4963C225.999 71.5708 225.828 71.6442 225.632 71.7165C225.436 71.7854 225.245 71.8516 225.058 71.9151C224.871 71.9751 224.715 72.0258 224.59 72.0672C224.294 72.1618 224.029 72.2777 223.795 72.4149C223.565 72.5514 223.39 72.7189 223.272 72.9173C223.157 73.1117 223.126 73.3481 223.177 73.6267C223.249 74.0132 223.447 74.2791 223.769 74.4245C224.091 74.5663 224.473 74.5962 224.915 74.5139ZM230.815 74.5297L229.322 66.5073L230.884 66.2168L232.376 74.2392L230.815 74.5297ZM229.881 65.1228C229.609 65.1733 229.359 65.1262 229.13 64.9814C228.905 64.8324 228.768 64.6309 228.721 64.3767C228.673 64.119 228.728 63.8819 228.886 63.6652C229.046 63.4444 229.262 63.3087 229.534 63.2582C229.806 63.2077 230.054 63.2569 230.28 63.4058C230.509 63.5506 230.647 63.7518 230.695 64.0095C230.742 64.2637 230.686 64.5012 230.525 64.722C230.367 64.9387 230.152 65.0723 229.881 65.1228ZM234.477 73.8485L232.985 65.8261L234.494 65.5453L234.731 66.8197L234.815 66.8042C234.881 66.3452 235.075 65.9578 235.399 65.6419C235.724 65.3219 236.122 65.1182 236.593 65.0308C236.69 65.0126 236.806 64.9947 236.939 64.9771C237.076 64.9588 237.184 64.9477 237.263 64.9439L237.541 66.4377C237.475 66.432 237.36 66.4335 237.196 66.4424C237.031 66.4478 236.868 66.4654 236.708 66.4952C236.339 66.5639 236.025 66.7034 235.765 66.9139C235.508 67.1202 235.321 67.3764 235.205 67.6826C235.089 67.9853 235.063 68.3107 235.128 68.6589L236.039 73.558L234.477 73.8485Z" fill="white"/>
<path fill-rule="evenodd" clip-rule="evenodd" d="M6.517 94.4009C7.13508 97.7238 4.94232 100.919 1.61933 101.537L1.61913 101.537L5.59826 122.93C5.59829 122.93 5.59832 122.93 5.59834 122.93C8.92133 122.312 12.1162 124.505 12.7343 127.828L85.6045 114.274C84.9864 110.951 87.1791 107.756 90.5021 107.138L86.5229 85.7446C83.2 86.3626 80.0053 84.1699 79.3872 80.8469L6.517 94.4009Z" fill="#CABDFF"/>
<path d="M18.1224 103.024L20.081 102.66L25.0329 110.341L25.1583 110.318L27.017 101.37L28.9756 101.005L30.9652 111.702L29.4297 111.988L27.99 104.247L27.8907 104.266L26.1729 112.577L24.8985 112.814L20.3061 105.671L20.2068 105.689L21.6475 113.435L20.112 113.721L18.1224 103.024ZM35.5539 111.032C35.0456 111.127 34.5685 111.118 34.1226 111.007C33.6761 110.892 33.2991 110.675 32.9915 110.358C32.6873 110.04 32.4864 109.618 32.3886 109.092C32.3044 108.639 32.3221 108.251 32.4418 107.926C32.5615 107.601 32.7535 107.326 33.0177 107.1C33.282 106.874 33.5888 106.684 33.9382 106.529C34.2876 106.374 34.6479 106.238 35.019 106.123C35.4891 105.977 35.8707 105.86 36.1637 105.769C36.456 105.675 36.6623 105.574 36.7825 105.465C36.9028 105.356 36.9454 105.208 36.9104 105.02L36.9036 104.983C36.8188 104.527 36.6242 104.197 36.3199 103.995C36.0191 103.791 35.6163 103.736 35.1114 103.83C34.5856 103.928 34.193 104.122 33.9334 104.412C33.6767 104.697 33.5172 104.992 33.4547 105.295L31.9249 105.234C32.0083 104.714 32.1893 104.273 32.4679 103.911C32.7493 103.546 33.0967 103.254 33.5102 103.037C33.923 102.816 34.3714 102.66 34.8554 102.57C35.1757 102.511 35.5224 102.486 35.8953 102.496C36.271 102.502 36.634 102.575 36.9843 102.715C37.338 102.854 37.6502 103.09 37.9208 103.421C38.1908 103.749 38.3802 104.206 38.489 104.791L39.4799 110.118L37.9548 110.402L37.7508 109.305L37.6881 109.317C37.6247 109.537 37.5101 109.764 37.3445 109.997C37.1788 110.229 36.9495 110.439 36.6566 110.627C36.3637 110.815 35.9961 110.95 35.5539 111.032ZM35.6603 109.716C36.092 109.635 36.4452 109.481 36.7199 109.254C36.9981 109.025 37.1917 108.759 37.3007 108.454C37.4125 108.145 37.439 107.832 37.38 107.515L37.1877 106.481C37.1423 106.547 37.0441 106.619 36.893 106.698C36.7447 106.772 36.5729 106.846 36.3774 106.918C36.1813 106.987 35.99 107.053 35.8037 107.117C35.6167 107.177 35.4605 107.227 35.3349 107.269C35.0391 107.363 34.7742 107.479 34.5404 107.616C34.31 107.753 34.1358 107.92 34.0178 108.119C33.9026 108.313 33.871 108.55 33.9228 108.828C33.9947 109.215 34.1918 109.481 34.5143 109.626C34.8361 109.768 35.2181 109.798 35.6603 109.716ZM42.4901 106.743L42.125 104.839L42.3966 104.788L44.9616 100.799L46.8314 100.451L43.9047 104.994L43.6592 105.04L42.4901 106.743ZM41.5599 109.731L39.5703 99.0348L41.132 98.7443L43.1216 109.441L41.5599 109.731ZM46.6261 108.789L43.0444 105.511L43.9172 104.219L48.5429 108.432L46.6261 108.789ZM52.9042 107.789C52.1138 107.936 51.4016 107.894 50.7678 107.662C50.1367 107.426 49.609 107.029 49.1844 106.471C48.7628 105.908 48.4745 105.21 48.3197 104.378C48.1669 103.556 48.1854 102.804 48.3752 102.12C48.5685 101.435 48.9093 100.866 49.3975 100.411C49.8892 99.956 50.5076 99.659 51.2528 99.5204C51.7054 99.4362 52.1581 99.4295 52.6107 99.5002C53.0634 99.5709 53.4884 99.735 53.8857 99.9925C54.283 100.25 54.6268 100.617 54.917 101.092C55.2065 101.564 55.419 102.164 55.5543 102.892L55.6573 103.446L49.2801 104.632L49.0625 103.462L53.9094 102.56C53.833 102.149 53.6817 101.801 53.4556 101.515C53.2289 101.226 52.9469 101.017 52.6097 100.889C52.2759 100.76 51.9071 100.733 51.5032 100.809C51.0644 100.89 50.7015 101.069 50.4144 101.346C50.13 101.619 49.9312 101.944 49.8177 102.322C49.7071 102.695 49.689 103.082 49.7635 103.483L49.9335 104.397C50.0332 104.933 50.2121 105.372 50.47 105.713C50.7315 106.053 51.0513 106.291 51.4294 106.426C51.8069 106.557 52.2238 106.581 52.6799 106.496C52.9759 106.441 53.2379 106.349 53.4661 106.22C53.6937 106.088 53.8804 105.919 54.0262 105.716C54.1721 105.512 54.2687 105.276 54.316 105.008L55.8437 105C55.8063 105.457 55.6648 105.878 55.4192 106.262C55.1765 106.642 54.8422 106.965 54.4163 107.232C53.9932 107.494 53.4891 107.68 52.9042 107.789ZM62.5117 102.392L61.6384 97.6968L63.2053 97.4053L64.6974 105.428L63.1619 105.713L62.9035 104.324L62.8199 104.34C62.715 104.802 62.4855 105.214 62.1312 105.575C61.7797 105.933 61.3028 106.167 60.7004 106.279C60.1851 106.375 59.7079 106.347 59.2689 106.194C58.8327 106.038 58.4597 105.756 58.1498 105.349C57.8434 104.941 57.6287 104.406 57.5056 103.745L56.5565 98.642L58.1181 98.3515L59.0323 103.266C59.134 103.813 59.3664 104.22 59.7296 104.488C60.0927 104.755 60.5163 104.844 61.0003 104.754C61.2928 104.699 61.5699 104.572 61.8317 104.372C62.097 104.171 62.2979 103.905 62.4343 103.574C62.5743 103.242 62.6001 102.848 62.5117 102.392ZM67.3553 108.046L65.3036 97.015L66.8287 96.7314L67.0706 98.0319L67.2011 98.0076C67.2606 97.8236 67.3552 97.6061 67.485 97.355C67.6148 97.1039 67.816 96.8683 68.0885 96.6483C68.3603 96.4249 68.7452 96.2668 69.2431 96.1742C69.8908 96.0537 70.4992 96.1099 71.0685 96.3426C71.6377 96.5754 72.1241 96.973 72.5278 97.5356C72.9349 98.0975 73.2191 98.8119 73.3803 99.6789C73.5416 100.546 73.5354 101.316 73.3617 101.99C73.1873 102.66 72.8787 103.209 72.436 103.637C71.9927 104.062 71.4472 104.334 70.7995 104.455C70.3121 104.546 69.8982 104.538 69.5578 104.432C69.221 104.325 68.9451 104.178 68.7302 103.991C68.5153 103.804 68.345 103.634 68.2192 103.481L68.1252 103.499L68.917 107.755L67.3553 108.046ZM67.58 100.742C67.6849 101.306 67.8587 101.785 68.1014 102.179C68.344 102.574 68.6426 102.862 68.9972 103.045C69.3512 103.224 69.7527 103.272 70.2019 103.188C70.6685 103.101 71.0355 102.905 71.3028 102.6C71.5696 102.291 71.7432 101.907 71.8237 101.449C71.9077 100.99 71.8998 100.493 71.8001 99.9566C71.7017 99.4274 71.5332 98.967 71.2946 98.5755C71.0596 98.1833 70.761 97.8948 70.3988 97.71C70.0401 97.5246 69.6257 97.4756 69.1556 97.563C68.703 97.6472 68.3416 97.8351 68.0717 98.1266C67.8052 98.4176 67.6307 98.7869 67.5482 99.2345C67.4658 99.6821 67.4764 100.184 67.58 100.742Z" fill="white"/>
</svg>
