<svg width="518" height="124" viewBox="0 0 518 124" fill="none" xmlns="http://www.w3.org/2000/svg">
<path fill-rule="evenodd" clip-rule="evenodd" d="M353.057 61.3324C352.475 64.6619 349.303 66.8888 345.974 66.3063L345.974 66.3063L342.224 87.7409C345.554 88.3233 347.78 91.4945 347.198 94.8239L420.21 107.596C420.792 104.266 423.963 102.039 427.292 102.622L431.042 81.1871C427.713 80.6046 425.486 77.4335 426.068 74.1042L353.057 61.3324Z" fill="#B5E4CA"/>
<path d="M367.737 77.5628C367.767 77.0576 367.604 76.6336 367.247 76.2907C366.891 75.9443 366.406 75.7174 365.792 75.61C365.352 75.5331 364.959 75.5363 364.614 75.6197C364.269 75.6996 363.987 75.8444 363.767 76.054C363.551 76.2607 363.416 76.5158 363.363 76.8193C363.319 77.074 363.34 77.3042 363.426 77.5098C363.516 77.7161 363.647 77.8991 363.821 78.0589C363.998 78.2158 364.193 78.3559 364.405 78.4793C364.618 78.5992 364.824 78.7036 365.024 78.7926L366.023 79.2478C366.351 79.3913 366.682 79.566 367.016 79.7719C367.35 79.9778 367.65 80.2245 367.916 80.5119C368.183 80.7994 368.38 81.1323 368.508 81.5106C368.639 81.8896 368.663 82.3197 368.578 82.8012C368.472 83.4082 368.221 83.9198 367.825 84.3358C367.432 84.7525 366.915 85.045 366.274 85.2134C365.637 85.3823 364.9 85.3936 364.063 85.2471C363.26 85.1068 362.588 84.858 362.047 84.5008C361.505 84.1436 361.11 83.7023 360.86 83.1768C360.611 82.6479 360.525 82.0576 360.603 81.4061L362.226 81.6899C362.189 82.0826 362.258 82.4273 362.433 82.7239C362.612 83.0176 362.863 83.2575 363.186 83.4435C363.514 83.6267 363.885 83.7545 364.3 83.8271C364.757 83.9071 365.176 83.9067 365.557 83.8259C365.942 83.7422 366.26 83.5893 366.511 83.3671C366.763 83.1415 366.919 82.8542 366.98 82.5054C367.035 82.1879 366.99 81.9121 366.844 81.6781C366.702 81.4446 366.488 81.2347 366.205 81.0484C365.924 80.8628 365.601 80.6858 365.235 80.5175L364.029 79.9506C363.212 79.5667 362.592 79.1041 362.169 78.5627C361.749 78.0219 361.605 77.3782 361.735 76.6316C361.843 76.0141 362.105 75.5044 362.52 75.1025C362.936 74.7005 363.452 74.4223 364.069 74.2677C364.686 74.1096 365.354 74.0934 366.073 74.2192C366.798 74.3461 367.416 74.5854 367.926 74.9371C368.44 75.2894 368.818 75.7169 369.061 76.2196C369.304 76.7189 369.383 77.2575 369.296 77.8356L367.737 77.5628ZM373.303 86.8474C372.511 86.7088 371.859 86.4203 371.346 85.9818C370.837 85.5405 370.481 84.9839 370.279 84.3121C370.08 83.6374 370.054 82.8831 370.2 82.0493C370.344 81.226 370.624 80.5272 371.041 79.9529C371.462 79.3793 371.98 78.9648 372.596 78.7095C373.216 78.4548 373.899 78.3927 374.646 78.5233C375.099 78.6026 375.526 78.7545 375.925 78.979C376.325 79.2035 376.665 79.5058 376.948 79.8859C377.23 80.2661 377.424 80.7297 377.529 81.2767C377.636 81.8202 377.625 82.4565 377.498 83.1857L377.401 83.7404L371.011 82.6227L371.216 81.4505L376.072 82.3C376.144 81.8883 376.124 81.5091 376.012 81.1623C375.901 80.8121 375.71 80.5179 375.439 80.28C375.171 80.0426 374.835 79.8885 374.43 79.8177C373.991 79.7408 373.588 79.7818 373.222 79.9408C372.86 80.0968 372.56 80.332 372.322 80.6462C372.088 80.9576 371.936 81.3139 371.865 81.7151L371.705 82.6309C371.611 83.1681 371.626 83.6416 371.748 84.0514C371.874 84.4617 372.091 84.7962 372.398 85.0549C372.705 85.31 373.088 85.4776 373.545 85.5575C373.841 85.6094 374.119 85.6148 374.378 85.5738C374.637 85.5293 374.871 85.4372 375.079 85.2974C375.287 85.1575 375.46 84.9703 375.598 84.7356L377.032 85.2615C376.837 85.6768 376.557 86.0216 376.193 86.2959C375.833 86.5672 375.407 86.7533 374.914 86.8542C374.426 86.9522 373.889 86.9499 373.303 86.8474ZM378.516 87.5921L379.922 79.5541L381.434 79.8187L381.211 81.0955L381.295 81.1102C381.517 80.7032 381.835 80.4082 382.248 80.2252C382.665 80.0393 383.109 79.9876 383.58 80.07C383.678 80.0871 383.792 80.1107 383.924 80.1409C384.058 80.1716 384.163 80.199 384.238 80.2229L383.976 81.7195C383.917 81.6911 383.808 81.6524 383.652 81.6034C383.495 81.5509 383.337 81.5106 383.177 81.4825C382.807 81.4178 382.463 81.4386 382.146 81.545C381.833 81.6484 381.569 81.8233 381.353 82.0696C381.138 82.3125 381 82.6083 380.939 82.9572L380.081 87.8658L378.516 87.5921ZM392.698 81.7891L388.378 89.3172L386.703 89.0242L385.189 80.4755L386.869 80.7693L387.823 87.3109L387.906 87.3255L391.019 81.4952L392.698 81.7891ZM392.763 90.0843L394.169 82.0463L395.734 82.32L394.328 90.358L392.763 90.0843ZM395.176 80.9443C394.904 80.8967 394.686 80.7651 394.522 80.5495C394.363 80.3311 394.305 80.0945 394.35 79.8398C394.395 79.5817 394.53 79.3787 394.753 79.2308C394.981 79.0801 395.231 79.0285 395.503 79.0761C395.775 79.1237 395.991 79.2568 396.15 79.4752C396.314 79.6908 396.373 79.9277 396.328 80.1858C396.284 80.4405 396.147 80.6432 395.92 80.7939C395.696 80.9418 395.448 80.9919 395.176 80.9443ZM399.79 91.4807C399.012 91.3446 398.373 91.0512 397.873 90.6006C397.377 90.1471 397.034 89.5819 396.843 88.905C396.652 88.228 396.627 87.4866 396.768 86.6807C396.911 85.8643 397.19 85.1708 397.607 84.6C398.024 84.0257 398.542 83.6113 399.162 83.3565C399.782 83.1018 400.47 83.0407 401.227 83.1731C401.838 83.2799 402.362 83.4885 402.8 83.7989C403.239 84.1057 403.57 84.4872 403.792 84.9431C404.018 85.3997 404.111 85.9032 404.072 86.4537L402.55 86.1873C402.532 85.7959 402.397 85.4379 402.144 85.1133C401.895 84.7893 401.521 84.5837 401.023 84.4964C400.586 84.4201 400.184 84.4684 399.816 84.6413C399.452 84.8113 399.142 85.0915 398.887 85.4819C398.632 85.8688 398.455 86.3484 398.355 86.9205C398.252 87.5066 398.253 88.028 398.356 88.4848C398.46 88.9415 398.653 89.3151 398.937 89.6056C399.224 89.8967 399.589 90.0811 400.032 90.1586C400.329 90.2104 400.607 90.2033 400.866 90.1373C401.13 90.0684 401.362 89.9454 401.562 89.7682C401.765 89.5917 401.926 89.3644 402.042 89.0864L403.565 89.3528C403.419 89.8629 403.168 90.2973 402.814 90.656C402.46 91.0148 402.026 91.2695 401.51 91.4203C400.998 91.5716 400.425 91.5918 399.79 91.4807ZM408.23 92.957C407.438 92.8185 406.785 92.53 406.272 92.0915C405.763 91.6501 405.408 91.0935 405.205 90.4217C405.007 89.747 404.981 88.9928 405.126 88.159C405.27 87.3356 405.551 86.6369 405.968 86.0626C406.388 85.4889 406.906 85.0745 407.523 84.8191C408.143 84.5644 408.826 84.5024 409.572 84.633C410.026 84.7123 410.452 84.8642 410.852 85.0887C411.251 85.3131 411.592 85.6154 411.874 85.9956C412.156 86.3757 412.35 86.8393 412.456 87.3863C412.562 87.9299 412.552 88.5662 412.424 89.2953L412.327 89.85L405.938 88.7323L406.143 87.5601L410.999 88.4096C411.071 87.998 411.051 87.6187 410.939 87.272C410.828 86.9217 410.636 86.6276 410.365 86.3896C410.098 86.1522 409.761 85.9981 409.357 85.9273C408.917 85.8504 408.515 85.8915 408.149 86.0504C407.787 86.2065 407.487 86.4416 407.249 86.7559C407.014 87.0672 406.862 87.4235 406.792 87.8247L406.632 88.7405C406.538 89.2778 406.552 89.7513 406.675 90.161C406.801 90.5714 407.017 90.9059 407.324 91.1645C407.632 91.4197 408.014 91.5872 408.471 91.6672C408.768 91.7191 409.046 91.7245 409.304 91.6835C409.564 91.639 409.798 91.5468 410.005 91.407C410.213 91.2672 410.386 91.0799 410.524 90.8452L411.959 91.3712C411.764 91.7865 411.484 92.1313 411.12 92.4055C410.759 92.6769 410.333 92.863 409.841 92.9638C409.353 93.0618 408.816 93.0595 408.23 92.957Z" fill="#678593"/>
<path fill-rule="evenodd" clip-rule="evenodd" d="M438.125 76.2132C437.543 79.5426 434.371 81.7694 431.042 81.1872L427.293 102.622C430.622 103.204 432.849 106.375 432.267 109.705C432.267 109.705 432.267 109.705 432.267 109.705L505.277 122.476C505.86 119.147 509.031 116.92 512.36 117.502L512.361 117.503L516.11 96.068L516.11 96.068C512.781 95.4856 510.554 92.3144 511.136 88.985L438.125 76.2132Z" fill="#B5E4CA"/>
<path d="M456.524 90.1926L454.649 100.91L453.032 100.627L454.907 89.9098L456.524 90.1926ZM459.278 96.801L458.443 101.574L456.878 101.3L458.284 93.2619L459.786 93.5246L459.557 94.8329L459.657 94.8503C459.916 94.457 460.265 94.1658 460.705 93.9765C461.148 93.788 461.671 93.7464 462.274 93.852C462.822 93.9478 463.282 94.1469 463.653 94.4491C464.025 94.7479 464.285 95.1422 464.433 95.6319C464.581 96.1216 464.597 96.6979 464.481 97.3607L463.587 102.473L462.022 102.2L462.884 97.2754C462.986 96.6928 462.913 96.211 462.667 95.8299C462.422 95.4454 462.034 95.2068 461.504 95.114C461.141 95.0505 460.804 95.0726 460.494 95.1801C460.188 95.2883 459.926 95.4798 459.709 95.7547C459.496 96.0266 459.352 96.3754 459.278 96.801ZM472.771 97.8185L471.309 97.8217C471.282 97.6299 471.218 97.4407 471.117 97.2542C471.02 97.0682 470.873 96.904 470.675 96.7615C470.477 96.619 470.216 96.5194 469.891 96.4626C469.448 96.3851 469.061 96.4199 468.73 96.5668C468.399 96.7103 468.207 96.9373 468.152 97.2478C468.105 97.5164 468.167 97.7501 468.337 97.9489C468.507 98.1476 468.805 98.3381 469.229 98.5203L470.455 99.0367C471.165 99.337 471.67 99.6968 471.97 100.116C472.271 100.535 472.372 101.029 472.272 101.598C472.188 102.08 471.973 102.484 471.628 102.812C471.287 103.137 470.851 103.363 470.318 103.489C469.789 103.616 469.2 103.622 468.551 103.509C467.651 103.351 466.95 103.031 466.448 102.548C465.948 102.061 465.695 101.451 465.69 100.716L467.243 100.751C467.268 101.161 467.41 101.494 467.667 101.747C467.925 101.997 468.29 102.164 468.761 102.246C469.274 102.336 469.702 102.301 470.047 102.142C470.391 101.979 470.591 101.743 470.645 101.432C470.689 101.181 470.632 100.953 470.474 100.75C470.319 100.546 470.057 100.367 469.688 100.213L468.38 99.6768C467.66 99.3747 467.153 99.0055 466.859 98.5694C466.568 98.1338 466.473 97.63 466.573 97.0578C466.656 96.5834 466.861 96.1914 467.188 95.8819C467.516 95.5725 467.931 95.3592 468.433 95.2421C468.936 95.1216 469.489 95.1141 470.093 95.2196C470.961 95.3716 471.612 95.6796 472.045 96.1437C472.479 96.6042 472.721 97.1625 472.771 97.8185ZM478.744 96.8409L478.524 98.0968L474.134 97.3288L474.354 96.0729L478.744 96.8409ZM475.868 94.3531L477.433 94.6268L476.102 102.23C476.049 102.534 476.055 102.77 476.119 102.94C476.183 103.106 476.282 103.229 476.415 103.31C476.553 103.388 476.707 103.442 476.878 103.472C477.003 103.494 477.115 103.504 477.212 103.503C477.309 103.502 477.385 103.501 477.439 103.5L477.496 104.842C477.399 104.861 477.264 104.873 477.09 104.879C476.916 104.888 476.703 104.872 476.451 104.832C476.038 104.767 475.667 104.626 475.338 104.41C475.009 104.195 474.763 103.907 474.599 103.548C474.436 103.188 474.396 102.766 474.481 102.281L475.868 94.3531ZM481.377 105.769C480.868 105.68 480.424 105.505 480.045 105.244C479.667 104.981 479.389 104.646 479.212 104.241C479.038 103.837 478.997 103.371 479.089 102.845C479.169 102.391 479.321 102.033 479.547 101.77C479.773 101.508 480.049 101.317 480.375 101.198C480.702 101.079 481.056 101.008 481.437 100.985C481.819 100.962 482.204 100.961 482.592 100.982C483.083 101.01 483.482 101.033 483.788 101.051C484.095 101.065 484.323 101.042 484.474 100.982C484.625 100.922 484.717 100.798 484.749 100.61L484.756 100.573C484.836 100.116 484.769 99.7392 484.554 99.4429C484.344 99.1472 483.985 98.955 483.48 98.8666C482.953 98.7744 482.517 98.8187 482.173 98.9993C481.832 99.1771 481.58 99.3972 481.415 99.6596L480.004 99.0675C480.263 98.6096 480.587 98.2599 480.974 98.0185C481.366 97.7741 481.793 97.6224 482.257 97.5632C482.721 97.5006 483.195 97.5117 483.68 97.5965C484.001 97.6526 484.335 97.7505 484.68 97.8901C485.03 98.0269 485.345 98.2221 485.624 98.4759C485.907 98.7303 486.117 99.0601 486.255 99.4653C486.393 99.867 486.411 100.361 486.308 100.947L485.375 106.285L483.847 106.017L484.039 104.918L483.976 104.907C483.84 105.092 483.653 105.264 483.416 105.424C483.18 105.584 482.892 105.701 482.552 105.775C482.212 105.848 481.82 105.846 481.377 105.769ZM481.937 104.572C482.369 104.648 482.754 104.627 483.091 104.51C483.431 104.393 483.706 104.211 483.915 103.964C484.127 103.713 484.262 103.429 484.317 103.112L484.498 102.076C484.433 102.122 484.316 102.155 484.146 102.176C483.982 102.194 483.795 102.203 483.586 102.202C483.379 102.198 483.176 102.193 482.98 102.188C482.783 102.178 482.619 102.171 482.487 102.166C482.177 102.151 481.888 102.167 481.621 102.214C481.358 102.262 481.136 102.358 480.956 102.502C480.78 102.644 480.668 102.855 480.619 103.134C480.551 103.521 480.643 103.839 480.894 104.088C481.146 104.333 481.494 104.495 481.937 104.572ZM490.898 96.2057L489.023 106.923L487.459 106.649L489.334 95.932L490.898 96.2057ZM494.568 96.8476L492.693 107.565L491.128 107.291L493.003 96.5739L494.568 96.8476Z" fill="#678593"/>
<path fill-rule="evenodd" clip-rule="evenodd" d="M267.988 46.4515C267.406 49.7809 264.235 52.0078 260.905 51.4255L257.156 72.86C260.485 73.4424 262.712 76.6135 262.13 79.943L335.141 92.7147C335.724 89.3853 338.895 87.1584 342.224 87.7408L345.974 66.3063L345.974 66.3063C342.644 65.7239 340.417 62.5527 341 59.2233L267.988 46.4515L267.988 46.4515Z" fill="#B5E4CA"/>
<path d="M275.848 58.5873L277.81 58.9305L279.765 67.8584L279.89 67.8804L284.76 60.1462L286.722 60.4895L284.847 71.2067L283.309 70.9376L284.665 63.1822L284.566 63.1649L280.051 70.3516L278.775 70.1283L276.969 61.8305L276.869 61.8131L275.512 69.5737L273.973 69.3045L275.848 58.5873ZM289.381 72.1831C288.871 72.094 288.427 71.9193 288.049 71.6589C287.671 71.395 287.393 71.0606 287.216 70.6556C287.042 70.2513 287.001 69.7858 287.093 69.259C287.173 68.8054 287.325 68.4474 287.551 68.1849C287.776 67.9223 288.053 67.7315 288.379 67.6125C288.705 67.4934 289.059 67.4223 289.441 67.3991C289.823 67.376 290.207 67.375 290.596 67.3962C291.087 67.4246 291.486 67.4476 291.792 67.4652C292.098 67.4793 292.327 67.4564 292.478 67.3964C292.629 67.3365 292.72 67.2124 292.753 67.024L292.76 66.9873C292.84 66.5303 292.773 66.1536 292.558 65.8573C292.348 65.5616 291.989 65.3694 291.483 65.2809C290.957 65.1888 290.521 65.233 290.177 65.4137C289.836 65.5915 289.584 65.8116 289.419 66.074L288.007 65.4819C288.267 65.024 288.591 64.6743 288.978 64.4329C289.37 64.1885 289.797 64.0368 290.261 63.9776C290.725 63.915 291.199 63.9261 291.684 64.0109C292.005 64.067 292.338 64.1649 292.684 64.3045C293.034 64.4413 293.349 64.6365 293.628 64.8903C293.911 65.1447 294.121 65.4745 294.259 65.8797C294.397 66.2814 294.415 66.7753 294.312 67.3614L293.379 72.6991L291.85 72.4318L292.043 71.3328L291.98 71.3219C291.843 71.5065 291.657 71.6788 291.42 71.8388C291.184 71.9988 290.895 72.1155 290.555 72.1891C290.215 72.2626 289.824 72.2606 289.381 72.1831ZM289.941 70.9867C290.373 71.0624 290.758 71.0416 291.095 70.9243C291.435 70.8077 291.71 70.6256 291.918 70.3781C292.131 70.1277 292.265 69.8437 292.321 69.5263L292.502 68.4901C292.437 68.5362 292.319 68.5696 292.15 68.5904C291.985 68.6083 291.799 68.6169 291.59 68.6164C291.382 68.6124 291.18 68.6076 290.983 68.602C290.787 68.5928 290.623 68.5857 290.491 68.5805C290.181 68.5658 289.892 68.5818 289.625 68.6286C289.361 68.676 289.14 68.772 288.96 68.9167C288.784 69.0586 288.672 69.269 288.623 69.5481C288.555 69.9354 288.647 70.2534 288.898 70.5023C289.15 70.7477 289.498 70.9092 289.941 70.9867ZM297.379 70.589L297.702 68.6771L297.974 68.7247L301.772 65.8834L303.645 66.2111L299.315 69.4446L299.069 69.4016L297.379 70.589ZM295.463 73.0636L297.337 62.3464L298.902 62.6201L297.027 73.3373L295.463 73.0636ZM300.539 73.9516L298.329 69.628L299.598 68.7229L302.459 74.2875L300.539 73.9516ZM306.77 75.2089C305.978 75.0703 305.326 74.7818 304.813 74.3433C304.304 73.902 303.948 73.3454 303.746 72.6736C303.548 71.9989 303.521 71.2446 303.667 70.4108C303.811 69.5875 304.092 68.8887 304.508 68.3144C304.929 67.7408 305.447 67.3263 306.063 67.071C306.683 66.8163 307.367 66.7542 308.113 66.8848C308.567 66.9641 308.993 67.116 309.392 67.3405C309.792 67.565 310.133 67.8673 310.415 68.2474C310.697 68.6276 310.891 69.0912 310.997 69.6382C311.103 70.1817 311.092 70.8181 310.965 71.5472L310.868 72.1019L304.478 70.9842L304.683 69.812L309.54 70.6615C309.612 70.2498 309.592 69.8706 309.48 69.5238C309.368 69.1736 309.177 68.8795 308.906 68.6415C308.638 68.4041 308.302 68.25 307.897 68.1792C307.458 68.1023 307.055 68.1433 306.689 68.3023C306.328 68.4583 306.028 68.6935 305.789 69.0077C305.555 69.3191 305.403 69.6754 305.333 70.0766L305.173 70.9924C305.079 71.5296 305.093 72.0031 305.215 72.4129C305.341 72.8232 305.558 73.1577 305.865 73.4164C306.173 73.6715 306.555 73.8391 307.012 73.9191C307.309 73.9709 307.586 73.9764 307.845 73.9353C308.105 73.8908 308.338 73.7987 308.546 73.6589C308.754 73.519 308.927 73.3318 309.065 73.0971L310.499 73.623C310.304 74.0384 310.025 74.3831 309.66 74.6574C309.3 74.9287 308.874 75.1148 308.382 75.2157C307.893 75.3137 307.356 75.3114 306.77 75.2089ZM317.658 73.5108L318.481 68.8063L320.051 69.0809L318.645 77.1189L317.106 76.8498L317.35 75.4578L317.266 75.4431C317.006 75.8399 316.647 76.1456 316.189 76.3603C315.735 76.5721 315.206 76.6252 314.602 76.5196C314.086 76.4293 313.649 76.236 313.291 75.9396C312.937 75.6404 312.686 75.2459 312.538 74.7562C312.393 74.2671 312.379 73.6912 312.495 73.0283L313.389 67.9156L314.954 68.1893L314.093 73.1136C313.997 73.6614 314.072 74.124 314.319 74.5015C314.566 74.8791 314.932 75.1103 315.417 75.1951C315.71 75.2463 316.014 75.224 316.329 75.1282C316.648 75.0329 316.929 74.8538 317.173 74.5908C317.42 74.3285 317.582 73.9685 317.658 73.5108ZM320.22 80.5009L322.153 69.4487L323.681 69.716L323.453 71.019L323.584 71.0419C323.704 70.8903 323.869 70.7196 324.078 70.5297C324.288 70.3398 324.559 70.1894 324.891 70.0786C325.224 69.9642 325.639 69.9507 326.138 70.0379C326.787 70.1514 327.338 70.4167 327.79 70.8338C328.242 71.2508 328.558 71.7934 328.74 72.4615C328.925 73.1303 328.941 73.899 328.79 74.7677C328.638 75.6364 328.363 76.3559 327.964 76.9262C327.567 77.4931 327.086 77.8997 326.521 78.1461C325.957 78.3891 325.351 78.4538 324.702 78.3403C324.214 78.2548 323.829 78.103 323.547 77.8847C323.269 77.667 323.061 77.433 322.925 77.1827C322.789 76.9324 322.689 76.7136 322.625 76.5261L322.531 76.5097L321.785 80.7746L320.22 80.5009ZM322.984 73.7359C322.885 74.3011 322.88 74.8108 322.97 75.2651C323.059 75.7194 323.238 76.0941 323.506 76.3891C323.775 76.6807 324.135 76.8658 324.585 76.9445C325.052 77.0263 325.465 76.9708 325.822 76.778C326.18 76.5818 326.477 76.2831 326.712 75.8821C326.951 75.4816 327.118 75.0128 327.212 74.4755C327.305 73.9453 327.308 73.455 327.221 73.0048C327.138 72.5552 326.959 72.1806 326.684 71.8808C326.413 71.5817 326.042 71.3909 325.571 71.3085C325.117 71.2292 324.713 71.2789 324.358 71.4578C324.007 71.6372 323.714 71.9222 323.481 72.3128C323.247 72.7033 323.081 73.1777 322.984 73.7359Z" fill="#678593"/>
<path fill-rule="evenodd" clip-rule="evenodd" d="M97.8519 16.6899C97.2695 20.0193 94.0983 22.2462 90.7689 21.6638L90.7687 21.6638L87.0192 43.0983C90.3486 43.6807 92.5755 46.8519 91.9931 50.1813L165.005 62.9531C165.587 59.6237 168.758 57.3968 172.087 57.9791L175.837 36.5446C172.508 35.962 170.281 32.7909 170.863 29.4616L97.8519 16.6899Z" fill="#B5E4CA"/>
<path d="M98.9153 38.682L100.79 27.9647L104.61 28.633C105.444 28.7788 106.108 29.0514 106.603 29.4507C107.097 29.8501 107.435 30.3369 107.615 30.9113C107.795 31.4822 107.828 32.0956 107.713 32.7515C107.598 33.4108 107.357 33.9798 106.989 34.4584C106.625 34.9341 106.141 35.2772 105.536 35.4878C104.935 35.6955 104.22 35.7268 103.389 35.5815L100.762 35.122L101.002 33.7509L103.483 34.1848C104.009 34.277 104.453 34.261 104.812 34.137C105.173 34.0094 105.457 33.8004 105.666 33.5097C105.875 33.2191 106.015 32.8715 106.086 32.4668C106.157 32.0621 106.143 31.6893 106.044 31.3485C105.946 31.0077 105.746 30.7193 105.446 30.4834C105.149 30.2481 104.732 30.0835 104.195 29.9895L102.164 29.6343L100.532 38.9648L98.9153 38.682ZM111.655 29.8653L109.78 40.5826L108.216 40.3089L110.09 29.5916L111.655 29.8653ZM117.56 38.508L118.383 33.8035L119.953 34.0782L118.547 42.1161L117.009 41.847L117.252 40.455L117.168 40.4404C116.908 40.8371 116.549 41.1428 116.091 41.3575C115.637 41.5693 115.108 41.6224 114.505 41.5168C113.988 41.4265 113.551 41.2332 113.193 40.9368C112.839 40.6376 112.588 40.2432 112.44 39.7535C112.295 39.2644 112.281 38.6884 112.397 38.0255L113.291 32.9129L114.856 33.1866L113.995 38.1109C113.899 38.6586 113.974 39.1212 114.221 39.4988C114.468 39.8763 114.834 40.1075 115.319 40.1923C115.612 40.2436 115.916 40.2213 116.231 40.1254C116.55 40.0301 116.831 39.851 117.075 39.588C117.322 39.3257 117.484 38.9657 117.56 38.508ZM120.649 42.4839L122.055 34.4459L123.557 34.7087L123.328 36.0169L123.428 36.0343C123.673 35.6205 124.007 35.3231 124.431 35.1419C124.855 34.9572 125.332 34.9113 125.862 35.004C126.4 35.098 126.828 35.3023 127.147 35.617C127.469 35.9322 127.679 36.3249 127.777 36.795L127.86 36.8097C128.127 36.4141 128.492 36.1256 128.955 35.9442C129.419 35.7592 129.941 35.7174 130.52 35.8187C131.249 35.9463 131.804 36.2788 132.184 36.8164C132.568 37.3546 132.68 38.0842 132.519 39.0052L131.576 44.3952L130.011 44.1215L130.929 38.878C131.024 38.3338 130.944 37.9136 130.691 37.6176C130.437 37.3215 130.104 37.1374 129.692 37.0654C129.183 36.9763 128.76 37.064 128.422 37.3286C128.085 37.5897 127.874 37.9644 127.789 38.4528L126.892 43.576L125.333 43.3032L126.268 37.9602C126.344 37.5241 126.269 37.1497 126.043 36.837C125.818 36.5243 125.487 36.3297 125.051 36.2535C124.754 36.2016 124.467 36.2322 124.188 36.3452C123.913 36.4554 123.675 36.6349 123.473 36.8836C123.275 37.133 123.144 37.4391 123.081 37.8019L122.214 42.7576L120.649 42.4839ZM133.799 44.7841L135.673 34.0668L137.238 34.3405L136.542 38.3229L136.636 38.3393C136.756 38.1877 136.92 38.017 137.13 37.8271C137.339 37.6372 137.61 37.4869 137.942 37.376C138.275 37.2616 138.691 37.2481 139.19 37.3353C139.839 37.4488 140.389 37.7141 140.841 38.1312C141.293 38.5482 141.61 39.0908 141.791 39.7589C141.976 40.4277 141.993 41.1964 141.841 42.0651C141.689 42.9338 141.414 43.6533 141.016 44.2236C140.618 44.7905 140.137 45.1971 139.573 45.4435C139.009 45.6865 138.402 45.7512 137.754 45.6377C137.265 45.5522 136.88 45.4004 136.598 45.1821C136.32 44.9644 136.113 44.7304 135.977 44.4801C135.841 44.2298 135.741 44.011 135.676 43.8236L135.546 43.8007L135.327 45.0514L133.799 44.7841ZM136.035 41.0333C135.936 41.5985 135.931 42.1082 136.021 42.5625C136.111 43.0168 136.289 43.3915 136.558 43.6865C136.827 43.9781 137.186 44.1632 137.636 44.2419C138.104 44.3237 138.516 44.2682 138.874 44.0754C139.232 43.8792 139.528 43.5805 139.764 43.1795C140.003 42.7791 140.169 42.3102 140.263 41.773C140.356 41.2427 140.359 40.7524 140.272 40.3022C140.189 39.8526 140.01 39.478 139.736 39.1782C139.464 38.8791 139.093 38.6883 138.622 38.6059C138.169 38.5266 137.765 38.5763 137.41 38.7552C137.058 38.9346 136.766 39.2196 136.532 39.6102C136.298 40.0007 136.133 40.4751 136.035 41.0333ZM142.898 46.3757L144.304 38.3378L145.868 38.6115L144.462 46.6494L142.898 46.3757ZM145.311 37.2358C145.039 37.1882 144.821 37.0566 144.657 36.841C144.498 36.6225 144.44 36.386 144.485 36.1313C144.53 35.8731 144.664 35.6701 144.888 35.5223C145.116 35.3715 145.366 35.32 145.638 35.3676C145.91 35.4152 146.126 35.5482 146.285 35.7667C146.449 35.9823 146.508 36.2191 146.463 36.4773C146.418 36.732 146.282 36.9347 146.054 37.0854C145.831 37.2333 145.583 37.2834 145.311 37.2358ZM148.967 42.5188L148.132 47.2914L146.567 47.0177L147.973 38.9797L149.475 39.2424L149.246 40.5507L149.346 40.5681C149.605 40.1748 149.955 39.8836 150.394 39.6944C150.837 39.5058 151.36 39.4643 151.964 39.5698C152.511 39.6657 152.971 39.8647 153.342 40.167C153.714 40.4657 153.974 40.86 154.122 41.3497C154.27 41.8394 154.286 42.4157 154.17 43.0785L153.276 48.1912L151.711 47.9175L152.573 42.9932C152.675 42.4106 152.603 41.9288 152.356 41.5478C152.111 41.1632 151.723 40.9246 151.193 40.8318C150.83 40.7684 150.493 40.7904 150.183 40.898C149.877 41.0061 149.615 41.1976 149.398 41.4725C149.185 41.7444 149.041 42.0932 148.967 42.5188ZM158.188 52.3295C157.55 52.2178 157.015 52.038 156.584 51.79C156.156 51.5426 155.821 51.2557 155.58 50.9295C155.339 50.6032 155.175 50.2636 155.089 49.9106L156.531 49.5912C156.599 49.7612 156.696 49.9454 156.823 50.1438C156.953 50.3463 157.143 50.5324 157.394 50.7021C157.648 50.8724 157.992 50.9954 158.424 51.0711C159.017 51.1748 159.533 51.1158 159.971 50.894C160.408 50.6756 160.682 50.2525 160.792 49.6245L161.068 48.0441L160.969 48.0268C160.844 48.1812 160.675 48.3476 160.461 48.5258C160.25 48.7046 159.977 48.8439 159.643 48.9437C159.309 49.0435 158.896 49.0503 158.405 48.9643C157.77 48.8532 157.223 48.6049 156.766 48.2192C156.313 47.8307 155.989 47.3192 155.794 46.6847C155.603 46.0474 155.583 45.3013 155.732 44.4466C155.882 43.5919 156.155 42.8846 156.551 42.3247C156.951 41.7654 157.434 41.3681 158 41.1328C158.567 40.8939 159.173 40.831 159.818 40.9439C160.317 41.0311 160.706 41.1854 160.983 41.4065C161.262 41.6242 161.467 41.8579 161.599 42.1076C161.735 42.3579 161.836 42.575 161.901 42.7589L162.016 42.7791L162.244 41.476L163.777 41.7442L162.34 49.9601C162.219 50.6509 161.959 51.1897 161.561 51.5766C161.163 51.9635 160.671 52.2155 160.086 52.3325C159.504 52.4501 158.872 52.4491 158.188 52.3295ZM158.977 47.7269C159.427 47.8056 159.826 47.7675 160.173 47.6125C160.524 47.4546 160.814 47.1926 161.044 46.8264C161.277 46.4574 161.443 45.9955 161.54 45.4408C161.634 44.9001 161.637 44.4098 161.549 43.9701C161.46 43.5304 161.281 43.1682 161.011 42.8836C160.741 42.5956 160.378 42.4116 159.921 42.3316C159.45 42.2493 159.036 42.3027 158.679 42.492C158.323 42.6778 158.029 42.9642 157.795 43.3513C157.566 43.739 157.406 44.1893 157.316 44.7021C157.224 45.2289 157.224 45.7052 157.315 46.131C157.406 46.5568 157.588 46.9087 157.863 47.1869C158.142 47.4658 158.513 47.6457 158.977 47.7269Z" fill="#678593"/>
<path fill-rule="evenodd" clip-rule="evenodd" d="M182.92 31.5706C182.338 34.9 179.166 37.1269 175.837 36.5446L172.088 57.9791C175.417 58.5615 177.644 61.7326 177.061 65.0621L250.073 77.8338C250.655 74.5044 253.826 72.2775 257.156 72.8599L260.905 51.4254L260.905 51.4254C257.576 50.843 255.349 47.6718 255.931 44.3424L182.92 31.5706Z" fill="#B5E4CA"/>
<path d="M190.779 43.7064L192.741 44.0497L194.696 52.9775L194.822 52.9995L199.691 45.2653L201.653 45.6086L199.778 56.3259L198.24 56.0568L199.597 48.3014L199.497 48.284L194.983 55.4708L193.706 55.2474L191.9 46.9496L191.8 46.9322L190.443 54.6928L188.904 54.4237L190.779 43.7064ZM204.312 57.3023C203.803 57.2132 203.359 57.0384 202.98 56.778C202.602 56.5141 202.324 56.1797 202.147 55.7748C201.973 55.3705 201.932 54.9049 202.024 54.3781C202.104 53.9246 202.256 53.5665 202.482 53.304C202.708 53.0415 202.984 52.8507 203.31 52.7316C203.637 52.6125 203.991 52.5414 204.372 52.5183C204.754 52.4951 205.139 52.4942 205.527 52.5153C206.018 52.5437 206.417 52.5667 206.723 52.5843C207.03 52.5984 207.258 52.5755 207.409 52.5156C207.56 52.4557 207.651 52.3315 207.684 52.1431L207.691 52.1065C207.771 51.6495 207.704 51.2728 207.489 50.9764C207.279 50.6807 206.92 50.4886 206.415 50.4001C205.888 50.3079 205.452 50.3522 205.108 50.5328C204.767 50.7106 204.515 50.9307 204.35 51.1932L202.939 50.601C203.198 50.1431 203.522 49.7934 203.909 49.552C204.301 49.3077 204.728 49.1559 205.192 49.0968C205.656 49.0341 206.13 49.0452 206.615 49.13C206.936 49.1862 207.27 49.2841 207.615 49.4237C207.965 49.5604 208.28 49.7557 208.559 50.0094C208.842 50.2638 209.052 50.5936 209.19 50.9988C209.328 51.4005 209.346 51.8944 209.243 52.4805L208.31 57.8182L206.782 57.5509L206.974 56.452L206.911 56.441C206.774 56.6256 206.588 56.798 206.351 56.9579C206.115 57.1179 205.827 57.2347 205.487 57.3082C205.147 57.3818 204.755 57.3798 204.312 57.3023ZM204.872 56.1058C205.304 56.1815 205.689 56.1607 206.026 56.0435C206.366 55.9269 206.641 55.7448 206.85 55.4972C207.062 55.2468 207.197 54.9629 207.252 54.6454L207.433 53.6093C207.368 53.6553 207.25 53.6887 207.081 53.7095C206.917 53.7274 206.73 53.7361 206.521 53.7356C206.314 53.7316 206.111 53.7268 205.914 53.7211C205.718 53.712 205.554 53.7048 205.422 53.6997C205.112 53.685 204.823 53.701 204.556 53.7478C204.293 53.7951 204.071 53.8912 203.891 54.0359C203.715 54.1777 203.603 54.3882 203.554 54.6673C203.486 55.0545 203.578 55.3726 203.829 55.6215C204.081 55.8669 204.429 56.0283 204.872 56.1058ZM212.31 55.7081L212.633 53.7962L212.905 53.8438L216.703 51.0026L218.577 51.3303L214.246 54.5638L214.001 54.5208L212.31 55.7081ZM210.394 58.1828L212.268 47.4655L213.833 47.7392L211.958 58.4565L210.394 58.1828ZM215.47 59.0707L213.26 54.7471L214.529 53.842L217.39 59.4067L215.47 59.0707ZM221.701 60.328C220.909 60.1895 220.257 59.901 219.744 59.4625C219.235 59.0211 218.88 58.4645 218.677 57.7927C218.479 57.118 218.452 56.3638 218.598 55.53C218.742 54.7066 219.023 54.0079 219.44 53.4336C219.86 52.8599 220.378 52.4455 220.995 52.1901C221.614 51.9354 222.298 51.8734 223.044 52.004C223.498 52.0833 223.924 52.2352 224.324 52.4597C224.723 52.6841 225.064 52.9864 225.346 53.3666C225.628 53.7467 225.822 54.2103 225.928 54.7573C226.034 55.3009 226.024 55.9372 225.896 56.6663L225.799 57.221L219.409 56.1033L219.615 54.9311L224.471 55.7806C224.543 55.369 224.523 54.9897 224.411 54.643C224.3 54.2927 224.108 53.9986 223.837 53.7606C223.569 53.5232 223.233 53.3691 222.829 53.2983C222.389 53.2214 221.986 53.2625 221.621 53.4214C221.259 53.5775 220.959 53.8126 220.721 54.1269C220.486 54.4382 220.334 54.7945 220.264 55.1957L220.104 56.1115C220.01 56.6488 220.024 57.1223 220.146 57.532C220.272 57.9423 220.489 58.2769 220.796 58.5355C221.104 58.7907 221.486 58.9582 221.943 59.0382C222.24 59.0901 222.517 59.0955 222.776 59.0545C223.036 59.01 223.269 58.9178 223.477 58.778C223.685 58.6382 223.858 58.4509 223.996 58.2162L225.43 58.7422C225.236 59.1575 224.956 59.5023 224.592 59.7765C224.231 60.0479 223.805 60.234 223.313 60.3348C222.825 60.4328 222.288 60.4305 221.701 60.328ZM232.589 58.63L233.412 53.9255L234.982 54.2001L233.576 62.238L232.038 61.9689L232.281 60.5769L232.197 60.5623C231.937 60.959 231.578 61.2648 231.12 61.4794C230.666 61.6912 230.137 61.7443 229.534 61.6387C229.017 61.5484 228.58 61.3551 228.222 61.0588C227.868 60.7595 227.617 60.3651 227.469 59.8754C227.324 59.3863 227.31 58.8103 227.426 58.1475L228.32 53.0348L229.885 53.3085L229.024 58.2328C228.928 58.7805 229.003 59.2431 229.25 59.6207C229.497 59.9982 229.863 60.2294 230.348 60.3142C230.641 60.3655 230.945 60.3432 231.26 60.2473C231.579 60.152 231.86 59.9729 232.104 59.71C232.351 59.4476 232.513 59.0876 232.589 58.63ZM235.151 65.62L237.085 54.5679L238.613 54.8352L238.385 56.1382L238.515 56.1611C238.635 56.0095 238.8 55.8387 239.01 55.6489C239.219 55.459 239.49 55.3086 239.822 55.1977C240.155 55.0833 240.571 55.0698 241.069 55.1571C241.718 55.2706 242.269 55.5359 242.721 55.9529C243.173 56.3699 243.49 56.9125 243.671 57.5807C243.856 58.2494 243.873 59.0182 243.721 59.8868C243.569 60.7555 243.294 61.475 242.895 62.0454C242.498 62.6122 242.017 63.0189 241.452 63.2653C240.889 63.5082 240.282 63.5729 239.633 63.4594C239.145 63.374 238.76 63.2221 238.478 63.0038C238.2 62.7862 237.993 62.5522 237.857 62.3019C237.721 62.0516 237.62 61.8327 237.556 61.6453L237.462 61.6288L236.716 65.8937L235.151 65.62ZM237.915 58.855C237.816 59.4202 237.811 59.9299 237.901 60.3842C237.99 60.8386 238.169 61.2132 238.438 61.5083C238.707 61.7998 239.066 61.9849 239.516 62.0637C239.984 62.1454 240.396 62.0899 240.753 61.8972C241.111 61.7009 241.408 61.4023 241.644 61.0012C241.883 60.6008 242.049 60.1319 242.143 59.5947C242.236 59.0644 242.239 58.5742 242.152 58.124C242.069 57.6744 241.89 57.2997 241.615 57C241.344 56.7008 240.973 56.5101 240.502 56.4277C240.049 56.3483 239.644 56.3981 239.289 56.5769C238.938 56.7563 238.646 57.0413 238.412 57.4319C238.178 57.8225 238.012 58.2968 237.915 58.855Z" fill="#678593"/>
<path fill-rule="evenodd" clip-rule="evenodd" d="M1.95083 28.2174L5.70034 6.78281L5.70061 6.78285C9.03002 7.36526 12.2012 5.13839 12.7836 1.80899L85.7946 14.5807C85.2122 17.9101 87.4391 21.0813 90.7685 21.6637L90.7686 21.6637L87.0191 43.0982C83.6897 42.5159 80.5186 44.7428 79.9362 48.0722L6.92482 35.3004C7.50723 31.971 5.28033 28.7998 1.95091 28.2174C1.95088 28.2174 1.95086 28.2174 1.95083 28.2174Z" fill="#B5E4CA"/>
<path d="M20.6428 13.9447L22.6052 14.288L24.5598 23.2158L24.6854 23.2378L29.5546 15.5036L31.517 15.8469L29.6423 26.5642L28.1038 26.295L29.4604 18.5397L29.361 18.5223L24.8463 25.709L23.5695 25.4857L21.7635 17.1879L21.6641 17.1705L20.3065 24.9311L18.768 24.6619L20.6428 13.9447ZM34.1757 27.5405C33.6663 27.4515 33.2223 27.2767 32.8436 27.0163C32.4655 26.7524 32.1878 26.418 32.0105 26.0131C31.8368 25.6087 31.796 25.1432 31.8881 24.6164C31.9675 24.1629 32.12 23.8048 32.3457 23.5423C32.5714 23.2798 32.8474 23.089 33.1739 22.9699C33.5003 22.8508 33.8543 22.7797 34.2359 22.7566C34.6175 22.7334 35.0024 22.7324 35.3906 22.7536C35.8818 22.782 36.2804 22.805 36.5866 22.8226C36.8933 22.8367 37.122 22.8138 37.2727 22.7539C37.4234 22.6939 37.5153 22.5698 37.5482 22.3814L37.5546 22.3448C37.6346 21.8877 37.5674 21.5111 37.3532 21.2147C37.1425 20.919 36.7842 20.7269 36.2783 20.6384C35.7515 20.5462 35.3159 20.5905 34.9715 20.7711C34.6312 20.9489 34.3788 21.169 34.2142 21.4314L32.8023 20.8393C33.0622 20.3814 33.3858 20.0317 33.7732 19.7903C34.1647 19.546 34.5922 19.3942 35.0555 19.3351C35.5195 19.2724 35.994 19.2835 36.4789 19.3683C36.7999 19.4245 37.1333 19.5223 37.4792 19.6619C37.8292 19.7987 38.1438 19.9939 38.423 20.2477C38.7057 20.5021 38.9159 20.8319 39.0535 21.2371C39.1918 21.6388 39.2097 22.1327 39.1071 22.7188L38.1734 28.0565L36.6454 27.7892L36.8376 26.6903L36.7748 26.6793C36.6382 26.8639 36.4517 27.0362 36.2152 27.1962C35.9787 27.3562 35.6904 27.4729 35.3503 27.5465C35.0103 27.62 34.6187 27.6181 34.1757 27.5405ZM34.7355 26.3441C35.1681 26.4198 35.5529 26.399 35.8898 26.2818C36.2302 26.1651 36.5047 25.9831 36.7134 25.7355C36.9262 25.4851 37.0603 25.2012 37.1159 24.8837L37.2971 23.8476C37.2315 23.8936 37.1142 23.927 36.9452 23.9478C36.7803 23.9657 36.5936 23.9744 36.3852 23.9739C36.1773 23.9699 35.975 23.965 35.7783 23.9594C35.5821 23.9502 35.418 23.9431 35.2858 23.938C34.9756 23.9232 34.687 23.9393 34.4199 23.986C34.1564 24.0334 33.9346 24.1295 33.7547 24.2742C33.5789 24.416 33.4666 24.6264 33.4177 24.9055C33.35 25.2928 33.4418 25.6109 33.6931 25.8598C33.945 26.1052 34.2924 26.2666 34.7355 26.3441ZM42.1735 25.9464L42.4972 24.0345L42.7693 24.0821L46.5669 21.2409L48.4403 21.5686L44.1103 24.8021L43.8643 24.759L42.1735 25.9464ZM40.2575 28.4211L42.1322 17.7038L43.6969 17.9775L41.8222 28.6948L40.2575 28.4211ZM45.3335 29.309L43.1236 24.9854L44.3929 24.0803L47.2541 29.645L45.3335 29.309ZM51.5652 30.5663C50.7732 30.4278 50.1208 30.1392 49.6078 29.7008C49.099 29.2594 48.7433 28.7028 48.5409 28.031C48.3425 27.3563 48.3162 26.6021 48.4621 25.7683C48.6061 24.9449 48.8865 24.2461 49.3034 23.6719C49.7237 23.0982 50.2421 22.6837 50.8584 22.4284C51.4782 22.1737 52.1614 22.1116 52.908 22.2422C53.3616 22.3216 53.788 22.4735 54.1874 22.6979C54.5868 22.9224 54.9276 23.2247 55.2098 23.6049C55.4921 23.985 55.6861 24.4486 55.7917 24.9956C55.898 25.5391 55.8873 26.1755 55.7598 26.9046L55.6628 27.4593L49.2732 26.3416L49.4783 25.1694L54.3345 26.0189C54.4066 25.6072 54.3866 25.228 54.2747 24.8813C54.1634 24.531 53.9721 24.2369 53.7009 23.9989C53.4333 23.7615 53.0971 23.6074 52.6924 23.5366C52.2528 23.4597 51.8501 23.5007 51.4844 23.6597C51.1227 23.8157 50.8227 24.0509 50.5843 24.3652C50.3501 24.6765 50.1979 25.0328 50.1277 25.434L49.9675 26.3498C49.8735 26.8871 49.8878 27.3606 50.0103 27.7703C50.1362 28.1806 50.3528 28.5151 50.6599 28.7738C50.9676 29.029 51.35 29.1965 51.807 29.2765C52.1035 29.3283 52.3812 29.3338 52.6401 29.2928C52.8995 29.2483 53.1332 29.1561 53.341 29.0163C53.5488 28.8765 53.7218 28.6892 53.8599 28.4545L55.2942 28.9804C55.0993 29.3958 54.8197 29.7406 54.4553 30.0148C54.095 30.2861 53.6688 30.4723 53.1765 30.5731C52.6884 30.6711 52.1513 30.6688 51.5652 30.5663ZM62.453 28.8682L63.276 24.1637L64.8459 24.4384L63.4398 32.4763L61.9013 32.2072L62.1448 30.8152L62.0611 30.8006C61.8011 31.1973 61.442 31.503 60.9838 31.7177C60.5297 31.9295 60.0009 31.9826 59.3973 31.877C58.881 31.7867 58.4438 31.5934 58.0858 31.297C57.7318 30.9978 57.4808 30.6034 57.3328 30.1137C57.1882 29.6246 57.1739 29.0486 57.2899 28.3857L58.1843 23.2731L59.7489 23.5468L58.8875 28.4711C58.7917 29.0188 58.8672 29.4814 59.114 29.859C59.3607 30.2365 59.7266 30.4677 60.2115 30.5525C60.5045 30.6038 60.8087 30.5815 61.1239 30.4856C61.4425 30.3903 61.7237 30.2112 61.9675 29.9482C62.2147 29.6859 62.3766 29.3259 62.453 28.8682ZM65.0149 35.8583L66.9483 24.8061L68.4763 25.0734L68.2484 26.3765L68.3792 26.3993C68.4992 26.2478 68.6639 26.077 68.8733 25.8871C69.0827 25.6972 69.3535 25.5469 69.6857 25.436C70.0185 25.3216 70.4344 25.3081 70.9332 25.3954C71.5821 25.5089 72.1326 25.7741 72.5846 26.1912C73.0365 26.6082 73.3533 27.1508 73.5348 27.819C73.7199 28.4877 73.7364 29.2564 73.5845 30.1251C73.4325 30.9938 73.1574 31.7133 72.7592 32.2837C72.3617 32.8505 71.8806 33.2571 71.3162 33.5036C70.7524 33.7465 70.146 33.8112 69.4971 33.6977C69.0087 33.6123 68.6236 33.4604 68.3418 33.2421C68.0634 33.0244 67.8563 32.7905 67.7203 32.5402C67.5843 32.2899 67.4842 32.071 67.4199 31.8836L67.3257 31.8671L66.5796 36.132L65.0149 35.8583ZM67.7785 29.0933C67.6797 29.6585 67.675 30.1682 67.7645 30.6225C67.854 31.0768 68.033 31.4515 68.3014 31.7465C68.5704 32.0381 68.9299 32.2232 69.3799 32.3019C69.8474 32.3837 70.2598 32.3282 70.6171 32.1354C70.975 31.9392 71.2718 31.6405 71.5073 31.2395C71.7463 30.8391 71.9128 30.3702 72.0068 29.833C72.0996 29.3027 72.1026 28.8124 72.016 28.3622C71.9329 27.9126 71.7539 27.538 71.4792 27.2382C71.2079 26.9391 70.8368 26.7483 70.3658 26.666C69.9123 26.5866 69.5081 26.6364 69.1532 26.8152C68.8018 26.9946 68.5093 27.2796 68.2756 27.6702C68.0419 28.0607 67.8762 28.5351 67.7785 29.0933Z" fill="#678593"/>
</svg>
