<svg width="517" height="129" viewBox="0 0 517 129" fill="none" xmlns="http://www.w3.org/2000/svg">
<path fill-rule="evenodd" clip-rule="evenodd" d="M346.132 31.232C346.75 34.555 344.557 37.7499 341.234 38.368L341.234 38.368L345.213 59.7611C345.214 59.7611 345.214 59.7611 345.214 59.7611C348.537 59.143 351.731 61.3357 352.35 64.6587L425.22 51.1048C424.602 47.7819 426.794 44.587 430.117 43.9689L426.138 22.5758C422.815 23.1938 419.62 21.0011 419.002 17.6781L346.132 31.232Z" fill="#FB9B9B"/>
<path d="M371.204 40.9492L369.575 41.2523C369.447 40.9157 369.273 40.631 369.054 40.3981C368.834 40.1652 368.583 39.9795 368.302 39.8409C368.02 39.7024 367.717 39.6146 367.393 39.5776C367.073 39.5399 366.742 39.5528 366.401 39.6163C365.785 39.7309 365.262 39.9885 364.832 40.3891C364.405 40.789 364.107 41.3146 363.936 41.966C363.769 42.6167 363.766 43.3738 363.926 44.2373C364.088 45.1078 364.364 45.8166 364.754 46.3637C365.148 46.9101 365.617 47.2912 366.161 47.5069C366.705 47.7227 367.282 47.7739 367.892 47.6605C368.229 47.5977 368.541 47.4929 368.827 47.346C369.116 47.195 369.368 47.006 369.581 46.7789C369.795 46.5519 369.963 46.2919 370.085 45.999C370.209 45.702 370.273 45.3767 370.276 45.0232L371.906 44.7253C371.917 45.2673 371.838 45.7827 371.67 46.2715C371.504 46.7563 371.256 47.195 370.926 47.5879C370.598 47.9767 370.202 48.3044 369.736 48.5711C369.271 48.8378 368.744 49.0259 368.155 49.1353C367.229 49.3076 366.363 49.2418 365.557 48.9377C364.751 48.6302 364.062 48.1045 363.491 47.3605C362.924 46.6158 362.535 45.6742 362.323 44.5356C362.111 43.3935 362.137 42.3745 362.403 41.4785C362.668 40.579 363.122 39.8426 363.764 39.2691C364.406 38.6922 365.189 38.3179 366.111 38.1463C366.679 38.0408 367.223 38.0241 367.745 38.0965C368.269 38.1647 368.757 38.3189 369.209 38.5591C369.66 38.7958 370.056 39.1148 370.397 39.516C370.738 39.9138 371.007 40.3915 371.204 40.9492ZM376.72 47.5747C376.212 47.6692 375.735 47.6607 375.289 47.5491C374.842 47.434 374.465 47.2178 374.158 46.9003C373.854 46.5823 373.653 46.1603 373.555 45.6346C373.471 45.1819 373.488 44.7931 373.608 44.4683C373.728 44.1434 373.92 43.8681 374.184 43.6425C374.448 43.4168 374.755 43.2265 375.104 43.0714C375.454 42.9164 375.814 42.7809 376.185 42.665C376.655 42.52 377.037 42.4022 377.33 42.3116C377.622 42.2176 377.828 42.1162 377.949 42.0074C378.069 41.8986 378.112 41.7501 378.077 41.5621L378.07 41.5256C377.985 41.0694 377.79 40.74 377.486 40.5372C377.185 40.3338 376.782 40.279 376.278 40.3729C375.752 40.4707 375.359 40.6644 375.1 40.9541C374.843 41.2396 374.683 41.534 374.621 41.8374L373.091 41.7762C373.175 41.2563 373.356 40.8156 373.634 40.4539C373.915 40.0882 374.263 39.7966 374.676 39.5792C375.089 39.3583 375.538 39.2029 376.022 39.1129C376.342 39.0533 376.689 39.0284 377.061 39.0383C377.437 39.0441 377.8 39.1171 378.15 39.2573C378.504 39.3968 378.816 39.6323 379.087 39.9638C379.357 40.2919 379.546 40.7484 379.655 41.3334L380.646 46.6607L379.121 46.9444L378.917 45.8476L378.854 45.8593C378.791 46.08 378.676 46.3066 378.511 46.5392C378.345 46.7717 378.116 46.9819 377.823 47.1697C377.53 47.3574 377.162 47.4924 376.72 47.5747ZM376.826 46.258C377.258 46.1777 377.611 46.0238 377.886 45.7962C378.164 45.5679 378.358 45.3014 378.467 44.9965C378.579 44.6875 378.605 44.3746 378.546 44.0577L378.354 43.0236C378.309 43.0896 378.21 43.162 378.059 43.2405C377.911 43.3149 377.739 43.3883 377.544 43.4607C377.347 43.5296 377.156 43.5958 376.97 43.6592C376.783 43.7192 376.627 43.7699 376.501 43.8113C376.205 43.9059 375.94 44.0218 375.707 44.159C375.476 44.2955 375.302 44.463 375.184 44.6615C375.069 44.8558 375.037 45.0923 375.089 45.3708C375.161 45.7573 375.358 46.0232 375.68 46.1686C376.002 46.3105 376.384 46.3403 376.826 46.258ZM382.726 46.2739L381.234 38.2514L382.743 37.9707L382.98 39.2451L383.064 39.2295C383.13 38.7706 383.324 38.3832 383.648 38.0673C383.973 37.7473 384.371 37.5436 384.842 37.4561C384.939 37.438 385.055 37.4201 385.188 37.4025C385.325 37.3842 385.433 37.3731 385.512 37.3693L385.789 38.8631C385.724 38.8573 385.609 38.8589 385.445 38.8678C385.28 38.8732 385.117 38.8908 384.957 38.9206C384.588 38.9893 384.274 39.1288 384.014 39.3393C383.757 39.5456 383.57 39.8018 383.454 40.108C383.338 40.4107 383.312 40.7361 383.377 41.0843L384.288 45.9834L382.726 46.2739ZM388.93 48.2323L386.879 37.2015L388.404 36.9179L388.646 38.2184L388.776 38.1941C388.836 38.0101 388.93 37.7926 389.06 37.5415C389.19 37.2904 389.391 37.0548 389.663 36.8348C389.935 36.6114 390.32 36.4533 390.818 36.3607C391.466 36.2402 392.074 36.2964 392.643 36.5291C393.213 36.7619 393.699 37.1595 394.103 37.7221C394.51 38.284 394.794 38.9984 394.955 39.8654C395.117 40.7324 395.11 41.5027 394.937 42.1763C394.762 42.8463 394.454 43.3954 394.011 43.8236C393.568 44.2483 393.022 44.5209 392.375 44.6413C391.887 44.732 391.473 44.7243 391.133 44.6183C390.796 44.5117 390.52 44.3648 390.305 44.1779C390.09 43.9909 389.92 43.8208 389.794 43.6677L389.7 43.6852L390.492 47.9419L388.93 48.2323ZM389.155 40.9281C389.26 41.4922 389.434 41.9714 389.676 42.3657C389.919 42.7601 390.218 43.0486 390.572 43.2312C390.926 43.4103 391.328 43.4581 391.777 43.3746C392.243 43.2878 392.61 43.0917 392.878 42.7861C393.145 42.4772 393.318 42.0936 393.399 41.6356C393.483 41.1768 393.475 40.6794 393.375 40.1431C393.277 39.6139 393.108 39.1535 392.87 38.762C392.635 38.3698 392.336 38.0813 391.974 37.8965C391.615 37.7111 391.201 37.6621 390.731 37.7495C390.278 37.8337 389.917 38.0216 389.647 38.3132C389.38 38.6041 389.206 38.9734 389.123 39.421C389.041 39.8686 389.051 40.371 389.155 40.9281ZM400.936 43.0543C400.145 43.2013 399.433 43.1591 398.8 42.9275C398.168 42.6919 397.641 42.2947 397.216 41.7361C396.794 41.1733 396.506 40.4758 396.351 39.6436C396.199 38.8218 396.217 38.0691 396.407 37.3854C396.6 36.701 396.941 36.1314 397.429 35.6768C397.921 35.2215 398.539 34.9245 399.284 34.7859C399.737 34.7018 400.19 34.695 400.642 34.7657C401.095 34.8364 401.52 35.0006 401.917 35.2581C402.315 35.5156 402.659 35.8821 402.949 36.3577C403.238 36.8298 403.451 37.4297 403.586 38.1574L403.689 38.7111L397.312 39.8972L397.094 38.7273L401.941 37.8258C401.865 37.4149 401.713 37.0666 401.487 36.7808C401.261 36.4916 400.979 36.2828 400.641 36.1546C400.308 36.0258 399.939 35.9989 399.535 36.0741C399.096 36.1557 398.733 36.3349 398.446 36.6116C398.162 36.8842 397.963 37.2094 397.849 37.5872C397.739 37.9608 397.721 38.3478 397.795 38.7482L397.965 39.6622C398.065 40.1985 398.244 40.6371 398.502 40.9782C398.763 41.3186 399.083 41.5563 399.461 41.6913C399.839 41.8229 400.255 41.8462 400.712 41.7613C401.008 41.7063 401.27 41.6143 401.498 41.4854C401.725 41.353 401.912 41.185 402.058 40.9814C402.204 40.7777 402.3 40.5418 402.348 40.2736L403.875 40.2651C403.838 40.7223 403.696 41.1431 403.451 41.5274C403.208 41.9076 402.874 42.2309 402.448 42.4975C402.025 42.7599 401.521 42.9455 400.936 43.0543ZM408.333 33.211L408.566 34.4645L404.184 35.2795L403.951 34.026L408.333 33.211ZM404.769 31.8854L406.33 31.595L407.742 39.1839C407.798 39.4868 407.886 39.7064 408.005 39.8428C408.123 39.9757 408.259 40.0567 408.412 40.0859C408.568 40.1109 408.731 40.1075 408.902 40.0758C409.027 40.0525 409.135 40.0234 409.226 39.9885C409.317 39.9536 409.388 39.9261 409.438 39.9059L409.96 41.1435C409.876 41.1952 409.753 41.254 409.593 41.3199C409.433 41.3892 409.228 41.449 408.978 41.4991C408.568 41.5825 408.171 41.5806 407.788 41.4935C407.404 41.4063 407.073 41.223 406.794 40.9434C406.515 40.6639 406.33 40.2821 406.24 39.7982L404.769 31.8854Z" fill="white"/>
<path fill-rule="evenodd" clip-rule="evenodd" d="M431.036 15.44C431.654 18.7629 429.461 21.9577 426.138 22.5759L430.117 43.969C433.44 43.351 436.635 45.5438 437.253 48.8667L510.123 35.3128C509.505 31.9898 511.698 28.7949 515.021 28.1768L515.021 28.1768L511.042 6.7837L511.042 6.78374C507.719 7.40182 504.524 5.20905 503.906 1.88606L431.036 15.44Z" fill="#FB9B9B"/>
<path d="M442.641 24.0632L444.6 23.6989L449.551 31.3804L449.677 31.3571L451.536 22.4088L453.494 22.0445L455.484 32.741L453.948 33.0266L452.509 25.2863L452.409 25.3047L450.691 33.6162L449.417 33.8532L444.825 26.7101L444.725 26.7285L446.166 34.4741L444.631 34.7597L442.641 24.0632ZM460.072 32.0712C459.564 32.1658 459.087 32.1573 458.641 32.0457C458.195 31.9306 457.818 31.7143 457.51 31.3969C457.206 31.0788 457.005 30.6569 456.907 30.1311C456.823 29.6784 456.841 29.2897 456.96 28.9648C457.08 28.6399 457.272 28.3647 457.536 28.139C457.801 27.9133 458.107 27.723 458.457 27.5679C458.806 27.4129 459.166 27.2774 459.538 27.1616C460.008 27.0165 460.389 26.8987 460.682 26.8082C460.975 26.7142 461.181 26.6128 461.301 26.5039C461.421 26.3951 461.464 26.2467 461.429 26.0587L461.422 26.0221C461.337 25.566 461.143 25.2365 460.838 25.0337C460.538 24.8303 460.135 24.7756 459.63 24.8695C459.104 24.9673 458.712 25.161 458.452 25.4506C458.195 25.7361 458.036 26.0306 457.973 26.334L456.443 26.2727C456.527 25.7528 456.708 25.3121 456.986 24.9505C457.268 24.5847 457.615 24.2932 458.029 24.0758C458.442 23.8549 458.89 23.6994 459.374 23.6094C459.694 23.5498 460.041 23.525 460.414 23.5349C460.79 23.5406 461.153 23.6136 461.503 23.7538C461.857 23.8933 462.169 24.1289 462.439 24.4604C462.709 24.7884 462.899 25.2449 463.008 25.8299L463.998 31.1573L462.473 31.4409L462.269 30.3441L462.207 30.3558C462.143 30.5765 462.029 30.8032 461.863 31.0357C461.697 31.2683 461.468 31.4784 461.175 31.6662C460.882 31.854 460.515 31.989 460.072 32.0712ZM460.179 30.7546C460.611 30.6743 460.964 30.5203 461.238 30.2927C461.517 30.0644 461.71 29.7979 461.819 29.493C461.931 29.184 461.958 28.8711 461.899 28.5542L461.706 27.5201C461.661 27.5862 461.563 27.6585 461.412 27.737C461.263 27.8114 461.091 27.8848 460.896 27.9572C460.7 28.0261 460.509 28.0923 460.322 28.1558C460.135 28.2158 459.979 28.2665 459.853 28.3078C459.558 28.4025 459.293 28.5184 459.059 28.6555C458.829 28.7921 458.654 28.9595 458.536 29.158C458.421 29.3523 458.39 29.5888 458.441 29.8673C458.513 30.2538 458.71 30.5198 459.033 30.6651C459.355 30.807 459.737 30.8368 460.179 30.7546ZM467.009 27.7821L466.644 25.8777L466.915 25.8272L469.48 21.8377L471.35 21.4899L468.423 26.033L468.178 26.0786L467.009 27.7821ZM466.078 30.7704L464.089 20.0738L465.651 19.7834L467.64 30.4799L466.078 30.7704ZM471.145 29.8281L467.563 26.5496L468.436 25.2579L473.062 29.4715L471.145 29.8281ZM477.423 28.8279C476.632 28.9749 475.92 28.9326 475.286 28.7011C474.655 28.4654 474.128 28.0682 473.703 27.5096C473.281 26.9468 472.993 26.2493 472.838 25.4171C472.685 24.5954 472.704 23.8426 472.894 23.1589C473.087 22.4745 473.428 21.905 473.916 21.4503C474.408 20.995 475.026 20.6981 475.771 20.5595C476.224 20.4753 476.677 20.4685 477.129 20.5393C477.582 20.61 478.007 20.7741 478.404 21.0316C478.802 21.2891 479.145 21.6557 479.436 22.1312C479.725 22.6033 479.938 23.2032 480.073 23.931L480.176 24.4846L473.799 25.6708L473.581 24.5008L478.428 23.5993C478.352 23.1884 478.2 22.8401 477.974 22.5544C477.747 22.2651 477.465 22.0564 477.128 21.9282C476.794 21.7993 476.426 21.7725 476.022 21.8476C475.583 21.9292 475.22 22.1084 474.933 22.3851C474.649 22.6578 474.45 22.983 474.336 23.3607C474.226 23.7343 474.208 24.1213 474.282 24.5218L474.452 25.4358C474.552 25.972 474.731 26.4106 474.989 26.7517C475.25 27.0921 475.57 27.3299 475.948 27.4649C476.325 27.5964 476.742 27.6197 477.198 27.5349C477.494 27.4798 477.756 27.3879 477.985 27.2589C478.212 27.1266 478.399 26.9586 478.545 26.7549C478.691 26.5513 478.787 26.3153 478.835 26.0472L480.362 26.0386C480.325 26.4959 480.183 26.9166 479.938 27.3009C479.695 27.6811 479.361 28.0045 478.935 28.271C478.512 28.5334 478.008 28.719 477.423 28.8279ZM487.03 23.4312L486.157 18.7358L487.724 18.4444L489.216 26.4668L487.68 26.7524L487.422 25.3631L487.338 25.3786C487.234 25.8412 487.004 26.2532 486.65 26.6145C486.298 26.9717 485.821 27.2063 485.219 27.3183C484.704 27.4141 484.226 27.3858 483.787 27.2333C483.351 27.0767 482.978 26.7949 482.668 26.3878C482.362 25.9801 482.147 25.4454 482.024 24.7838L481.075 19.6811L482.637 19.3906L483.551 24.3054C483.653 24.852 483.885 25.2591 484.248 25.5266C484.611 25.794 485.035 25.8828 485.519 25.7927C485.811 25.7383 486.088 25.6111 486.35 25.4111C486.616 25.2105 486.816 24.9444 486.953 24.6128C487.093 24.2806 487.119 23.8867 487.03 23.4312ZM491.874 29.0849L489.822 18.0541L491.347 17.7704L491.589 19.0709L491.72 19.0466C491.779 18.8627 491.874 18.6451 492.004 18.394C492.133 18.1429 492.335 17.9074 492.607 17.6874C492.879 17.4639 493.264 17.3059 493.762 17.2133C494.409 17.0928 495.018 17.1489 495.587 17.3817C496.156 17.6144 496.643 18.0121 497.046 18.5746C497.453 19.1365 497.738 19.851 497.899 20.718C498.06 21.585 498.054 22.3553 497.88 23.0288C497.706 23.6989 497.397 24.248 496.955 24.6762C496.511 25.1009 495.966 25.3734 495.318 25.4939C494.831 25.5846 494.417 25.5769 494.076 25.4709C493.74 25.3642 493.464 25.2174 493.249 25.0304C493.034 24.8434 492.864 24.6734 492.738 24.5203L492.644 24.5377L493.436 28.7944L491.874 29.0849ZM492.099 21.7806C492.203 22.3447 492.377 22.8239 492.62 23.2183C492.863 23.6127 493.161 23.9011 493.516 24.0838C493.87 24.2629 494.271 24.3107 494.72 24.2271C495.187 24.1404 495.554 23.9442 495.821 23.6387C496.088 23.3297 496.262 22.9462 496.342 22.4881C496.426 22.0294 496.418 21.5319 496.319 20.9957C496.22 20.4664 496.052 20.0061 495.813 19.6145C495.578 19.2224 495.28 18.9339 494.917 18.7491C494.559 18.5636 494.144 18.5146 493.674 18.6021C493.222 18.6862 492.86 18.8741 492.59 19.1657C492.324 19.4566 492.149 19.8259 492.067 20.2735C491.984 20.7212 491.995 21.2235 492.099 21.7806Z" fill="white"/>
<path fill-rule="evenodd" clip-rule="evenodd" d="M261.228 47.0243C261.846 50.3473 259.654 53.5422 256.331 54.1602L260.31 75.5533C263.633 74.9352 266.828 77.128 267.446 80.451L340.316 66.8971C339.698 63.5741 341.891 60.3792 345.214 59.7611L341.234 38.368C337.911 38.9861 334.717 36.7934 334.098 33.4704L261.228 47.0243Z" fill="#FB9B9B"/>
<path d="M277.746 65.8004L275.756 55.1039L277.37 54.8037L278.32 59.9117L278.451 59.8874L281.987 53.9449L284.019 53.567L280.601 59.185L286.024 64.2606L284.081 64.622L279.735 60.4862L278.741 62.1732L279.36 65.5002L277.746 65.8004ZM287.89 63.9136L286.398 55.8912L287.96 55.6007L289.452 63.6231L287.89 63.9136ZM286.957 54.5066C286.685 54.5572 286.435 54.51 286.206 54.3652C285.98 54.2163 285.844 54.0148 285.796 53.7606C285.749 53.5029 285.803 53.2657 285.961 53.0491C286.122 52.8282 286.338 52.6926 286.61 52.6421C286.881 52.5915 287.13 52.6408 287.356 52.7897C287.584 52.9345 287.723 53.1357 287.771 53.3934C287.818 53.6475 287.761 53.885 287.601 54.1058C287.443 54.3225 287.228 54.4561 286.957 54.5066ZM293.805 54.5134L294.039 55.7669L289.657 56.5819L289.423 55.3284L293.805 54.5134ZM290.241 53.1878L291.803 52.8974L293.214 60.4863C293.271 60.7892 293.358 61.0088 293.477 61.1452C293.596 61.2781 293.731 61.3591 293.885 61.3883C294.041 61.4133 294.204 61.41 294.374 61.3782C294.5 61.3549 294.608 61.3258 294.699 61.2909C294.789 61.256 294.86 61.2285 294.91 61.2083L295.432 62.4459C295.348 62.4976 295.226 62.5564 295.065 62.6223C294.905 62.6917 294.7 62.7514 294.45 62.8015C294.041 62.8849 293.644 62.883 293.26 62.7959C292.877 62.7087 292.545 62.5254 292.266 62.2459C291.987 61.9663 291.803 61.5845 291.713 61.1006L290.241 53.1878ZM300.348 61.7639C299.572 61.9083 298.871 61.8568 298.245 61.6094C297.621 61.3579 297.102 60.9483 296.687 60.3807C296.271 59.8132 295.989 59.1272 295.839 58.3229C295.688 57.5081 295.707 56.7606 295.898 56.0803C296.088 55.3966 296.428 54.8271 296.92 54.3718C297.412 53.9165 298.035 53.6186 298.791 53.478C299.4 53.3647 299.964 53.3768 300.484 53.5144C301.002 53.6485 301.445 53.8903 301.813 54.2398C302.184 54.5887 302.447 55.0278 302.604 55.5571L301.084 55.8398C300.93 55.4793 300.678 55.1911 300.328 54.9752C299.982 54.7587 299.56 54.6967 299.062 54.7893C298.627 54.8703 298.267 55.0561 297.982 55.3468C297.7 55.6334 297.508 56.0041 297.406 56.4591C297.302 56.9106 297.304 57.4219 297.41 57.993C297.519 58.5779 297.701 59.0663 297.958 59.4581C298.215 59.8498 298.526 60.1322 298.894 60.3053C299.264 60.4777 299.671 60.5228 300.113 60.4405C300.409 60.3855 300.667 60.2816 300.887 60.129C301.11 59.9723 301.284 59.7759 301.41 59.5401C301.539 59.3036 301.609 59.0346 301.622 58.7333L303.142 58.4506C303.183 58.9798 303.1 59.4743 302.894 59.9342C302.687 60.394 302.369 60.7846 301.939 61.106C301.512 61.4267 300.982 61.646 300.348 61.7639ZM305.96 55.6246L306.846 60.3879L305.284 60.6783L303.294 49.9818L304.835 49.6952L305.575 53.6751L305.675 53.6566C305.782 53.1899 306.006 52.7935 306.345 52.4674C306.684 52.1413 307.165 51.9203 307.789 51.8044C308.339 51.7021 308.84 51.7259 309.293 51.8758C309.75 52.025 310.133 52.3032 310.443 52.7103C310.756 53.1132 310.974 53.649 311.098 54.3175L312.048 59.4203L310.486 59.7108L309.572 54.796C309.462 54.2075 309.226 53.7796 308.863 53.5121C308.499 53.2411 308.047 53.1559 307.508 53.2562C307.138 53.3249 306.822 53.4648 306.559 53.6759C306.299 53.8863 306.114 54.1585 306.003 54.4925C305.895 54.8224 305.881 55.1998 305.96 55.6246ZM317.619 58.5515C316.829 58.6985 316.117 58.6562 315.483 58.4247C314.852 58.189 314.324 57.7919 313.899 57.2332C313.478 56.6704 313.19 55.9729 313.035 55.1407C312.882 54.319 312.9 53.5663 313.09 52.8825C313.284 52.1981 313.624 51.6286 314.113 51.1739C314.604 50.7186 315.223 50.4217 315.968 50.2831C316.42 50.1989 316.873 50.1922 317.326 50.2629C317.778 50.3336 318.203 50.4977 318.601 50.7552C318.998 51.0127 319.342 51.3793 319.632 51.8549C319.922 52.327 320.134 52.9269 320.269 53.6546L320.372 54.2082L313.995 55.3944L313.778 54.2245L318.624 53.3229C318.548 52.9121 318.397 52.5637 318.171 52.278C317.944 51.9887 317.662 51.78 317.325 51.6518C316.991 51.523 316.622 51.4961 316.218 51.5712C315.779 51.6528 315.417 51.832 315.129 52.1088C314.845 52.3814 314.646 52.7066 314.533 53.0843C314.422 53.4579 314.404 53.845 314.479 54.2454L314.649 55.1594C314.748 55.6956 314.927 56.1343 315.185 56.4753C315.447 56.8158 315.766 57.0535 316.144 57.1885C316.522 57.32 316.939 57.3433 317.395 57.2585C317.691 57.2035 317.953 57.1115 318.181 56.9826C318.409 56.8502 318.595 56.6822 318.741 56.4785C318.887 56.2749 318.984 56.039 319.031 55.7708L320.559 55.7622C320.521 56.2195 320.38 56.6403 320.134 57.0246C319.892 57.4047 319.557 57.7281 319.131 57.9946C318.708 58.2571 318.204 58.4427 317.619 58.5515ZM323.439 52.3733L324.325 57.1366L322.764 57.4271L321.272 49.4047L322.771 49.1259L323.013 50.4316L323.113 50.4131C323.218 49.954 323.444 49.559 323.789 49.2282C324.138 48.8967 324.614 48.6749 325.216 48.5629C325.763 48.4612 326.263 48.487 326.717 48.6404C327.17 48.7903 327.551 49.0688 327.861 49.4759C328.171 49.883 328.387 50.4173 328.51 51.0789L329.459 56.1817L327.898 56.4721L326.984 51.5574C326.876 50.9759 326.64 50.5497 326.276 50.2787C325.911 50.0043 325.464 49.9163 324.935 50.0147C324.573 50.0821 324.266 50.2203 324.013 50.4295C323.763 50.638 323.585 50.9089 323.478 51.2423C323.373 51.5715 323.36 51.9485 323.439 52.3733Z" fill="white"/>
<path fill-rule="evenodd" clip-rule="evenodd" d="M91.4208 78.6086C92.0389 81.9316 89.8461 85.1265 86.5232 85.7445L86.5229 85.7446L90.5021 107.138C90.5021 107.138 90.5021 107.138 90.5022 107.138C93.8251 106.52 97.02 108.712 97.6381 112.035L170.509 98.4813C169.891 95.1585 172.083 91.9639 175.406 91.3456L171.427 69.9524C168.104 70.5703 164.909 68.3776 164.291 65.0547L91.4208 78.6086Z" fill="#FB9B9B"/>
<path d="M112.255 96.5818L110.265 85.8853L111.879 85.5851L112.744 90.2335L118.076 89.2416L117.212 84.5932L118.831 84.2921L120.82 94.9886L119.201 95.2898L118.334 90.6257L113.001 91.6176L113.869 96.2817L112.255 96.5818ZM126.455 94.1082C125.703 94.2481 125.014 94.1978 124.389 93.9573C123.765 93.7169 123.24 93.3156 122.815 92.7535C122.389 92.1913 122.1 91.4959 121.946 90.6672C121.791 89.835 121.81 89.0784 122.004 88.3975C122.198 87.7166 122.544 87.1517 123.04 86.7027C123.537 86.2537 124.161 85.9593 124.913 85.8194C125.665 85.6795 126.353 85.7298 126.978 85.9702C127.603 86.2107 128.128 86.6137 128.554 87.1793C128.98 87.7449 129.27 88.4439 129.425 89.276C129.579 90.1047 129.559 90.8578 129.364 91.5352C129.17 92.2127 128.824 92.7759 128.328 93.2248C127.831 93.6738 127.207 93.9683 126.455 94.1082ZM126.216 92.7962C126.704 92.7056 127.083 92.5016 127.356 92.1844C127.628 91.8671 127.801 91.4801 127.875 91.0233C127.952 90.5659 127.942 90.0795 127.847 89.5642C127.751 89.0524 127.586 88.5969 127.349 88.1977C127.116 87.7945 126.815 87.492 126.446 87.2905C126.077 87.0889 125.648 87.0335 125.161 87.1241C124.67 87.2155 124.287 87.4218 124.012 87.7432C123.74 88.0639 123.566 88.4547 123.49 88.9156C123.416 89.3724 123.427 89.8567 123.522 90.3686C123.618 90.8839 123.782 91.3415 124.015 91.7412C124.251 92.1404 124.554 92.439 124.922 92.6371C125.294 92.8345 125.725 92.8876 126.216 92.7962ZM131.907 92.9265L130.415 84.904L131.914 84.6252L132.157 85.931L132.256 85.9125C132.341 85.4392 132.55 85.0437 132.884 84.7258C133.217 84.4046 133.648 84.1947 134.177 84.0962C134.713 83.9965 135.186 84.0383 135.595 84.2217C136.007 84.4044 136.341 84.6989 136.596 85.1052L136.68 85.0897C136.792 84.6258 137.033 84.2279 137.404 83.896C137.774 83.5606 138.247 83.3391 138.825 83.2316C139.553 83.0963 140.189 83.2139 140.734 83.5846C141.282 83.9546 141.641 84.5992 141.812 85.5184L142.813 90.898L141.251 91.1885L140.278 85.9551C140.177 85.4119 139.955 85.046 139.614 84.8573C139.273 84.6686 138.897 84.6125 138.486 84.6889C137.978 84.7835 137.612 85.0137 137.388 85.3795C137.163 85.7419 137.097 86.1668 137.187 86.6543L138.138 91.7675L136.582 92.057L135.59 86.7244C135.509 86.2891 135.308 85.9645 134.987 85.7504C134.666 85.5362 134.288 85.4697 133.853 85.5506C133.557 85.6057 133.298 85.7349 133.077 85.9382C132.858 86.1374 132.698 86.3887 132.596 86.6923C132.497 86.9952 132.482 87.3278 132.549 87.6899L133.469 92.636L131.907 92.9265ZM148.394 90.0275C147.603 90.1745 146.891 90.1323 146.257 89.9007C145.626 89.6651 145.098 89.2679 144.674 88.7092C144.252 88.1464 143.964 87.449 143.809 86.6168C143.656 85.795 143.675 85.0423 143.865 84.3585C144.058 83.6742 144.399 83.1046 144.887 82.65C145.379 82.1947 145.997 81.8977 146.742 81.7591C147.195 81.6749 147.647 81.6682 148.1 81.7389C148.553 81.8096 148.978 81.9737 149.375 82.2313C149.772 82.4888 150.116 82.8553 150.406 83.3309C150.696 83.803 150.908 84.4029 151.044 85.1306L151.147 85.6843L144.769 86.8704L144.552 85.7005L149.399 84.799C149.322 84.3881 149.171 84.0398 148.945 83.754C148.718 83.4648 148.436 83.256 148.099 83.1278C147.765 82.999 147.396 82.9721 146.993 83.0473C146.554 83.1289 146.191 83.308 145.904 83.5848C145.619 83.8574 145.421 84.1826 145.307 84.5604C145.196 84.934 145.178 85.321 145.253 85.7214L145.423 86.6354C145.523 87.1716 145.701 87.6103 145.959 87.9514C146.221 88.2918 146.541 88.5295 146.919 88.6645C147.296 88.796 147.713 88.8194 148.169 88.7345C148.465 88.6795 148.727 88.5875 148.955 88.4586C149.183 88.3262 149.37 88.1582 149.516 87.9546C149.661 87.7509 149.758 87.515 149.805 87.2468L151.333 87.2383C151.296 87.6955 151.154 88.1163 150.909 88.5006C150.666 88.8808 150.332 89.2041 149.906 89.4707C149.483 89.7331 148.978 89.9187 148.394 90.0275Z" fill="white"/>
<path fill-rule="evenodd" clip-rule="evenodd" d="M175.406 91.3456L171.427 69.9525C174.75 69.3342 176.942 66.1395 176.324 62.8166L249.194 49.2626C249.813 52.5856 253.007 54.7784 256.33 54.1603L256.331 54.1603L260.31 75.5534L260.31 75.5534C256.987 76.1715 254.794 79.3663 255.412 82.6893L182.542 96.2432C181.924 92.9203 178.729 90.7275 175.406 91.3456C175.406 91.3456 175.406 91.3456 175.406 91.3456Z" fill="#FB9B9B"/>
<path d="M194.424 73.8307L192.794 74.1338C192.667 73.7973 192.493 73.5126 192.273 73.2797C192.053 73.0468 191.803 72.8611 191.521 72.7225C191.24 72.5839 190.937 72.4961 190.613 72.4591C190.293 72.4215 189.962 72.4344 189.621 72.4978C189.004 72.6125 188.481 72.8701 188.051 73.2706C187.625 73.6705 187.327 74.1962 187.156 74.8475C186.989 75.4982 186.985 76.2553 187.146 77.1189C187.308 77.9894 187.584 78.6981 187.974 79.2452C188.367 79.7917 188.836 80.1728 189.381 80.3885C189.925 80.6042 190.502 80.6554 191.111 80.5421C191.449 80.4793 191.761 80.3744 192.047 80.2276C192.336 80.0765 192.587 79.8875 192.801 79.6605C193.014 79.4334 193.182 79.1735 193.304 78.8806C193.429 78.5836 193.493 78.2583 193.496 77.9048L195.126 77.6069C195.137 78.1489 195.058 78.6643 194.89 79.1531C194.724 79.6378 194.476 80.0766 194.146 80.4695C193.818 80.8582 193.421 81.1859 192.956 81.4527C192.49 81.7194 191.963 81.9075 191.375 82.0169C190.449 82.1892 189.583 82.1233 188.777 81.8193C187.97 81.5118 187.282 80.986 186.711 80.242C186.144 79.4973 185.754 78.5557 185.543 77.4171C185.33 76.275 185.357 75.256 185.622 74.36C185.887 73.4606 186.341 72.7241 186.984 72.1507C187.626 71.5738 188.408 71.1995 189.331 71.0279C189.899 70.9223 190.443 70.9057 190.964 70.978C191.489 71.0462 191.977 71.2004 192.428 71.4406C192.879 71.6773 193.276 71.9963 193.617 72.3976C193.957 72.7953 194.226 73.273 194.424 73.8307ZM197.144 69.7259L199.134 80.4224L197.572 80.7129L195.583 70.0164L197.144 69.7259ZM204.722 79.5505C203.932 79.6975 203.22 79.6552 202.586 79.4237C201.955 79.188 201.427 78.7909 201.003 78.2322C200.581 77.6694 200.293 76.9719 200.138 76.1397C199.985 75.318 200.004 74.5652 200.193 73.8815C200.387 73.1971 200.728 72.6276 201.216 72.1729C201.707 71.7176 202.326 71.4207 203.071 71.2821C203.524 71.1979 203.976 71.1912 204.429 71.2619C204.882 71.3326 205.307 71.4967 205.704 71.7542C206.101 72.0117 206.445 72.3783 206.735 72.8539C207.025 73.326 207.237 73.9259 207.373 74.6536L207.476 75.2072L201.098 76.3934L200.881 75.2234L205.728 74.3219C205.651 73.9111 205.5 73.5627 205.274 73.277C205.047 72.9877 204.765 72.779 204.428 72.6508C204.094 72.5219 203.725 72.4951 203.321 72.5702C202.883 72.6518 202.52 72.831 202.233 73.1078C201.948 73.3804 201.749 73.7056 201.636 74.0833C201.525 74.4569 201.507 74.8439 201.582 75.2444L201.752 76.1584C201.851 76.6946 202.03 77.1333 202.288 77.4743C202.55 77.8148 202.87 78.0525 203.248 78.1875C203.625 78.319 204.042 78.3423 204.498 78.2575C204.794 78.2024 205.056 78.1105 205.284 77.9816C205.512 77.8492 205.699 77.6812 205.844 77.4775C205.99 77.2739 206.087 77.038 206.134 76.7698L207.662 76.7612C207.624 77.2185 207.483 77.6393 207.237 78.0236C206.995 78.4037 206.66 78.7271 206.235 78.9936C205.811 79.2561 205.307 79.4417 204.722 79.5505ZM212.235 78.1694C211.726 78.264 211.249 78.2554 210.803 78.1438C210.357 78.0288 209.98 77.8125 209.672 77.4951C209.368 77.177 209.167 76.755 209.069 76.2293C208.985 75.7766 209.003 75.3879 209.122 75.063C209.242 74.7381 209.434 74.4629 209.698 74.2372C209.963 74.0115 210.269 73.8212 210.619 73.6661C210.968 73.5111 211.329 73.3756 211.7 73.2598C212.17 73.1147 212.551 72.9969 212.844 72.9064C213.137 72.8124 213.343 72.7109 213.463 72.6021C213.583 72.4933 213.626 72.3449 213.591 72.1568L213.584 72.1203C213.499 71.6641 213.305 71.3347 213.001 71.1319C212.7 70.9285 212.297 70.8737 211.792 70.9676C211.266 71.0654 210.874 71.2592 210.614 71.5488C210.357 71.8343 210.198 72.1288 210.135 72.4322L208.606 72.3709C208.689 71.851 208.87 71.4103 209.149 71.0487C209.43 70.6829 209.777 70.3913 210.191 70.1739C210.604 69.9531 211.052 69.7976 211.536 69.7076C211.856 69.648 212.203 69.6232 212.576 69.6331C212.952 69.6388 213.315 69.7118 213.665 69.852C214.019 69.9915 214.331 70.227 214.601 70.5586C214.871 70.8866 215.061 71.3431 215.17 71.9281L216.161 77.2555L214.635 77.5391L214.431 76.4423L214.369 76.454C214.305 76.6747 214.191 76.9013 214.025 77.1339C213.859 77.3665 213.63 77.5766 213.337 77.7644C213.044 77.9521 212.677 78.0872 212.235 78.1694ZM212.341 76.8528C212.773 76.7725 213.126 76.6185 213.401 76.3909C213.679 76.1626 213.872 75.8961 213.981 75.5912C214.093 75.2822 214.12 74.9693 214.061 74.6524L213.868 73.6183C213.823 73.6844 213.725 73.7567 213.574 73.8352C213.425 73.9096 213.254 73.983 213.058 74.0554C212.862 74.1243 212.671 74.1905 212.484 74.254C212.297 74.314 212.141 74.3646 212.015 74.406C211.72 74.5007 211.455 74.6166 211.221 74.7537C210.991 74.8902 210.816 75.0577 210.698 75.2562C210.583 75.4505 210.552 75.687 210.603 75.9655C210.675 76.352 210.872 76.618 211.195 76.7633C211.517 76.9052 211.899 76.935 212.341 76.8528ZM218.916 71.8148L219.802 76.5781L218.241 76.8686L216.748 68.8462L218.247 68.5674L218.49 69.8731L218.589 69.8546C218.695 69.3955 218.921 69.0005 219.266 68.6697C219.615 68.3382 220.091 68.1164 220.693 68.0044C221.24 67.9027 221.74 67.9285 222.194 68.0819C222.647 68.2318 223.028 68.5103 223.338 68.9174C223.648 69.3245 223.864 69.8588 223.987 70.5204L224.936 75.6231L223.375 75.9136L222.461 70.9988C222.352 70.4174 222.116 69.9911 221.753 69.7202C221.388 69.4457 220.941 69.3577 220.412 69.4562C220.05 69.5235 219.742 69.6618 219.489 69.8709C219.24 70.0794 219.062 70.3504 218.954 70.6837C218.85 71.013 218.837 71.39 218.916 71.8148ZM227.031 75.2336L225.539 67.2112L227.1 66.9207L228.592 74.9431L227.031 75.2336ZM226.097 65.8267C225.825 65.8772 225.575 65.83 225.347 65.6852C225.121 65.5363 224.984 65.3348 224.937 65.0806C224.889 64.8229 224.944 64.5857 225.102 64.3691C225.262 64.1483 225.479 64.0126 225.75 63.9621C226.022 63.9116 226.27 63.9608 226.496 64.1097C226.725 64.2545 226.863 64.4557 226.911 64.7134C226.958 64.9676 226.902 65.205 226.741 65.4259C226.583 65.6425 226.369 65.7761 226.097 65.8267ZM231.369 69.4986L232.255 74.2619L230.693 74.5523L229.201 66.5299L230.7 66.2511L230.943 67.5569L231.042 67.5384C231.148 67.0793 231.373 66.6843 231.719 66.3534C232.068 66.0219 232.544 65.8002 233.146 65.6881C233.693 65.5865 234.193 65.6123 234.646 65.7657C235.099 65.9156 235.481 66.1941 235.791 66.6012C236.1 67.0082 236.317 67.5426 236.44 68.2041L237.389 73.3069L235.827 73.5974L234.913 68.6826C234.805 68.1011 234.569 67.6749 234.205 67.404C233.841 67.1295 233.394 67.0415 232.865 67.14C232.503 67.2073 232.195 67.3456 231.942 67.5547C231.693 67.7632 231.514 68.0341 231.407 68.3675C231.303 68.6968 231.29 69.0738 231.369 69.4986ZM243.438 75.4673C242.8 75.5858 242.237 75.6042 241.746 75.5226C241.259 75.4403 240.845 75.2885 240.505 75.0672C240.165 74.8459 239.893 74.5848 239.689 74.2841L240.928 73.4808C241.051 73.6165 241.206 73.7551 241.395 73.8966C241.587 74.0409 241.831 74.1487 242.125 74.22C242.423 74.2907 242.787 74.2859 243.219 74.2056C243.811 74.0955 244.273 73.86 244.606 73.4992C244.94 73.1417 245.048 72.6497 244.931 72.0229L244.638 70.4456L244.539 70.4641C244.477 70.6522 244.376 70.8672 244.237 71.1091C244.102 71.3504 243.896 71.5762 243.618 71.7864C243.34 71.9966 242.955 72.1473 242.464 72.2386C241.831 72.3565 241.232 72.3147 240.669 72.1133C240.108 71.9078 239.626 71.5418 239.222 71.0154C238.82 70.4848 238.54 69.793 238.382 68.9399C238.223 68.0868 238.231 67.3288 238.407 66.6657C238.586 66.0019 238.9 65.4609 239.348 65.0425C239.796 64.6206 240.341 64.3498 240.985 64.23C241.483 64.1374 241.901 64.1461 242.239 64.2563C242.575 64.3629 242.85 64.5101 243.061 64.6977C243.276 64.8847 243.446 65.053 243.571 65.2026L243.686 65.1813L243.444 63.8807L244.974 63.5961L246.5 71.7961C246.628 72.4855 246.573 73.0811 246.335 73.5829C246.097 74.0847 245.724 74.4926 245.217 74.8067C244.713 75.1202 244.12 75.3403 243.438 75.4673ZM242.568 70.8792C243.017 70.7957 243.377 70.6206 243.648 70.3541C243.922 70.0834 244.103 69.7364 244.19 69.3132C244.28 68.8858 244.273 68.3953 244.17 67.8417C244.07 67.302 243.901 66.8416 243.664 66.4605C243.428 66.0794 243.133 65.8028 242.781 65.6306C242.427 65.455 242.023 65.4096 241.567 65.4944C241.096 65.5818 240.727 65.7766 240.459 66.0786C240.191 66.3771 240.015 66.7485 239.932 67.1926C239.852 67.6361 239.86 68.1138 239.955 68.6256C240.053 69.1514 240.219 69.5979 240.453 69.965C240.687 70.3322 240.981 70.598 241.336 70.7626C241.694 70.9265 242.105 70.9654 242.568 70.8792Z" fill="white"/>
<path fill-rule="evenodd" clip-rule="evenodd" d="M6.517 94.4009C7.13508 97.7238 4.94232 100.919 1.61933 101.537L1.61913 101.537L5.59826 122.93C5.59829 122.93 5.59832 122.93 5.59834 122.93C8.92133 122.312 12.1162 124.505 12.7343 127.828L85.6045 114.274C84.9864 110.951 87.1791 107.756 90.5021 107.138L86.5229 85.7446C83.2 86.3626 80.0053 84.1699 79.3872 80.8469L6.517 94.4009Z" fill="#FB9B9B"/>
<path d="M18.1224 103.024L20.081 102.66L25.0329 110.341L25.1583 110.318L27.017 101.37L28.9756 101.005L30.9652 111.702L29.4297 111.988L27.99 104.247L27.8907 104.266L26.1729 112.577L24.8985 112.814L20.3061 105.671L20.2068 105.689L21.6475 113.435L20.112 113.721L18.1224 103.024ZM35.5539 111.032C35.0456 111.127 34.5685 111.118 34.1226 111.007C33.6761 110.892 33.2991 110.675 32.9915 110.358C32.6873 110.04 32.4864 109.618 32.3886 109.092C32.3044 108.639 32.3221 108.251 32.4418 107.926C32.5615 107.601 32.7535 107.326 33.0177 107.1C33.282 106.874 33.5888 106.684 33.9382 106.529C34.2876 106.374 34.6479 106.238 35.019 106.123C35.4891 105.977 35.8707 105.86 36.1637 105.769C36.456 105.675 36.6623 105.574 36.7825 105.465C36.9028 105.356 36.9454 105.208 36.9104 105.02L36.9036 104.983C36.8188 104.527 36.6242 104.197 36.3199 103.995C36.0191 103.791 35.6163 103.736 35.1114 103.83C34.5856 103.928 34.193 104.122 33.9334 104.412C33.6767 104.697 33.5172 104.992 33.4547 105.295L31.9249 105.234C32.0083 104.714 32.1893 104.273 32.4679 103.911C32.7493 103.546 33.0967 103.254 33.5102 103.037C33.923 102.816 34.3714 102.66 34.8554 102.57C35.1757 102.511 35.5224 102.486 35.8953 102.496C36.271 102.502 36.634 102.575 36.9843 102.715C37.338 102.854 37.6502 103.09 37.9208 103.421C38.1908 103.749 38.3802 104.206 38.489 104.791L39.4799 110.118L37.9548 110.402L37.7508 109.305L37.6881 109.317C37.6247 109.537 37.5101 109.764 37.3445 109.997C37.1788 110.229 36.9495 110.439 36.6566 110.627C36.3637 110.815 35.9961 110.95 35.5539 111.032ZM35.6603 109.716C36.092 109.635 36.4452 109.481 36.7199 109.254C36.9981 109.025 37.1917 108.759 37.3007 108.454C37.4125 108.145 37.439 107.832 37.38 107.515L37.1877 106.481C37.1423 106.547 37.0441 106.619 36.893 106.698C36.7447 106.772 36.5729 106.846 36.3774 106.918C36.1813 106.987 35.99 107.053 35.8037 107.117C35.6167 107.177 35.4605 107.227 35.3349 107.269C35.0391 107.363 34.7742 107.479 34.5404 107.616C34.31 107.753 34.1358 107.92 34.0178 108.119C33.9026 108.313 33.871 108.55 33.9228 108.828C33.9947 109.215 34.1918 109.481 34.5143 109.626C34.8361 109.768 35.2181 109.798 35.6603 109.716ZM42.4901 106.743L42.125 104.839L42.3966 104.788L44.9616 100.799L46.8314 100.451L43.9047 104.994L43.6592 105.04L42.4901 106.743ZM41.5599 109.731L39.5703 99.0348L41.132 98.7443L43.1216 109.441L41.5599 109.731ZM46.6261 108.789L43.0444 105.511L43.9172 104.219L48.5429 108.432L46.6261 108.789ZM52.9042 107.789C52.1138 107.936 51.4016 107.894 50.7678 107.662C50.1367 107.426 49.609 107.029 49.1844 106.471C48.7628 105.908 48.4745 105.21 48.3197 104.378C48.1669 103.556 48.1854 102.804 48.3752 102.12C48.5685 101.435 48.9093 100.866 49.3975 100.411C49.8892 99.956 50.5076 99.659 51.2528 99.5204C51.7054 99.4362 52.1581 99.4295 52.6107 99.5002C53.0634 99.5709 53.4884 99.735 53.8857 99.9925C54.283 100.25 54.6268 100.617 54.917 101.092C55.2065 101.564 55.419 102.164 55.5543 102.892L55.6573 103.446L49.2801 104.632L49.0625 103.462L53.9094 102.56C53.833 102.149 53.6817 101.801 53.4556 101.515C53.2289 101.226 52.9469 101.017 52.6097 100.889C52.2759 100.76 51.9071 100.733 51.5032 100.809C51.0644 100.89 50.7015 101.069 50.4144 101.346C50.13 101.619 49.9312 101.944 49.8177 102.322C49.7071 102.695 49.689 103.082 49.7635 103.483L49.9335 104.397C50.0332 104.933 50.2121 105.372 50.47 105.713C50.7315 106.053 51.0513 106.291 51.4294 106.426C51.8069 106.557 52.2238 106.581 52.6799 106.496C52.9759 106.441 53.2379 106.349 53.4661 106.22C53.6937 106.088 53.8804 105.919 54.0262 105.716C54.1721 105.512 54.2687 105.276 54.316 105.008L55.8437 105C55.8063 105.457 55.6648 105.878 55.4192 106.262C55.1765 106.642 54.8422 106.965 54.4163 107.232C53.9932 107.494 53.4891 107.68 52.9042 107.789ZM62.5117 102.392L61.6384 97.6968L63.2053 97.4053L64.6974 105.428L63.1619 105.713L62.9035 104.324L62.8199 104.34C62.715 104.802 62.4855 105.214 62.1312 105.575C61.7797 105.933 61.3028 106.167 60.7004 106.279C60.1851 106.375 59.7079 106.347 59.2689 106.194C58.8327 106.038 58.4597 105.756 58.1498 105.349C57.8434 104.941 57.6287 104.406 57.5056 103.745L56.5565 98.642L58.1181 98.3515L59.0323 103.266C59.134 103.813 59.3664 104.22 59.7296 104.488C60.0927 104.755 60.5163 104.844 61.0003 104.754C61.2928 104.699 61.5699 104.572 61.8317 104.372C62.097 104.171 62.2979 103.905 62.4343 103.574C62.5743 103.242 62.6001 102.848 62.5117 102.392ZM67.3553 108.046L65.3036 97.015L66.8287 96.7314L67.0706 98.0319L67.2011 98.0076C67.2606 97.8236 67.3552 97.6061 67.485 97.355C67.6148 97.1039 67.816 96.8683 68.0885 96.6483C68.3603 96.4249 68.7452 96.2668 69.2431 96.1742C69.8908 96.0537 70.4992 96.1099 71.0685 96.3426C71.6377 96.5754 72.1241 96.973 72.5278 97.5356C72.9349 98.0975 73.2191 98.8119 73.3803 99.6789C73.5416 100.546 73.5354 101.316 73.3617 101.99C73.1873 102.66 72.8787 103.209 72.436 103.637C71.9927 104.062 71.4472 104.334 70.7995 104.455C70.3121 104.546 69.8982 104.538 69.5578 104.432C69.221 104.325 68.9451 104.178 68.7302 103.991C68.5153 103.804 68.345 103.634 68.2192 103.481L68.1252 103.499L68.917 107.755L67.3553 108.046ZM67.58 100.742C67.6849 101.306 67.8587 101.785 68.1014 102.179C68.344 102.574 68.6426 102.862 68.9972 103.045C69.3512 103.224 69.7527 103.272 70.2019 103.188C70.6685 103.101 71.0355 102.905 71.3028 102.6C71.5696 102.291 71.7432 101.907 71.8237 101.449C71.9077 100.99 71.8998 100.493 71.8001 99.9566C71.7017 99.4274 71.5332 98.967 71.2946 98.5755C71.0596 98.1833 70.761 97.8948 70.3988 97.71C70.0401 97.5246 69.6257 97.4756 69.1556 97.563C68.703 97.6472 68.3416 97.8351 68.0717 98.1266C67.8052 98.4176 67.6307 98.7869 67.5482 99.2345C67.4658 99.6821 67.4764 100.184 67.58 100.742Z" fill="white"/>
</svg>
