<svg width="280" height="217" viewBox="0 0 280 217" fill="none" xmlns="http://www.w3.org/2000/svg">
<path d="M160.044 94.9185L158.137 92.1675H154.788C154.411 92.1675 154.189 91.7238 154.411 91.4354L156.429 88.7732L155.387 85.6007C155.276 85.2457 155.609 84.8908 155.986 85.0239L159.135 86.1331L161.841 84.1587C162.151 83.9368 162.573 84.1587 162.573 84.5358L162.484 87.8858L165.19 89.8381C165.501 90.0599 165.412 90.548 165.057 90.6589L161.863 91.6129L160.843 94.7853C160.732 95.1625 160.266 95.2512 160.044 94.9185Z" fill="#F47458"/>
<path d="M248.206 34.3754L249.958 30.2934L247.607 26.5219C247.341 26.1004 247.673 25.5457 248.184 25.5901L252.597 26.0116L255.436 22.5951C255.769 22.1958 256.39 22.3511 256.501 22.8613L257.477 27.1874L261.602 28.8513C262.068 29.051 262.112 29.6944 261.691 29.9384L257.876 32.2013L257.565 36.6383C257.521 37.1486 256.922 37.3926 256.545 37.0598L253.218 34.1314L248.915 35.2185C248.405 35.3294 248.006 34.8413 248.206 34.3754Z" fill="#F7CC7F"/>
<path d="M18.1647 146.477L15.9025 142.151L11.0674 141.552C10.513 141.485 10.2912 140.82 10.6682 140.42L14.0838 136.937L13.1523 132.145C13.0414 131.591 13.618 131.169 14.106 131.413L18.4752 133.587L22.7336 131.213C23.2216 130.947 23.7982 131.347 23.7317 131.901L23.0219 136.738L26.5928 140.065C26.992 140.442 26.7924 141.13 26.2379 141.219L21.425 142.04L19.3624 146.455C19.1406 146.965 18.4309 146.987 18.1647 146.477Z" fill="#9BC1F9"/>
<path d="M276.396 42.584L276.462 44.9356L272.67 45.4459L272.315 48.9067L269.542 49.772L269.964 51.1696L273.69 50.0382L274 46.7548L277.948 46.2223L277.86 42.6727L276.396 42.584Z" fill="#466EB6"/>
<path d="M66.4486 18.3799C66.6482 16.8269 68.1342 15.6955 69.6867 15.9173C71.3058 16.1392 72.2373 17.4481 72.0821 19.0898C71.9046 20.7315 70.6626 21.8407 68.9548 21.6411C67.2249 21.4414 66.2268 20.0437 66.4486 18.3799ZM67.9789 14.1425L68.733 1.69663C68.7996 0.676116 69.7089 -0.100364 70.7291 0.0105619L71.9712 0.143673C72.9914 0.254598 73.7233 1.20856 73.5459 2.22908L71.5498 14.5418L67.9789 14.1425Z" fill="#F48C7F"/>
<path d="M58.553 81.0528C58.6417 84.1365 59.4402 90.7699 66.4266 91.8569C70.7737 92.5447 76.3406 88.6401 75.9858 85.756C75.6309 82.8941 74.8325 75.5731 70.2858 73.9092C66.5153 72.5337 58.3756 74.1532 58.553 81.0528Z" fill="#184655"/>
<path d="M116.972 180.886C117.97 185.035 118.747 191.047 119.035 191.38C119.168 191.535 119.456 192.578 119.612 192.755C124.136 194.397 128.106 192.711 131.256 190.825C128.794 190.381 125.467 189.938 125.001 189.605C123.293 188.385 123.693 184.081 123.382 180.198C122.14 180.42 119.19 179.644 116.972 180.886Z" fill="#F7A491"/>
<path d="M118.946 191.136C118.968 192.777 120.033 196.283 120.366 196.283C120.765 196.283 134.338 195.107 135.625 193.021C136.401 191.757 134.294 191.446 131.256 190.847C128.106 192.711 119.323 192.178 118.946 191.136Z" fill="#466EB6"/>
<path d="M52.4537 190.159C49.3043 192.622 46.1327 194.596 45.7335 194.774C45.5339 194.862 44.4471 194.862 44.2475 194.951C41.4529 198.878 42.0296 203.16 42.9833 206.687C44.07 204.424 45.3342 201.274 45.8444 200.986C46.6206 200.542 49.4595 198.856 54.5386 196.793C52.8086 194.929 53.0304 192.622 52.4537 190.159Z" fill="#F7A491"/>
<path d="M59.5954 103.26L49.881 120.942C49.881 120.942 43.3825 129.106 40.0334 133.321C40.7432 134.497 41.4529 135.717 42.0739 136.959C45.4008 134.12 52.4759 128.13 55.0043 124.802C58.7304 119.899 65.495 108.252 65.495 108.252L59.5954 103.26Z" fill="#F7A491"/>
<path d="M85.4337 134.031L75.0539 149.361C75.0539 149.361 74.455 148.34 78.1811 149.693C81.9072 151.047 105.883 155.528 107.302 157.236C108.3 158.434 115.752 181.973 117.172 184.99C119.323 185.855 122.473 184.901 124.691 184.569C124.824 173.232 118.835 152.578 117.216 150.159C113.645 144.746 96.5897 138.911 88.9158 135.628C87.6738 135.096 86.6979 134.63 86.099 134.341C85.6776 134.119 85.4337 134.031 85.4337 134.031Z" fill="#3C8F7C"/>
<path d="M45.5562 194.818C43.9593 194.397 40.7212 194.419 40.6324 194.729C40.5437 195.106 38.0375 208.528 39.7009 210.303C40.699 211.39 41.5861 209.46 42.9834 206.687C42.0075 203.16 44.4694 194.907 45.5562 194.818Z" fill="#466EB6"/>
<path d="M82.7057 144.813C82.7944 143.659 85.2563 136.937 86.1213 134.319C86.1435 134.231 85.5003 132.722 84.8127 130.548L83.8146 130.703L69.0434 131.369C69.0434 131.369 63.0994 141.419 63.787 146.033C64.7628 152.489 74.078 175.384 72.6586 176.471C70.108 178.423 57.5768 185.678 51.1449 190.004C51.5663 192.489 52.7196 195.972 54.2943 197.968C59.5286 196.149 82.1734 187.009 84.5022 180.021C86.5427 173.831 82.5504 146.765 82.7057 144.813Z" fill="#50BFA5"/>
<path d="M82.462 88.3298C82.462 88.3298 78.4032 94.7191 75.9857 94.9631L84.4581 102.817C84.4581 102.817 90.2468 94.1423 90.8457 92.6559C90.8679 92.6559 85.6114 87.9748 82.462 88.3298Z" fill="#F7CC7F"/>
<path d="M85.4338 126.976C85.0568 130.503 86.1436 134.341 86.1436 134.341C82.728 135.074 70.6404 136.626 67.6906 133.01C67.5797 132.877 71.8824 125.312 71.2836 122.206C70.4186 117.636 66.626 109.916 66.3155 109.494C65.7832 108.806 63.8536 112.4 63.8536 112.4C61.5913 112.422 56.3793 107.142 56.3793 107.142C56.3793 107.142 61.7466 97.7803 63.2326 96.8929C64.7186 96.0055 76.9171 94.6744 76.9393 94.6744C77.8486 94.6078 80.2883 96.7376 80.9758 97.4253C88.672 105.124 86.6093 116.172 85.4338 126.976Z" fill="#FAE0B2"/>
<path d="M70.0414 90.7699C70.0414 90.7699 71.3721 95.1625 71.3721 96.9595C71.3721 98.7565 72.104 101.175 75.8523 100.82C79.6005 100.443 76.5177 96.6711 75.9854 94.9851C75.4531 93.2768 74.8099 87.9302 74.8099 87.9302L70.0414 90.7699Z" fill="#F7A491"/>
<path d="M75.1869 90.5926C74.9873 89.1284 74.8321 87.9082 74.8321 87.9082L70.0414 90.7701C70.0414 90.7701 70.3075 91.6797 70.618 92.8111C72.8581 93.033 74.3663 92.0568 75.1869 90.5926Z" fill="#F47458"/>
<path d="M66.1381 77.4807C66.1381 77.4807 64.1642 78.8562 63.6541 81.4519C63.144 84.0476 64.6965 90.4591 70.2634 91.4574C75.8304 92.4557 77.6491 87.0869 76.1187 83.1823C74.5884 79.2777 71.6385 74.4192 66.1381 77.4807Z" fill="#F7A491"/>
<path d="M75.4867 83.5387C76.1237 83.5354 76.6355 82.6488 76.6298 81.5583C76.6242 80.4678 76.1033 79.5865 75.4663 79.5898C74.8293 79.5931 74.3176 80.4797 74.3232 81.5702C74.3288 82.6607 74.8498 83.542 75.4867 83.5387Z" fill="#F7A491"/>
<path d="M66.3322 89.4701C66.9248 88.9756 66.8136 87.8655 66.0839 86.9904C65.3541 86.1154 64.2821 85.8069 63.6895 86.3014C63.097 86.7959 63.2082 87.9061 63.9379 88.7811C64.6677 89.6561 65.7396 89.9646 66.3322 89.4701Z" fill="#F7A491"/>
<path d="M60.4382 75.0408C60.6599 72.0458 62.767 60.9311 55.958 59.8662C49.149 58.8013 47.7074 66.2555 43.9148 56.2278C40.4105 46.9544 30.0307 50.5484 29.5871 57.5811C28.6112 57.4924 27.591 57.6477 26.6373 58.047C23.3104 59.4447 21.8022 63.438 23.2882 66.9654C23.5322 67.52 23.3991 68.0747 23.7318 68.5406C22.9334 71.6021 23.4878 75.1074 25.861 78.6792C32.3373 88.4184 38.8136 78.1689 43.1829 78.7235C47.5521 79.2782 44.7132 82.6947 48.4836 85.3569C52.2763 88.0191 55.3148 87.3314 61.4806 80.0546L63.0109 78.058C63.0331 78.0358 60.2164 78.0358 60.4382 75.0408Z" fill="#184655"/>
<path d="M251.732 159.788C255.148 158.434 258.209 156.571 258.563 156.393C258.852 156.238 260.005 155.395 260.16 155.284C263.177 157.081 264.263 158.59 266.637 160.986C264.884 161.074 264.13 159.632 263.465 159.788C262.644 159.965 260.094 161.673 256.102 164.779C255.414 162.517 253.418 161.385 251.732 159.788Z" fill="#F8A492"/>
<path d="M203.449 194.751C204.225 198.345 205.644 201.54 205.822 201.895C205.911 202.073 206.443 202.206 206.532 202.383C204.269 205.045 203.293 209.482 200.543 211.435C200.743 209.682 201.918 206.421 201.874 205.733C201.83 204.912 200.565 202.095 198.192 197.658C200.477 197.347 201.586 196.149 203.449 194.751Z" fill="#F8A492"/>
<path d="M204.89 202.65C205.201 201.873 206.221 201.341 206.953 201.807C207.685 202.272 208.661 202.783 209.37 203.271C210.191 203.825 210.235 204.469 210.213 204.624C210.147 205.046 200.521 216.316 199.279 216.471C198.037 216.626 200.321 207.109 201.674 206.11C202.894 205.245 203.493 206.133 204.89 202.65Z" fill="#3C8F7C"/>
<path d="M259.872 156.393C259.162 155.95 258.808 154.84 259.406 154.219C259.983 153.576 260.671 152.711 261.292 152.089C262.001 151.379 262.622 151.446 262.778 151.49C263.177 151.624 272.536 163.138 272.492 164.38C272.426 165.622 263.465 161.673 262.733 160.165C262.068 158.812 263.066 158.39 259.872 156.393Z" fill="#3C8F7C"/>
<path d="M207.131 152.711C207.131 152.711 226.138 178.335 229.443 178.579C232.548 178.801 256.523 165.423 256.523 165.423L253.396 158.524L234.189 165.423L220.815 140.11L207.131 152.711Z" fill="#B75742"/>
<path d="M218.087 131.058C218.087 131.058 221.569 131.879 223.565 137.203C225.561 142.506 222.234 146.92 213.895 154.597C205.777 162.073 197.771 169.106 197.771 169.106L204.358 196.216L198.88 200.853C198.88 200.853 186.193 173.299 185.838 166.754C185.705 164.247 205.179 135.207 205.179 135.207L218.087 131.058Z" fill="#F47458"/>
<path d="M203.382 97.8691L192.781 103.815L184.375 107.852C184.375 107.852 182.334 100.886 183.022 97.4697C183.111 96.9817 183.599 96.4049 183.776 96.1386C185.151 94.0532 182.201 90.8364 182.201 90.8364C182.201 90.8364 180.427 90.3261 179.207 93.2768C177.987 96.2274 180.227 97.4697 180.227 97.4697C180.227 97.4697 177.677 106.388 178.741 112.866C179.296 116.261 187.813 113.776 194.577 110.847C200.277 108.385 204.469 105.634 204.469 105.634L203.382 97.8691Z" fill="#F7A491"/>
<path d="M205.755 96.8709C205.534 96.6713 205.156 96.5382 204.558 96.76C203.249 97.2481 190.518 104.236 190.518 104.236C190.518 104.236 191.649 110.36 194.644 112.223L201.053 110.271L205.955 97.8693C206.11 97.5143 206.044 97.115 205.755 96.8709Z" fill="#3C8F7C"/>
<path d="M235.054 70.7145C230.219 67.7639 224.208 68.3186 220.615 72.3119C217.666 71.2026 214.272 71.2914 211.544 72.5781C206.155 75.1072 201.364 81.6962 205.445 86.466C204.58 92.8109 208.373 96.5159 213.119 96.9374C215.692 102.107 224.807 102.639 230.064 98.3794C234.389 100.065 239.556 99.3334 242.75 96.2053C243.526 95.451 244.635 94.253 244.902 94.142C244.591 94.2973 256.967 92.6556 256.412 81.7406C255.814 70.5593 242.484 66.2997 235.054 70.7145Z" fill="#FE875E"/>
<path d="M213.119 96.0057L220.97 96.4494L219.662 107.431C219.662 107.431 215.869 118.013 217.422 123.094C218.974 128.174 220.46 131.879 220.46 131.879C220.46 131.879 215.98 137.026 203.449 135.961C203.449 135.961 203.604 126.843 203.449 124.07C203.294 121.297 200.078 109.805 200.521 107.209C200.965 104.614 203.715 97.4256 204.447 96.8266C205.157 96.2276 208.018 95.917 208.018 95.917L213.119 96.0057Z" fill="#50BFA5"/>
<path d="M213.474 89.9716C213.474 89.9716 213.341 90.859 213.208 91.9904C213.053 93.4103 212.897 95.2295 213.03 96.2056C213.274 97.9582 211.633 102.573 207.907 102.75C204.181 102.928 207.818 97.6476 208.107 95.9172C208.395 94.1867 208.395 87.8418 208.395 87.8418L213.474 89.9716Z" fill="#F7A491"/>
<path d="M208.417 90.5262C208.417 89.062 208.394 87.8418 208.394 87.8418L213.473 89.9716C213.473 89.9716 213.34 90.8812 213.207 92.057C211.034 92.5894 209.437 91.8573 208.417 90.5262Z" fill="#F47458"/>
<path d="M213.851 76.9263C213.851 76.9263 216.002 77.6806 217.111 79.9435C218.22 82.1842 218.442 88.4404 213.585 90.7699C208.75 93.0993 205.733 88.6401 206.155 84.669C206.598 80.6978 208.062 75.5287 213.851 76.9263Z" fill="#F7A491"/>
<path d="M205.867 81.218C205.288 81.3745 205.035 82.3068 205.304 83.3004C205.572 84.294 206.259 84.9726 206.838 84.8161C207.418 84.6596 207.67 83.7272 207.402 82.7336C207.134 81.74 206.446 81.0614 205.867 81.218Z" fill="#F7A491"/>
<path d="M218.572 84.1885C217.902 83.8846 216.994 84.443 216.544 85.4359C216.093 86.4288 216.27 87.4801 216.939 87.7841C217.608 88.088 218.516 87.5296 218.967 86.5367C219.418 85.5438 219.241 84.4925 218.572 84.1885Z" fill="#F7A491"/>
<path d="M111.738 133.476C111.006 131.324 80.9095 43.6264 79.5787 39.7883C77.5604 33.9314 71.1285 30.7812 65.1845 32.7556L20.3163 47.7084C14.3723 49.6829 11.2007 56.05 13.219 61.9069L45.3786 155.595C47.3969 161.452 53.8288 164.602 59.7728 162.627L104.663 147.675C110.563 145.7 113.757 139.355 111.738 133.476ZM100.826 135.85L55.4701 150.958C52.0545 152.089 48.3284 150.27 47.1751 146.898L17.4552 60.243C16.3019 56.8709 18.1206 53.1881 21.5583 52.0567L66.9145 36.9486C70.3301 35.8172 74.0561 37.6364 75.2095 41.0085C82.4176 62.0622 104.264 125.778 104.929 127.664C106.083 131.036 104.242 134.719 100.826 135.85Z" fill="#641BB4"/>
<path d="M89.2045 146.011C89.8921 148.03 86.7205 150.914 82.1072 152.445C77.494 153.976 73.1912 153.598 72.5037 151.58C71.8161 149.561 74.9877 146.677 79.601 145.146C84.2142 143.593 88.517 143.992 89.2045 146.011Z" fill="#184655"/>
<path d="M87.9846 146.166C88.6278 148.052 86.0107 150.648 82.1072 151.934C78.2037 153.221 74.522 152.755 73.8788 150.847C73.2356 148.961 75.8527 146.366 79.7562 145.079C83.6375 143.792 87.3193 144.28 87.9846 146.166Z" fill="#641BB4"/>
<path d="M253.241 45.7786L202.806 34.3755C196.13 32.8669 189.565 36.8158 188.123 43.183L165.101 145.035C163.66 151.402 167.896 157.814 174.572 159.3L225.007 170.703C231.683 172.212 238.248 168.263 239.689 161.896L262.711 60.0437C264.153 53.6766 259.917 47.2872 253.241 45.7786ZM236.629 152.911C235.808 156.593 232.015 158.856 228.156 157.991L177.189 146.477C173.352 145.612 170.89 141.929 171.733 138.246L193.025 44.0482C193.845 40.3655 197.638 38.1026 201.497 38.9678L252.465 50.4819C256.301 51.3471 258.763 55.0298 257.921 58.7126L236.629 152.911Z" fill="#B775FF"/>
<path d="M201.273 162.529C206.446 163.699 211.041 162.875 211.535 160.688C212.03 158.501 208.236 155.779 203.063 154.609C197.89 153.44 193.295 154.264 192.801 156.451C192.306 158.638 196.1 161.36 201.273 162.529Z" fill="#466EB6"/>
<path d="M201.524 162.089C205.897 163.078 209.819 162.213 210.283 160.157C210.748 158.102 207.58 155.634 203.207 154.645C198.834 153.656 194.912 154.521 194.448 156.576C193.983 158.632 197.152 161.1 201.524 162.089Z" fill="#86B1F2"/>
<path d="M220.66 99.2893C220.66 99.2893 237.227 95.2516 240.931 94.5861C244.635 93.8983 257.455 89.2838 257.943 89.0841C258.43 88.8845 260.271 82.2955 260.981 82.7614C261.713 83.2273 259.872 86.0891 260.781 86.4663C261.691 86.8434 269.409 83.3826 269.453 84.0037C269.564 85.1796 264.818 86.311 264.951 86.8434C265.106 87.3759 269.786 85.2239 270.363 86.0226C270.939 86.8213 265.727 87.6643 265.639 88.108C265.55 88.5517 270.651 87.9749 270.363 88.9288C270.208 89.4613 265.816 89.3504 265.994 89.9494C266.171 90.5705 269.52 91.1695 269.298 91.7464C269.076 92.3454 266.57 90.859 264.84 91.3027C263.11 91.7464 261.624 91.1695 259.096 92.6781C256.545 94.1645 248.184 100.487 242.24 101.796C236.296 103.105 223.166 106.011 223.166 106.011L220.66 99.2893Z" fill="#F7A491"/>
<path d="M216.645 96.7376C217.199 96.4714 218.929 96.427 220.97 96.4492C221.724 96.4492 222.788 96.4714 223.587 96.427C226.581 96.3382 229.42 96.4714 229.42 96.4714C229.42 96.4714 230.928 103.748 229.664 105.612C229.664 105.612 217.953 107.276 218.242 108.096L216.645 96.7376Z" fill="#50BFA5"/>
<path d="M176.013 96.7821L177.033 95.4954C177.033 95.4954 177.654 94.5192 178.608 94.4305C179.562 94.3417 179.517 93.1437 178.519 93.3212C177.521 93.4987 176.9 93.7206 176.9 93.7206C176.9 93.7206 178.896 92.7 178.919 92.5669C179.118 91.8126 178.009 91.5242 176.545 92.6335C175.059 93.7427 176.013 96.7821 176.013 96.7821Z" fill="#F7A491"/>
<path d="M40.6545 135.096C40.0113 135.451 39.5678 135.761 39.3682 135.917C39.3682 135.895 39.3903 135.872 39.3903 135.85C39.6121 135.628 40.3219 134.852 40.344 134.852C41.2977 134.12 40.7876 133.343 39.9005 133.831C39.0133 134.319 38.481 134.741 38.481 134.741C38.481 134.741 40.0335 133.232 40.0113 132.988C39.9892 132.212 38.8359 132.301 37.7934 133.809C36.8841 135.118 38.2148 137.425 38.6141 137.98C38.9911 138.779 39.7008 139.134 39.7008 139.134L39.9448 137.625C39.9448 137.625 40.2331 136.494 41.0759 136.116C41.9631 135.739 41.5417 134.63 40.6545 135.096Z" fill="#F7A491"/>
<path d="M179.673 92.1675C179.673 92.1675 182.024 90.2818 182.401 91.0805C182.778 91.8791 182.622 93.6317 182.268 93.4986C181.913 93.3655 181.957 92.1453 180.959 92.4559C180.671 92.5447 179.273 92.9884 179.673 92.1675Z" fill="#F7A491"/>
<path d="M124.114 95.5839L111.361 87.8191C110.075 87.0426 109.653 85.3344 110.452 84.0476L118.214 71.2912C118.991 70.0044 120.698 69.5829 121.985 70.3816L134.738 78.1464C136.024 78.9229 136.445 80.6311 135.647 81.9178L127.884 94.6743C127.086 95.961 125.4 96.3826 124.114 95.5839Z" fill="#96D9C9"/>
<path d="M130.834 85.1572C131.3 84.6691 131.145 83.7595 130.457 83.1383C127.397 80.4317 123.892 78.2798 120.122 76.7712C119.257 76.4162 118.37 76.7046 118.148 77.3702C116.374 82.6059 116.995 80.6314 116.218 83.6708C116.041 84.3807 116.44 85.0906 117.105 85.379C117.815 85.6674 118.658 85.3568 118.991 84.6691C119.168 84.2919 119.346 83.8926 119.523 83.5155C119.723 83.0718 120.299 82.9165 120.787 83.1605C122.096 83.826 123.338 84.5803 124.535 85.4234C124.979 85.734 125.112 86.333 124.802 86.7101C124.558 87.0429 124.291 87.3757 124.048 87.7084C123.582 88.3296 123.715 89.1949 124.314 89.6829C124.868 90.1488 125.689 90.171 126.221 89.7051C126.776 89.1727 129.858 86.1777 130.834 85.1572Z" fill="white"/>
<path d="M120.942 78.79C121.097 78.901 121.23 79.0341 121.319 79.1894L121.74 78.4794L120.831 77.9248L120.41 78.6347C120.609 78.6569 120.787 78.7013 120.942 78.79Z" fill="#96D9C9"/>
<path d="M119.523 79.1449C119.633 78.9896 119.767 78.8565 119.922 78.7678L119.212 78.3462L118.658 79.2558L119.367 79.6774C119.367 79.4999 119.412 79.3224 119.523 79.1449Z" fill="#96D9C9"/>
<path d="M119.855 80.5873C119.7 80.4764 119.567 80.3433 119.478 80.188L119.057 80.8979L119.966 81.4525L120.387 80.7426C120.21 80.7426 120.032 80.6761 119.855 80.5873Z" fill="#96D9C9"/>
<path d="M121.452 79.6997C121.452 79.8772 121.408 80.0547 121.297 80.2322C121.186 80.3874 121.053 80.5206 120.898 80.6093L121.608 81.0308L122.162 80.1212L121.452 79.6997Z" fill="#96D9C9"/>
<path d="M120.41 80.3429C120.765 80.3429 121.053 80.0548 121.053 79.6995C121.053 79.3442 120.765 79.0562 120.41 79.0562C120.055 79.0562 119.767 79.3442 119.767 79.6995C119.767 80.0548 120.055 80.3429 120.41 80.3429Z" fill="#96D9C9"/>
<path d="M127.84 85.6675C128.587 85.6675 129.193 85.0616 129.193 84.3142C129.193 83.5668 128.587 82.9609 127.84 82.9609C127.093 82.9609 126.487 83.5668 126.487 84.3142C126.487 85.0616 127.093 85.6675 127.84 85.6675Z" fill="#96D9C9"/>
<path d="M136.113 36.5051C136.113 36.5051 136.579 33.8651 139.329 32.5783C141.768 31.4469 144.408 32.7114 145.517 35.1074C146.803 37.8806 146.027 42.2289 141.369 47.8417C134.072 47.7752 130.258 45.5566 128.971 42.7835C127.862 40.3875 128.594 37.5478 131.056 36.4164C133.806 35.1518 136.113 36.5051 136.113 36.5051Z" fill="#F48C7F"/>
<path d="M47.6627 24.6362L31.4499 32.3566C29.5425 33.2662 27.258 32.4453 26.3487 30.5374L21.9794 21.4193C21.0701 19.5114 21.8907 17.2263 23.7981 16.3167L40.011 8.59632C41.9184 7.68673 44.2028 8.50758 45.1121 10.4155L49.4592 19.5114C50.3908 21.4415 49.5701 23.7266 47.6627 24.6362Z" fill="#FAE0B2"/>
<path d="M24.8404 25.5679L21.3583 35.9062L29.0766 30.2046L24.8404 25.5679Z" fill="#FAE0B2"/>
<path d="M30.5626 21.5522L32.6031 20.5095C32.6031 20.5095 34.2665 17.2926 34.0004 16.5605C33.7564 15.8284 32.6031 14.586 32.9358 14.2089C33.2463 13.8317 34.0447 13.2771 35.0206 13.9205C35.7303 14.3864 36.5732 16.9598 36.9058 17.0042C37.1054 17.0264 38.3031 16.4718 39.1681 16.0281C39.7448 15.7397 40.4101 15.8062 40.9202 16.1834C41.2751 16.4274 41.386 16.8933 41.2086 17.2926L40.9424 17.8916L41.5413 18.2022C41.9848 18.4241 42.1623 18.9787 41.9405 19.4224L41.7187 19.8883L42.0957 20.0436C42.5837 20.2432 42.8055 20.8422 42.5393 21.3303L42.3175 21.7075L42.4062 21.774C42.7833 22.0402 42.8942 22.5727 42.6502 22.972L42.4284 23.3492L36.9724 26.1223C36.4623 26.3885 35.9078 26.5438 35.3311 26.566L33.2463 27.2316C33.0245 27.2981 32.7805 27.2094 32.6696 26.9875L30.3187 22.1733C30.2299 21.9515 30.3187 21.6853 30.5626 21.5522Z" fill="white"/>
<path d="M164.657 46.9098C176.9 44.1367 188.234 47.9747 189.942 55.4955C190.807 59.2669 189.077 63.2381 185.639 66.6102L193.135 76.5714L180.715 70.3152C177.876 71.979 174.549 73.3101 170.868 74.1532C158.625 76.9263 147.291 73.0883 145.583 65.5675C143.853 58.069 152.392 49.7051 164.657 46.9098Z" fill="#FAE0B2"/>
<path d="M176.434 59.9992C176.257 64.3697 172.575 67.7862 168.184 67.6087C163.814 67.4313 160.399 63.7485 160.576 59.3559C160.754 54.9854 164.435 51.5689 168.827 51.7464C173.218 51.9238 176.612 55.6066 176.434 59.9992Z" fill="#F7CC7F"/>
<path d="M164.236 60.7534C164.147 63.0829 165.966 65.0573 168.295 65.1683C170.623 65.257 172.597 63.4378 172.708 61.1084L164.236 60.7534Z" fill="#EFEFEF"/>
<path d="M10.5351 81.9844L6.49851 82.783L6.98645 86.5989L3.03858 87.575L3.08294 91.2578L0.244019 92.4779L0.865032 93.92L4.65765 92.3005L4.61329 88.7952L8.71642 87.7747L8.22848 84.0254L11.888 83.2933L10.5351 81.9844Z" fill="#F48C7F"/>
<path d="M279.789 113.31L278.658 109.339L274.909 110.16L273.623 106.299L269.941 106.632L268.499 103.903L267.124 104.613L269.032 108.274L272.536 107.963L273.867 111.979L277.549 111.18L278.569 114.774L279.789 113.31Z" fill="#F7CC7F"/>
<path d="M11.2004 39.6774L8.93813 40.3652L7.42995 36.8599L3.99219 37.4589L2.43966 35.0186L1.19763 35.8172L3.28246 39.0784L6.54279 38.5016L8.1175 42.1622L11.5109 41.1195L11.2004 39.6774Z" fill="#50BFA5"/>
<path d="M94.9481 53.8986C94.1497 53.2552 92.3088 52.7228 91.3995 52.634C90.4901 52.5453 86.4757 52.5453 85.9656 53.5214C85.4555 54.4754 89.6473 57.2041 89.8691 58.3356C90.0909 59.467 87.4294 77.0599 86.6753 80.5651C86.2983 82.2955 84.8345 85.5346 83.4594 88.3743C85.4333 88.6849 87.8508 90.3044 89.3812 91.458C91.3329 87.1985 93.3069 82.4065 93.573 80.1658C94.0609 75.64 95.7466 54.5419 94.9481 53.8986Z" fill="#F7A491"/>
<path d="M106.57 23.5266C105.195 23.4157 98.0755 28.851 98.0755 28.851L97.765 29.2725C97.765 29.2725 107.391 30.892 107.856 30.6036C109.054 29.7828 107.679 23.6153 106.57 23.5266ZM98.0977 29.0285C100.427 27.3424 105.217 25.257 106.237 24.8355C106.77 25.8116 107.258 28.3851 107.102 29.45C105.971 29.3613 100.914 29.4722 98.0977 29.0285Z" fill="#466EB6"/>
<path d="M96.1459 19.0232C94.9039 15.7177 93.7063 15.8729 92.8413 15.9839C91.9763 16.0948 88.1393 18.8236 88.4942 20.909C88.849 22.9944 96.5452 29.1175 96.5452 29.1175L97.0553 28.5185C97.0775 28.5185 97.388 22.3288 96.1459 19.0232ZM89.6918 20.7093C89.5144 19.6666 92.1759 17.4481 93.0631 17.1597C93.2627 17.1375 93.4401 17.1153 93.5732 17.1597C93.7284 17.2041 94.3273 17.5146 95.037 19.4448C95.8354 21.5745 96.6561 26.4774 96.6561 28.4297C93.5732 25.8563 89.8915 21.5967 89.6918 20.7093Z" fill="#466EB6"/>
<path d="M96.634 30.4043L97.0554 30.5153C97.4768 30.6262 97.8982 30.4043 98.0313 29.9828L98.3862 28.7405C98.4971 28.3189 98.2753 27.8974 97.8539 27.7643L97.4325 27.6534C97.0111 27.5425 96.5896 27.7643 96.4566 28.1858L96.1017 29.4282C95.9686 29.8497 96.2126 30.2712 96.634 30.4043Z" fill="#466EB6"/>
<path d="M104.441 57.3589L77.9149 49.7716C76.4733 49.3723 75.6083 47.9081 75.9188 46.4439L80.6208 24.7246L115.176 34.597L107.369 56.405C107.058 57.3146 105.75 57.7361 104.441 57.3589Z" fill="#F47458"/>
<path d="M115.265 39.6778L77.7377 29.029L78.026 26.4999C78.2034 24.9913 79.6894 23.9929 81.1532 24.4144L115.065 34.1981C116.263 34.5531 116.995 35.5514 116.64 36.3944L115.265 39.6778Z" fill="#FAE0B2"/>
<path d="M97.9053 29.2489L97.2015 29.0479L95.7404 34.1679L96.4442 34.3689L97.9053 29.2489Z" fill="#466EB6"/>
<path d="M97.3639 34.5966L96.4681 34.3408L90.9827 53.5621L91.8785 53.8178L97.3639 34.5966Z" fill="#466EB6"/>
<path d="M88.1171 53.8542L88.2058 52.7227C87.2965 52.4565 86.2541 52.0793 85.6996 51.8575L85.5444 50.9923C85.0786 49.8165 84.5463 50.6595 84.391 50.9257C84.391 50.9257 84.3467 52.4343 84.5241 52.6118C84.5241 52.6118 86.3206 54.4975 87.0747 55.2074C87.4518 55.5624 88.6494 56.5386 88.6494 56.5386L89.6031 55.2074L88.1171 53.8542Z" fill="#F7A491"/>
</svg>
