<svg width="200" height="200" viewBox="0 0 200 200" fill="none" xmlns="http://www.w3.org/2000/svg">
<path opacity="0.7" d="M39.868 173.248C72.868 191.144 126.372 191.148 159.372 173.248C192.372 155.348 192.372 126.324 159.372 108.424C126.372 90.524 72.868 90.524 39.868 108.424C6.86796 126.324 6.86395 155.348 39.868 173.248Z" fill="#F0F0F0"/>
<path d="M60.156 133.092C72.7547 133.092 82.968 128.224 82.968 122.22C82.968 116.216 72.7547 111.348 60.156 111.348C47.5573 111.348 37.344 116.216 37.344 122.22C37.344 128.224 47.5573 133.092 60.156 133.092Z" fill="#E0E0E0"/>
<path d="M31.488 121.512L34.052 120.048C34.052 120.048 35.284 113.272 34.364 107.448C33.068 99.256 27.492 96.432 25.468 97.244C23.444 98.056 22.968 100.484 26.624 105.216C28.8 108 31.56 113.912 31.488 121.512Z" fill="#641BB4"/>
<g opacity="0.1">
<path d="M31.488 121.512L34.052 120.048C34.052 120.048 35.284 113.272 34.364 107.448C33.068 99.256 27.492 96.432 25.468 97.244C23.444 98.056 22.968 100.484 26.624 105.216C28.8 108 31.56 113.912 31.488 121.512Z" fill="black"/>
</g>
<path d="M32.42 118.26H32.4C32.3523 118.252 32.3094 118.226 32.2803 118.187C32.2512 118.149 32.2382 118.1 32.244 118.052C33.296 110.4 30.212 102 26.748 98.6C26.7151 98.5656 26.6969 98.5198 26.697 98.4722C26.6972 98.4246 26.7158 98.3789 26.7489 98.3447C26.7821 98.3106 26.8272 98.2906 26.8747 98.2889C26.9223 98.2873 26.9687 98.3042 27.004 98.336C30.532 101.784 33.676 110.336 32.604 118.104C32.5973 118.148 32.575 118.188 32.5412 118.216C32.5074 118.245 32.4644 118.261 32.42 118.26Z" fill="white"/>
<path d="M24.376 125.624C23.976 125.856 23.136 125.348 22.816 125.132C22.2678 124.758 21.8244 124.25 21.528 123.656C21.1996 122.981 21.0878 122.221 21.208 121.48C21.2721 121.089 21.3643 120.702 21.484 120.324L21.808 119.2C21.9374 118.837 21.9932 118.452 21.972 118.068C21.872 117.3 21.172 116.76 20.572 116.296C19.884 115.784 19.172 115.096 19.176 114.18C19.2222 113.464 19.5034 112.784 19.976 112.244C20.416 111.684 20.94 111.192 21.34 110.6C21.6535 110.188 21.8184 109.682 21.808 109.164C21.7635 108.846 21.656 108.54 21.492 108.264C21.1173 107.691 20.7895 107.09 20.512 106.464C20.284 105.816 20.316 105.012 20.824 104.548C21.0503 104.377 21.3085 104.254 21.5834 104.185C21.8583 104.117 22.1442 104.104 22.424 104.148C22.9496 104.21 23.4549 104.388 23.904 104.668C25.372 105.468 26.212 107.22 27.768 107.868C28.3878 108.058 29.0182 108.212 29.656 108.328C29.9728 108.387 30.2737 108.511 30.5396 108.693C30.8055 108.875 31.0304 109.11 31.2 109.384C31.772 110.528 30.712 111.932 31.116 113.148C31.472 114.22 32.512 114.628 33.116 115.596C33.3533 116.023 33.4486 116.515 33.388 117C33.3395 117.821 33.1402 118.627 32.8 119.376C32.4181 120.119 31.9823 120.833 31.496 121.512C31.464 121.536 24.436 125.6 24.376 125.624Z" fill="#641BB4"/>
<path d="M28.536 123.404C28.512 123.404 28.4884 123.398 28.4664 123.389C28.4445 123.379 28.4248 123.365 28.4084 123.347C28.392 123.33 28.3793 123.309 28.371 123.287C28.3626 123.264 28.3589 123.24 28.36 123.216C28.66 115.956 25.24 107.944 22.76 105.616C22.7427 105.6 22.7287 105.58 22.7189 105.559C22.7091 105.537 22.7037 105.514 22.703 105.49C22.7022 105.466 22.7062 105.442 22.7146 105.42C22.723 105.398 22.7357 105.377 22.752 105.36C22.7683 105.343 22.7878 105.329 22.8095 105.319C22.8312 105.309 22.8546 105.304 22.8783 105.303C22.9021 105.302 22.9258 105.306 22.948 105.315C22.9703 105.323 22.9907 105.336 23.008 105.352C25.544 107.724 29.036 115.872 28.728 123.228C28.7275 123.252 28.7221 123.276 28.7121 123.299C28.702 123.321 28.6876 123.341 28.6697 123.357C28.6517 123.374 28.6306 123.386 28.6076 123.394C28.5847 123.402 28.5603 123.406 28.536 123.404Z" fill="white"/>
<path d="M27.452 114.832H27.396C25.6761 114.358 23.9097 114.072 22.128 113.98C22.0844 113.974 22.0445 113.952 22.0157 113.918C21.9869 113.885 21.9711 113.842 21.9711 113.798C21.9711 113.754 21.9869 113.711 22.0157 113.678C22.0445 113.645 22.0844 113.623 22.128 113.616C23.9407 113.709 25.7379 113.999 27.488 114.48C27.5301 114.493 27.5661 114.52 27.5897 114.557C27.6133 114.595 27.6228 114.639 27.6165 114.682C27.6102 114.726 27.5885 114.766 27.5554 114.795C27.5223 114.824 27.48 114.84 27.436 114.84L27.452 114.832Z" fill="white"/>
<path d="M156.708 158.444C158.088 155.444 163.108 150.228 168.008 147.764C172.908 145.3 179.104 144.7 182.036 147.484C184.764 150.076 182.464 154.16 177.236 155.172C172.008 156.184 164.492 157.008 160.532 161.08L154.168 165.384L156.708 158.444Z" fill="#641BB4"/>
<path opacity="0.1" d="M156.708 158.444C158.088 155.444 163.108 150.228 168.008 147.764C172.908 145.3 179.104 144.7 182.036 147.484C184.764 150.076 182.464 154.16 177.236 155.172C172.008 156.184 164.492 157.008 160.532 161.08L154.168 165.384L156.708 158.444Z" fill="black"/>
<path d="M154.604 162.444C154.654 162.462 154.708 162.464 154.758 162.449C154.809 162.433 154.853 162.402 154.884 162.36C161.592 153.044 173.684 148.528 179.492 148.964C179.556 148.968 179.619 148.947 179.668 148.905C179.717 148.864 179.747 148.804 179.752 148.74C179.754 148.709 179.75 148.677 179.74 148.647C179.73 148.617 179.714 148.589 179.693 148.565C179.672 148.542 179.647 148.522 179.619 148.508C179.59 148.494 179.56 148.486 179.528 148.484C173.616 148.036 161.3 152.62 154.492 162.084C154.474 162.11 154.46 162.139 154.453 162.17C154.446 162.201 154.445 162.232 154.45 162.264C154.455 162.295 154.467 162.325 154.484 162.352C154.5 162.378 154.522 162.402 154.548 162.42C154.565 162.432 154.584 162.44 154.604 162.444Z" fill="white"/>
<path d="M153.124 169.696C154.38 168.232 157.716 166.396 162.1 165.628C166.952 164.776 172.148 165.748 174.132 164.264C176.512 162.48 175.54 159.316 171.544 158.048C167.548 156.78 158.52 158.888 153.888 166.172L153.124 169.696Z" fill="#641BB4"/>
<path d="M153.2 167.6C153.244 167.616 153.292 167.619 153.337 167.608C153.382 167.598 153.424 167.574 153.456 167.54C160.62 160.212 168.724 160.208 172.008 161.228C172.038 161.237 172.07 161.241 172.101 161.238C172.133 161.234 172.163 161.225 172.191 161.21C172.219 161.196 172.244 161.175 172.264 161.151C172.284 161.126 172.299 161.098 172.308 161.068C172.318 161.038 172.322 161.007 172.319 160.975C172.317 160.944 172.308 160.913 172.293 160.885C172.279 160.857 172.259 160.832 172.235 160.812C172.21 160.792 172.182 160.777 172.152 160.768C168.52 159.64 160.424 159.724 153.108 167.204C153.086 167.226 153.068 167.253 153.056 167.282C153.044 167.311 153.037 167.343 153.037 167.374C153.037 167.406 153.044 167.437 153.056 167.466C153.068 167.495 153.086 167.522 153.108 167.544C153.134 167.57 153.165 167.589 153.2 167.6Z" fill="white"/>
<path d="M80.496 132.092L85.192 134.8L83.628 135.704H89.884V132.092L88.32 132.996L83.628 130.284L80.496 132.092Z" fill="#641BB4"/>
<path d="M92.616 137.668C92.5485 137.668 92.4822 137.65 92.424 137.616L91.256 136.94C91.1711 136.886 91.1096 136.802 91.0836 136.705C91.0577 136.608 91.0692 136.505 91.116 136.416C91.1692 136.329 91.2534 136.266 91.3515 136.239C91.4496 136.213 91.5542 136.224 91.644 136.272L92.812 136.948C92.877 136.996 92.926 137.062 92.9526 137.138C92.9792 137.215 92.982 137.297 92.9608 137.375C92.9396 137.453 92.8953 137.523 92.8338 137.575C92.7722 137.627 92.6963 137.66 92.616 137.668Z" fill="#641BB4"/>
<path d="M141.828 166.08C141.76 166.08 141.694 166.062 141.636 166.028L139.384 164.728C139.319 164.665 139.278 164.582 139.266 164.493C139.254 164.404 139.273 164.313 139.32 164.236C139.366 164.158 139.437 164.099 139.521 164.067C139.606 164.035 139.698 164.033 139.784 164.06L142.032 165.36C142.097 165.407 142.146 165.474 142.173 165.549C142.199 165.625 142.203 165.708 142.182 165.785C142.161 165.863 142.117 165.933 142.056 165.985C141.995 166.038 141.92 166.071 141.84 166.08H141.828ZM136.36 162.92C136.293 162.92 136.227 162.904 136.168 162.872L133.916 161.572C133.858 161.554 133.806 161.523 133.762 161.481C133.718 161.44 133.684 161.389 133.663 161.332C133.642 161.276 133.633 161.215 133.639 161.155C133.644 161.095 133.663 161.037 133.694 160.985C133.725 160.933 133.767 160.889 133.818 160.856C133.868 160.823 133.925 160.802 133.985 160.794C134.045 160.786 134.106 160.792 134.163 160.811C134.22 160.83 134.273 160.862 134.316 160.904L136.568 162.204C136.632 162.252 136.679 162.318 136.705 162.394C136.731 162.47 136.733 162.551 136.712 162.628C136.691 162.705 136.647 162.774 136.587 162.826C136.526 162.878 136.451 162.911 136.372 162.92H136.36ZM130.892 159.764C130.824 159.764 130.758 159.746 130.7 159.712L128.448 158.4C128.363 158.346 128.302 158.262 128.276 158.165C128.25 158.068 128.261 157.965 128.308 157.876C128.362 157.79 128.446 157.728 128.544 157.702C128.642 157.676 128.747 157.688 128.836 157.736L131.088 159.036C131.152 159.084 131.199 159.15 131.225 159.226C131.251 159.302 131.253 159.383 131.232 159.46C131.211 159.537 131.167 159.606 131.107 159.658C131.046 159.71 130.971 159.743 130.892 159.752V159.764ZM125.424 156.608C125.356 156.608 125.29 156.59 125.232 156.556L122.98 155.256C122.895 155.202 122.834 155.118 122.808 155.021C122.782 154.924 122.793 154.821 122.84 154.732C122.893 154.645 122.977 154.582 123.075 154.555C123.174 154.529 123.278 154.54 123.368 154.588L125.616 155.888C125.681 155.935 125.73 156.002 125.757 156.077C125.783 156.153 125.787 156.236 125.766 156.313C125.745 156.391 125.701 156.461 125.64 156.513C125.579 156.566 125.504 156.599 125.424 156.608ZM119.956 153.452C119.888 153.452 119.822 153.434 119.764 153.4L117.512 152.1C117.447 152.037 117.406 151.954 117.394 151.865C117.382 151.776 117.401 151.685 117.448 151.608C117.494 151.53 117.565 151.471 117.649 151.439C117.734 151.407 117.826 151.405 117.912 151.432L120.164 152.732C120.25 152.786 120.312 152.87 120.338 152.968C120.364 153.066 120.352 153.17 120.304 153.26C120.268 153.319 120.217 153.368 120.155 153.402C120.094 153.436 120.026 153.453 119.956 153.452ZM114.488 150.296C114.421 150.295 114.355 150.277 114.296 150.244L112.044 148.944C111.986 148.926 111.934 148.895 111.89 148.853C111.846 148.812 111.812 148.761 111.791 148.704C111.77 148.648 111.761 148.587 111.767 148.527C111.772 148.467 111.791 148.409 111.822 148.357C111.853 148.305 111.895 148.261 111.946 148.228C111.996 148.195 112.053 148.174 112.113 148.166C112.173 148.158 112.234 148.164 112.291 148.183C112.348 148.202 112.401 148.234 112.444 148.276L114.696 149.576C114.781 149.63 114.842 149.713 114.868 149.81C114.894 149.908 114.883 150.011 114.836 150.1C114.8 150.16 114.749 150.21 114.688 150.244C114.627 150.279 114.558 150.297 114.488 150.296ZM109.02 147.136C108.953 147.136 108.887 147.12 108.828 147.088L106.576 145.788C106.511 145.725 106.47 145.642 106.458 145.553C106.446 145.464 106.465 145.373 106.512 145.296C106.558 145.218 106.629 145.159 106.713 145.127C106.798 145.095 106.89 145.093 106.976 145.12L109.228 146.42C109.292 146.468 109.339 146.534 109.365 146.61C109.391 146.686 109.393 146.767 109.372 146.844C109.351 146.921 109.307 146.99 109.247 147.042C109.186 147.094 109.111 147.127 109.032 147.136H109.02ZM103.552 144C103.484 144 103.418 143.982 103.36 143.948L101.108 142.648C101.023 142.594 100.962 142.51 100.936 142.413C100.91 142.316 100.921 142.213 100.968 142.124C101.021 142.037 101.105 141.974 101.203 141.947C101.302 141.921 101.406 141.932 101.496 141.98L103.748 143.28C103.813 143.328 103.862 143.394 103.889 143.47C103.915 143.547 103.918 143.629 103.897 143.707C103.876 143.785 103.831 143.855 103.77 143.907C103.708 143.959 103.632 143.992 103.552 144ZM98.084 140.844C98.0165 140.844 97.9501 140.826 97.892 140.792L95.64 139.492C95.5754 139.429 95.5339 139.346 95.5222 139.257C95.5105 139.168 95.5293 139.077 95.5756 139C95.6219 138.922 95.693 138.863 95.7772 138.831C95.8615 138.799 95.9541 138.797 96.04 138.824L98.292 140.124C98.3779 140.178 98.4401 140.262 98.4661 140.36C98.4921 140.458 98.4799 140.562 98.432 140.652C98.3933 140.708 98.3411 140.753 98.2802 140.783C98.2193 140.813 98.1518 140.827 98.084 140.824V140.844Z" fill="#641BB4"/>
<path d="M146.212 168.608C146.145 168.608 146.079 168.592 146.02 168.56L144.852 167.884C144.767 167.83 144.706 167.746 144.68 167.649C144.654 167.552 144.665 167.449 144.712 167.36C144.765 167.273 144.849 167.21 144.947 167.183C145.046 167.157 145.15 167.168 145.24 167.216L146.404 167.892C146.467 167.94 146.515 168.006 146.541 168.081C146.567 168.156 146.57 168.238 146.549 168.314C146.528 168.391 146.485 168.46 146.425 168.513C146.365 168.565 146.291 168.598 146.212 168.608Z" fill="#641BB4"/>
<path d="M171.72 67.728L171.36 67.52L160.184 61.12C157.598 59.4093 154.556 58.5185 151.456 58.564C147.548 58.564 143.604 59.98 138.96 62.564C122.732 71.556 108.868 97.484 108.868 114.508V119.2C108.868 139.832 136.004 165.016 136.004 165.016L147.256 171.516C147.261 171.524 147.269 171.53 147.277 171.533C147.286 171.537 147.295 171.538 147.304 171.536C146.928 171.092 159.26 153.1 170.904 118.004C183.76 79.14 171.96 67.952 171.72 67.728ZM152.728 129.416C143.528 134.724 135.836 131.944 133.656 123.38C129.444 122.8 126.4 119.56 125.46 114.24C124.28 97.04 133.408 83.364 146.48 77.812C152.08 75.776 156.752 77.228 159.256 81.436C166.936 80.116 172.432 85.38 172.432 95.292C172.432 107.852 163.6 123.14 152.728 129.416Z" fill="#455A64"/>
<path d="M172.432 95.2921C172.432 107.852 163.612 123.14 152.728 129.416C143.528 134.724 135.836 131.944 133.656 123.38C136.42 123.78 139.684 123.04 143.192 121.012C153.16 115.264 161.232 101.272 161.232 89.7761C161.232 86.3601 160.52 83.5481 159.256 81.4361C166.936 80.1161 172.432 85.3801 172.432 95.2921Z" fill="#263238"/>
<path d="M137.376 122.18L143.628 125.792V113.68L137.376 110.068V122.18Z" fill="#641BB4"/>
<path opacity="0.2" d="M137.376 122.18L143.628 125.792V113.68L137.376 110.068V122.18Z" fill="black"/>
<path d="M167.212 100.064L152.72 93.2721L138.228 116.8L143.628 113.68V125.792L150.476 121.84V113.916L154.96 111.328V119.248L161.816 115.288V103.176L167.212 100.064Z" fill="#641BB4"/>
<path d="M146.464 89.66L152.72 93.272L138.228 116.8L131.972 113.188L146.464 89.66Z" fill="#641BB4"/>
<path opacity="0.1" d="M146.464 89.66L152.72 93.272L138.228 116.8L131.972 113.188L146.464 89.66Z" fill="black"/>
<path d="M146.464 89.66L152.72 93.272L167.212 100.064L160.956 96.452L146.464 89.66Z" fill="#641BB4"/>
<path opacity="0.4" d="M146.464 89.66L152.72 93.272L167.212 100.064L160.956 96.452L146.464 89.66Z" fill="white"/>
<path d="M150.476 121.84L154.96 119.248V111.328L150.476 113.916V121.84Z" fill="#641BB4"/>
<path opacity="0.2" d="M150.476 121.84L154.96 119.248V111.328L150.476 113.916V121.84Z" fill="black"/>
<path d="M171.72 67.7281L171.36 67.5201C165.936 64.4721 158.688 64.8801 150.724 69.4721C138.724 76.4121 128.324 90.9881 123.408 106.272C121.456 112.332 120.632 115.54 120.632 121.4V126.108C120.632 142.008 138.36 163.396 146.652 171.032C146.837 171.204 147.04 171.357 147.256 171.488C147.261 171.496 147.269 171.502 147.277 171.505C147.286 171.509 147.295 171.51 147.304 171.508C147.788 171.807 148.329 172.001 148.893 172.078C149.457 172.155 150.03 172.113 150.577 171.955C151.123 171.797 151.63 171.526 152.066 171.159C152.501 170.793 152.855 170.339 153.104 169.828C160.248 155.2 181.08 111.1 181.08 94.0001V89.3081C181.08 78.7081 177.496 71.2001 171.72 67.7281ZM133.656 123.38C133.544 122.944 133.44 122.488 133.36 122.02C133.125 120.708 133.013 119.377 133.024 118.044C133.024 105.484 141.824 90.2001 152.728 83.9241C153.878 83.2581 155.082 82.6908 156.328 82.2281C157.28 81.8743 158.261 81.6066 159.26 81.4281C166.94 80.1081 172.436 85.3721 172.436 95.2841C172.436 107.844 163.616 123.132 152.732 129.408C143.54 134.724 135.836 131.944 133.656 123.38Z" fill="#37474F"/>
<path d="M72.24 51.032H63.84C62.0175 51.032 60.2695 50.308 58.9808 49.0193C57.692 47.7305 56.968 45.9826 56.968 44.16V42.22C56.968 40.1959 57.7721 38.2547 59.2034 36.8234C60.6347 35.3921 62.5759 34.588 64.6 34.588C66.6242 34.588 68.5654 35.3921 69.9967 36.8234C71.4279 38.2547 72.232 40.1959 72.232 42.22L72.24 51.032Z" fill="#263238"/>
<path d="M58.188 38.4201L56.4 37.4721C56.4565 37.3528 56.5366 37.2463 56.6354 37.1589C56.7343 37.0714 56.8498 37.005 56.9751 36.9635C57.1003 36.922 57.2327 36.9063 57.3642 36.9174C57.4956 36.9285 57.6235 36.9661 57.74 37.0281C57.9792 37.1582 58.1591 37.3753 58.2425 37.6344C58.3259 37.8936 58.3064 38.1749 58.188 38.4201Z" fill="#263238"/>
<path d="M58.336 38.62L56.456 39.324C56.4036 39.203 56.3763 39.0726 56.3756 38.9408C56.375 38.809 56.401 38.6783 56.4523 38.5569C56.5035 38.4354 56.5788 38.3255 56.6736 38.2339C56.7684 38.1423 56.8808 38.0709 57.004 38.024C57.2602 37.9348 57.5407 37.9469 57.7883 38.0576C58.0359 38.1684 58.2318 38.3696 58.336 38.62Z" fill="#263238"/>
<path d="M75.024 60.772L77.336 65.008L74.124 67.764L70.912 62.784L75.024 60.772Z" fill="#9A4A4D"/>
<path d="M68.5601 51.684C69.7601 51.788 71.0241 52.304 71.8921 54.084L75.4921 61.476C75.4921 61.476 74.8841 63.908 71.7161 64.232L70.4601 62.304L68.5601 51.684Z" fill="#641BB4"/>
<path opacity="0.1" d="M68.5601 51.684C69.7601 51.788 71.0241 52.304 71.8921 54.084L75.4921 61.476C75.4921 61.476 74.8841 63.908 71.7161 64.232L70.4601 62.304L68.5601 51.684Z" fill="black"/>
<path d="M47.2 109.84C46.596 109.528 46.216 110.292 45.668 110.908C45.268 111.336 44.688 112.02 44.6 112.508C44.468 113.236 45.124 114.376 45.848 115.008C46.572 115.64 47.412 116.088 47.676 117.468C47.94 118.848 48.476 119.668 49.908 120.288C51.476 120.964 53.576 120.748 54.288 120.288C55.132 119.74 54.36 119.144 53.18 117.452C51.636 115.244 50.432 113.664 50.432 111.604L47.2 109.84Z" fill="#263238"/>
<path d="M48.436 108.028L47.168 109.888C46.9 110.274 46.795 110.75 46.8759 111.213C46.9568 111.676 47.217 112.088 47.6 112.36L47.64 112.388C48.0248 112.619 48.4784 112.708 48.922 112.639C49.3656 112.571 49.7711 112.349 50.068 112.012L52.044 109.852L48.436 108.028Z" fill="#B16668"/>
<path d="M71.2241 72.768C71.3041 75.136 71.7201 83.768 69.9921 88.3C69.0335 90.8732 67.8279 93.3474 66.392 95.688C65.8761 96.572 51.0481 111.008 51.0481 111.008C51.0481 111.008 48.5281 110.824 48.1281 108.384C48.1281 108.384 54.2041 98.052 55.5201 95.936C56.8361 93.82 61.4961 90.568 61.4961 90.568L61.072 70.708L71.2241 72.768Z" fill="#37474F"/>
<path d="M68.4474 122.223L71.5834 121.51L70.5448 116.943L67.4089 117.656L68.4474 122.223Z" fill="#B16668"/>
<path d="M66.0001 80C67.0739 79.0082 68.0357 77.9016 68.8681 76.7C71.2681 73.388 70.8961 70.448 70.8961 70.448H69.9121L56.9481 70.712C55.6601 72.82 55.3801 76.016 55.8161 79.112C56.7161 85.572 62.0681 96.752 62.0681 96.752C61.9921 97.636 61.6201 101.348 62.4681 104.64C63.8001 109.84 67.4241 118.64 67.4241 118.64C67.4241 118.64 69.6921 118.964 70.8201 117.652C70.8201 117.652 68.8201 99.808 68.2721 95.252C67.6761 90.284 66.0001 80 66.0001 80Z" fill="#37474F"/>
<path d="M71.232 119.96L71.128 119.512C71.46 119.576 72.868 121.912 74.264 122.928C75.792 124.04 77.12 124.696 77.804 125.2C78.716 125.868 77.404 127.244 75.144 127.364C74.028 127.424 71.996 127.084 71.368 126.492C70.74 125.9 70.288 124.892 69.792 124.492C69.296 124.092 68.288 123.692 67.948 123.144C67.764 122.844 67.732 122.096 67.756 121.456C67.78 120.816 67.792 120.224 67.996 120.232C67.996 120.3 68.072 120.576 68.072 120.576C68.6625 120.874 69.3188 121.019 69.98 120.996C70.508 120.964 71.492 120.84 71.232 119.96Z" fill="#263238"/>
<path d="M67.864 92.204C67.864 92.204 66.352 81.464 66 80C66 80 68.664 78.984 69.484 78.056C69.484 78.056 68.9 79.356 66.992 80.512L67.864 92.204Z" fill="#263238"/>
<path d="M59.8561 91.788C59.8561 91.788 61.4161 95.88 62.0641 96.764C62.0641 96.764 61.9001 99.808 61.9241 100.424L61.0801 101.156C61.0801 101.156 61.0401 98.6 61.4801 97.052C60.7097 95.3763 60.1636 93.6064 59.8561 91.788Z" fill="#263238"/>
<path d="M70.4961 63.1561C70.7001 65.0361 71.2241 72.7561 71.2241 72.7561C65.0201 76.0681 57.3241 73.8721 56.1481 72.5081C56.7619 70.2576 57.9645 68.2113 59.6321 66.5801L57.6321 60.9801C57.6321 60.9801 57.3921 60.4041 57.3961 60.4001C57.5201 60.1921 60.5201 57.4881 59.0441 53.2001C58.9919 53.0444 58.9759 52.8789 58.9973 52.7161C59.0187 52.5533 59.0769 52.3976 59.1675 52.2607C59.2581 52.1237 59.3788 52.0093 59.5203 51.926C59.6618 51.8428 59.8204 51.7928 59.9841 51.7801L61.7641 51.6361L66.5961 51.4921C67.7481 51.5601 68.5721 51.6681 68.5721 51.6681C69.3121 52.3641 70.4801 54.2641 71.2361 56.2001C71.7121 57.4641 72.2401 59.4601 70.4961 63.1561Z" fill="#641BB4"/>
<path opacity="0.1" d="M58.9161 63.0081L59.6241 60.2681L60.5001 66.5961L58.7281 67.5801L59.6321 66.5921L58.7161 64.0361L58.9161 63.0081Z" fill="black"/>
<path d="M69.5121 37.912C70.3121 38.388 71.3161 40.416 71.2161 44.664C71.1321 48.264 69.9641 49.16 69.3801 49.416C68.7961 49.672 67.6641 49.516 66.5801 49.332V51.496C66.5801 51.496 68.2161 54.524 67.8481 55.732C67.0481 55.868 66.0441 55.332 64.6241 54.368C63.5678 53.579 62.6091 52.6673 61.7681 51.652L61.7921 46.68C61.7921 46.68 61.1441 47.308 60.0481 46.348C59.1441 45.548 58.8481 44.224 59.5441 43.504C59.7269 43.3338 59.9475 43.2095 60.1878 43.1413C60.4281 43.0732 60.6811 43.0631 60.9261 43.1119C61.171 43.1607 61.4009 43.2671 61.5966 43.4222C61.7924 43.5773 61.9485 43.7767 62.0521 44.004C62.0521 44.004 63.8081 44.072 66.1401 42.804C67.0472 42.3112 67.8254 41.6114 68.4113 40.7614C68.9972 39.9113 69.3743 38.9351 69.5121 37.912Z" fill="#B16668"/>
<path d="M67.2 43.7601C67.2015 43.8497 67.1765 43.9378 67.1282 44.0133C67.0799 44.0888 67.0104 44.1485 66.9284 44.1847C66.8464 44.2209 66.7555 44.2322 66.6672 44.2171C66.5788 44.202 66.4968 44.1611 66.4316 44.0997C66.3663 44.0382 66.3205 43.9589 66.3001 43.8716C66.2797 43.7843 66.2854 43.6929 66.3166 43.6089C66.3478 43.5248 66.4031 43.4518 66.4756 43.3991C66.548 43.3463 66.6345 43.316 66.724 43.3121C66.8464 43.3088 66.9651 43.3541 67.0543 43.438C67.1435 43.5219 67.1958 43.6377 67.2 43.7601Z" fill="#263238"/>
<g style="mix-blend-mode:multiply" opacity="0.5">
<path d="M67.3161 46.8L68.3681 47.136C68.3488 47.2062 68.3156 47.2718 68.2705 47.329C68.2254 47.3861 68.1693 47.4336 68.1056 47.4687C68.0418 47.5037 67.9716 47.5256 67.8992 47.5331C67.8268 47.5405 67.7537 47.5334 67.6841 47.512C67.5423 47.4644 67.4246 47.3634 67.3559 47.2305C67.2873 47.0977 67.273 46.9433 67.3161 46.8Z" fill="#9A4A4D"/>
</g>
<path d="M70.908 42.368L70 41.736C70.0381 41.6741 70.0884 41.6206 70.148 41.5789C70.2075 41.5372 70.275 41.5082 70.3462 41.4935C70.4175 41.4789 70.4909 41.479 70.5621 41.4939C70.6332 41.5088 70.7006 41.5381 70.76 41.58C70.8822 41.6664 70.966 41.797 70.9936 41.9441C71.0212 42.0911 70.9905 42.2432 70.908 42.368Z" fill="#263238"/>
<path d="M70.6961 43.432C70.701 43.4926 70.6937 43.5535 70.6747 43.6112C70.6558 43.6689 70.6254 43.7223 70.5856 43.7681C70.5457 43.8139 70.4971 43.8513 70.4425 43.8781C70.388 43.9049 70.3287 43.9205 70.268 43.924C70.1742 43.9327 70.0799 43.9131 69.9972 43.8677C69.9146 43.8223 69.8475 43.7532 69.8045 43.6693C69.7615 43.5854 69.7446 43.4906 69.756 43.397C69.7674 43.3034 69.8066 43.2154 69.8685 43.1443C69.9303 43.0731 70.0121 43.0222 70.1032 42.9979C70.1943 42.9737 70.2905 42.9773 70.3796 43.0082C70.4686 43.0392 70.5464 43.0961 70.6028 43.1717C70.6592 43.2472 70.6917 43.3379 70.6961 43.432Z" fill="#263238"/>
<g style="mix-blend-mode:multiply" opacity="0.5">
<path d="M68.5601 43.176L68.6321 45.9L70.0681 45.456L68.5601 43.176Z" fill="#9A4A4D"/>
</g>
<g style="mix-blend-mode:multiply" opacity="0.5">
<path d="M66.5641 49.332C65.4041 49.18 63.0201 48.496 62.6481 47.552C62.798 48.0278 63.0896 48.4465 63.4841 48.752C64.1961 49.36 66.5641 50.048 66.5641 50.048V49.332Z" fill="#9A4A4D"/>
</g>
<path d="M52.312 69.9681C52.34 69.5681 53.072 65.4201 53.572 63.0961L58.46 64.5921L57.66 67.8521L53.6 71.7841C53.1916 71.7079 52.8288 71.4758 52.5884 71.1368C52.348 70.7979 52.2489 70.3788 52.312 69.9681Z" fill="#B16668"/>
<path d="M59.972 51.796C58.096 51.96 55.624 52.24 54.448 57.58C53.344 62.584 53.072 64.332 53.072 64.332C53.072 64.332 54.516 66.16 58.252 65.96L59.624 60.268C62.124 56.976 61.32 54.62 59.972 51.796Z" fill="#641BB4"/>
<path d="M75.7761 66.096C76.4481 64.848 76.6161 64.792 77.0121 64.496C77.4081 64.2 79.8641 63.856 80.8801 63.772C82.0801 63.672 82.5001 63.892 82.1681 64.92C81.4561 67.12 79.2961 71.792 78.8121 72.44C78.4961 72.84 78.4321 73.24 77.0881 73.384C75.8321 73.508 74.2561 73.576 73.7921 73.604C73.3281 73.632 72.6881 73.748 73.1041 72.384C73.6333 70.8411 74.2463 69.3282 74.9401 67.852C75.4561 66.748 75.7761 66.096 75.7761 66.096Z" fill="#263238"/>
<path d="M57.6761 67.852C57.6761 67.852 68.5401 69 69.9441 68.564C71.3481 68.128 73.2441 66.72 74.2601 66.14C75.2761 65.56 76.0041 65.508 76.0041 65.74C76.0041 65.972 75.1361 67.312 74.9401 67.86C74.7441 68.408 75.8761 68.408 77.3641 68.068C78.8521 67.728 79.4481 66.868 79.8361 67.364C80.2241 67.86 79.0121 70.344 76.5401 71.268C74.0681 72.192 72.2321 71.58 70.1921 71.668C68.1521 71.756 56.4481 72.668 53.6121 71.776C53.5404 71.3246 53.5939 70.8622 53.7667 70.439C53.9395 70.0159 54.2249 69.6482 54.5921 69.376C55.5091 68.6689 56.5573 68.1509 57.6761 67.852Z" fill="#B16668"/>
<path d="M127.116 29.132L130.096 27.412C130.08 27.2914 130.072 27.1698 130.072 27.048V26.184C130.117 25.3497 130.358 24.5377 130.774 23.8136C131.191 23.0895 131.773 22.4737 132.472 22.016C132.68 21.8756 132.915 21.7788 133.162 21.7314C133.409 21.6839 133.662 21.6869 133.908 21.74C134.128 19.556 135.64 17.088 137.48 16.028C139.48 14.88 141.08 15.808 141.08 18.108V19.396C141.072 20.0239 140.97 20.6469 140.776 21.244L143.252 19.816C143.988 19.392 144.584 19.736 144.584 20.588C144.559 21.0509 144.425 21.5015 144.194 21.9031C143.963 22.3048 143.64 22.6463 143.252 22.9L127.116 32.216C126.38 32.64 125.784 32.296 125.784 31.444C125.809 30.9812 125.942 30.5306 126.174 30.129C126.405 29.7273 126.728 29.3858 127.116 29.132Z" fill="#F0F0F0"/>
<path d="M112.848 49.136L115.096 47.836C115.083 47.7446 115.076 47.6524 115.076 47.56V46.912C115.11 46.2816 115.293 45.6682 115.608 45.1213C115.924 44.5744 116.364 44.1095 116.892 43.764C117.049 43.6577 117.226 43.5844 117.413 43.5487C117.599 43.5129 117.791 43.5154 117.976 43.556C118.087 42.6852 118.386 41.8488 118.851 41.1044C119.317 40.36 119.938 39.7253 120.672 39.244C122.172 38.376 123.392 39.08 123.392 40.812V41.788C123.385 42.2611 123.307 42.7304 123.16 43.18L125.028 42.104C125.584 41.784 126.036 42.044 126.036 42.684C126.017 43.034 125.915 43.3745 125.74 43.6782C125.565 43.9818 125.321 44.24 125.028 44.432L112.848 51.46C112.292 51.784 111.84 51.524 111.84 50.88C111.859 50.5305 111.96 50.1904 112.135 49.8873C112.31 49.5843 112.555 49.3269 112.848 49.136Z" fill="#F0F0F0"/>
</svg>
