<svg width="61" height="44" viewBox="0 0 61 44" fill="none" xmlns="http://www.w3.org/2000/svg">
<rect x="0.295044" width="60" height="44" rx="10" fill="#ECECEC"/>
<path d="M35.3451 30.28C34.3651 31.23 33.2951 31.08 32.2651 30.63C31.1751 30.17 30.1751 30.15 29.0251 30.63C27.5851 31.25 26.8251 31.07 25.9651 30.28C21.0851 25.25 21.8051 17.59 27.3451 17.31C28.6951 17.38 29.6351 18.05 30.4251 18.11C31.6051 17.87 32.7351 17.18 33.9951 17.27C35.5051 17.39 36.6451 17.99 37.3951 19.07C34.2751 20.94 35.0151 25.05 37.8751 26.2C37.3051 27.7 36.5651 29.19 35.3351 30.29L35.3451 30.28ZM30.3251 17.25C30.1751 15.02 31.9851 13.18 34.0651 13C34.3551 15.58 31.7251 17.5 30.3251 17.25Z" fill="black"/>
</svg>
