<?xml version="1.0" encoding="UTF-8"?>
<svg version="1.1" xmlns="http://www.w3.org/2000/svg" width="193" height="139">
<path d="M0 0 C2.25788229 1.36676377 4.19863077 2.69101329 6.25 4.3125 C6.79140625 4.71662109 7.3328125 5.12074219 7.890625 5.53710938 C10.59835688 7.61867826 11.89744622 8.69233867 13 12 C13.09610691 14.71926022 13.13933225 17.40664954 13.125 20.125 C13.13080078 21.23681641 13.13080078 21.23681641 13.13671875 22.37109375 C13.1266598 27.8733402 13.1266598 27.8733402 12 29 C10.48071962 29.07179964 8.95832518 29.08392007 7.4375 29.0625 C6.61121094 29.05347656 5.78492187 29.04445313 4.93359375 29.03515625 C3.97646484 29.01775391 3.97646484 29.01775391 3 29 C3 31.31 3 33.62 3 36 C-0.96 36 -4.92 36 -9 36 C-9 33.69 -9 31.38 -9 29 C-9.63808594 29.01160156 -10.27617187 29.02320312 -10.93359375 29.03515625 C-12.17302734 29.04869141 -12.17302734 29.04869141 -13.4375 29.0625 C-14.67306641 29.07990234 -14.67306641 29.07990234 -15.93359375 29.09765625 C-18 29 -18 29 -19 28 C-19.12713954 25.38329079 -19.18521024 22.80469287 -19.1875 20.1875 C-19.19974609 19.46240234 -19.21199219 18.73730469 -19.22460938 17.99023438 C-19.24403712 10.91205973 -19.24403712 10.91205973 -17 8 C-14.35546875 5.859375 -14.35546875 5.859375 -11.1875 3.75 C-10.14980469 3.04359375 -9.11210937 2.3371875 -8.04296875 1.609375 C-4.83567077 -0.08691097 -3.52716046 -0.70983416 0 0 Z M-6.109375 13.08203125 C-8.31436801 14.92976808 -8.31436801 14.92976808 -8.390625 18.13671875 C-8.34421875 19.30847656 -8.2978125 20.48023438 -8.25 21.6875 C-8.21390625 22.86699219 -8.1778125 24.04648438 -8.140625 25.26171875 C-8.09421875 26.16535156 -8.0478125 27.06898437 -8 28 C-4.7 28 -1.4 28 2 28 C2.1080023 25.89695523 2.18558987 23.79233091 2.25 21.6875 C2.31960937 19.92986328 2.31960937 19.92986328 2.390625 18.13671875 C2.31436801 14.92976808 2.31436801 14.92976808 0.109375 13.08203125 C-2.62537888 11.6792038 -3.37462112 11.6792038 -6.109375 13.08203125 Z " fill="#052F40" transform="translate(27,56)"/>
<path d="M0 0 C1.98 0 3.96 0 6 0 C7.32 4.62 8.64 9.24 10 14 C11.59035502 10.81928996 12.64848268 8.12342347 13.625 4.75 C13.88539062 3.85796875 14.14578125 2.9659375 14.4140625 2.046875 C14.60742188 1.37140625 14.80078125 0.6959375 15 0 C16.98 0 18.96 0 21 0 C21 9.57 21 19.14 21 29 C19.02 29 17.04 29 15 29 C14.67 28.01 14.34 27.02 14 26 C13.67 26.99 13.34 27.98 13 29 C11.35 29 9.7 29 8 29 C7.67 27.68 7.34 26.36 7 25 C6.67 26.32 6.34 27.64 6 29 C4.02 29 2.04 29 0 29 C0 19.43 0 9.86 0 0 Z " fill="#FFFFFF" transform="translate(81,62)"/>
<path d="M0 0 C1.98 0 3.96 0 6 0 C6 4.29 6 8.58 6 13 C6.66 13 7.32 13 8 13 C8 8.71 8 4.42 8 0 C9.98 0 11.96 0 14 0 C14 10.56 14 21.12 14 32 C12.02 32 10.04 32 8 32 C8 27.71 8 23.42 8 19 C7.34 19 6.68 19 6 19 C6.01160156 19.85464844 6.02320313 20.70929688 6.03515625 21.58984375 C6.04417969 22.69457031 6.05320312 23.79929687 6.0625 24.9375 C6.07410156 26.03964844 6.08570313 27.14179687 6.09765625 28.27734375 C6 31 6 31 5 32 C3.35 32 1.7 32 0 32 C0 21.44 0 10.88 0 0 Z " fill="#FFFFFF" transform="translate(47,59)"/>
<path d="M0 0 C2.15649414 1.19726562 2.15649414 1.19726562 4 3 C4.50170898 5.40429688 4.50170898 5.40429688 4.49609375 8.21875 C4.49673828 9.23324219 4.49738281 10.24773437 4.49804688 11.29296875 C4.47806641 12.35128906 4.45808594 13.40960938 4.4375 14.5 C4.44458984 15.55832031 4.45167969 16.61664063 4.45898438 17.70703125 C4.39466699 25.49438217 4.39466699 25.49438217 2.59399414 27.80126953 C0.60597353 29.29631949 -0.53148694 29.40305128 -3 29.375 C-3.680625 29.38273437 -4.36125 29.39046875 -5.0625 29.3984375 C-7.62668755 28.87112474 -8.39465239 28.05665127 -10 26 C-10.63908587 22.19714947 -10.46329513 18.35050963 -10.4375 14.5 C-10.45748047 13.44167969 -10.47746094 12.38335937 -10.49804688 11.29296875 C-10.49740234 10.27847656 -10.49675781 9.26398438 -10.49609375 8.21875 C-10.49794678 7.28998047 -10.4997998 6.36121094 -10.50170898 5.40429688 C-10 3 -10 3 -8.15649414 1.19726562 C-5.22703531 -0.42914286 -3.30401004 -0.41300126 0 0 Z M-4 5 C-4 11.27 -4 17.54 -4 24 C-3.34 24 -2.68 24 -2 24 C-2 18.06 -2 12.12 -2 6 C-2.66 5.67 -3.32 5.34 -4 5 Z " fill="#FFFFFF" transform="translate(74,62)"/>
<path d="M0 0 C1.134375 0.020625 2.26875 0.04125 3.4375 0.0625 C4.08827173 3.22817207 4.7321984 6.39520077 5.375 9.5625 C5.55740234 10.449375 5.73980469 11.33625 5.92773438 12.25 C6.99086039 17.50764138 7.9532227 22.71705946 8.4375 28.0625 C7.4375 29.0625 7.4375 29.0625 4.9375 29.1875 C2.4375 29.0625 2.4375 29.0625 1.4375 28.0625 C1.39686168 26.39632885 1.394779 24.72861905 1.4375 23.0625 C0.4475 23.3925 -0.5425 23.7225 -1.5625 24.0625 C-1.8925 25.7125 -2.2225 27.3625 -2.5625 29.0625 C-4.5425 29.0625 -6.5225 29.0625 -8.5625 29.0625 C-8.13760106 22.27876862 -7.23177127 15.62719587 -6.0625 8.9375 C-5.93190186 8.17896729 -5.80130371 7.42043457 -5.66674805 6.63891602 C-4.48870832 0.07874927 -4.48870832 0.07874927 0 0 Z M-0.5625 15.0625 C0.4375 18.0625 0.4375 18.0625 0.4375 18.0625 Z " fill="#FFFFFF" transform="translate(143.5625,61.9375)"/>
<path d="M0 0 C1.875 1.0625 1.875 1.0625 3 3 C3.6875 6.6875 3.6875 6.6875 4 10 C2.35 10.66 0.7 11.32 -1 12 C-0.360625 12.515625 0.27875 13.03125 0.9375 13.5625 C3.62729509 16.74134874 3.85528526 18.87562997 4 23 C3.1875 25.875 3.1875 25.875 2 28 C-1.19405084 29.59702542 -4.53271429 29.50343003 -8 29 C-10 27.375 -10 27.375 -11 25 C-11.1875 21.75 -11.1875 21.75 -11 19 C-9.02 19 -7.04 19 -5 19 C-5 20.65 -5 22.3 -5 24 C-4.34 24 -3.68 24 -3 24 C-3.1381855 21.02901177 -3.2585117 18.78174052 -5.3671875 16.55859375 C-6.88668086 15.34081797 -8.44218863 14.16835853 -10 13 C-11.22975728 10.54048544 -11.01468511 9.21743376 -10.75 6.5 C-10.68296875 5.7059375 -10.6159375 4.911875 -10.546875 4.09375 C-9.20031079 -1.06166725 -4.35149374 -0.38852623 0 0 Z M-4 5 C-4.33 6.65 -4.66 8.3 -5 10 C-4.01 10.495 -4.01 10.495 -3 11 C-3 9.02 -3 7.04 -3 5 C-3.33 5 -3.66 5 -4 5 Z " fill="#FFFFFF" transform="translate(164,62)"/>
<path d="M0 0 C1.65322266 0.01740234 1.65322266 0.01740234 3.33984375 0.03515625 C4.99693359 0.04869141 4.99693359 0.04869141 6.6875 0.0625 C7.54214844 0.07410156 8.39679688 0.08570313 9.27734375 0.09765625 C9.65953142 1.75380282 9.99129477 3.42222649 10.27734375 5.09765625 C9.27734375 6.09765625 9.27734375 6.09765625 6.21484375 6.16015625 C5.24546875 6.13953125 4.27609375 6.11890625 3.27734375 6.09765625 C3.27734375 8.07765625 3.27734375 10.05765625 3.27734375 12.09765625 C5.25734375 12.09765625 7.23734375 12.09765625 9.27734375 12.09765625 C9.27734375 13.74765625 9.27734375 15.39765625 9.27734375 17.09765625 C7.29734375 17.09765625 5.31734375 17.09765625 3.27734375 17.09765625 C3.27734375 19.07765625 3.27734375 21.05765625 3.27734375 23.09765625 C5.25734375 23.09765625 7.23734375 23.09765625 9.27734375 23.09765625 C9.65953142 24.75380282 9.99129477 26.42222649 10.27734375 28.09765625 C9.27734375 29.09765625 9.27734375 29.09765625 6.3359375 29.1953125 C5.14097656 29.18371094 3.94601563 29.17210938 2.71484375 29.16015625 C0.91853516 29.14662109 0.91853516 29.14662109 -0.9140625 29.1328125 C-1.84089844 29.12121094 -2.76773438 29.10960938 -3.72265625 29.09765625 C-3.74731506 25.12834636 -3.76549648 21.15906591 -3.77758789 17.18969727 C-3.78262682 15.83845239 -3.78945802 14.48721299 -3.7980957 13.13598633 C-3.81018044 11.19745191 -3.81535453 9.25887825 -3.8203125 7.3203125 C-3.82554932 6.15250244 -3.83078613 4.98469238 -3.83618164 3.78149414 C-3.68244181 0.14695221 -3.6406551 0.13058304 0 0 Z " fill="#FFFFFF" transform="translate(173.72265625,61.90234375)"/>
<path d="M0 0 C4.29 0 8.58 0 13 0 C13 1.65 13 3.3 13 5 C10.69 5 8.38 5 6 5 C6 7.64 6 10.28 6 13 C7.98 13 9.96 13 12 13 C12.042721 14.66611905 12.04063832 16.33382885 12 18 C11 19 11 19 8.4375 19.0625 C7.633125 19.041875 6.82875 19.02125 6 19 C6 21.31 6 23.62 6 26 C8.31 26 10.62 26 13 26 C13 27.98 13 29.96 13 32 C8.71 32 4.42 32 0 32 C0 21.44 0 10.88 0 0 Z " fill="#FFFFFF" transform="translate(121,59)"/>
<path d="M0 0 C4.29 0 8.58 0 13 0 C13 1.65 13 3.3 13 5 C12 6 12 6 8.9375 6.0625 C7.968125 6.041875 6.99875 6.02125 6 6 C6 7.98 6 9.96 6 12 C7.98 12 9.96 12 12 12 C12 13.65 12 15.3 12 17 C10.02 17 8.04 17 6 17 C6 18.98 6 20.96 6 23 C8.31 23 10.62 23 13 23 C13 24.98 13 26.96 13 29 C8.71 29 4.42 29 0 29 C0 19.43 0 9.86 0 0 Z " fill="#FFFFFF" transform="translate(105,62)"/>
<path d="M0 0 C3.96 0 7.92 0 12 0 C12 2.64 12 5.28 12 8 C8.04 8 4.08 8 0 8 C0 5.36 0 2.72 0 0 Z " fill="#FEFEFE" transform="translate(18,84)"/>
</svg>
